<svg xmlns="http://www.w3.org/2000/svg" width="64" height="64" viewBox="0 0 64 64">
    <g fill="none" fill-rule="nonzero">
        <path fill="#397431" d="M34 44a6 6 0 1 0 0-12 6 6 0 0 0 0 12zm0-2.132a3.868 3.868 0 1 1 0-7.736 3.868 3.868 0 0 1 0 7.736zM44.754 28h3.492c.416 0 .754-.448.754-1s-.338-1-.754-1h-3.492c-.416 0-.754.448-.754 1s.338 1 .754 1zM25.995 16h23.01c.55 0 .995-.448.995-1s-.446-1-.995-1h-23.01A.998.998 0 0 0 25 15c0 .552.446 1 .995 1z"/>
        <path fill="#373737" d="M7.226 11.334l30.033 7.562c3.392 1.004 5.796 4.114 5.932 7.713v20.82a1.03 1.03 0 0 0 0 .038v6.935c.07 1.193-.31 2.306-1.056 3.154a4.227 4.227 0 0 1-2.918 1.433 4.476 4.476 0 0 1-1.477-.18L12.004 52.7c-3.425-.924-5.875-4.014-6.013-7.615V14.971a5.978 5.978 0 0 1 1.235-3.637zm4.676-2.327h39.2c3.26.013 5.9 2.678 5.906 5.966v25.52c-.006 3.284-2.648 5.945-5.908 5.951h-5.92l.002-19.873c-.17-4.5-3.149-8.354-7.401-9.611L9.086 9.734a5.873 5.873 0 0 1 2.816-.727zm39.2 39.444c4.36-.008 7.89-3.565 7.898-7.956V14.971c-.008-4.393-3.535-7.954-7.894-7.971H11.898c-4.363.017-7.89 3.578-7.898 7.97v30.155c.172 4.519 3.22 8.363 7.519 9.522l25.713 6.101a6.353 6.353 0 0 0 2.092.244 6.22 6.22 0 0 0 4.303-2.106 6.307 6.307 0 0 0 1.553-4.545v-5.89h5.922z"/>
    </g>
</svg>
