<?xml version="1.0" encoding="UTF-8"?>
<svg version="1.1" viewBox="0 0 80 80" xmlns="http://www.w3.org/2000/svg">
<title>Pictogram/ Page 2/ Step 3/ 3@1x</title>
<desc>Created with Sketch.</desc>
<g fill="none" fill-rule="evenodd">
<g transform="translate(0)">
<path d="m57.528 17.978c3.3096 0 5.9925-2.6829 5.9925-5.9925 0-3.3096-2.6829-5.9925-5.9925-5.9925s-5.9925 2.6829-5.9925 5.9925c0 3.3096 2.6829 5.9925 5.9925 5.9925zm0-2.9963c-1.6548 0-2.9963-1.3415-2.9963-2.9963 0-1.6548 1.3415-2.9963 2.9963-2.9963s2.9963 1.3415 2.9963 2.9963c0 1.6548-1.3415 2.9963-2.9963 2.9963z" fill="#363636" fill-rule="nonzero"/>
<path id="a" d="m38.052 13.39v-8.8959c0-0.82739 0.67073-1.4981 1.4981-1.4981h35.955c0.82739 0 1.4981 0.67073 1.4981 1.4981v20.974c0 0.82739-0.67073 1.4981-1.4981 1.4981h-19.383c-0.82739 0-1.4981 0.67073-1.4981 1.4981s0.67073 1.4981 1.4981 1.4981h19.383c2.4822 0 4.4944-2.0122 4.4944-4.4944v-20.974c0-2.4822-2.0122-4.4944-4.4944-4.4944h-35.955c-2.4822 0-4.4944 2.0122-4.4944 4.4944v8.8959c0 0.82739 0.67073 1.4981 1.4981 1.4981s1.4981-0.67073 1.4981-1.4981z" fill="#363636" fill-rule="nonzero"/>
<path d="m20.675 19.775h23.97c2.4822 0 4.4944 2.0122 4.4944 4.4944v14.981c0 2.4822-2.0122 4.4944-4.4944 4.4944h-23.97c-2.4822 0-4.4944-2.0122-4.4944-4.4944v-14.981c0-2.4822 2.0122-4.4944 4.4944-4.4944zm0 2.9963c-0.82739 0-1.4981 0.67073-1.4981 1.4981v14.981c0 0.82739 0.67073 1.4981 1.4981 1.4981h23.97c0.82739 0 1.4981-0.67073 1.4981-1.4981v-14.981c0-0.82739-0.67073-1.4981-1.4981-1.4981h-23.97z" fill="#397431" fill-rule="nonzero"/>
<path d="m22 66.517c1.228 0 2.2247 0.99667 2.2247 2.2247 0 1.228-0.99667 2.2247-2.2247 2.2247s-2.2247-0.99667-2.2247-2.2247c0-1.228 0.99667-2.2247 2.2247-2.2247" fill="#373737"/>
<path d="m18.235 25.875c-0.76822-0.30729-1.6401 0.066371-1.9474 0.83459s0.066371 1.6401 0.83459 1.9474l14.981 5.9925c0.35717 0.14287 0.75561 0.14287 1.1128 0l14.981-5.9925c0.76822-0.30729 1.1419-1.1792 0.83459-1.9474s-1.1792-1.1419-1.9474-0.83459l-14.425 5.77-14.425-5.77z" fill="#397431" fill-rule="nonzero"/>
<path d="m2.9663 69.169c0 2.4531 1.9963 4.4494 4.4494 4.4494h26.697c2.4531 0 4.4494-1.9963 4.4494-4.4494v-4.4494h-35.596v4.4494zm4.4494 7.4157c-4.0905 0-7.4157-3.3282-7.4157-7.4157v-56.36c0-4.0905 3.3252-7.4157 7.4157-7.4157h16.315c0.8187 0 1.4831 0.66445 1.4831 1.4831 0 0.81573-0.66445 1.4831-1.4831 1.4831h-16.315c-2.4531 0-4.4494 1.9963-4.4494 4.4494v48.944h35.596v-13.348c0-0.8187 0.66445-1.4831 1.4831-1.4831s1.4831 0.66445 1.4831 1.4831v20.764c0 4.0876-3.3282 7.4157-7.4157 7.4157h-26.697z" fill="#373737"/>
</g>
</g>
</svg>
