<svg xmlns="http://www.w3.org/2000/svg" width="64" height="64" viewBox="0 0 64 64">
    <g fill="none" fill-rule="nonzero">
        <path fill="#397431" d="M32 43c9.082 0 16.779 6.337 17.99 14.86a1 1 0 0 1-1.98.28C46.942 50.628 40.107 45 32 45c-8.107 0-14.942 5.627-16.01 13.14a1 1 0 0 1-1.98-.28C15.22 49.336 22.918 43 32 43zm0-21c5.525 0 10 4.475 10 10s-4.475 10-10 10-10-4.475-10-10 4.475-10 10-10zm0 2c-4.42 0-8 3.58-8 8s3.58 8 8 8 8-3.58 8-8-3.58-8-8-8z"/>
        <path fill="#373737" d="M31.996 0a6.995 6.995 0 0 1 6.995 6.865c.006.044.009.088.009.133V8h11.82c2.786 0 5.06 2.186 5.175 4.933l.005.218V58.85C56 61.695 53.682 64 50.82 64H13.18C10.32 64 8 61.698 8 58.849V13.15C8 10.305 10.318 8 13.18 8H25V6.998A6.996 6.996 0 0 1 31.756.004zM39 14.998A3.001 3.001 0 0 1 35.999 18H28A3.001 3.001 0 0 1 25 14.998V10H13.18c-1.7 0-3.082 1.317-3.175 2.973L10 13.15V58.85C10 60.589 11.422 62 13.18 62h37.64c1.76 0 3.18-1.412 3.18-3.151V13.15C54 11.411 52.578 10 50.82 10H39zM31.996 2A4.996 4.996 0 0 0 27 6.998v8c0 .553.447 1.002 1.001 1.002H36C36.55 16 37 15.552 37 14.998V7.121a1.01 1.01 0 0 1-.007-.123A4.996 4.996 0 0 0 31.996 2z"/>
    </g>
</svg>
