<svg xmlns="http://www.w3.org/2000/svg" width="64" height="64" viewBox="0 0 64 64">
    <g fill="none" fill-rule="nonzero">
        <path fill="#397431" d="M46.5 26C52.851 26 58 31.149 58 37.5c0 3.413-1.486 6.478-3.847 8.584l1.8 14.528a2.86 2.86 0 0 1-1.517 3.057 2.942 2.942 0 0 1-3.404-.504l-4.53-4.424-4.531 4.424a2.957 2.957 0 0 1-3.4.513c-1.14-.585-1.759-1.827-1.53-3.008l1.805-14.584A11.47 11.47 0 0 1 35 37.5C35 31.149 40.149 26 46.5 26zm5.805 21.43A11.447 11.447 0 0 1 46.5 49c-2.118 0-4.101-.571-5.805-1.569l-1.68 13.55a.85.85 0 0 0 .466.916.956.956 0 0 0 1.092-.163l5.23-5.106a1 1 0 0 1 1.397 0l5.23 5.106a.945.945 0 0 0 1.092.156c.344-.175.532-.552.456-.974zM46.5 28a9.5 9.5 0 0 0-9.5 9.5c0 5.252 4.25 9.5 9.5 9.5a9.5 9.5 0 0 0 9.5-9.5 9.5 9.5 0 0 0-9.5-9.5z"/>
        <path fill="#373737" d="M27.36 53H10.27C8.456 53 7 51.611 7 49.925V5.075C7 3.39 8.455 2 10.27 2h30.278c.875 0 1.717.332 2.336.917l8.178 7.804A2.98 2.98 0 0 1 52 12.882v8.509a1 1 0 0 0 2 0v-8.509a4.98 4.98 0 0 0-1.557-3.608L44.26 1.467A5.411 5.411 0 0 0 40.548 0H10.27C7.37 0 5 2.263 5 5.075v44.85C5 52.737 7.371 55 10.27 55h17.09a1 1 0 0 0 0-2z"/>
    </g>
</svg>
