<svg xmlns="http://www.w3.org/2000/svg" width="64" height="64" viewBox="0 0 64 64">
    <g fill="none" fill-rule="nonzero">
        <path fill="#397431" d="M41.707 60.707a1 1 0 0 1-1.414 0l-4-4a1 1 0 0 1 0-1.414l4-4a1 1 0 0 1 1.414 1.414l-2.293 2.294.59-.001c4.894-.03 8.858-3.911 8.993-8.735l.003-.264A1 1 0 1 1 51 46c.008 6.048-4.902 10.963-10.99 11.001l-.594.001 2.291 2.292a1 1 0 0 1 .083 1.32zM22.293 3.293a1 1 0 0 1 1.414 0l4 4a1 1 0 0 1 0 1.414l-4 4a1 1 0 0 1-1.414-1.414l2.293-2.294-.59.001c-4.894.03-8.858 3.911-8.993 8.735l-.003.264A1 1 0 1 1 13 18C12.992 11.953 17.902 7.038 23.99 7l.594-.001-2.291-2.292a1 1 0 0 1-.083-1.32z"/>
        <path fill="#373737" d="M41.082 1h13.836c2.196 0 3.971 1.785 4.077 4.009l.005.21v30.563c0 2.25-1.71 4.103-3.878 4.213l-.204.005H44.95a1 1 0 0 1-.117-1.993L44.95 38h9.968c1.09 0 2-.9 2.077-2.059l.005-.16V33H42a1 1 0 0 1-.117-1.993L42 31h15V5.218c0-1.18-.862-2.132-1.935-2.212L54.918 3H41.082c-1.09 0-2 .9-2.077 2.059l-.005.16v13.83a1 1 0 0 1-1.993.117L37 19.049V5.22c0-2.25 1.71-4.104 3.878-4.214L41.082 1h13.836zm6.413 33c.096 0 .189.012.277.035A1.495 1.495 0 0 1 49 35.505c0 .826-.669 1.495-1.46 1.494a1.494 1.494 0 0 1-1.102-.437 1.475 1.475 0 0 1-.437-1.068C46 34.67 46.67 34 47.495 34z"/>
        <path fill="#373737" d="M32 25a1 1 0 0 1 .993.883L33 26v1.005h1.4a1 1 0 0 1 .992.884l.007.116a1 1 0 0 1-.883.993l-.117.007-3.201-.002c-.597-.038-1.093.28-1.183.66-.073.305.136.646.602.824l.133.044 3.246 1.076c1.403.475 2.255 1.802 1.94 3.174-.293 1.268-1.493 2.148-2.865 2.215l-.071.001V38a1 1 0 0 1-.883.993L32 39a1 1 0 0 1-1-1v-1h-1.3a1 1 0 0 1-.117-1.993L29.7 35h3.188c.567.003 1.015-.308 1.098-.668.066-.286-.116-.605-.503-.78l-.122-.049-3.2-1.06c-1.494-.426-2.434-1.807-2.092-3.242.31-1.303 1.573-2.181 2.932-2.202L31 26a1 1 0 0 1 1-1zm0 18c6.075 0 11-4.925 11-11s-4.925-11-11-11-11 4.925-11 11 4.925 11 11 11zm0-2a9 9 0 1 1 0-18 9 9 0 0 1 0 18z"/>
        <path fill="#373737" d="M9.232 23h10.772a1 1 0 0 1 .117 1.993l-.117.007H9.232c-1.177 0-2.148.943-2.227 2.146L7 27.305V54h19v-9a1 1 0 0 1 1.993-.117L28 45v13.695c0 2.303-1.78 4.191-4.026 4.3l-.206.005H9.232c-2.274 0-4.12-1.82-4.227-4.097L5 58.695v-31.39c0-2.303 1.78-4.191 4.026-4.3L9.232 23h10.772zM26 56H7v2.695c0 1.225.922 2.219 2.08 2.3l.152.005h14.536c1.177 0 2.148-.943 2.227-2.147l.005-.158V56zm-9.505 1c.096 0 .189.012.277.035A1.495 1.495 0 0 1 18 58.505c0 .826-.669 1.495-1.46 1.494a1.494 1.494 0 0 1-1.102-.437 1.475 1.475 0 0 1-.437-1.068C15 57.67 15.67 57 16.495 57z"/>
    </g>
</svg>
