<svg xmlns="http://www.w3.org/2000/svg" width="64" height="64" viewBox="0 0 64 64">
    <g fill="none" fill-rule="nonzero">
        <path fill="#397431" d="M18.555 16.618A.99.99 0 0 1 19.47 16h27.54c.614 0 1.08.561.977 1.175l-6.747 39.99a.995.995 0 0 1-.977.835H2.992c-.708 0-1.187-.731-.914-1.394l16.477-39.988zm1.574 1.393L4.479 55.99h34.948l6.407-37.978H20.13z"/>
        <path fill="#397431" d="M29.194 25.12a1.044 1.044 0 1 1 2.056.36l-.524 3.014c.936.189 1.92.446 2.953.773.55.174.855.762.682 1.314-.173.551-.76.858-1.309.684-1.693-.535-3.225-.867-4.593-.998-2.015-.192-3.4.251-3.827 1.159-.77 1.635-.12 2.967 3.165 4.093 4.528 1.553 5.935 4.466 4.664 7.159-.86 1.824-2.952 2.697-5.404 2.405l-.431 2.477a1.044 1.044 0 0 1-2.07-.247l.013-.114.432-2.475a74.9 74.9 0 0 1-3.36-.752 1.048 1.048 0 0 1 .497-2.034c1.812.446 3.44.788 4.886 1.026 1.772.29 3.094-.217 3.55-1.183.716-1.515-.058-3.115-3.452-4.28-4.414-1.514-5.703-4.153-4.378-6.97.896-1.904 3.12-2.615 5.912-2.35l.005.002z"/>
        <path fill="#373737" d="M3.025 8H61v18h-6.804a1 1 0 0 0 0 2H62a1 1 0 0 0 1-1V7a1 1 0 0 0-1-1H2a1 1 0 0 0-1 1.025l.5 19.919a1 1 0 0 0 .972.974L5.475 28a1 1 0 0 0 .054-2l-2.054-.055L3.025 8z"/>
    </g>
</svg>
