<?xml version="1.0" encoding="UTF-8"?>
<svg width="530px" height="940px" viewBox="0 0 530 940" version="1.1" xmlns="http://www.w3.org/2000/svg" xmlns:xlink="http://www.w3.org/1999/xlink">
    <!-- Generator: Sketch 62 (91390) - https://sketch.com -->
    <title>elite-web-blob</title>
    <desc>Created with Sketch.</desc>
    <defs>
        <rect id="path-1" x="0.316261456" y="0.449922422" width="530" height="940"></rect>
        <linearGradient x1="-5.88826491%" y1="39.3986646%" x2="100%" y2="39.3986646%" id="linearGradient-3">
            <stop stop-color="#642B23" offset="0%"></stop>
            <stop stop-color="#A06049" offset="51.9600298%"></stop>
            <stop stop-color="#DE946E" offset="100%"></stop>
        </linearGradient>
        <linearGradient x1="90.6934529%" y1="4.74445311%" x2="11.7970264%" y2="91.5282373%" id="linearGradient-4">
            <stop stop-color="#FF6A00" stop-opacity="0.5" offset="0%"></stop>
            <stop stop-color="#660808" stop-opacity="0.5" offset="100%"></stop>
        </linearGradient>
        <path d="M1050.98602,0.5 L1050.99966,1073.46198 C887.511598,1133.01259 711.001607,1165.5 526.898007,1165.5 C341.744083,1165.5 164.270658,1132.64085 -0.000503653477,1072.44011 L0.00738906145,0.5 L1050.98602,0.5 Z" id="path-5"></path>
    </defs>
    <g id="Symbols" stroke="none" stroke-width="1" fill="none" fill-rule="evenodd">
        <g id="Background/-Elite-blob-Copy" transform="translate(0.000000, -1.000000)">
            <g id="elite-web-blob" transform="translate(265.500000, 470.500000) scale(-1, 1) translate(-265.500000, -470.500000) ">
                <mask id="mask-2" fill="white">
                    <use xlink:href="#path-1"></use>
                </mask>
                <g id="Rectangle"></g>
                <g id="Group" mask="url(#mask-2)">
                    <g transform="translate(584.000000, 527.000000) rotate(-270.000000) translate(-584.000000, -527.000000) translate(58.000000, -56.000000)" id="Combined-Shape">
                        <g fill="none">
                            <use fill="url(#linearGradient-3)" xlink:href="#path-5"></use>
                            <use fill-opacity="0.5" fill="url(#linearGradient-4)" xlink:href="#path-5"></use>
                        </g>
                        <path d="M1051.49982,449.000503 L1051.48878,1072.92578 C888.003341,1132.49982 711.496181,1165 527.395534,1165 C342.244578,1165 164.773999,1132.12793 0.505471976,1071.90352 L0.501348755,1004.83485 C71.6579852,1023.42751 146.331296,1033.32564 223.317251,1033.32564 C605.416185,1033.32564 930.546278,789.498566 1051.49982,449.000503 Z" fill-opacity="0.208752185" fill="#000000" opacity="0.428850446"></path>
                        <path d="M1051.4996,821.000354 L1051.48827,1072.84632 C888.002323,1132.47177 711.494616,1165 527.393398,1165 C342.241868,1165 164.770739,1132.09956 0.501701701,1071.82317 L0.499426799,1037.24425 C107.068435,1072.82516 221.095373,1092.096 339.620968,1092.096 C612.928099,1092.096 862.315267,989.63034 1051.4996,821.000354 Z" fill-opacity="0.0650131119" fill="#000000"></path>
                    </g>
                </g>
            </g>
        </g>
    </g>
</svg>