<?xml version="1.0" encoding="UTF-8"?>
<svg version="1.1" viewBox="0 0 380 768" xmlns="http://www.w3.org/2000/svg">
    <defs>
        <linearGradient id="c" x1="58.239%" x2="50%" y2="100%">
            <stop stop-color="#BE171A" offset="0"/>
            <stop stop-color="#BF0545" offset="1"/>
        </linearGradient>
        <linearGradient id="b" x1="50%" x2="50%" y2="100%">
            <stop stop-color="#E22119" offset="0"/>
            <stop stop-color="#E30F44" offset="1"/>
        </linearGradient>
        <linearGradient id="a" x1="54.892%" x2="44.143%" y2="104.87%">
            <stop stop-color="#E93014" offset="0"/>
            <stop stop-color="#E91F3E" offset="1"/>
        </linearGradient>
    </defs>
    <g fill-rule="evenodd">
        <path d="m-3.1513e-13 0h315.49c34.943 119.33 55.774 241.33 62.493 366s-6.7197 258.67-40.318 402h-337.67v-768z" fill="url(#a)"/>
        <path d="m-3.1513e-13 0h315.49c34.943 119.33 55.774 241.33 62.493 366s-6.7197 258.67-40.318 402h-337.67v-768z" fill="url(#c)"/>
        <path d="m0 0h276.18c32.255 136.67 36.958 274.67 14.111 414s-66.189 257.33-130.03 354h-160.27v-768z" fill="url(#b)"/>
        <path d="m-1.4324e-14 732v-732h239.89c21.503 140.67 10.416 274-33.263 400s-112.56 236.67-206.63 332z" fill="url(#a)"/>
    </g>
</svg>
