<?xml version="1.0" encoding="UTF-8"?>
<svg width="375px" height="416px" viewBox="0 0 375 416" version="1.1" xmlns="http://www.w3.org/2000/svg" xmlns:xlink="http://www.w3.org/1999/xlink">
    <!-- Generator: Sketch 62 (91390) - https://sketch.com -->
    <title>elite-mobile-blob_medium</title>
    <desc>Created with Sketch.</desc>
    <defs>
        <linearGradient x1="-5.88826491%" y1="39.3986646%" x2="100%" y2="39.3986646%" id="linearGradient-1">
            <stop stop-color="#642B23" offset="0%"></stop>
            <stop stop-color="#A06049" offset="51.9600298%"></stop>
            <stop stop-color="#DE946E" offset="100%"></stop>
        </linearGradient>
        <linearGradient x1="90.6299132%" y1="4.74445311%" x2="11.8566774%" y2="91.5282373%" id="linearGradient-2">
            <stop stop-color="#FF6A00" stop-opacity="0.5" offset="0%"></stop>
            <stop stop-color="#660808" stop-opacity="0.5" offset="100%"></stop>
        </linearGradient>
        <path d="M375.000004,0 L375.005109,383.134833 C316.670819,404.399314 253.690154,416 188.000004,416 C121.935294,416 58.6110567,404.266645 -0.00249781546,382.770147 L3.59259138e-06,0 L375.000004,0 Z" id="path-3"></path>
    </defs>
    <g id="elite-mobile-blob_medium" stroke="none" stroke-width="1" fill="none" fill-rule="evenodd">
        <g id="Group">
            <g id="Combined-Shape">
                <use fill="url(#linearGradient-1)" xlink:href="#path-3"></use>
                <use fill-opacity="0.5" fill="url(#linearGradient-2)" xlink:href="#path-3"></use>
            </g>
            <path d="M375.009601,160.428079 L375.005113,383.134833 C316.670823,404.399314 253.690158,416 188.000007,416 C121.935298,416 58.6110603,404.266645 -0.00249422287,382.770147 L-0.00409879685,358.830511 C25.3856747,365.466966 52.0302469,369 79.5000036,369 C215.839854,369 331.852063,281.967017 375.009601,160.428079 Z" id="Combined-Shape" fill-opacity="0.208752185" fill="#000000" opacity="0.428850446"></path>
            <path d="M375.00937,292.991656 L375.00511,382.808653 C316.67082,404.073135 253.690155,415.67382 188.000005,415.67382 C121.935295,415.67382 58.6110578,403.940465 -0.0024967867,382.443967 L-0.0024441056,370.112249 C38.0226294,382.801336 78.7087379,389.67382 121.000001,389.67382 C218.520281,389.67382 307.505523,353.13098 375.00937,292.991656 Z" id="Combined-Shape" fill-opacity="0.0650131119" fill="#000000"></path>
        </g>
    </g>
</svg>