<?xml version="1.0" encoding="UTF-8"?>
<svg width="530px" height="939px" viewBox="0 0 530 939" version="1.1" xmlns="http://www.w3.org/2000/svg" xmlns:xlink="http://www.w3.org/1999/xlink">
    <!-- Generator: Sketch 62 (91390) - https://sketch.com -->
    <title>elite-web-blob</title>
    <desc>Created with Sketch.</desc>
    <defs>
        <rect id="path-1" x="0" y="0" width="531" height="939"></rect>
        <linearGradient x1="-5.88826491%" y1="39.3986646%" x2="100%" y2="39.3986646%" id="linearGradient-3">
            <stop stop-color="#8E1538" offset="0%"></stop>
            <stop stop-color="#942142" offset="51.9600298%"></stop>
            <stop stop-color="#A44563" offset="100%"></stop>
        </linearGradient>
        <linearGradient x1="90.8072547%" y1="4.74445311%" x2="11.6901894%" y2="91.5282373%" id="linearGradient-4">
            <stop stop-color="#FBAAC4" offset="0%"></stop>
            <stop stop-color="#6F0624" offset="100%"></stop>
        </linearGradient>
        <path d="M1052,0 L1052.01363,1072.45689 C888.521654,1132.01074 712.006851,1164.5 527.898007,1164.5 C342.36685,1164.5 164.547522,1131.50682 -0.00439614845,1071.07181 L1.8189894e-12,0 L1052,0 Z" id="path-5"></path>
    </defs>
    <g id="Symbols" stroke="none" stroke-width="1" fill="none" fill-rule="evenodd">
        <g id="Background/-Elite-blob-Copy-2" transform="translate(0.000000, -1.000000)">
            <g id="elite-web-blob" transform="translate(0.000000, 1.000000)">
                <mask id="mask-2" fill="white">
                    <use xlink:href="#path-1"></use>
                </mask>
                <g id="Mask"></g>
                <g id="Group-9" mask="url(#mask-2)">
                    <g transform="translate(-52.500000, 525.500000) scale(-1, 1) translate(52.500000, -525.500000) translate(-635.000000, -1.000000)" id="Group">
                        <g transform="translate(582.500000, 526.500000) rotate(-270.000000) translate(-582.500000, -526.500000) translate(56.000000, -56.000000)">
                            <g id="Combined-Shape">
                                <use fill="url(#linearGradient-3)" xlink:href="#path-5"></use>
                                <use fill-opacity="0.5" fill="url(#linearGradient-4)" xlink:href="#path-5"></use>
                            </g>
                            <path d="M1052.49982,448.000503 L1052.48878,1071.92578 C889.003341,1131.49982 712.496181,1164 528.395534,1164 C343.244578,1164 165.773999,1131.12793 1.50547198,1070.90352 L1.50134876,1003.83485 C72.6579852,1022.42751 147.331296,1032.32564 224.317251,1032.32564 C606.416185,1032.32564 931.546278,788.498566 1052.49982,448.000503 Z" id="Combined-Shape" fill-opacity="0.208752185" fill="#000000" opacity="0.428850446"></path>
                            <path d="M1052.4996,820.000354 L1052.48827,1071.84632 C889.002323,1131.47177 712.494616,1164 528.393398,1164 C343.241868,1164 165.770739,1131.09956 1.5017017,1070.82317 L1.4994268,1036.24425 C108.068435,1071.82516 222.095373,1091.096 340.620968,1091.096 C613.928099,1091.096 863.315267,988.63034 1052.4996,820.000354 Z" id="Combined-Shape" fill-opacity="0.0650131119" fill="#000000"></path>
                        </g>
                    </g>
                </g>
            </g>
        </g>
    </g>
</svg>