<?xml version="1.0" encoding="UTF-8"?>
<svg width="377px" height="272px" viewBox="0 0 377 272" version="1.1" xmlns="http://www.w3.org/2000/svg" xmlns:xlink="http://www.w3.org/1999/xlink">
    <!-- Generator: Sketch 62 (91390) - https://sketch.com -->
    <title>elite-mobile-blob_small</title>
    <desc>Created with Sketch.</desc>
    <defs>
        <linearGradient x1="-5.88826491%" y1="39.3986646%" x2="100%" y2="39.3986646%" id="linearGradient-1">
            <stop stop-color="#8E1538" offset="0%"></stop>
            <stop stop-color="#942142" offset="51.9600298%"></stop>
            <stop stop-color="#A44563" offset="100%"></stop>
        </linearGradient>
        <linearGradient x1="100%" y1="26.1917672%" x2="3.06004912%" y2="71.8473538%" id="linearGradient-2">
            <stop stop-color="#FBAAC4" offset="0%"></stop>
            <stop stop-color="#6F0624" offset="100%"></stop>
        </linearGradient>
        <path d="M375.000004,0 L375.005109,239.134833 C316.670819,260.399314 253.690154,272 188.000004,272 C121.93492,272 58.6103385,260.266512 -0.00349497202,238.769781 L3.59259138e-06,0 L375.000004,0 Z" id="path-3"></path>
    </defs>
    <g id="Symbols" stroke="none" stroke-width="1" fill="none" fill-rule="evenodd">
        <g id="Branding/Blob/Elite-Mobile-Small" transform="translate(1.000000, 0.000000)">
            <g id="elite-mobile-blob_small">
                <g id="Group">
                    <g id="Combined-Shape">
                        <use fill="url(#linearGradient-1)" xlink:href="#path-3"></use>
                        <use fill-opacity="0.5" fill="url(#linearGradient-2)" xlink:href="#path-3"></use>
                    </g>
                    <path d="M375.009601,16.4280789 L375.005113,239.134833 C316.670823,260.399314 253.690158,272 188.000007,272 C121.935298,272 58.6110603,260.266645 -0.00249422287,238.770147 L-0.00409879685,214.830511 C25.3856747,221.466966 52.0302469,225 79.5000036,225 C215.839854,225 331.852063,137.967017 375.009601,16.4280789 Z" id="Combined-Shape" fill-opacity="0.208752185" fill="#000000" opacity="0.428850446"></path>
                    <path d="M375.009374,149.317836 L375.005114,239.134833 C316.670824,260.399314 253.690159,272 188.000008,272 C121.935299,272 58.6110613,260.266645 -0.00249319411,238.770147 L-0.00244051301,226.438428 C38.022633,239.127516 78.7087415,246 121.000005,246 C218.520284,246 307.505526,209.45716 375.009374,149.317836 Z" id="Combined-Shape" fill-opacity="0.0650131119" fill="#000000"></path>
                </g>
            </g>
        </g>
    </g>
</svg>