<?xml version="1.0" encoding="UTF-8"?>
<svg width="377px" height="399px" viewBox="0 0 377 399" version="1.1" xmlns="http://www.w3.org/2000/svg" xmlns:xlink="http://www.w3.org/1999/xlink">
    <!-- Generator: Sketch 62 (91390) - https://sketch.com -->
    <title>elite-mobile-blob_medium</title>
    <desc>Created with Sketch.</desc>
    <defs>
        <linearGradient x1="-5.88826491%" y1="39.3986646%" x2="100%" y2="39.3986646%" id="linearGradient-1">
            <stop stop-color="#8E1538" offset="0%"></stop>
            <stop stop-color="#942142" offset="51.9600298%"></stop>
            <stop stop-color="#A44563" offset="100%"></stop>
        </linearGradient>
        <linearGradient x1="94.1678925%" y1="4.74445311%" x2="8.53522589%" y2="91.5282373%" id="linearGradient-2">
            <stop stop-color="#FBAAC4" offset="0%"></stop>
            <stop stop-color="#6F0624" offset="100%"></stop>
        </linearGradient>
        <path d="M375.000004,0 L375.005109,366.134833 C316.670819,387.399314 253.690154,399 188.000004,399 C121.93492,399 58.6103385,387.266512 -0.00349497202,365.769781 L3.5925913e-06,0 L375.000004,0 Z" id="path-3"></path>
    </defs>
    <g id="Symbols" stroke="none" stroke-width="1" fill="none" fill-rule="evenodd">
        <g id="Branding/Blob/Elite-Mobile-Medium" transform="translate(9.000000, 0.000000)">
            <g id="elite-mobile-blob_medium" transform="translate(-8.000000, 0.000000)">
                <g id="Combined-Shape">
                    <use fill="url(#linearGradient-1)" xlink:href="#path-3"></use>
                    <use fill-opacity="0.5" fill="url(#linearGradient-2)" xlink:href="#path-3"></use>
                </g>
                <path d="M375.009601,143.428079 L375.005113,366.134833 C316.670823,387.399314 253.690158,399 188.000007,399 C121.935298,399 58.6110603,387.266645 -0.00249422287,365.770147 L-0.00409879685,341.830511 C25.3856747,348.466966 52.0302469,352 79.5000036,352 C215.839854,352 331.852063,264.967017 375.009601,143.428079 Z" id="Combined-Shape" fill-opacity="0.208752185" fill="#000000" opacity="0.428850446"></path>
                <path d="M375.00937,275.991656 L375.00511,365.808653 C316.67082,387.073135 253.690155,398.67382 188.000005,398.67382 C121.935295,398.67382 58.6110578,386.940465 -0.0024967867,365.443967 L-0.0024441056,353.112249 C38.0226294,365.801336 78.7087379,372.67382 121.000001,372.67382 C218.520281,372.67382 307.505523,336.13098 375.00937,275.991656 Z" id="Combined-Shape" fill-opacity="0.0650131119" fill="#000000"></path>
            </g>
        </g>
    </g>
</svg>