<?xml version="1.0" encoding="UTF-8"?>
<svg width="375px" height="400px" viewBox="0 0 375 400" version="1.1" xmlns="http://www.w3.org/2000/svg" xmlns:xlink="http://www.w3.org/1999/xlink">
    <!-- Generator: Sketch 63.1 (92452) - https://sketch.com -->
    <title>green-mobile-medium-blob</title>
    <desc>Created with Sketch.</desc>
    <defs>
        <linearGradient x1="93.9453125%" y1="78.7974253%" x2="6.0546875%" y2="93.7730828%" id="linearGradient-1">
            <stop stop-color="#075837" offset="0%"></stop>
            <stop stop-color="#0B5D34" offset="100%"></stop>
        </linearGradient>
        <linearGradient x1="99.7343962%" y1="50%" x2="0.26560378%" y2="95.6737304%" id="linearGradient-2">
            <stop stop-color="#2D6A2C" offset="0%"></stop>
            <stop stop-color="#2F6B2C" offset="100%"></stop>
        </linearGradient>
        <linearGradient x1="100%" y1="6.1952%" x2="0%" y2="93.8048%" id="linearGradient-3">
            <stop stop-color="#407B36" offset="0%"></stop>
            <stop stop-color="#417C35" offset="100%"></stop>
        </linearGradient>
    </defs>
    <g id="Symbols" stroke="none" stroke-width="1" fill="none" fill-rule="evenodd">
        <g id="green-mobile-medium-blob">
            <path d="M0,0 L375,0 L375,367 C313.492742,389 251.326967,400 188.502674,400 C125.678381,400 62.8441563,389 0,367 L0,0 Z" id="oval-3" fill="url(#linearGradient-1)"></path>
            <path d="M0,353.797334 L0,2.55795385e-13 L375,2.55795385e-13 L375,276.841417 C335.561497,317.484801 280.748663,346.801341 210.561497,364.791036 C140.374332,382.780731 70.1871658,379.116164 0,353.797334 Z" id="oval-2" fill="url(#linearGradient-2)"></path>
            <path d="M0,-1.13686838e-13 L375,-1.13686838e-13 L375,143.900007 C350.26738,219.181029 303.141711,275.475245 233.622995,312.782654 C164.104278,350.090063 86.2299465,360.083119 0,342.761822 L0,-1.13686838e-13 Z" id="oval-1" fill="url(#linearGradient-3)"></path>
        </g>
    </g>
</svg>