<svg xmlns="http://www.w3.org/2000/svg" width="32" height="32" viewBox="0 0 32 32">
    <g fill="#000" fill-rule="nonzero">
        <path d="M3.886 7.697a14.991 14.991 0 0 0 .088 14.723L.097 30.57c-.405.85.483 1.738 1.333 1.333l8.141-3.882A14.977 14.977 0 0 0 26.4 26.693a15.008 15.008 0 0 0 4.744-16.686A14.988 14.988 0 0 0 16.985 0 14.966 14.966 0 0 0 3.886 7.697zm-.772 21.187l2.896-6.088a1 1 0 0 0-.054-.957 12.99 12.99 0 0 1-.322-13.17 12.966 12.966 0 0 1 11.35-6.67 12.99 12.99 0 0 1 12.274 8.673 13.008 13.008 0 0 1-4.112 14.462 12.977 12.977 0 0 1-14.993.905 1 1 0 0 0-.96-.054l-6.08 2.9z"/>
        <path d="M17 13.5a1.5 1.5 0 1 1 0 3 1.5 1.5 0 0 1 0-3zm6 0a1.5 1.5 0 1 1 0 3 1.5 1.5 0 0 1 0-3zm-12 0a1.5 1.5 0 1 1 0 3 1.5 1.5 0 0 1 0-3z"/>
    </g>
</svg>
