<svg xmlns="http://www.w3.org/2000/svg" width="24" height="24" viewBox="0 0 24 24">
    <g fill="none" fill-rule="nonzero">
        <path fill="#000" d="M8.646 8.646a.5.5 0 0 1 .708 0L12 11.293l2.646-2.647a.5.5 0 0 1 .638-.057l.07.057a.5.5 0 0 1 0 .708L12.707 12l2.647 2.646a.5.5 0 0 1 .057.638l-.057.07a.5.5 0 0 1-.708 0L12 12.707l-2.646 2.647a.5.5 0 0 1-.638.057l-.07-.057a.5.5 0 0 1 0-.708L11.293 12 8.646 9.354a.5.5 0 0 1-.057-.638l.057-.07z"/>
        <path fill="#E9E9ED" d="M12 24c6.627 0 12-5.373 12-12S18.627 0 12 0 0 5.373 0 12s5.373 12 12 12zm0-1C5.925 23 1 18.075 1 12S5.925 1 12 1s11 4.925 11 11-4.925 11-11 11z"/>
    </g>
</svg>
