<svg width="18" height="18" viewBox="0 0 18 18" fill="none" xmlns="http://www.w3.org/2000/svg">
<path d="M0.35624 17.634C0.847975 18.1146 1.65263 18.1146 2.12201 17.6452L8.99512 10.7721L15.8682 17.6452C16.3488 18.1146 17.1534 18.1257 17.634 17.634C18.1146 17.1534 18.1146 16.3488 17.6452 15.8794L10.7721 8.99512L17.6452 2.12201C18.1146 1.65263 18.1257 0.836799 17.634 0.367416C17.1423 -0.113142 16.3488 -0.113142 15.8682 0.35624L8.99512 7.22934L2.12201 0.35624C1.65263 -0.113142 0.836799 -0.124318 0.35624 0.35624C-0.124318 0.847975 -0.113142 1.66381 0.35624 2.12201L7.22934 8.99512L0.35624 15.8794C-0.113142 16.3376 -0.124318 17.1646 0.35624 17.634Z" fill="#000"/>
</svg>
