<svg xmlns="http://www.w3.org/2000/svg" width="64" height="64" viewBox="0 0 64 64">
    <g fill="none" fill-rule="nonzero">
        <path fill="#AE5F43" d="M52.196 38.406L43.28 50.47a1.298 1.298 0 0 1-1.971.14l-4.598-4.663a1 1 0 0 0-1.424 1.404l4.604 4.67a3.295 3.295 0 0 0 5-.366l8.912-12.06a1 1 0 1 0-1.608-1.19zM45 64c10.493 0 19-8.507 19-19s-8.507-19-19-19-19 8.507-19 19c0 10.496 8.501 19 19 19zm0-2c-9.394 0-17-7.608-17-17 0-9.389 7.611-17 17-17s17 7.611 17 17-7.611 17-17 17z"/>
        <path fill="#373737" d="M36.284 0c1.336 0 2.624.509 3.607 1.419l.193.187 8.354 8.543a5.512 5.512 0 0 1 1.555 3.584l.007.27v7.07a1 1 0 0 1-1.993.116L48 21.072v-7.07c0-.844-.3-1.66-.839-2.288l-.152-.167-8.355-8.543a3.324 3.324 0 0 0-2.15-.997L36.285 2H5.361c-1.79 0-3.26 1.44-3.356 3.27L2 5.46v49.08c0 1.852 1.41 3.357 3.177 3.455l.184.005H20.64a1 1 0 0 1 .116 1.993L20.64 60H5.36C2.465 60 .117 57.668.004 54.76L0 54.54V5.46C0 2.52 2.28.12 5.145.004L5.361 0h30.923zM21 42a1 1 0 0 1 .117 1.993L21 44H10a1 1 0 0 1-.117-1.993L10 42h11zM10 29h11a1 1 0 0 1 .117 1.993L21 31H10a1 1 0 0 1-.117-1.993L10 29h11zm30-13a1 1 0 0 1 0 2H10a1 1 0 0 1 0-2z"/>
    </g>
</svg>
