<svg xmlns="http://www.w3.org/2000/svg" width="64" height="64" viewBox="0 0 64 64">
    <g fill="none" fill-rule="evenodd">
        <path fill="#8E1538" d="M52.196 38.406L43.28 50.47a1.298 1.298 0 0 1-1.971.14l-4.598-4.663a1 1 0 0 0-1.424 1.404l4.604 4.67a3.295 3.295 0 0 0 5-.366l8.912-12.06a1 1 0 1 0-1.608-1.19zM45 64c10.493 0 19-8.507 19-19s-8.507-19-19-19-19 8.507-19 19c0 10.496 8.501 19 19 19zm0-2c-9.394 0-17-7.608-17-17 0-9.389 7.611-17 17-17s17 7.611 17 17-7.611 17-17 17z"/>
        <path fill="#3B3A3A" fill-rule="nonzero" d="M36.284 0c1.425 0 2.795.579 3.8 1.606l8.354 8.543A5.517 5.517 0 0 1 50 14.002v7.07a1 1 0 0 1-2 0v-7.07c0-.921-.358-1.807-.991-2.455l-8.355-8.543A3.319 3.319 0 0 0 36.284 2H5.361C3.51 2 2 3.542 2 5.46v49.08C2 56.456 3.508 58 5.361 58H20.64a1 1 0 0 1 0 2H5.36C2.393 60 0 57.55 0 54.54V5.46C0 2.447 2.396 0 5.361 0zM21 42a1 1 0 0 1 0 2H10a1 1 0 0 1 0-2zm0-13a1 1 0 0 1 0 2H10a1 1 0 0 1 0-2zm19-13a1 1 0 0 1 0 2H10a1 1 0 0 1 0-2z"/>
    </g>
</svg>
