<svg xmlns="http://www.w3.org/2000/svg" width="64" height="64" viewBox="0 0 64 64">
    <g fill="none" fill-rule="evenodd">
        <g stroke-linecap="round" stroke-linejoin="round" stroke-width="2">
            <path stroke="#373737" d="M51.007 9H45.58a3.579 3.579 0 0 0-1.335 6.899l5.51 2.203a3.576 3.576 0 0 1 2.18 3.999A3.58 3.58 0 0 1 48.42 25h-5.422M47 9V7M47 27v-2"/>
            <path stroke="#373737" d="M47 33c8.837 0 16-7.163 16-16S55.837 1 47 1 31 8.163 31 17s7.163 16 16 16zM17 63c8.837 0 16-7.163 16-16s-7.163-16-16-16S1 38.163 1 47s7.163 16 16 16zM20 55a8 8 0 0 1 0-16M10 47h9"/>
            <path stroke="#AE5F43" d="M3 13l6 10 10-6M21 3C13.286 5.72 8.4 13.087 9.06 21M61 52l-6-10-10 6M43 61c7.712-2.72 12.598-10.086 11.941-18"/>
        </g>
        <path fill="#AE5F43" fill-rule="nonzero" d="M55.792 41.389l.065.096 6 10a1 1 0 0 1-1.649 1.126l-.065-.096-4.178-6.964c-.459 7.33-5.357 13.825-12.632 16.392a1 1 0 0 1-.666-1.886c7.062-2.491 11.608-9.091 11.32-16.283l-8.472 5.084a1 1 0 0 1-1.126-1.65l.096-.065 10-6a1 1 0 0 1 1.307.246zM21.943 2.667a1 1 0 0 1-.61 1.276c-7.29 2.57-11.899 9.519-11.277 16.974a1 1 0 0 1-.02.297l8.45-5.072a1 1 0 0 1 1.125 1.65l-.096.065-10 6a1 1 0 0 1-1.307-.246l-.065-.096-6-10a1 1 0 0 1 1.649-1.126l.065.096 4.144 6.908c.076-7.712 5.079-14.66 12.666-17.336a1 1 0 0 1 1.276.61z"/>
        <path fill="#373737" fill-rule="nonzero" d="M47 6a1 1 0 0 1 1 1v1h3.007a1 1 0 0 1 .116 1.993l-.116.007H45.58a2.579 2.579 0 1 0-1.125 4.9l.16.07 5.512 2.204a4.576 4.576 0 0 1 2.788 5.117 4.58 4.58 0 0 1-4.277 3.704L48.42 26H48v1a1 1 0 0 1-.883.993L47 28a1 1 0 0 1-.993-.883L46 27v-1h-3a1 1 0 0 1-.994-.883L41.999 25a1 1 0 0 1 .884-.993l.116-.007h5.42a2.58 2.58 0 0 0 2.497-1.926l.037-.164a2.575 2.575 0 0 0-1.41-2.809l-.16-.07-5.511-2.204a4.579 4.579 0 0 1 1.49-8.822L45.58 8H46V7a1 1 0 0 1 .883-.993zm0 28c9.389 0 17-7.611 17-17S56.389 0 47 0 30 7.611 30 17s7.611 17 17 17zm-30-4c9.389 0 17 7.611 17 17s-7.611 17-17 17S0 56.389 0 47s7.611-17 17-17zm0 2C8.716 32 2 38.716 2 47c0 8.284 6.716 15 15 15 8.284 0 15-6.716 15-15 0-8.284-6.716-15-15-15zm3 6a1 1 0 0 1 0 2 7.002 7.002 0 0 0-6.93 6H19a1 1 0 0 1 .117 1.993L19 48h-5.93A7 7 0 0 0 20 54a1 1 0 0 1 0 2 9 9 0 0 1-8.945-8H10a1 1 0 0 1-.117-1.993L10 46h1.055c.497-4.5 4.312-8 8.945-8zM47 2c8.284 0 15 6.716 15 15 0 8.284-6.716 15-15 15-8.284 0-15-6.716-15-15 0-8.284 6.716-15 15-15z"/>
    </g>
</svg>
