<svg xmlns="http://www.w3.org/2000/svg" width="64" height="64" viewBox="0 0 64 64">
    <g fill="none" fill-rule="nonzero">
        <path fill="#AE5F43" d="M54.201 40.398l-8.39 11.137a1.19 1.19 0 0 1-1.779.12l-4.327-4.304a1 1 0 0 0-1.41 1.418l4.333 4.31a3.195 3.195 0 0 0 2.474.912 3.17 3.17 0 0 0 2.31-1.257l8.387-11.132a1 1 0 0 0-1.598-1.204zM47 64c9.389 0 17-7.611 17-17s-7.611-17-17-17-17 7.611-17 17 7.603 17 17 17zm0-2c-8.29 0-15-6.713-15-15 0-8.284 6.716-15 15-15 8.284 0 15 6.716 15 15 0 8.284-6.716 15-15 15z"/>
        <path fill="#373737" d="M54.739 0c5.019 0 9.115 3.979 9.257 8.937l.004.266V30a1 1 0 0 1-1.993.117L62 30V9.203c0-3.892-3.122-7.07-7.017-7.199L54.739 2H9.269C5.337 2 2.133 5.098 2.004 8.96L2 9.204V33h25a1 1 0 0 1 .993.883L28 34a1 1 0 0 1-.883.993L27 35H2.1c.562 3.325 3.427 5.879 6.919 5.996l.25.004h14.71a1.002 1.002 0 0 1 .995 1.225l-3 13a1 1 0 0 1-.971.775H13a1 1 0 0 1-.117-1.993L13 54h7.204l2.538-11H9.269C4.243 43 .146 39.029.004 34.071l-.001-.017L0 34V9.203C0 4.21 4.01.145 9 .003L9.27 0h45.469z"/>
    </g>
</svg>
