<svg xmlns="http://www.w3.org/2000/svg" width="64" height="64" viewBox="0 0 64 64">
    <g fill="none" fill-rule="evenodd">
        <path fill="#8E1538" d="M54.201 40.398l-8.39 11.137a1.19 1.19 0 0 1-1.779.12l-4.327-4.304a1 1 0 0 0-1.41 1.418l4.333 4.31a3.195 3.195 0 0 0 2.474.912 3.17 3.17 0 0 0 2.31-1.257l8.387-11.132a1 1 0 0 0-1.598-1.204zM47 64c9.389 0 17-7.611 17-17s-7.611-17-17-17-17 7.611-17 17 7.603 17 17 17zm0-2c-8.29 0-15-6.713-15-15 0-8.284 6.716-15 15-15 8.284 0 15 6.716 15 15 0 8.284-6.716 15-15 15z"/>
        <path fill="#3B3A3A" fill-rule="nonzero" d="M13 56a1 1 0 0 1 0-2h7.204l2.538-11H9.269C4.243 43 .146 39.029.004 34.071l-.001-.017L0 34V9.203C0 4.121 4.154 0 9.27 0h45.469C59.846 0 64 4.122 64 9.203V30a1 1 0 0 1-2 0V9.203C62 5.23 58.746 2 54.739 2H9.269C5.255 2 2 5.229 2 9.203V33h25a1 1 0 0 1 .993.883L28 34a1 1 0 0 1-1 1H2.1c.575 3.404 3.565 6 7.17 6h14.71a1.002 1.002 0 0 1 .994 1.225l-3 13a1 1 0 0 1-.97.775z"/>
    </g>
</svg>
