<svg xmlns="http://www.w3.org/2000/svg" width="64" height="64" viewBox="0 0 64 64">
    <g fill="none" fill-rule="nonzero">
        <path fill="#AE5F43" d="M51.142 44.542l1.885.67c-1.182 3.33-2.664 7.794-4.445 13.392-.27.846-.782 1.523-1.48 2.06-.554.427-1.038.666-1.896 1.012-4.08 1.649-6.41.885-6.215-2.247.085-1.364.364-4.724.838-10.091l1.992.176c-.472 5.348-.75 8.7-.834 10.04-.078 1.25.54 1.452 3.47.268.697-.281 1.058-.46 1.426-.743.392-.302.656-.65.793-1.082 1.787-5.617 3.275-10.101 4.466-13.455zM37.066 30.423c.874-.318 1.396-.465 2.098-.52.882-.067 1.72.094 2.49.545.906.53 1.734 1.055 2.622 1.652.507.342 2.094 1.44 2.111 1.452.511.35.928.626 1.341.885.348.219.688.422 1.031.616l-.982 1.742c-.373-.21-.739-.43-1.113-.665a42.306 42.306 0 0 1-1.406-.928c-.027-.018-1.604-1.11-2.098-1.442a46.506 46.506 0 0 0-2.517-1.586c-.394-.231-.828-.315-1.325-.276-.467.036-.857.146-1.568.405-2.991 1.088-3.319 1.66-2.415 2.545.655.643 2.005 1.92 4.044 3.83l-1.367 1.46c-2.05-1.92-3.408-3.205-4.077-3.862-2.25-2.205-1.025-4.34 3.131-5.853zm17.577 2.204c3.147-1.208 6.667.309 7.855 3.403 1.188 3.095-.413 6.577-3.56 7.785l-21.962 8.43c-.21.081-.384.151-.742.297-3.511 1.432-5.335 1.285-8.434-1.696a149.22 149.22 0 0 1-7.543-7.844 1 1 0 0 1 .386-1.601l7.477-2.87a1 1 0 0 1 .975.145l3.223 2.52 22.325-8.569zM29.187 49.405c2.457 2.364 3.45 2.444 6.292 1.285.37-.151.554-.225.78-.312l21.962-8.43c2.126-.816 3.198-3.148 2.41-5.201-.788-2.053-3.145-3.069-5.271-2.253l-22.854 8.773a1 1 0 0 1-.974-.146l-3.224-2.52-5.586 2.144a143.64 143.64 0 0 0 6.465 6.66z"/>
        <path fill="#373737" d="M9.863 56c-4.27 0-7.73-3.535-7.86-7.925L2 47.82V22.179c0-4.422 3.379-8.04 7.617-8.175L9.863 14H19V5.761c0-1.246.482-2.444 1.345-3.343A4.614 4.614 0 0 1 23.673 1h8.654c1.256 0 2.458.512 3.328 1.418A4.827 4.827 0 0 1 37 5.761V14h9.137c4.27 0 7.73 3.535 7.86 7.925l.003.254v4.327a1 1 0 0 1-1.993.117L52 26.506V22.18c0-3.344-2.517-6.053-5.644-6.175L46.137 16H42v8a1 1 0 0 1-2 0v-8H16v38h5.38a1 1 0 0 1 .117 1.993l-.116.007H9.863zM21 14h14V5.761c0-.73-.282-1.431-.788-1.958A2.614 2.614 0 0 0 32.327 3h-8.654c-.711 0-1.392.29-1.885.803A2.827 2.827 0 0 0 21 5.761V14zM9.863 54H14V16H9.863c-3.154 0-5.743 2.633-5.859 5.947L4 22.18v25.642c0 3.344 2.517 6.053 5.644 6.175l.219.004z"/>
    </g>
</svg>
