<svg xmlns="http://www.w3.org/2000/svg" width="64" height="64" viewBox="0 0 64 64">
    <g fill="none" fill-rule="evenodd">
        <g stroke-width="2" transform="translate(2 2)">
            <path stroke="#373737" stroke-linecap="round" stroke-linejoin="round" d="M26 27.377C23.668 22.986 19.088 20 13.82 20 6.189 20 0 26.268 0 34v6M20 51.562L19.177 60H7.47L5.519 40H0M14 20v16.019"/>
            <circle cx="14" cy="8" r="8" stroke="#373737"/>
            <circle cx="44" cy="44" r="16" stroke="#EB2F16"/>
            <path stroke="#EB2F16" stroke-linecap="round" stroke-linejoin="round" d="M44 37v7h7"/>
        </g>
        <path fill="#8E1538" d="M47 45v-6a1 1 0 0 0-2 0v7a1 1 0 0 0 1 1h7a1 1 0 0 0 0-2h-6zm-1 18c9.389 0 17-7.611 17-17s-7.611-17-17-17-17 7.611-17 17 7.611 17 17 17zm0-2c-8.284 0-15-6.716-15-15 0-8.284 6.716-15 15-15 8.284 0 15 6.716 15 15 0 8.284-6.716 15-15 15z"/>
        <path fill="#3B3A3A" fill-rule="nonzero" d="M16 21l.051.002c5.426.084 10.304 3.145 12.832 7.906a1 1 0 0 1-1.766.938C25.08 26.011 21.292 23.454 17 23.055L17 38.019a1 1 0 1 1-2 0V23.026C8.304 23.456 3 29.097 3 36v4.999l4.52.002a1 1 0 0 1 .976.787l.018.116L10.377 61h9.893l.735-7.535a1 1 0 0 1 1.99.194l-.823 8.438a1 1 0 0 1-.995.903H9.47a1 1 0 0 1-.995-.903L6.612 43.001l-4.595-.002L2 43a1 1 0 0 1-.993-.883L1 42v-6c0-8.281 6.632-15 14.82-15H16zm0-20a9 9 0 1 1 0 18 9 9 0 0 1 0-18zm0 2a7 7 0 1 0 0 14 7 7 0 0 0 0-14z"/>
    </g>
</svg>
