<svg xmlns="http://www.w3.org/2000/svg" width="80" height="80" viewBox="0 0 80 80">
    <g fill="none" fill-rule="evenodd">
        <path fill="#3B3A3A" fill-rule="nonzero" d="M70.05 9C75.689 9 80 13.643 80 19.496v41.009C80 66.297 75.394 71 69.701 71H10.298C4.606 71 0 66.297 0 60.505V19.496C0 13.683 4.5 9 10.172 9H70.05zm-59.878 2C5.622 11 2 14.77 2 19.496v41.009C2 65.201 5.72 69 10.298 69H69.7C74.281 69 78 65.201 78 60.505V19.496C78 14.716 74.55 11 70.05 11H10.172z"/>
        <path fill="#8E1538" d="M21.194 34.02l9.176 17.443a1 1 0 0 0 1.603.23l9.824-10.14 9.823 10.14a1 1 0 0 0 1.559-.153L68.99 27.057a1 1 0 0 0-1.68-1.086l-15.13 23.427-9.666-9.978a1 1 0 0 0-1.436 0l-9.581 9.89-9.376-17.82a1 1 0 0 0-1.75-.038L9.307 50.495a1 1 0 0 0 1.73 1.005l10.157-17.48z"/>
    </g>
</svg>
