<svg xmlns="http://www.w3.org/2000/svg" width="64" height="64" viewBox="0 0 64 64">
    <g fill="none" fill-rule="nonzero">
        <path fill="#AE5F43" d="M14.519 18.24c.553 0 1.001-.464 1.001-1.038 0-.573-.448-1.038-1.001-1.038-1.38 0-2.503 1.164-2.503 2.596 0 1.432 1.124 2.597 2.503 2.597 1.385 0 2.503-1.162 2.503-2.597 0-1.432-1.124-2.596-2.503-2.596-.553 0-1.002.465-1.002 1.038 0 .574.449 1.039 1.002 1.039zm0 0c.274 0 .5.236.5.52 0 .288-.222.52-.5.52a.514.514 0 0 1-.5-.52c0-.284.226-.52.5-.52zM0 26.368V11.625C0 10.172 1.147 9 2.55 9h23.9C27.861 9 29 10.18 29 11.625v14.742c0 1.453-1.147 2.625-2.55 2.625L2.55 29C1.147 29 0 27.82 0 26.367zm2.55.528l23.9-.009c.312 0 .55-.244.55-.52V11.626a.537.537 0 0 0-.55-.52H2.55a.537.537 0 0 0-.55.52v14.742c0 .28.241.528.55.528z"/>
        <path fill="#AE5F43" d="M10.56 10.27l.998-5.88c.1-.573.74-.98 1.456-.855l21.103 3.721c.717.127 1.177.73 1.075 1.308l-2.049 11.62c-.102.578-.742.986-1.457.86l-2.91-.64a1 1 0 0 0-.428 1.954l2.95.648c1.808.32 3.514-.769 3.815-2.475l2.049-11.62c.3-1.704-.928-3.312-2.698-3.624L13.362 1.566c-1.767-.312-3.474.776-3.775 2.483L8.59 9.936a1 1 0 1 0 1.972.334z"/>
        <path fill="#373737" d="M41.342 16.1l.102.056 21.31 13.537a2.639 2.639 0 0 1 1.24 2.037l.006.179v2.443c0 .71-.294 1.382-.81 1.881a2.75 2.75 0 0 1-1.7.759l-.214.008H57v25h6a1 1 0 0 1 .117 1.993L63 64H12a1 1 0 0 1-.117-1.993L12 62h7V37h-7a1 1 0 0 1-.117-1.993L12 35h49.276c.2 0 .391-.076.523-.204a.64.64 0 0 0 .193-.349l.008-.095V31.91a.617.617 0 0 0-.234-.467l-.08-.058-21.314-13.54a1 1 0 0 1 .97-1.745zM55 62V37H45v25h10zM43 37H33v25h10V37zm-12 0H21v25h10V37z"/>
    </g>
</svg>
