<svg xmlns="http://www.w3.org/2000/svg" width="64" height="64" viewBox="0 0 64 64">
    <g fill="none" fill-rule="evenodd">
        <path fill="#8E1538" d="M9.587 3.049C9.888 1.342 11.595.254 13.362.566l21.102 3.72c1.77.313 2.998 1.921 2.698 3.625l-2.05 11.62c-.3 1.706-2.006 2.795-3.814 2.475L29 21.5v3.867c0 1.453-1.147 2.625-2.55 2.625L2.55 28C1.147 28 0 26.82 0 25.367V10.625C0 9.172 1.147 8 2.55 8h6.198zm16.863 7.056H2.55a.537.537 0 0 0-.55.52v14.742c0 .28.241.528.55.528l23.9-.009c.312 0 .55-.244.55-.52V10.626a.537.537 0 0 0-.55-.52zM14.52 15.164c1.379 0 2.503 1.164 2.503 2.596 0 1.435-1.118 2.597-2.503 2.597-1.38 0-2.503-1.165-2.503-2.597s1.124-2.596 2.503-2.596zM13.014 2.535c-.715-.126-1.355.282-1.456.855L10.775 8H26.45C27.861 8 29 9.18 29 10.625v8.828l2.686.591c.67.119 1.275-.233 1.432-.754l.025-.107 2.05-11.62c.101-.577-.36-1.18-1.076-1.307zm1.505 14.706c-.274 0-.5.235-.5.52 0 .283.226.518.5.518.278 0 .5-.23.5-.519a.514.514 0 0 0-.5-.52z"/>
        <path fill="#3B3A3A" fill-rule="nonzero" d="M40.064 15.464a1 1 0 0 1 1.38-.308l21.31 13.537A2.63 2.63 0 0 1 64 30.909v2.443c0 .71-.294 1.382-.81 1.881-.508.492-1.199.767-1.914.767H57v25h6a1 1 0 0 1 0 2H12a1 1 0 0 1 0-2h7V36h-7a1 1 0 0 1 0-2h49.276c.2 0 .391-.076.523-.204a.618.618 0 0 0 .201-.444V30.91c0-.199-.114-.4-.314-.525l-21.314-13.54a1 1 0 0 1-.308-1.38zM55 61V36H45v25h10zM43 36H33v25h10V36zm-12 0H21v25h10V36z"/>
    </g>
</svg>
