<svg xmlns="http://www.w3.org/2000/svg" width="64" height="64" viewBox="0 0 64 64">
    <g fill="none" fill-rule="nonzero">
        <path fill="#EB2F16" d="M59.587 11.993l.162.152 2.09 2.07a3.91 3.91 0 0 1 .15 5.403l-.15.156-6.834 6.772 8.628 7.665a1 1 0 0 1 .16 1.312l-.077.099a1 1 0 0 1-1.313.16l-.098-.077-8.722-7.749-6.405 6.347c2.726.96 4.186 3.06 3.973 5.45-.22 2.45-2.172 4.404-4.754 4.534l-.236.007h-8.525C35.621 44.294 34 45.88 34 47.83c0 1.887 1.52 3.433 3.442 3.531l.194.005h8.72a1 1 0 0 1 .748.336c3.807 4.29 8.778 4.196 15.44.783a1 1 0 0 1 .912 1.779c-7.092 3.633-12.834 3.878-17.31-.66l-.23-.24h-8.28c-2.335 0-4.343-1.394-5.197-3.387l-13.026 5.906c-.808.367-1.637-.416-1.363-1.223l.04-.101 5.042-11.06a1 1 0 0 1 .132-.213l.084-.092 2.348-2.26c-2.579-.342-4.587-2.496-4.692-5.136L21 35.581v-1.467c0-6.279 3.45-12.057 8.987-15.046a17.254 17.254 0 0 1 16.71.174l7.465-7.097a3.982 3.982 0 0 1 5.425-.152zM45.62 23.027l-4.93 4.687a1.019 1.019 0 0 1-.07.06l-.046.035a1.075 1.075 0 0 1-.099.061l-.05.025a.836.836 0 0 1-.059.026l-.054.019a.836.836 0 0 1-.194.043.92.92 0 0 1-.083.006h-.012a.925.925 0 0 1-.104-.002l-.029-.003a.934.934 0 0 1-.19-.04c-1.806-.568-3.488-.205-5.252 1.07a6.35 6.35 0 0 0-2.607 4.838l-.006.262v1.467c0 1.792-.876 3.38-2.224 4.362l-4.738 4.558-3.857 8.46 10.986-4.98L32 47.83c0-2.547 1.748-4.688 4.127-5.335a.92.92 0 0 1 .104-.154l.065-.07 14.35-14.221-5.026-5.023zm-.064 12.884l-6.443 6.383h7.041c1.639-.01 2.869-1.2 3.005-2.719.146-1.634-1.007-3.068-3.444-3.614a1.007 1.007 0 0 1-.16-.05zM30.938 20.827a15.106 15.106 0 0 0-7.934 12.934l-.004.353v1.467a3.411 3.411 0 0 0 3.417 3.402 3.41 3.41 0 0 0 1.915-.584l.41-.396a1 1 0 0 1 .23-.166 3.367 3.367 0 0 0 .858-2.07l.005-.186v-1.47a8.35 8.35 0 0 1 3.438-6.715c2.073-1.498 4.21-2.042 6.447-1.518l5.455-5.187a15.255 15.255 0 0 0-14.237.136zm19.806-2.673l-2.761 2.627a.996.996 0 0 1-.845.803l-.068.065 4.997 4.994 3.6-3.569-4.923-4.92zm4.937-4.69l-.126.115-3.361 3.197 4.894 4.891 3.344-3.312c.718-.711.755-1.843.113-2.598l-.113-.122-2.09-2.07a1.983 1.983 0 0 0-2.66-.1z"/>
        <path fill="#373737" d="M47 9.564V3.883C46.99 1.737 45.235.01 43.076 0H3.929C1.765.01.011 1.737 0 3.878v56.239C.01 62.263 1.765 63.99 3.924 64h39.147c2.164-.01 3.918-1.737 3.929-3.878a1 1 0 0 0-2-.01c-.005 1.037-.865 1.883-1.934 1.888H3.93c-1.064-.005-1.924-.851-1.929-1.888V3.883C2.005 2.851 2.865 2.005 3.934 2H43.07c1.064.005 1.924.851 1.929 1.888v5.676a1 1 0 0 0 2 0z"/>
    </g>
</svg>
