<svg xmlns="http://www.w3.org/2000/svg" width="24" height="24" viewBox="0 0 24 24">
    <g fill="none" fill-rule="evenodd">
        <path fill="#373737" fill-rule="nonzero" d="M18.389 11.633c.417 0 .752.34.752.757v.952c.272.075.54.169.799.281l.691-.702a.753.753 0 0 1 1.071.002l1.03 1.045a.76.76 0 0 1 0 1.067l-.696.706c.113.269.207.544.281.826h.93c.418 0 .753.34.753.757v.985a.755.755 0 0 1-.752.757h-.932a6.37 6.37 0 0 1-.28.82l.696.702a.76.76 0 0 1 .002 1.065l-1.027 1.057a.75.75 0 0 1-1.067 0l-.695-.7c-.26.112-.527.206-.8.28v.953a.755.755 0 0 1-.752.757h-.97a.755.755 0 0 1-.752-.757v-.955a6.175 6.175 0 0 1-.799-.283l-.868.881a.509.509 0 0 1-.723.002l-1.219-1.223a.76.76 0 0 1-.001-1.066l.696-.71a6.384 6.384 0 0 1-.283-.823h-.928a.75.75 0 0 1-.534-.224.76.76 0 0 1-.218-.533v-.976a.756.756 0 0 1 .216-.544.74.74 0 0 1 .536-.222h.932c.076-.284.172-.561.29-.83l-.692-.702a.76.76 0 0 1 0-1.067l1.029-1.045a.75.75 0 0 1 1.068 0l.69.7c.261-.112.53-.206.804-.28V12.4a.755.755 0 0 1 .216-.545.74.74 0 0 1 .536-.222h.97zm-.267 1.022h-.436v1.092a.51.51 0 0 1-.41.5c-.449.09-.884.241-1.293.448a.508.508 0 0 1-.592-.097l-.752-.763-.656.667.76.772a.512.512 0 0 1 .09.593c-.184.36-.323.742-.416 1.149a.754.754 0 0 1-.727.573h-.877v.455h1.064a.51.51 0 0 1 .5.41c.091.457.242.899.447 1.315a.512.512 0 0 1-.094.585l-.76.776.67.672.76-.772a.508.508 0 0 1 .593-.097c.409.208.843.36 1.29.453a.51.51 0 0 1 .407.5v1.092h.436v-1.092a.51.51 0 0 1 .41-.501c.447-.089.88-.24 1.287-.447a.508.508 0 0 1 .593.096l.755.763.655-.673-.76-.769a.512.512 0 0 1-.097-.585c.204-.416.353-.858.443-1.314a.51.51 0 0 1 .5-.412h1.069v-.455h-1.07a.51.51 0 0 1-.5-.414 5.258 5.258 0 0 0-.441-1.316.512.512 0 0 1 .094-.585l.76-.772-.658-.67-.754.766a.508.508 0 0 1-.593.097 4.967 4.967 0 0 0-1.287-.447.51.51 0 0 1-.41-.501v-1.092zm-.218 3.066c1.144 0 2.07.94 2.07 2.095 0 1.156-.926 2.096-2.07 2.096-1.145 0-2.07-.94-2.07-2.096 0-1.155.925-2.095 2.07-2.095zm0 1.022c-.58 0-1.051.48-1.051 1.073 0 .595.472 1.074 1.05 1.074.58 0 1.051-.48 1.051-1.074 0-.594-.471-1.073-1.05-1.073zM2.457 3.001h17.086c.735-.03 1.362.506 1.47 1.248l.013.141v7.025a.51.51 0 0 1-1.011.091l-.008-.091V4.417a.413.413 0 0 0-.354-.39l-.088-.004H2.438a.411.411 0 0 0-.407.293l-.012.074-.001 8.269h9.947c.25 0 .458.181.501.42l.008.092c0 .25-.18.46-.418.502l-.091.009-9.947-.001v1.218c.011.2.156.359.352.39l.087.005h7.609c.25 0 .458.18.501.419l.008.092c0 .25-.18.46-.418.503l-.091.008-.447-.001v.826c-.015.284-.09.55-.214.787h1.608a.51.51 0 0 1 0 1.022H6.259a.51.51 0 0 1 0-1.022l1.373-.002a.512.512 0 0 1 .074-.002.868.868 0 0 0 .882-.705l.012-.104-.001-.8H2.476c-.733.028-1.356-.509-1.462-1.247L1 14.927V4.363c.043-.783.698-1.39 1.457-1.362z"/>
    </g>
</svg>
