<svg xmlns="http://www.w3.org/2000/svg" width="13" height="10" viewBox="0 0 13 10" fill="none">
  <path d="M5.7253 0.93586C5.87939 1.08995 5.95335 1.27615 5.94719 1.49445C5.94051 1.71275 5.86013 1.89894 5.70604 2.05303L3.52947 4.2296H12.1202C12.3385 4.2296 12.5216 4.30356 12.6695 4.45149C12.8169 4.59891 12.8906 4.78177 12.8906 5.00007C12.8906 5.21836 12.8169 5.40148 12.6695 5.54941C12.5216 5.69682 12.3385 5.77053 12.1202 5.77053H3.52947L5.7253 7.96636C5.87939 8.12045 5.95644 8.30356 5.95644 8.5157C5.95644 8.72732 5.87939 8.91018 5.7253 9.06427C5.5712 9.21836 5.38809 9.29541 5.17595 9.29541C4.96433 9.29541 4.78148 9.21836 4.62738 9.06427L1.1025 5.53939C1.02546 5.46234 0.970754 5.37888 0.938395 5.28899C0.906549 5.1991 0.890625 5.10279 0.890625 5.00007C0.890625 4.89734 0.906549 4.80103 0.938395 4.71114C0.970754 4.62125 1.02546 4.53779 1.1025 4.46074L4.64664 0.916598C4.7879 0.775347 4.96433 0.70472 5.17595 0.70472C5.38809 0.70472 5.5712 0.781767 5.7253 0.93586Z" />
</svg>