<svg width="22" height="12" viewBox="0 0 22 12" fill="#444"  fill-rule="evenodd" xmlns="http://www.w3.org/2000/svg">
<path d="M20.7072 11.2074L20.7072 11.2074C20.8001 11.1145 20.8738 11.0041 20.9241 10.8827C20.9744 10.7612 21.0003 10.6311 21.0003 10.4996C21.0003 10.3682 20.9744 10.238 20.9241 10.1166C20.8738 9.99515 20.8001 9.88481 20.7072 9.79186L20.5304 9.96864L20.7072 9.79186L11.7074 0.792081C11.6145 0.698956 11.5041 0.625071 11.3827 0.574658C11.2612 0.524246 11.1309 0.498296 10.9994 0.498296C10.8679 0.498296 10.7376 0.524246 10.6161 0.574658C10.4947 0.625031 10.3845 0.698837 10.2916 0.791859L20.7072 11.2074ZM20.7072 11.2074C20.6142 11.3004 20.5039 11.3741 20.3824 11.4244C20.261 11.4747 20.1308 11.5006 19.9994 11.5006C19.8679 11.5006 19.7378 11.4747 19.6163 11.4244C19.4949 11.3741 19.3846 11.3004 19.2916 11.2074L19.2916 11.2074L10.9994 2.91372L2.70739 11.2072L2.53039 11.0306L2.70718 11.2074L2.70724 11.2073C2.61438 11.3004 2.50408 11.3742 2.38266 11.4246C2.26116 11.475 2.13092 11.501 1.99939 11.501C1.86785 11.501 1.73761 11.475 1.61612 11.4246C1.49473 11.3742 1.38446 11.3004 1.29161 11.2074C1.19859 11.1146 1.12478 11.0043 1.07441 10.8829C1.024 10.7614 0.998047 10.6312 0.998047 10.4996C0.998047 10.3681 1.024 10.2379 1.07441 10.1164C1.1248 9.99493 1.19864 9.88462 1.29171 9.79176C1.29175 9.79172 1.29179 9.79168 1.29183 9.79164L10.2914 0.792083L20.7072 11.2074Z" stroke-width="0.5"/>
</svg>
