<svg xmlns="http://www.w3.org/2000/svg" width="13" height="10" viewBox="0 0 13 10" fill="none">
  <path d="M7.6497 9.06414C7.49561 8.91005 7.42165 8.72385 7.42781 8.50555C7.43449 8.28725 7.51487 8.10106 7.66896 7.94697L9.84553 5.7704H1.25484C1.03654 5.7704 0.853428 5.69644 0.705499 5.54851C0.558083 5.40109 0.484375 5.21823 0.484375 4.99993C0.484375 4.78164 0.558083 4.59852 0.705499 4.45059C0.853428 4.30318 1.03654 4.22947 1.25484 4.22947H9.84553L7.6497 2.03364C7.49561 1.87955 7.41856 1.69644 7.41856 1.4843C7.41856 1.27268 7.49561 1.08982 7.6497 0.935729C7.8038 0.781636 7.98691 0.70459 8.19905 0.70459C8.41067 0.70459 8.59352 0.781636 8.74762 0.935729L12.2725 4.46061C12.3495 4.53766 12.4042 4.62112 12.4366 4.71101C12.4685 4.8009 12.4844 4.89721 12.4844 4.99993C12.4844 5.10266 12.4685 5.19897 12.4366 5.28886C12.4042 5.37875 12.3495 5.46221 12.2725 5.53926L8.72836 9.0834C8.5871 9.22465 8.41067 9.29528 8.19905 9.29528C7.98691 9.29528 7.8038 9.21823 7.6497 9.06414Z" />
</svg>