<svg width="22" height="12" viewBox="0 0 22 12" fill="#444" xmlns="http://www.w3.org/2000/svg" fill-rule="evenodd">
<path d="M20.7072 0.792586L20.7072 0.792588C20.8001 0.885534 20.8738 0.995876 20.9241 1.11732C20.9744 1.23876 21.0003 1.36892 21.0003 1.50036C21.0003 1.63181 20.9744 1.76197 20.9241 1.88341C20.8738 2.00485 20.8001 2.11519 20.7072 2.20814L20.5304 2.03136L20.7072 2.20814L11.7074 11.2079C11.6145 11.301 11.5041 11.3749 11.3827 11.4253C11.2612 11.4758 11.1309 11.5017 10.9994 11.5017C10.8679 11.5017 10.7376 11.4758 10.6161 11.4253C10.4947 11.375 10.3845 11.3012 10.2916 11.2081L20.7072 0.792586ZM20.7072 0.792586C20.6142 0.699641 20.5039 0.625911 20.3824 0.575609C20.261 0.525306 20.1308 0.499416 19.9994 0.499416C19.8679 0.499416 19.7378 0.525307 19.6163 0.575608C19.4949 0.625911 19.3846 0.69964 19.2916 0.792588L19.2916 0.792603L10.9994 9.08628L2.70739 0.792811L2.53039 0.969364L2.70718 0.792603L2.70724 0.79266C2.61438 0.699605 2.50408 0.625771 2.38266 0.575385C2.26116 0.524972 2.13092 0.499023 1.99939 0.499023C1.86785 0.499023 1.73761 0.524972 1.61612 0.575385C1.49473 0.625758 1.38446 0.699566 1.29161 0.792587C1.19859 0.885432 1.12478 0.995703 1.07441 1.1171C1.024 1.23859 0.998047 1.36883 0.998047 1.50036C0.998047 1.6319 1.024 1.76214 1.07441 1.88363C1.1248 2.00507 1.19864 2.11538 1.29171 2.20824C1.29175 2.20828 1.29179 2.20832 1.29183 2.20836L10.2914 11.2079L20.7072 0.792586Z" stroke-width="0.5"/>
</svg>
