<?xml version="1.0" encoding="UTF-8"?>
<svg width="64px" height="64px" viewBox="0 0 64 64" version="1.1" xmlns="http://www.w3.org/2000/svg" xmlns:xlink="http://www.w3.org/1999/xlink">
    <!-- Generator: Sketch 57.1 (83088) - https://sketch.com -->
    <title>Pictogram/ Page 2/ Step 1/ 2@1x</title>
    <desc>Created with Sketch.</desc>
    <g id="Pictogram/-Page-2/-Step-1/-2" stroke="none" stroke-width="1" fill="none" fill-rule="evenodd">
        <g id="old"></g>
        <g id="stroke-version" transform="translate(1.000050, 1.000000)" stroke-linecap="round" stroke-linejoin="round" stroke-width="2">
            <path d="M44,31 C38.4776429,31 34,26.5233945 34,21 C34,15.4776429 38.4776429,11 44,11" id="Stroke-1" stroke="#EA2E18"></path>
            <path d="M32,21 L44,21" id="Stroke-3" stroke="#EA2E18"></path>
            <path d="M41,42 C52.5971071,42 62,32.5979063 62,21.0005148 C62,9.4020937 52.5971071,0 41,0 C29.4028929,0 20,9.4020937 20,21.0005148 C20,32.5979063 29.4028929,42 41,42 Z" id="Stroke-5" stroke="#EA2E18"></path>
            <path d="M16,36 C16,37.5303174 16.8908278,38.9066793 18.2486535,39.4742618 L23.7555,41.7794884 C25.3458435,42.4497079 26.2602175,44.2048003 25.9344963,45.9650245 C25.6087751,47.7262751 24.1361621,48.9989736 22.4212204,49 L17.0007097,49" id="Stroke-7" stroke="#373737"></path>
            <path d="M20.5,53 L20.5,49" id="Stroke-9" stroke="#373737"></path>
            <path d="M13.2431223,20 C4.20809838,23.8854444 -1.12619349,33.318917 0.201476337,43.0636546 C1.52807287,52.8094654 9.19249505,60.4730215 18.9380424,61.7985806 C28.6825164,63.1262863 38.1157339,57.7897036 42,48.7544353" id="Stroke-11" stroke="#373737"></path>
        </g>
        <path d="M13.8481117,20.081345 C4.40034374,24.1442869 -1.17764246,34.0087372 0.210680476,44.1986522 C1.59786024,54.3895364 9.61240518,62.4033206 19.8033165,63.7894567 C29.9923024,65.1777282 39.8568272,59.5979107 43.9187524,50.1493859 C44.1368776,49.6420006 43.902386,49.0538581 43.3950006,48.8357329 C42.8876153,48.6176078 42.2994729,48.8520994 42.0813477,49.3594847 C38.374325,57.9824636 29.3717876,63.0747024 20.0730972,61.8077356 C10.7725247,60.5427006 3.45836379,53.229234 2.1923889,43.9287787 C0.925357128,34.629108 6.0159428,25.6266064 14.6382331,21.918655 C15.1455922,21.700469 15.3800134,21.1122984 15.1618274,20.6049393 C14.9436414,20.0975801 14.3554708,19.863159 13.8481117,20.081345 Z" id="Stroke-11" fill="#373737" fill-rule="nonzero"></path>
        <path d="M17.0000501,36 C17.5523348,36 18.0000501,36.4477153 18.0000501,37 C18.0000501,38.1320538 18.6534571,39.1415937 19.6348467,39.5518229 L19.6348467,39.5518229 L25.1439029,41.8579776 C27.1730539,42.713124 28.327916,44.9309662 27.9178719,47.1468782 C27.5058322,49.3748731 25.6263672,50.9986805 23.4212705,51 L23.4212705,51 L22.5000501,51 L22.5000501,54 C22.5000501,54.5128358 22.1140099,54.9355072 21.6166712,54.9932723 L21.5000501,55 C20.9477653,55 20.5000501,54.5522847 20.5000501,54 L20.5000501,54 L20.5000501,51 L18.0007597,51 C17.4879239,51 17.0652526,50.6139598 17.0074875,50.1166211 L17.0007597,50 C17.0007597,49.4477153 17.448475,49 18.0007597,49 L18.0007597,49 L21.5000501,49 L23.420672,49 C24.5899151,48.9993004 25.6144803,48.1599897 25.9135183,46.9573015 L25.9512397,46.7830682 C26.1924952,45.4793034 25.5193383,44.1865467 24.369407,43.7019273 L24.369407,43.7019273 L18.8630337,41.3968986 C17.1282964,40.6717639 16.0000501,38.9285784 16.0000501,37 C16.0000501,36.4477153 16.4477653,36 17.0000501,36 Z" id="Stroke-7" fill="#373737" fill-rule="nonzero"></path>
        <path d="M42.0000501,44 C54.1496287,44 64.0000501,34.1500043 64.0000501,22.0005148 C64.0000501,9.85016247 54.1497955,0 42.0000501,0 C29.8503047,0 20.0000501,9.85016247 20.0000501,22.0005148 C20.0000501,34.1500043 29.8504715,44 42.0000501,44 Z M42.0000501,42 C30.9550216,42 22.0000501,33.0454155 22.0000501,22.0005148 C22.0000501,10.9547362 30.95487,2 42.0000501,2 C53.0452302,2 62.0000501,10.9547362 62.0000501,22.0005148 C62.0000501,33.0454155 53.0450785,42 42.0000501,42 Z" id="Stroke-5" fill="#EB2F16" fill-rule="nonzero"></path>
        <path d="M45.0000501,11 C45.5523348,11 46.0000501,11.4477153 46.0000501,12 C46.0000501,12.5522847 45.5523348,13 45.0000501,13 C40.3678494,13 36.5523139,16.5006328 36.0549517,21.0003901 L45.0000501,21 C45.5523348,21 46.0000501,21.4477153 46.0000501,22 C46.0000501,22.5522847 45.5523348,23 45.0000501,23 L45.0000501,23 L36.0550573,23.0007261 C36.5528309,27.5004611 40.3678432,31 45.0000501,31 C45.5523348,31 46.0000501,31.4477153 46.0000501,32 C46.0000501,32.5522847 45.5523348,33 45.0000501,33 C39.2623947,33 34.5505435,28.6070614 34.0449597,23.0007553 L33.0000501,23 C32.4477653,23 32.0000501,22.5522847 32.0000501,22 C32.0000501,21.4477153 32.4477653,21 33.0000501,21 L33.0000501,21 L34.0448727,21.0003468 C34.5500198,15.3940806 39.2623773,11 45.0000501,11 Z" id="Stroke-1" fill="#EB2F16" fill-rule="nonzero"></path>
    </g>
</svg>