<?xml version="1.0" encoding="UTF-8"?>
<svg width="80px" height="80px" viewBox="0 0 80 80" version="1.1" xmlns="http://www.w3.org/2000/svg" xmlns:xlink="http://www.w3.org/1999/xlink">
    <!-- Generator: Sketch 57.1 (83088) - https://sketch.com -->
    <title>Pictogram/ Page 2/ Step 3/ 3@1x</title>
    <desc>Created with Sketch.</desc>
    <g id="Pictogram/-Page-2/-Step-3/-3" stroke="none" stroke-width="1" fill="none" fill-rule="evenodd">
        <g id="Group-5">
            <g id="Group-3" transform="translate(0.000000, 0.000000)">
                <path d="M57.5280899,17.9775281 C60.8376614,17.9775281 63.5205993,15.2945903 63.5205993,11.9850187 C63.5205993,8.67544719 60.8376614,5.99250936 57.5280899,5.99250936 C54.2185184,5.99250936 51.5355805,8.67544719 51.5355805,11.9850187 C51.5355805,15.2945903 54.2185184,17.9775281 57.5280899,17.9775281 Z M57.5280899,14.9812734 C55.8733041,14.9812734 54.5318352,13.6398045 54.5318352,11.9850187 C54.5318352,10.330233 55.8733041,8.98876404 57.5280899,8.98876404 C59.1828757,8.98876404 60.5243446,10.330233 60.5243446,11.9850187 C60.5243446,13.6398045 59.1828757,14.9812734 57.5280899,14.9812734 Z" id="Oval" fill="#363636" fill-rule="nonzero"></path>
                <path d="M38.0524345,13.3902622 L38.0524345,4.49438202 C38.0524345,3.66698914 38.7231689,2.99625468 39.5505618,2.99625468 L75.505618,2.99625468 C76.3330109,2.99625468 77.0037453,3.66698914 77.0037453,4.49438202 L77.0037453,25.4681648 C77.0037453,26.2955577 76.3330109,26.9662921 75.505618,26.9662921 L56.1228464,26.9662921 C55.2954536,26.9662921 54.6247191,27.6370266 54.6247191,28.4644195 C54.6247191,29.2918124 55.2954536,29.9625468 56.1228464,29.9625468 L75.505618,29.9625468 C77.9877966,29.9625468 80,27.9503434 80,25.4681648 L80,4.49438202 C80,2.01220337 77.9877966,0 75.505618,0 L39.5505618,0 C37.0683831,0 35.0561798,2.01220337 35.0561798,4.49438202 L35.0561798,13.3902622 C35.0561798,14.2176551 35.7269142,14.8883895 36.5543071,14.8883895 C37.3817,14.8883895 38.0524345,14.2176551 38.0524345,13.3902622 Z" id="Shape" fill="#363636" fill-rule="nonzero"></path>
                <path d="M20.6745558,19.7752809 L44.6445933,19.7752809 C47.1267719,19.7752809 49.1389753,21.7874843 49.1389753,24.2696629 L49.1389753,39.2509363 C49.1389753,41.733115 47.1267719,43.7453184 44.6445933,43.7453184 L20.6745558,43.7453184 C18.1923772,43.7453184 16.1801738,41.733115 16.1801738,39.2509363 L16.1801738,24.2696629 C16.1801738,21.7874843 18.1923772,19.7752809 20.6745558,19.7752809 Z M20.6745558,22.7715356 C19.8471629,22.7715356 19.1764285,23.44227 19.1764285,24.2696629 L19.1764285,39.2509363 C19.1764285,40.0783292 19.8471629,40.7490637 20.6745558,40.7490637 L44.6445933,40.7490637 C45.4719862,40.7490637 46.1427206,40.0783292 46.1427206,39.2509363 L46.1427206,24.2696629 C46.1427206,23.44227 45.4719862,22.7715356 44.6445933,22.7715356 L20.6745558,22.7715356 Z" id="Rectangle-path" fill="#DF1845" fill-rule="nonzero"></path>
                <path d="M22,66.5168539 C23.2280449,66.5168539 24.2247191,67.5135281 24.2247191,68.741573 C24.2247191,69.969618 23.2280449,70.9662921 22,70.9662921 C20.7719551,70.9662921 19.7752809,69.969618 19.7752809,68.741573 C19.7752809,67.5135281 20.7719551,66.5168539 22,66.5168539" id="Fill-1" fill="#373737"></path>
                <path d="M18.2346917,25.8749413 C17.4664767,25.5676553 16.5946108,25.9413121 16.2873248,26.7095271 C15.9800388,27.4777421 16.3536956,28.3496079 17.1219106,28.6568939 L32.103184,34.6494033 C32.4603541,34.7922713 32.858795,34.7922713 33.2159651,34.6494033 L48.1972385,28.6568939 C48.9654535,28.3496079 49.3391103,27.4777421 49.0318243,26.7095271 C48.7245383,25.9413121 47.8526724,25.5676553 47.0844574,25.8749413 L32.6595745,31.6448944 L18.2346917,25.8749413 Z" id="Shape" fill="#DF1845" fill-rule="nonzero"></path>
                <path d="M2.96629213,69.1694292 C2.96629213,71.6225528 4.96260674,73.6188674 7.41573034,73.6188674 L34.1123596,73.6188674 C36.5654831,73.6188674 38.5617978,71.6225528 38.5617978,69.1694292 L38.5617978,64.719991 L2.96629213,64.719991 L2.96629213,69.1694292 Z M7.41573034,76.5851596 C3.32521348,76.5851596 3.69482223e-13,73.2569798 3.69482223e-13,69.1694292 L3.69482223e-13,12.8098787 C3.69482223e-13,8.7193618 3.32521348,5.39414831 7.41573034,5.39414831 L23.7303371,5.39414831 C24.5490337,5.39414831 25.2134831,6.05859775 25.2134831,6.87729438 C25.2134831,7.69302472 24.5490337,8.36044045 23.7303371,8.36044045 L7.41573034,8.36044045 C4.96260674,8.36044045 2.96629213,10.3567551 2.96629213,12.8098787 L2.96629213,61.7536989 L38.5617978,61.7536989 L38.5617978,48.4053843 C38.5617978,47.5866876 39.2262472,46.9222382 40.0449438,46.9222382 C40.8636404,46.9222382 41.5280899,47.5866876 41.5280899,48.4053843 L41.5280899,69.1694292 C41.5280899,73.2569798 38.1999101,76.5851596 34.1123596,76.5851596 L7.41573034,76.5851596 Z" id="Fill-3" fill="#373737"></path>
            </g>
        </g>
    </g>
</svg>