<svg xmlns="http://www.w3.org/2000/svg" width="24" height="24" viewBox="0 0 24 24">
    <g fill="#373737" fill-rule="nonzero">
        <path d="M8.846 6.203V4.447c0-.37.158-.727.442-.994.293-.275.695-.43 1.116-.427h3.205c.862 0 1.545.646 1.545 1.421v1.756c0 .283.224.513.5.513s.5-.23.5-.513V4.447C16.154 3.086 15.006 2 13.609 2h-3.202a2.598 2.598 0 0 0-1.794.696c-.489.459-.767 1.09-.767 1.751v1.756c0 .283.224.513.5.513s.5-.23.5-.513zM2.632 19.369c.404.406.95.632 1.52.631h15.697a2.135 2.135 0 0 0 1.519-.631c.406-.408.633-.963.632-1.542V7.866a2.192 2.192 0 0 0-2.142-2.176H4.151C2.965 5.69 2 6.66 2 7.861v9.968a2.177 2.177 0 0 0 .632 1.54zM3 7.861c0-.63.513-1.145 1.15-1.145h15.7c.63.011 1.14.526 1.15 1.157v9.956c0 .302-.118.592-.332.807-.216.217-.51.339-.817.338H4.15a1.15 1.15 0 0 1-.819-.338A1.138 1.138 0 0 1 3 17.83V7.86z"/>
        <path d="M19.51 11l-15.021.021A.49.49 0 0 0 4.49 12l15.021-.021A.49.49 0 0 0 19.51 11z"/>
    </g>
</svg>
