<svg xmlns="http://www.w3.org/2000/svg" width="24" height="24" viewBox="0 0 24 24">
    <g fill="none" fill-rule="evenodd">
        <path fill="#373737" fill-rule="nonzero" d="M17.107 5c.86 0 1.546.717 1.546 1.588v.042l.132.114c2.48 2.16 3.589 3.483 3.632 4.89v4.962l1.493 2.085a.496.496 0 0 1-.134.694.511.511 0 0 1-.645-.062l-.058-.07-1.58-2.212a.497.497 0 0 1-.078-.182l-.01-.099v-4.976c.022-.959-.83-2.075-2.75-3.803l-.002 4.53v.023l1.039 1.117c.189.204.175.52-.03.707a.511.511 0 0 1-.648.03l-.068-.06-2.793-3.004a.56.56 0 0 0-.825 0c-.222.232-.244.602-.043.889l.075.092 2.798 3.553a.497.497 0 0 1 .1.224l.007.083v1.626c0 .17.08.42.239.718.122.23.283.48.475.739a10.107 10.107 0 0 0 .768.916c.194.2.187.516-.015.707a.51.51 0 0 1-.716-.015 11.095 11.095 0 0 1-.855-1.018 6.945 6.945 0 0 1-.554-.866c-.195-.367-.316-.707-.347-1.024l-.008-.157v-1.455l-2.66-3.381a1.686 1.686 0 0 1 0-2.318 1.58 1.58 0 0 1 2.185-.105l.117.11.747.804V6.588c0-.298-.199-.536-.45-.58L17.108 6H2.547c-.289 0-.535.257-.535.588v9.548c0 .16.061.313.166.423.1.104.232.16.369.16h12.48c.279 0 .505.224.505.5s-.226.5-.506.5H2.55a1.523 1.523 0 0 1-1.105-.472A1.605 1.605 0 0 1 1 16.136V6.588C1 5.716 1.686 5 2.547 5zm-9.879 8.016c.28 0 .506.223.506.5 0 .245-.179.45-.415.492l-.09.008H4.626a.503.503 0 0 1-.506-.5c0-.246.18-.45.415-.492l.091-.008h2.601zm1.556-2.175c.28 0 .506.223.506.5 0 .245-.179.45-.415.492l-.09.008H4.626a.503.503 0 0 1-.506-.5c0-.246.18-.45.415-.492l.091-.008h4.157zM4.627 8.394h10.4c.279 0 .505.224.505.5 0 .245-.179.45-.415.492l-.09.008h-10.4a.503.503 0 0 1-.506-.5c0-.246.18-.45.415-.492l.091-.008h10.4z"/>
    </g>
</svg>
