<svg xmlns="http://www.w3.org/2000/svg" width="16" height="16" viewBox="0 0 16 16">
    <g fill="none" fill-rule="evenodd">
        <g stroke="#373737">
            <circle cx="8" cy="8" r="7.5"/>
            <path stroke-linecap="round" stroke-linejoin="round" d="M5.667 8.445L7.66 10l3.006-4"/>
        </g>
        <path fill="#373737" fill-rule="nonzero" d="M5.872 8.182a.333.333 0 0 0-.41.526l1.994 1.555c.148.115.36.086.472-.063l3.005-4a.333.333 0 0 0-.533-.4L7.6 9.529 5.872 8.182zM8 16A8 8 0 1 0 8 0a8 8 0 0 0 0 16zm0-.667A7.333 7.333 0 1 1 8 .667a7.333 7.333 0 0 1 0 14.666z"/>
    </g>
</svg>
