<?xml version="1.0" encoding="UTF-8"?>
<svg width="24px" height="24px" viewBox="0 0 24 24" version="1.1" xmlns="http://www.w3.org/2000/svg" xmlns:xlink="http://www.w3.org/1999/xlink">
    <!-- Generator: Sketch 57.1 (83088) - https://sketch.com -->
    <title>Icon/ 24/ Account/ Company/ Black@1x</title>
    <desc>Created with Sketch.</desc>
    <g id="Icon/-24/-Account/-Company/-Black" stroke="none" stroke-width="1" fill="none" fill-rule="evenodd">
        <path d="M8.84617301,6.20303078 L8.84617301,4.44700237 C8.84617301,4.07726926 9.00359053,3.71983441 9.28821524,3.45276958 C9.58109725,3.17795689 9.98325817,3.02303613 10.4036073,3.0261478 L13.608832,3.02616115 C14.4708337,3.02616115 15.1538653,3.67207001 15.1538653,4.44700237 L15.1538653,6.20303078 C15.1538653,6.48637739 15.3777229,6.71607521 15.6538653,6.71607521 C15.9300077,6.71607521 16.1538653,6.48637739 16.1538653,6.20303078 L16.1538653,4.44700237 C16.1538653,3.08582362 15.0057118,2.00007229 13.608832,2.00007229 L10.4072144,2.00007229 C9.74088088,1.99512636 9.09447344,2.24413597 8.61338073,2.69554772 C8.12405164,3.15468771 7.84617301,3.78564358 7.84617301,4.44700237 L7.84617301,6.20303078 C7.84617301,6.48637739 8.07003063,6.71607521 8.34617301,6.71607521 C8.62231538,6.71607521 8.84617301,6.48637739 8.84617301,6.20303078 Z M2.63239799,19.3690114 C3.03620508,19.7747385 3.5828684,20.0014309 4.15179869,19.9999932 L19.8494842,19.9999932 C20.4171699,20.0014309 20.9638332,19.7747385 21.3676403,19.3690114 C21.7735007,18.9612213 22.0014823,18.4062086 22.0000314,17.8272203 L22.0000314,7.86562802 C21.982364,6.66769712 21.0321917,5.71057986 19.8579984,5.68998635 L4.15055411,5.68998635 C2.96517292,5.68998635 2.00000688,6.65972482 2.00000688,7.86140823 L2.00000688,17.8285521 C1.99855602,18.4062086 2.22653765,18.9612213 2.63239799,19.3690114 Z M3.00001024,7.86140823 C3.00001024,7.23130055 3.51280863,6.71607521 4.15055411,6.71607521 L19.8494842,6.71607521 C20.479936,6.7271668 20.9907362,7.24170046 21.0000798,7.87341094 L21.0000798,17.8285521 C21.0007833,18.1312446 20.8816921,18.4211677 20.6680003,18.6358755 C20.4522554,18.8526462 20.1579814,18.9746769 19.8507288,18.9738996 L4.15055411,18.9738996 C3.8420569,18.9746769 3.54778295,18.8526462 3.33203799,18.6358755 C3.11834627,18.4211677 2.99925504,18.1312446 3.00001024,17.829884 L3.00001024,7.86140823 Z" id="Path" fill="#373737" fill-rule="nonzero"></path>
        <path d="M19.5099001,11 L4.48872365,11.0211217 C4.21842927,11.0215017 3.99962046,11.2409391 4,11.5112488 C4.00038053,11.7815584 4.21980551,12.0003796 4.49009989,12 L19.5112763,11.9788783 C19.7815707,11.9784983 20.0003795,11.7590609 20,11.4887512 C19.9996195,11.2184416 19.7801945,10.9996204 19.5099001,11 Z" id="Path" fill="#373737" fill-rule="nonzero"></path>
    </g>
</svg>