<svg width="12" height="8" viewBox="0 0 12 8" fill="none" xmlns="http://www.w3.org/2000/svg">
<path d="M9.55391 0.437109L4.60391 5.38711L2.45391 3.28711C2.25391 3.10378 2.01657 3.01211 1.74191 3.01211C1.46657 3.01211 1.23724 3.10378 1.05391 3.28711C0.853905 3.48711 0.753906 3.72044 0.753906 3.98711C0.753906 4.25378 0.845573 4.47878 1.02891 4.66211L3.90391 7.53711C4.10391 7.73711 4.33724 7.83711 4.60391 7.83711C4.87057 7.83711 5.10391 7.73711 5.30391 7.53711L10.9289 1.91211C11.1289 1.71211 11.2332 1.47044 11.2419 1.18711C11.2499 0.903776 11.1539 0.66211 10.9539 0.46211C10.7539 0.26211 10.5162 0.162109 10.2409 0.162109C9.96624 0.162109 9.73724 0.253776 9.55391 0.437109Z" fill="#8D0C10"/>
</svg>
