<svg width="12" height="8" viewBox="0 0 12 8" fill="none" xmlns="http://www.w3.org/2000/svg">
<path d="M9.55586 0.488867L4.60586 5.43887L2.45586 3.33887C2.25586 3.15553 2.01853 3.06387 1.74386 3.06387C1.46853 3.06387 1.23919 3.15553 1.05586 3.33887C0.855859 3.53887 0.755859 3.7722 0.755859 4.03887C0.755859 4.30553 0.847526 4.53053 1.03086 4.71387L3.90586 7.58887C4.10586 7.78887 4.33919 7.88887 4.60586 7.88887C4.87253 7.88887 5.10586 7.78887 5.30586 7.58887L10.9309 1.96387C11.1309 1.76387 11.2352 1.5222 11.2439 1.23887C11.2519 0.955534 11.1559 0.713867 10.9559 0.513867C10.7559 0.313867 10.5182 0.213867 10.2429 0.213867C9.96819 0.213867 9.73919 0.305533 9.55586 0.488867Z" fill="#157947"/>
</svg>
