<?xml version="1.0" encoding="UTF-8"?>
<svg width="64px" height="64px" viewBox="0 0 64 64" version="1.1" xmlns="http://www.w3.org/2000/svg" xmlns:xlink="http://www.w3.org/1999/xlink">
    <!-- Generator: Sketch 57.1 (83088) - https://sketch.com -->
    <title>Pictogram/ Page 2/ Step 1/ 5@1x</title>
    <desc>Created with Sketch.</desc>
    <g id="Pictogram/-Page-2/-Step-1/-5" stroke="none" stroke-width="1" fill="none" fill-rule="evenodd">
        <g id="stroke" transform="translate(1.000000, 1.000000)" stroke-linecap="round" stroke-linejoin="round" stroke-width="2">
            <path d="M19.9995139,27 C20.5517744,27 21,27.4472533 21,28.0004861 C21,28.5527467 20.5517744,29 19.9995139,29 C19.4472533,29 19,28.5527467 19,28.0004861 C19,27.4472533 19.4472533,27 19.9995139,27" id="Stroke-3" stroke="#373737"></path>
            <path d="M22.457295,14.0601584 L17.0838101,9.48098676 C16.5117845,8.99519463 15.7273485,8.86591938 15.0357804,9.1456791 C14.3452001,9.42543881 13.8581385,10.0677752 13.7662588,10.8212075 L12.8020151,18.6999277 C9.13867963,21.5258038 6.41884074,25.4383999 5.01298141,29.9034457 L0.0001,29.9034457 L0.0001,46.5254144 L6.7478296,46.5254144 C11.2558662,54.3768657 19.5487568,59.1408605 28.4541791,58.991386 C39.0816063,59.2772054 48.6410545,52.4256174 52.0001,42.1149066" id="Stroke-13" stroke="#373737"></path>
            <path d="M43,55 L45,62" id="Stroke-17" stroke="#373737"></path>
            <path d="M12,55 L14,62" id="Stroke-17-Copy" stroke="#373737" transform="translate(13.000000, 58.500000) scale(-1, 1) translate(-13.000000, -58.500000) "></path>
            <path d="M50.0066769,8 L44.580123,8 C42.8649572,8.00102848 41.3906971,9.2177155 41.0653715,10.8992736 C40.740046,12.5828887 41.654252,14.2593045 43.2448469,14.8990165 L48.7547912,17.102012 C50.3464156,17.741724 51.2606216,19.4181397 50.9342665,21.1007264 C50.608941,22.783313 49.1357104,23.9989715 47.4205446,24 L41.9991383,24" id="Stroke-1" stroke="#EB2F16"></path>
            <path d="M46,8 L46,6" id="Stroke-3" stroke="#EB2F16"></path>
            <path d="M46,26 L46,24" id="Stroke-3-Copy" stroke="#EB2F16"></path>
            <path d="M46,32 C54.8366652,32 62,24.8366652 62,16 C62,7.16333483 54.8366652,0 46,0 C37.1633348,0 30,7.16333483 30,16 C30,24.8366652 37.1633348,32 46,32 Z" id="Stroke-7" stroke="#373737"></path>
        </g>
        <path d="M47,34 C56.3889499,34 64,26.3889499 64,17 C64,7.61105008 56.3889499,0 47,0 C37.6110501,0 30,7.61105008 30,17 C30,26.3889499 37.6110501,34 47,34 Z M47,32 C38.7156196,32 32,25.2843804 32,17 C32,8.71561958 38.7156196,2 47,2 C55.2843804,2 62,8.71561958 62,17 C62,25.2843804 55.2843804,32 47,32 Z" id="Stroke-7" fill="#373737" fill-rule="nonzero"></path>
        <path d="M47,6 C47.5522847,6 48,6.44771525 48,7 L48,7 L47.9999331,8 L51.0066769,8 C51.5589616,8 52.0066769,8.44771525 52.0066769,9 C52.0066769,9.51283584 51.6206367,9.93550716 51.123298,9.99327227 L51.0066769,10 L45.5807226,10 C44.3444862,10.0007411 43.2815629,10.8776585 43.0472096,12.0889946 C42.8239882,13.2442032 43.4105874,14.3949839 44.4559013,14.8997009 L44.6160949,14.9704828 L50.1277203,17.1741521 C52.164013,17.992587 53.3335803,20.1380719 52.916083,22.2905591 C52.5136989,24.3716929 50.7390396,25.8943383 48.6389167,25.9947241 L48.4205446,26 L47.9999331,26 L48,27 C48,27.5128358 47.6139598,27.9355072 47.1166211,27.9932723 L47,28 C46.4871642,28 46.0644928,27.6139598 46.0067277,27.1166211 L46,27 L45.9999331,26 L42.9991383,26 C42.4863024,26 42.0636311,25.6139598 42.005866,25.1166211 L41.9991383,25 C41.9991383,24.4871642 42.3851785,24.0644928 42.8825171,24.0067277 L42.9991383,24 L48.419945,24 C49.600157,23.9992925 50.6211712,23.2010464 50.9155174,22.0735716 L50.9525622,21.9103147 C51.1763821,20.7563679 50.5899275,19.6060589 49.5438571,19.1013326 L49.3835432,19.0305457 L43.87171,16.8267928 C41.8365818,16.0082965 40.6673977,13.863126 41.0835767,11.709329 C41.4860546,9.62901407 43.261831,8.10570876 45.3617742,8.00527821 L45.580123,8 L45.9999331,8 L46,7 C46,6.48716416 46.3860402,6.06449284 46.8833789,6.00672773 Z" id="Stroke-1" fill="#EB2F16" fill-rule="nonzero"></path>
        <path d="M18.568162,9.58975348 L18.7324209,9.71986651 L24.1059058,14.2990381 C24.5262609,14.657256 24.5766331,15.288414 24.2184152,15.7087692 C23.8877526,16.0967893 23.3245255,16.1695576 22.9092111,15.8967088 L22.8086842,15.8212786 L17.4364942,11.2432086 C17.1468038,10.9971894 16.7559348,10.9330788 16.4112489,11.0725142 C16.0983018,11.1992917 15.8642702,11.4763073 15.7823146,11.8135665 L15.7588527,11.9426869 L14.7946091,19.8214072 C14.7621143,20.0869181 14.6246005,20.3283426 14.4128015,20.4917231 C10.9121549,23.192102 8.31156061,26.9328343 6.96681862,31.2037698 C6.84761937,31.5823497 6.51767083,31.8508471 6.13064711,31.896536 L6.01298141,31.9034457 L2.0001,31.9034457 L2.0001,46.5254144 L7.7478296,46.5254144 C8.10594972,46.5254144 8.43673041,46.7169185 8.61504827,47.0274869 C12.9431396,54.5655353 20.898802,59.1348442 29.4810639,58.9917474 C39.6628044,59.2655804 48.8265183,52.6975455 52.0492848,42.805148 C52.2203597,42.2800272 52.7847379,41.9930164 53.3098586,42.1640914 C53.8349794,42.3351663 54.1219902,42.8995445 53.9509152,43.4246652 C52.2711835,48.5806622 49.0995709,52.9067125 45.0337803,55.9767167 L46.9615239,62.7252789 C47.1132482,63.2563139 46.8057561,63.8097997 46.2747211,63.9615239 C45.7436861,64.1132482 45.1902003,63.8057561 45.0384761,63.2747211 L45.0384761,63.2747211 L43.2969723,57.1773776 C39.2424105,59.7358198 34.4669109,61.1260408 29.4709614,60.9912451 C24.5341036,61.0741086 19.7786306,59.7070483 15.7032873,57.1775424 L13.9615239,63.2747211 C13.8097997,63.8057561 13.2563139,64.1132482 12.7252789,63.9615239 C12.1942439,63.8097997 11.8867518,63.2563139 12.0384761,62.7252789 L13.9610023,55.994452 C11.3973375,54.0956412 9.16485188,51.7040875 7.40900419,48.9036337 L7.17627325,48.5254144 L1.0001,48.5254144 C0.487264161,48.5254144 0.0645928393,48.1393742 0.00682773133,47.6420355 L0.0001,47.5254144 L0.0001,30.9034457 C0.0001,30.3906099 0.38614019,29.9679385 0.883478875,29.9101734 L1.0001,29.9034457 L5.29123996,29.9034457 C6.71343527,25.8255806 9.19855871,22.2220169 12.4776877,19.4811915 L12.8595571,19.1687933 L13.7736125,11.700156 C13.90923,10.5880662 14.6308274,9.63589654 15.6607727,9.21865736 C16.6328795,8.82541152 17.7291512,8.97067951 18.568162,9.58975348 Z M20.9995139,27 C22.1042449,27 23,27.8951539 23,29.0004861 C23,30.1051471 22.1039443,31 20.9995139,31 C19.8949685,31 19,30.1050315 19,29.0004861 C19,27.8952692 19.8946679,27 20.9995139,27 Z" id="Stroke-13" fill="#373737" fill-rule="nonzero"></path>
    </g>
</svg>