<?xml version="1.0" encoding="UTF-8"?>
<svg width="64px" height="64px" viewBox="0 0 64 64" version="1.1" xmlns="http://www.w3.org/2000/svg" xmlns:xlink="http://www.w3.org/1999/xlink">
    <!-- Generator: Sketch 57.1 (83088) - https://sketch.com -->
    <title>Pictogram/ Page 2/ Step 1/ 6@1x</title>
    <desc>Created with Sketch.</desc>
    <g id="Pictogram/-Page-2/-Step-1/-6" stroke="none" stroke-width="1" fill="none" fill-rule="evenodd">
        <g id="Group-13" transform="translate(1.000000, 1.000000)" stroke-linecap="round" stroke-linejoin="round" stroke-width="2">
            <polyline id="Stroke-1" stroke="#EA2E18" points="62 45 62 33 50 33"></polyline>
            <path d="M61.0003,34 L46.3309635,47.4666481 C44.6310193,49.0256768 42.1359228,49.60494 39.8334937,48.9729277 L23.2374828,44.8995255 C20.9829545,44.3476137 18.5794017,44.9395758 16.9294872,46.4536701 L0.0003,62" id="Stroke-3" stroke="#EA2E18"></path>
            <path d="M47.5814611,24.6293824 C49.6416052,14.6495201 43.9279884,4.69777851 34.1494855,1.23088862 C24.3709827,-2.23600126 13.4731486,1.82745079 8.52798187,10.7839178 C3.58178922,19.7403847 6.07899579,30.8912765 14.3995978,36.9995106" id="Stroke-11" stroke="#373737"></path>
            <path d="M31.0066769,12 L25.580123,12 C23.8649572,12.0010285 22.3906971,13.2177155 22.0653715,14.8992736 C21.740046,16.5828887 22.654252,18.2593045 24.2448469,18.8990165 L29.7547912,21.102012 C31.3464156,21.741724 32.2606216,23.4181397 31.9342665,25.1007264 C31.608941,26.783313 30.1357104,27.9989715 28.4205446,28 L22.9991383,28" id="Stroke-1" stroke="#373737"></path>
            <path d="M27,12 L27,10" id="Stroke-3" stroke="#373737"></path>
            <path d="M27,30 L27,28" id="Stroke-3-Copy" stroke="#373737"></path>
        </g>
        <path d="M8.65255586,11.3005656 C13.8355169,1.9134161 25.2463348,-2.34118427 35.483647,1.28837277 C45.7301013,4.92117112 51.7225437,15.3595717 49.560812,25.8315499 C49.449158,26.3724305 48.9201742,26.7203874 48.3792936,26.6087333 C47.838413,26.4970793 47.4904561,25.9680955 47.6021101,25.4272149 C49.5605202,15.9401783 44.1265711,6.47463254 34.8153241,3.17340447 C25.4957971,-0.130759193 15.1108645,3.74133291 10.4033654,12.2673468 C5.7009026,20.7824726 8.07478335,31.3817628 15.9913684,37.1934042 C16.4365687,37.52023 16.5325301,38.1460809 16.2057043,38.5912812 C15.8788785,39.0364815 15.2530276,39.1324429 14.8078273,38.8056171 C6.08346456,32.4009783 3.46252345,20.6985727 8.65255586,11.3005656 Z M27.8833789,10.0067277 L28,10 C28.5128358,10 28.9355072,10.3860402 28.9932723,10.8833789 L29,11 L28.9999331,12 L32.0066769,12 C32.5589616,12 33.0066769,12.4477153 33.0066769,13 C33.0066769,13.5128358 32.6206367,13.9355072 32.123298,13.9932723 L32.0066769,14 L26.5807226,14 C25.3444862,14.0007411 24.2815629,14.8776585 24.0472096,16.0889946 C23.8239882,17.2442032 24.4105874,18.3949839 25.4559013,18.8997009 L25.6160949,18.9704828 L31.1277203,21.1741521 C33.164013,21.992587 34.3335803,24.1380719 33.916083,26.2905591 C33.5136989,28.3716929 31.7390396,29.8943383 29.6389167,29.9947241 L29.4205446,30 L28.9999331,30 L29,31 C29,31.5128358 28.6139598,31.9355072 28.1166211,31.9932723 L28,32 C27.4871642,32 27.0644928,31.6139598 27.0067277,31.1166211 L27,31 L26.9999331,30 L23.9991383,30 C23.4863024,30 23.0636311,29.6139598 23.005866,29.1166211 L22.9991383,29 C22.9991383,28.4871642 23.3851785,28.0644928 23.8825171,28.0067277 L23.9991383,28 L29.419945,28 C30.600157,27.9992925 31.6211712,27.2010464 31.9155174,26.0735716 L31.9525622,25.9103147 C32.1763821,24.7563679 31.5899275,23.6060589 30.5438571,23.1013326 L30.3835432,23.0305457 L24.87171,20.8267928 C22.8365818,20.0082965 21.6673977,17.863126 22.0835767,15.709329 C22.4860546,13.6290141 24.261831,12.1057088 26.3617742,12.0052782 L26.580123,12 L26.9999331,12 L27,11 C27,10.4871642 27.3860402,10.0644928 27.8833789,10.0067277 L28,10 Z" id="Stroke-11" fill="#373737" fill-rule="nonzero"></path>
        <path d="M63,33 C63.5522847,33 64,33.4477153 64,34 L64,34 L64,46 C64,46.5522847 63.5522847,47 63,47 C62.4477153,47 62,46.5522847 62,46 L62,46 L61.9992943,36.357 L48.006864,49.2036409 C46.1201825,50.9339275 43.4015928,51.6105878 40.875013,51.015471 L40.5951241,50.9441022 L23.9997026,46.8708445 C22.0662453,46.3975314 20.0064048,46.904977 18.6058713,48.1902191 L18.6058713,48.1902191 L1.67668416,63.736549 C1.26989937,64.1101057 0.637307635,64.083169 0.263750977,63.6763842 C-0.109805682,63.2695994 -0.0828689563,62.6370076 0.323915837,62.263451 L0.323915837,62.263451 L17.2533567,46.7168882 C19.1521635,44.9743902 21.8993425,44.2976175 24.4758524,44.928351 L24.4758524,44.928351 L41.0982002,49.0085987 C43.0715781,49.5502871 45.2108516,49.0541499 46.6546999,47.7299883 L46.6546999,47.7299883 L60.5202943,35 L51,35 C50.4871642,35 50.0644928,34.6139598 50.0067277,34.1166211 L50,34 C50,33.4477153 50.4477153,33 51,33 L51,33 Z" id="Stroke-3" fill="#EB2F16" fill-rule="nonzero"></path>
    </g>
</svg>