<svg width="24" height="24" viewBox="0 0 24 24" fill="none" xmlns="http://www.w3.org/2000/svg">
<g id="edit/2">
<path id="Icon" d="M5.01198 16.9642L5.96066 17.2804H5.96066L5.01198 16.9642ZM5.76117 14.7167L4.81248 14.4004H4.81248L5.76117 14.7167ZM6.53421 13.4658L7.24132 14.173L7.24132 14.1729L6.53421 13.4658ZM14.0001 6L13.2929 5.29289V5.29289L14.0001 6ZM18 10L18.7072 10.7071H18.7072L18 10ZM10.5342 17.4658L9.8271 16.7587L9.8271 16.7587L10.5342 17.4658ZM9.2834 18.2389L9.59963 19.1876H9.59963L9.2834 18.2389ZM7.03584 18.9881L7.35206 19.9368L7.35206 19.9368L7.03584 18.9881ZM10.1242 17.8486L9.52193 17.0503L9.52192 17.0503L10.1242 17.8486ZM9.8091 18.0433L9.36439 17.1476L9.8091 18.0433ZM18.9637 7.11197L18.0676 7.55599V7.55599L18.9637 7.11197ZM18.9637 8.88803L18.0676 8.44402V8.44402L18.9637 8.88803ZM15.112 5.03639L15.556 5.93241V5.93241L15.112 5.03639ZM16.8881 5.03639L16.4441 5.93241V5.93241L16.8881 5.03639ZM5.95676 14.191L6.85244 14.6357L6.85244 14.6357L5.95676 14.191ZM6.15148 13.8759L5.35317 13.2736L5.35317 13.2736L6.15148 13.8759ZM4.63928 18.7547L3.69738 19.0906L4.63928 18.7547ZM5.24531 19.3608L4.90943 20.3027L4.90943 20.3027L5.24531 19.3608ZM13.7072 6.29293C13.3166 5.90241 12.6835 5.90241 12.2929 6.29293C11.9024 6.68345 11.9024 7.31662 12.2929 7.70714L13.7072 6.29293ZM16.2929 11.7071C16.6835 12.0977 17.3166 12.0977 17.7072 11.7071C18.0977 11.3166 18.0977 10.6835 17.7072 10.2929L16.2929 11.7071ZM12 19C11.4478 19 11 19.4477 11 20C11 20.5523 11.4478 21 12 21V19ZM19 21C19.5523 21 20 20.5523 20 20C20 19.4477 19.5523 19 19 19V21ZM5.96066 17.2804L6.70985 15.0329L4.81248 14.4004L4.0633 16.648L5.96066 17.2804ZM7.24132 14.1729L14.7072 6.70711L13.2929 5.29289L5.8271 12.7587L7.24132 14.1729ZM17.2929 9.2929L9.8271 16.7587L11.2413 18.1729L18.7072 10.7071L17.2929 9.2929ZM8.96717 17.2902L6.71961 18.0394L7.35206 19.9368L9.59963 19.1876L8.96717 17.2902ZM9.8271 16.7587C9.60902 16.9768 9.56482 17.0179 9.52193 17.0503L10.7264 18.6469C10.906 18.5114 11.061 18.3533 11.2413 18.1729L9.8271 16.7587ZM9.59963 19.1876C9.84158 19.1069 10.0524 19.039 10.2538 18.939L9.36439 17.1476C9.31627 17.1715 9.25977 17.1927 8.96717 17.2902L9.59963 19.1876ZM9.52192 17.0503C9.47254 17.0875 9.4198 17.1201 9.36439 17.1476L10.2538 18.939C10.42 18.8564 10.5782 18.7587 10.7264 18.6469L9.52192 17.0503ZM17.2929 6.70711C17.8953 7.30945 18.0131 7.44601 18.0676 7.55599L19.8597 6.66796C19.6227 6.18975 19.1953 5.78105 18.7072 5.2929L17.2929 6.70711ZM18.7072 10.7071C19.1953 10.219 19.6227 9.81026 19.8597 9.33205L18.0676 8.44402C18.0131 8.554 17.8953 8.69055 17.2929 9.2929L18.7072 10.7071ZM18.0676 7.55599C18.2063 7.83576 18.2063 8.16424 18.0676 8.44402L19.8597 9.33205C20.2756 8.49272 20.2756 7.50729 19.8597 6.66796L18.0676 7.55599ZM14.7072 6.70711C15.3095 6.10477 15.4461 5.98691 15.556 5.93241L14.668 4.14037C14.1898 4.37734 13.7811 4.80474 13.2929 5.29289L14.7072 6.70711ZM18.7072 5.2929C18.219 4.80474 17.8103 4.37735 17.3321 4.14037L16.4441 5.93241C16.554 5.98691 16.6906 6.10477 17.2929 6.70711L18.7072 5.2929ZM15.556 5.93241C15.8358 5.79377 16.1643 5.79377 16.4441 5.93241L17.3321 4.14037C16.4928 3.72445 15.5073 3.72445 14.668 4.14037L15.556 5.93241ZM6.70985 15.0329C6.80738 14.7403 6.82854 14.6838 6.85244 14.6357L5.06108 13.7463C4.96106 13.9477 4.89313 14.1585 4.81248 14.4004L6.70985 15.0329ZM5.82711 12.7587C5.64676 12.9391 5.48862 13.0941 5.35317 13.2736L6.9498 14.4781C6.98215 14.4352 7.02323 14.391 7.24132 14.173L5.82711 12.7587ZM6.85244 14.6357C6.87995 14.5803 6.91254 14.5275 6.9498 14.4781L5.35317 13.2736C5.2414 13.4218 5.14362 13.58 5.06108 13.7463L6.85244 14.6357ZM4.0633 16.648C3.90675 17.1176 3.76644 17.5354 3.68656 17.8753C3.61018 18.2004 3.53801 18.6437 3.69738 19.0906L5.58119 18.4189C5.6247 18.5409 5.57603 18.5775 5.63353 18.3328C5.68755 18.1029 5.79151 17.7879 5.96066 17.2804L4.0633 16.648ZM6.71961 18.0394C6.21215 18.2085 5.89711 18.3125 5.66724 18.3665C5.42254 18.424 5.45916 18.3753 5.58119 18.4189L4.90943 20.3027C5.35634 20.462 5.79968 20.3899 6.12475 20.3135C6.46465 20.2336 6.88243 20.0933 7.35206 19.9368L6.71961 18.0394ZM3.69738 19.0906C3.89902 19.6561 4.34398 20.101 4.90943 20.3027L5.58119 18.4189L5.58119 18.4189L3.69738 19.0906ZM12.2929 7.70714L16.2929 11.7071L17.7072 10.2929L13.7072 6.29293L12.2929 7.70714ZM12 21H19V19H12V21Z" fill="black"/>
</g>
</svg>
