<svg xmlns="http://www.w3.org/2000/svg" width="80" height="80"><path fill="#eb2f16" d="M39.667 68.556c5.642 0 10.972 3.277 14.565 8.906a1 1 0 1 1-1.686 1.076c-3.244-5.082-7.96-7.982-12.88-7.982s-9.632 2.896-12.88 7.982a1 1 0 1 1-1.685-1.076c3.595-5.633 8.915-8.906 14.565-8.906zm0-22.223c5.244 0 9.5 4.256 9.5 9.5s-4.256 9.5-9.5 9.5-9.5-4.256-9.5-9.5 4.256-9.5 9.5-9.5zm0 2c-4.14 0-7.5 3.36-7.5 7.5s3.36 7.5 7.5 7.5 7.5-3.36 7.5-7.5-3.36-7.5-7.5-7.5z"/><path d="M51.42 29a4.545 4.545 0 0 0-3.11 1.214 4.082 4.082 0 0 0-1.309 3v2.12a1 1 0 0 0 2 0v-2.128a2.087 2.087 0 0 1 .678-1.535 2.546 2.546 0 0 1 1.74-.671h17.146a2.549 2.549 0 0 1 1.752.666A2.09 2.09 0 0 1 71 33.214V78a1 1 0 1 0 2 0V33.22a4.086 4.086 0 0 0-1.319-3.017A4.544 4.544 0 0 0 68.558 29zM56 39a1 1 0 0 0 0 2h8a1 1 0 1 0 0-2h-8zM28.58 29c1.163 0 2.282.435 3.1 1.214a4.082 4.082 0 0 1 1.308 3v2.12a1 1 0 0 1-2 0v-2.127a2.087 2.087 0 0 0-.678-1.535A2.546 2.546 0 0 0 28.58 31H11.435a2.55 2.55 0 0 0-1.752.666A2.091 2.091 0 0 0 9 33.214V78a1 1 0 0 1-2 0V33.22a4.087 4.087 0 0 1 1.319-3.017A4.546 4.546 0 0 1 11.442 29zM24 39a1 1 0 0 1 0 2h-8a1 1 0 0 1 0-2zM35.156 2l-.222.005a4.051 4.051 0 0 0-2.744 1.283 4.402 4.402 0 0 0-1.146 2.409l-.025.218-.02.44V12h-2.843l-.233.005a4.203 4.203 0 0 0-2.696 1.148A3.924 3.924 0 0 0 24 16.02V26l.007.117A1 1 0 0 0 26 26v-9.987l.007-.176a1.94 1.94 0 0 1 .6-1.237c.405-.386.96-.604 1.54-.6H32l.117-.007a1 1 0 0 0 .876-.876L33 13V6.347l.006-.2.018-.183c.07-.5.3-.962.622-1.314A2.045 2.045 0 0 1 35.148 4h9.704a2.045 2.045 0 0 1 1.502.66 2.41 2.41 0 0 1 .622 1.314l.018.184.006.2v6.65a1 1 0 0 0 .293.71l.08.072a.99.99 0 0 0 .486.21h3.99a2.212 2.212 0 0 1 1.54.6c.352.335.562.772.602 1.237l.007.176V26a1 1 0 0 0 1.993.117L56 26v-9.98a3.924 3.924 0 0 0-1.227-2.867 4.203 4.203 0 0 0-2.696-1.148L51.844 12H49V6.353l-.02-.44-.025-.217a4.402 4.402 0 0 0-1.146-2.41 4.051 4.051 0 0 0-2.744-1.282L44.844 2H40zM35 24h10a1 1 0 0 0 0-2H35a1 1 0 0 0 0 2zm2-6h6a1 1 0 0 0 0-2h-6a1 1 0 0 0 0 2z" fill="#373737"/></svg>