<?xml version="1.0" encoding="UTF-8"?>
<svg width="80px" height="80px" viewBox="0 0 80 80" version="1.1" xmlns="http://www.w3.org/2000/svg" xmlns:xlink="http://www.w3.org/1999/xlink">
    <!-- Generator: Sketch 57.1 (83088) - https://sketch.com -->
    <title>Pictogram/ Page 1/ Step 1/ 3@1x</title>
    <desc>Created with Sketch.</desc>
    <g id="Pictogram/-Page-1/-Step-1/-3" stroke="none" stroke-width="1" fill="none" fill-rule="evenodd">
        <path d="M39.6666667,68.5555556 C45.3089239,68.5555556 50.6390533,71.8330777 54.2318212,77.4619804 C54.5289612,77.927519 54.3924472,78.5457923 53.9269085,78.8429323 C53.4613699,79.1400723 52.8430966,79.0035583 52.5459566,78.5380196 C49.3023517,73.4561617 44.5851889,70.5555556 39.6666667,70.5555556 C34.7407395,70.5555556 30.0338373,73.4516877 26.7873767,78.5380196 C26.4902367,79.0035583 25.8719635,79.1400723 25.4064248,78.8429323 C24.9408862,78.5457923 24.8043721,77.927519 25.1015121,77.4619804 C28.6970453,71.8287454 34.0167557,68.5555556 39.6666667,68.5555556 Z M39.6666667,46.3333333 C44.9105038,46.3333333 49.1666667,50.5894962 49.1666667,55.8333333 C49.1666667,61.0771704 44.9105038,65.3333333 39.6666667,65.3333333 C34.4228296,65.3333333 30.1666667,61.0771704 30.1666667,55.8333333 C30.1666667,50.5894962 34.4228296,46.3333333 39.6666667,46.3333333 Z M39.6666667,48.3333333 C35.5273991,48.3333333 32.1666667,51.6940657 32.1666667,55.8333333 C32.1666667,59.9726009 35.5273991,63.3333333 39.6666667,63.3333333 C43.8059343,63.3333333 47.1666667,59.9726009 47.1666667,55.8333333 C47.1666667,51.6940657 43.8059343,48.3333333 39.6666667,48.3333333 Z" id="Shape_1272_2_" fill="#EB2F16" fill-rule="nonzero"></path>
        <path d="M68.5815819,28.9999078 C69.7444345,28.9999078 70.8630768,29.4348262 71.6920793,30.2141401 C72.5346908,31.0062472 73.0082339,32.0893789 73.0001096,33.2136038 L73.0001096,33.2136038 L73.0001096,35.3334679 C73.0001096,35.8857526 72.5522888,36.3334679 72.0000041,36.3334679 C71.4477193,36.3334679 71.0000041,35.8857526 71.0000041,35.3334679 L71.0000041,35.3334679 L71.0000307,33.2063072 C71.0041821,32.637368 70.7630038,32.0857227 70.3222113,31.6713503 C69.867567,31.2439564 69.23996,31 68.5815819,31 L68.5815819,31 L51.4361896,30.9999802 C50.7743945,30.9958109 50.142153,31.2379086 49.6838252,31.665773 C49.239366,32.0806908 48.9959769,32.6346852 49.0002442,33.2136038 L49.0002442,33.2136038 L49.0002442,78 C49.0002442,78.5522847 48.552529,79 48.0002442,79 C47.4479595,79 47.000162,78.5522847 47.000162,78 L47.000162,78 L47.000162,33.2210223 C46.991839,32.0843463 47.4696743,30.9967129 48.319032,30.2038087 C49.1544484,29.4239193 50.2806858,28.9926609 51.4424894,28.9999078 L51.4424894,28.9999078 Z M64.0002675,39 C64.5525522,39 65.0002675,39.4477153 65.0002675,40 C65.0002675,40.5522847 64.5525522,41 64.0002675,41 L56.0002675,41 C55.4479827,41 55.0002675,40.5522847 55.0002675,40 C55.0002675,39.4477153 55.4479827,39 56.0002675,39 L64.0002675,39 Z" id="Path-Copy-6" fill="#373737" fill-rule="nonzero" transform="translate(60.000134, 53.999909) scale(-1, 1) translate(-60.000134, -53.999909) "></path>
        <path d="M28.5814759,28.9999165 C29.7442133,28.9999165 30.862898,29.4350277 31.6919847,30.214411 C32.5346028,31.0065144 33.0081504,32.089643 33.0000261,33.2138656 L33.0000261,33.2138656 L33.0000261,35.3337173 C33.0000261,35.8860021 32.5522053,36.3337173 31.9999205,36.3337173 C31.4476358,36.3337173 30.9999205,35.8860021 30.9999205,35.3337173 L30.9999205,35.3337173 L30.9999472,33.206569 C31.0040986,32.6376374 30.7629201,32.0859986 30.3221257,31.6716297 C29.8673174,31.2440869 29.2396417,31 28.5814759,31 L28.5814759,31 L11.4362775,30.999982 C10.7742454,30.9960144 10.1419065,31.2381998 9.68358571,31.6660524 C9.23912522,32.0809662 8.99570837,32.6349835 8.99992055,33.2138656 L8.99992055,33.2138656 L8.99992055,78 C8.99992055,78.5522847 8.5522053,79 7.99992055,79 C7.4476358,79 6.99984041,78.5522847 6.99984041,78 L6.99984041,78 L6.99984041,33.2211881 C6.99162396,32.084533 7.4694735,30.9969464 8.3188016,30.2040797 C9.1540985,29.4243114 10.280194,28.9930176 11.4422705,28.9999165 L11.4422705,28.9999165 Z M24,39 C24.5522847,39 25,39.4477153 25,40 C25,40.5522847 24.5522847,41 24,41 L24,41 L16,41 C15.4477153,41 15,40.5522847 15,40 C15,39.4477153 15.4477153,39 16,39 L16,39 Z" id="Path" fill="#373737" fill-rule="nonzero"></path>
        <path d="M44.8444912,2.00010625 L44.8444912,2.00010625 L45.0662309,2.00475948 C46.0978221,2.05568491 47.0798709,2.51340873 47.8098223,3.28776401 C48.4291695,3.94478697 48.8291502,4.78953592 48.9562795,5.69686863 L48.9562795,5.69686863 L48.98144,5.9148376 C48.9946924,6.06059878 49.0008944,6.20716873 49.0000001,6.3540175 L49.0000001,6.3540175 L49.0010001,12 L51.8444911,12 L52.0774437,12.0048798 C53.083922,12.0536586 54.0466692,12.4598596 54.7727187,13.153066 C55.5638631,13.9084227 56.0077206,14.9416931 55.9998984,16.0200432 L55.9998984,16.0200432 L56.0000001,25.9999513 L55.9932713,26.1165724 C55.9354969,26.6139111 55.5127606,26.9999513 54.9999247,26.9999513 C54.44764,26.9999513 53.9999247,26.552236 53.9999247,25.9999513 L53.9999247,25.9999513 L53.9999247,16.0127896 L53.9930693,15.8370545 C53.95327,15.3716162 53.7425973,14.9347372 53.3916014,14.5996188 C52.9874862,14.2137839 52.4319106,13.9962308 51.8511033,14.0000713 L51.8511033,14.0000713 L48.0000001,14.0000932 L47.8833789,13.9933654 C47.424297,13.9400438 47.0600494,13.5757962 47.0067278,13.1167143 L47.0067278,13.1167143 L46.9999248,12.9999486 L46.9999248,6.34748911 L46.9944461,6.15777324 L46.9944461,6.15777324 L46.9756267,5.9743841 C46.9054919,5.47382514 46.6869886,5.01235192 46.354498,4.65963549 C45.950574,4.23114028 45.4100741,3.99597792 44.8518379,4.00007926 L44.8518379,4.00007926 L40.0000001,4.00010625 L35.1481623,4.00007926 C34.5899261,3.99597792 34.0494261,4.23114028 33.6455021,4.65963549 C33.3130116,5.01235192 33.0945083,5.47382514 33.0243734,5.9743841 L33.0055541,6.15777324 L33.0055541,6.15777324 L33.0000754,6.34748911 L33,12.9981062 C33,13.2762355 32.8880712,13.5262355 32.7071068,13.7072 L32.6255243,13.7802598 C32.4885094,13.8902241 32.3219148,13.9648464 32.1395705,13.9902967 L32,14.0000932 L28.1488968,14.0000713 C27.5680895,13.9962308 27.0125139,14.2137839 26.6083987,14.5996188 C26.2574028,14.9347372 26.0467301,15.3716162 26.0069308,15.8370545 L26.0000754,16.0127896 L26.0000754,25.9999513 C26.0000754,26.552236 25.5523601,26.9999513 25.0000754,26.9999513 C24.4872395,26.9999513 24.0645032,26.6139111 24.0067288,26.1165724 L24,25.9999513 L24.0001017,16.0200432 C23.9922795,14.9416931 24.436137,13.9084227 25.2272813,13.153066 C25.9533309,12.4598596 26.9160781,12.0536586 27.9225563,12.0048798 L28.155509,12 L31,11.9991062 L31.0000001,6.3540175 C30.9991058,6.20716873 31.0053078,6.06059878 31.0185602,5.9148376 L31.0437207,5.69686863 C31.17085,4.78953592 31.5708307,3.94478697 32.1901779,3.28776401 C32.9201293,2.51340873 33.9021781,2.05568491 34.9337693,2.00475948 L35.155509,2.00010625 L40.0000001,2.00010625 Z" id="Path-Copy-5" fill="#373737" fill-rule="nonzero" transform="translate(40.000000, 14.500029) scale(-1, 1) translate(-40.000000, -14.500029) "></path>
        <path d="M35,24 L45,24 C45.5522847,24 46,23.5522847 46,23 C46,22.4477153 45.5522847,22 45,22 L35,22 C34.4477153,22 34,22.4477153 34,23 C34,23.5522847 34.4477153,24 35,24 Z" id="Path" fill="#373737" fill-rule="nonzero"></path>
        <path d="M37,18 L43,18 C43.5522847,18 44,17.5522847 44,17 C44,16.4477153 43.5522847,16 43,16 L37,16 C36.4477153,16 36,16.4477153 36,17 C36,17.5522847 36.4477153,18 37,18 Z" id="Path" fill="#373737" fill-rule="nonzero"></path>
    </g>
</svg>