<?xml version="1.0" encoding="UTF-8"?>
<svg width="64px" height="64px" viewBox="0 0 64 64" version="1.1" xmlns="http://www.w3.org/2000/svg" xmlns:xlink="http://www.w3.org/1999/xlink">
    <!-- Generator: Sketch 57.1 (83088) - https://sketch.com -->
    <title>Pictogram/ Page 2 elite/ Step 1/ 4@1x</title>
    <desc>Created with Sketch.</desc>
    <g id="Pictogram/-Page-2-elite/-Step-1/-4" stroke="none" stroke-width="1" fill="none" fill-rule="evenodd">
        <g id="old">
            <g id="stroke-version" transform="translate(1.000000, 1.000000)" stroke-linecap="round" stroke-linejoin="round" stroke-width="2">
                <path d="M50.0066769,8 L44.580123,8 C42.8649572,8.00102848 41.3906971,9.2177155 41.0653715,10.8992736 C40.740046,12.5828887 41.654252,14.2593045 43.2448469,14.8990165 L48.7547912,17.102012 C50.3464156,17.741724 51.2606216,19.4181397 50.9342665,21.1007264 C50.608941,22.783313 49.1357104,23.9989715 47.4205446,24 L41.9991383,24" id="Stroke-1" stroke="#373737"></path>
                <path d="M46,8 L46,6" id="Stroke-3" stroke="#373737"></path>
                <path d="M46,26 L46,24" id="Stroke-3-Copy" stroke="#373737"></path>
                <path d="M46,32 C54.8366652,32 62,24.8366652 62,16 C62,7.16333483 54.8366652,0 46,0 C37.1633348,0 30,7.16333483 30,16 C30,24.8366652 37.1633348,32 46,32 Z" id="Stroke-7" stroke="#373737"></path>
                <path d="M16,62 C24.8366652,62 32,54.8366652 32,46 C32,37.1633348 24.8366652,30 16,30 C7.16333483,30 0,37.1633348 0,46 C0,54.8366652 7.16333483,62 16,62 Z" id="Stroke-9" stroke="#373737"></path>
                <path d="M19,54 C14.5813834,54 11,50.4188468 11,46.0005142 C11,41.5821817 14.5813834,38 19,38" id="Stroke-11" stroke="#373737"></path>
                <path d="M9,46 L18,46" id="Stroke-13" stroke="#373737"></path>
                <polyline id="Stroke-15" stroke="#EA2E18" points="2 12 8.00012856 22 18 15.9997943"></polyline>
                <path d="M20,2 C12.2860454,4.72006273 7.39953306,12.0868153 8.05947808,20" id="Stroke-17" stroke="#EA2E18"></path>
                <polyline id="Stroke-19" stroke="#EA2E18" points="60 51 53.9998714 41 44 47.0002057"></polyline>
                <path d="M42,60 C49.7122041,57.2791753 54.5978859,49.914393 53.9410401,42" id="Stroke-21" stroke="#EA2E18"></path>
            </g>
            <path d="M55.791588,41.3889556 L55.8573595,41.4854961 L61.8574881,51.4854961 C62.1416407,51.9590737 61.9880814,52.5733354 61.5145039,52.8574881 C61.0747533,53.1213441 60.5136985,53.0077853 60.2082829,52.6110436 L60.1425119,52.5145039 L55.9648037,45.5505419 C55.506279,52.8818634 50.6081694,59.3762857 43.3326973,61.9430337 C42.8118742,62.1267773 42.24071,61.8535204 42.0569663,61.3326973 C41.8732227,60.8118742 42.1464796,60.24071 42.6673027,60.0569663 C49.7292894,57.5655349 54.2752169,50.9655668 53.9870088,43.7741595 L45.5145136,48.8576879 C45.0409392,49.1418459 44.4266758,48.9882936 44.1425178,48.5147193 C43.8786568,48.0749717 43.9922092,47.5139156 44.3889474,47.2084955 L44.4854864,47.1427235 L54.4853579,41.1425178 C54.925109,40.8786546 55.4861697,40.9922113 55.791588,41.3889556 Z M21.9430866,2.66745271 C22.1267474,3.18830505 21.8533996,3.75942579 21.3325473,3.94308658 C14.0433376,6.51337753 9.43425805,13.4615645 10.0560185,20.9168904 C10.0645251,21.0188902 10.0574089,21.1185889 10.0366652,21.2136281 L18.4854864,16.1423121 C18.9590608,15.8581541 19.5733242,16.0117064 19.8574822,16.4852807 C20.1213432,16.9250283 20.0077908,17.4860844 19.6110526,17.7915045 L19.5145136,17.8572765 L9.51464215,23.8574822 C9.074891,24.1213454 8.51383026,24.0077887 8.20841202,23.6110444 L8.1426405,23.5145039 L2.14251194,13.5145039 C1.8583593,13.0409263 2.01191856,12.4266646 2.48549614,12.1425119 C2.92524675,11.8786559 3.48630153,11.9922147 3.79171709,12.3889564 L3.85748806,12.4854961 L8.00084466,19.3932088 C8.07725983,11.6807405 13.0797141,4.73247041 20.6674527,2.05691342 C21.1883051,1.87325262 21.7594258,2.14660038 21.9430866,2.66745271 Z" id="Stroke-17" fill="#EB2F16" fill-rule="nonzero"></path>
            <path d="M47,6 C47.5522847,6 48,6.44771525 48,7 L48,7 L47.9999331,8 L51.0066769,8 C51.5589616,8 52.0066769,8.44771525 52.0066769,9 C52.0066769,9.51283584 51.6206367,9.93550716 51.123298,9.99327227 L51.0066769,10 L45.5807226,10 C44.3444862,10.0007411 43.2815629,10.8776585 43.0472096,12.0889946 C42.8239882,13.2442032 43.4105874,14.3949839 44.4559013,14.8997009 L44.6160949,14.9704828 L50.1277203,17.1741521 C52.164013,17.992587 53.3335803,20.1380719 52.916083,22.2905591 C52.5136989,24.3716929 50.7390396,25.8943383 48.6389167,25.9947241 L48.4205446,26 L47.9999331,26 L48,27 C48,27.5128358 47.6139598,27.9355072 47.1166211,27.9932723 L47,28 C46.4871642,28 46.0644928,27.6139598 46.0067277,27.1166211 L46,27 L45.9999331,26 L42.9991383,26 C42.4863024,26 42.0636311,25.6139598 42.005866,25.1166211 L41.9991383,25 C41.9991383,24.4871642 42.3851785,24.0644928 42.8825171,24.0067277 L42.9991383,24 L48.419945,24 C49.600157,23.9992925 50.6211712,23.2010464 50.9155174,22.0735716 L50.9525622,21.9103147 C51.1763821,20.7563679 50.5899275,19.6060589 49.5438571,19.1013326 L49.3835432,19.0305457 L43.87171,16.8267928 C41.8365818,16.0082965 40.6673977,13.863126 41.0835767,11.709329 C41.4860546,9.62901407 43.261831,8.10570876 45.3617742,8.00527821 L45.580123,8 L45.9999331,8 L46,7 C46,6.48716416 46.3860402,6.06449284 46.8833789,6.00672773 Z M47,34 C56.3889499,34 64,26.3889499 64,17 C64,7.61105008 56.3889499,0 47,0 C37.6110501,0 30,7.61105008 30,17 C30,26.3889499 37.6110501,34 47,34 Z M17,30 C26.3889499,30 34,37.6110501 34,47 C34,56.3889499 26.3889499,64 17,64 C7.61105008,64 0,56.3889499 0,47 C0,37.6110501 7.61105008,30 17,30 Z M17,32 C8.71561958,32 2,38.7156196 2,47 C2,55.2843804 8.71561958,62 17,62 C25.2843804,62 32,55.2843804 32,47 C32,38.7156196 25.2843804,32 17,32 Z M20,38 C20.5522847,38 21,38.4477153 21,39 C21,39.5522847 20.5522847,40 20,40 C16.4734242,40 13.5561045,42.6078997 13.0708876,46.0004343 L19,46 C19.5522847,46 20,46.4477153 20,47 C20,47.5128358 19.6139598,47.9355072 19.1166211,47.9932723 L19,48 L13.0708826,48.0005201 C13.5560667,51.3927597 16.4732089,54 20,54 C20.5522847,54 21,54.4477153 21,55 C21,55.5522847 20.5522847,56 20,56 C15.367106,56 11.5522692,52.5003994 11.0549123,48.0004085 L10,48 C9.44771525,48 9,47.5522847 9,47 C9,46.4871642 9.38604019,46.0644928 9.88337887,46.0067277 L10,46 L11.0549143,46.0005786 C11.552289,41.5003581 15.3672518,38 20,38 Z M47,2 C55.2843804,2 62,8.71561958 62,17 C62,25.2843804 55.2843804,32 47,32 C38.7156196,32 32,25.2843804 32,17 C32,8.71561958 38.7156196,2 47,2 Z" id="Stroke-7" fill="#373737" fill-rule="nonzero"></path>
        </g>
    </g>
</svg>