<svg width="40" height="45" viewBox="0 0 40 45" fill="none" xmlns="http://www.w3.org/2000/svg">
<g clip-path="url(#clip0_3795_95705)">
<path d="M15.8867 22.6938C12.1817 19.4074 13.3019 14.9132 15.4368 12.8169C17.8154 10.4812 21.6271 10.338 24.2355 12.5364C25.7915 13.8486 26.5696 15.5552 26.5567 17.594C26.5438 19.6292 25.6767 21.2865 24.1054 22.6762C24.3643 22.7654 24.5378 22.8276 24.7112 22.8851C27.1262 23.6774 29.1931 24.9661 30.659 27.1C31.6725 28.5777 32.1319 30.2409 32.2608 32.0097C32.2983 32.5202 31.9116 33.012 31.4253 33.1036C30.9343 33.1963 30.4246 32.8735 30.3098 32.3418C30.2079 31.8723 30.1985 31.3829 30.1012 30.9122C29.6044 28.512 28.1807 26.8077 26.0786 25.6387C24.5483 24.7877 22.8961 24.3535 21.1526 24.2009C18.6708 23.9837 16.3133 24.3898 14.1033 25.5424C11.7083 26.7924 10.2038 28.7197 9.79599 31.4381C9.75966 31.6834 9.77607 31.9381 9.73037 32.181C9.61554 32.7878 9.14567 33.1716 8.6383 33.0989C8.09461 33.0214 7.76769 32.5789 7.79698 31.9474C7.9165 29.3782 8.91014 27.2091 10.7873 25.4532C12.0961 24.229 13.6464 23.4274 15.3395 22.8804C15.5001 22.8288 15.6594 22.7724 15.8867 22.695V22.6938ZM19.9703 22.0717C22.5423 22.0788 24.6221 20.1304 24.5799 17.6503C24.5319 14.7899 22.6466 12.9871 20.0476 12.9613C17.4487 12.9355 15.4462 14.7148 15.4274 17.6433C15.4122 20.1257 17.3268 22.0447 19.9703 22.0717Z" fill="black"/>
<path d="M37.9694 33.8895C37.9694 32.8191 37.96 31.7486 37.9729 30.6782C37.9823 29.8155 38.6279 29.3026 39.3462 29.5737C39.7997 29.7451 40.0059 30.1218 40.0036 30.5737C39.9907 32.9188 40.0317 35.2663 39.9063 37.6055C39.7891 39.7793 37.6577 41.8849 35.4876 41.9929C33.1816 42.1067 30.8674 42.0751 28.5567 42.0844C27.9029 42.0868 27.4459 41.6349 27.4424 41.0762C27.4389 40.4894 27.924 40.0586 28.6364 40.0551C30.6272 40.0469 32.6204 39.994 34.6076 40.0668C36.4578 40.1337 38.0948 38.5691 37.9799 36.6607C37.9249 35.7405 37.9706 34.8132 37.9706 33.8895H37.9694Z" fill="black"/>
<path d="M37.9695 10.2007C37.9695 9.18897 37.9741 8.17722 37.9671 7.16429C37.9554 5.46943 36.5505 4.05744 34.8608 4.05157C32.8114 4.04336 30.762 4.04923 28.7126 4.04688C28.2369 4.04688 27.8022 3.94829 27.5643 3.47645C27.1987 2.75226 27.7073 2.02573 28.6095 2.01164C29.7508 1.99404 30.8933 1.99638 32.0345 2.00929C33.1747 2.0222 34.3183 2.0046 35.4537 2.09498C37.6929 2.27221 39.7904 4.31214 39.9087 6.54926C40.0317 8.85915 39.9942 11.1784 40.0013 13.4942C40.0036 14.1679 39.5771 14.5646 38.9701 14.5576C38.3737 14.5505 37.9823 14.1409 37.973 13.4566C37.9577 12.3709 37.9683 11.2864 37.9683 10.2007H37.9695Z" fill="black"/>
<path d="M8.09798 4.04197C7.08793 4.04197 6.07788 4.03728 5.06784 4.04197C3.46371 4.05019 2.03418 5.47626 2.02949 7.08075C2.02363 9.09016 2.03066 11.0984 2.02363 13.1078C2.02363 13.3543 1.99551 13.6067 1.93927 13.8461C1.83264 14.2992 1.4776 14.5515 1.00421 14.5468C0.530823 14.5421 0.194531 14.2886 0.0867304 13.8238C0.037517 13.6114 0.00822324 13.3895 0.00822324 13.1724C0.0023645 11.2803 -0.00349425 9.38829 0.00705149 7.49742C0.0211125 4.80372 1.64281 2.73914 4.21246 2.16049C4.65069 2.0619 5.11002 2.02317 5.55997 2.01847C7.4336 2.00321 9.30722 2.01026 11.1809 2.01143C12.0526 2.01143 12.5541 2.38702 12.5506 3.03022C12.5471 3.67342 12.0468 4.0408 11.1726 4.04197C10.1485 4.04197 9.12326 4.04197 8.09915 4.04197H8.09798Z" fill="black"/>
<path d="M2.02832 33.9817C2.02832 34.9934 2.02481 36.0052 2.02832 37.0169C2.03653 38.6202 3.46372 40.0498 5.06784 40.0545C7.08794 40.0604 9.10803 40.0522 11.1281 40.058C11.3601 40.058 11.5968 40.0862 11.8206 40.1402C12.2495 40.2446 12.4967 40.5909 12.5038 41.0451C12.5108 41.5041 12.2811 41.8679 11.8687 41.99C11.6613 42.051 11.4386 42.0804 11.2219 42.0815C9.31895 42.0874 7.41603 42.0933 5.51311 42.0815C2.77004 42.0663 0.67847 40.409 0.134778 37.8174C0.0515839 37.4183 0.0117445 37.004 0.00822923 36.5967C-0.00466001 34.7047 2.69816e-05 32.8126 0.00588573 30.9218C0.00588573 30.7046 0.0351795 30.4828 0.0855647 30.2703C0.194537 29.8044 0.527314 29.5544 1.00422 29.5508C1.48229 29.5462 1.82913 29.7938 1.93927 30.2504C1.99317 30.4757 2.02012 30.7128 2.02247 30.9452C2.03067 31.957 2.02598 32.9687 2.02598 33.9805L2.02832 33.9817Z" fill="black"/>
<path d="M19.9702 22.0717C17.3267 22.0447 15.4121 20.1245 15.4273 17.6432C15.4461 14.7148 17.4486 12.9354 20.0475 12.9612C22.6465 12.987 24.5318 14.7911 24.5799 17.6502C24.6221 20.1303 22.5422 22.0799 19.9702 22.0717Z" fill="#F7A1A5"/>
</g>
<defs>
<clipPath id="clip0_3795_95705">
<rect width="40" height="44.1" fill="white" transform="translate(0 0.307617)"/>
</clipPath>
</defs>
</svg>
