<svg width="40" height="45" viewBox="0 0 40 45" fill="none" xmlns="http://www.w3.org/2000/svg">
<g clip-path="url(#clip0_2970_83944)">
<path d="M19.9295 0C20.1726 0.194671 20.4414 0.363502 20.6545 0.586599C23.6117 3.68842 26.5594 6.79972 29.5158 9.9024C29.8318 10.234 29.983 10.595 29.9813 11.0567C29.9701 13.5684 29.9761 16.0802 29.9761 18.592V19.027C30.8058 19.3181 31.6235 19.5369 32.3836 19.8832C36.448 21.7309 39.035 24.8533 39.7857 29.2584C40.624 34.1726 38.9843 38.2779 35.1107 41.4237C33.1824 42.9888 30.9372 43.8269 28.4645 44.044C28.3958 44.05 28.3288 44.0819 28.2609 44.1017H26.3713C26.2923 44.0767 26.2141 44.0371 26.1325 44.0285C22.1498 43.5745 19.0612 41.6494 16.8375 38.3219C16.6502 38.0419 16.4587 37.9627 16.1435 37.9635C12.5086 37.973 8.87373 37.9739 5.23885 37.9635C4.78363 37.9627 4.3181 37.936 3.87577 37.8386C1.53783 37.3227 0.00812541 35.3803 0.0055487 32.927C-0.00046363 26.5261 0.00297199 20.1261 0.00297199 13.7252C0.00297199 10.8267 -0.00561705 7.92726 0.0064076 5.02873C0.0141377 3.30769 0.684942 1.87694 2.11416 0.919952C2.75834 0.488402 3.56485 0.298898 4.29749 0C9.50846 0 14.7186 0 19.9295 0ZM18.7984 1.85799C18.6266 1.8468 18.5149 1.83215 18.4024 1.83215C13.9791 1.83129 9.5557 1.82871 5.13234 1.83646C4.80682 1.83646 4.47099 1.87005 4.15749 1.95533C2.68705 2.35673 1.83244 3.5239 1.83158 5.16827C1.82471 14.385 1.82299 23.6018 1.84274 32.8177C1.8436 33.3457 1.95698 33.9185 2.18115 34.3931C2.77809 35.6602 3.87663 36.1348 5.23198 36.1314C8.55336 36.1236 11.8739 36.1288 15.1953 36.1288C15.3344 36.1288 15.4735 36.1288 15.6797 36.1288C14.7237 33.6153 14.5408 31.107 15.1283 28.5065C14.941 28.5065 14.7864 28.5065 14.6318 28.5065C12.3274 28.5065 10.0221 28.5082 7.71764 28.503C7.5201 28.503 7.31482 28.4866 7.12586 28.4315C6.71788 28.3135 6.48426 27.9397 6.51604 27.5081C6.54524 27.1041 6.82696 26.7742 7.22721 26.7053C7.42304 26.6717 7.62574 26.6691 7.82587 26.6691C10.3313 26.6665 12.8359 26.6631 15.3413 26.6743C15.6256 26.676 15.763 26.5856 15.8944 26.3306C16.256 25.632 16.6614 24.9567 17.0505 24.2728C17.1244 24.1427 17.2042 24.0152 17.3245 23.8162C17.066 23.8162 16.8967 23.8162 16.7275 23.8162C13.7643 23.8162 10.8011 23.8162 7.83789 23.8145C7.63863 23.8145 7.43592 23.8085 7.24009 23.774C6.81322 23.7 6.53064 23.364 6.5126 22.9402C6.49371 22.5061 6.73506 22.1486 7.15592 22.0401C7.36034 21.9875 7.57936 21.9738 7.79151 21.9738C11.356 21.9703 14.9204 21.966 18.4849 21.9781C18.8774 21.9789 19.1823 21.885 19.4941 21.6318C21.2437 20.214 23.238 19.3199 25.4617 18.9856C26.3309 18.8556 27.2173 18.8418 28.1149 18.7737V11.6751C27.9311 11.6751 27.7765 11.6751 27.6219 11.6751C26.1042 11.6751 24.5874 11.6837 23.0697 11.6725C20.9826 11.6579 19.4838 10.5657 18.9487 8.64221C18.8319 8.22099 18.8078 7.7636 18.8035 7.32258C18.7881 5.51541 18.7975 3.70823 18.7975 1.85541L18.7984 1.85799ZM27.402 42.2764C33.3241 42.2704 38.1495 37.4277 38.1581 31.4791C38.1666 25.5364 33.3508 20.692 27.4166 20.6739C21.4867 20.6559 16.6133 25.5433 16.6365 31.486C16.6597 37.4424 21.4884 42.2816 27.402 42.2764ZM20.6218 3.22414C20.6218 4.74016 20.6115 6.12612 20.6244 7.51208C20.6373 8.8989 21.5658 9.81799 22.9529 9.82746C24.1244 9.83608 25.2968 9.83005 26.4692 9.82746C26.5723 9.82746 26.6754 9.80593 26.8386 9.78698C24.7652 7.59822 22.7399 5.45942 20.6227 3.22328L20.6218 3.22414Z" fill="#2C2C2C"/>
<path d="M12.0691 17.3811C13.5713 17.3811 15.0727 17.3716 16.574 17.3854C17.3917 17.3923 17.8452 18.1047 17.4673 18.7481C17.2423 19.1306 16.8815 19.2124 16.4735 19.2115C14.1279 19.2081 11.7822 19.2098 9.43655 19.2098C8.84992 19.2098 8.26329 19.2115 7.67752 19.2098C6.93371 19.2072 6.518 18.8842 6.50941 18.3062C6.50082 17.7076 6.91309 17.382 7.69212 17.3811C9.1514 17.3794 10.6098 17.3811 12.0691 17.3811Z" fill="#EB151D"/>
<path d="M28.3329 27.8036C28.3329 29.5686 28.3329 31.3335 28.3329 33.0985C28.3329 34.5198 28.3346 35.941 28.3303 37.3615C28.3303 37.5458 28.3131 37.7353 28.2693 37.9136C28.168 38.3296 27.8055 38.5984 27.3924 38.5915C26.9775 38.5837 26.6245 38.3012 26.5403 37.8834C26.5008 37.6888 26.4888 37.4855 26.4888 37.2857C26.4854 34.2708 26.4862 31.2569 26.4862 28.242V27.7898C26.4502 27.7709 26.4141 27.7528 26.378 27.7338C26.281 27.8501 26.1899 27.9707 26.0868 28.081C25.033 29.2154 23.9782 30.349 22.9209 31.4791C22.7947 31.6143 22.659 31.747 22.5061 31.8495C22.1479 32.0907 21.6626 32.0304 21.368 31.7289C21.0812 31.4352 21.0236 30.9752 21.2495 30.6212C21.3483 30.4653 21.4754 30.3249 21.6016 30.1888C23.2396 28.4229 24.8784 26.6588 26.5189 24.8956C27.1356 24.2323 27.6243 24.2349 28.2496 24.9059C29.921 26.6993 31.5898 28.4944 33.2613 30.2878C33.5584 30.6065 33.7792 30.9425 33.6023 31.4059C33.3901 31.9598 32.7545 32.1734 32.2667 31.8392C32.1155 31.7349 31.9824 31.5988 31.8561 31.4636C30.8125 30.3395 29.7707 29.2137 28.7314 28.0853C28.6283 27.9733 28.5433 27.8441 28.4497 27.7235C28.411 27.7502 28.3715 27.7769 28.3329 27.8036Z" fill="#EB151D"/>
</g>
<defs>
<clipPath id="clip0_2970_83944">
<rect width="40" height="44.1026" fill="white"/>
</clipPath>
</defs>
</svg>
