<?xml version="1.0" encoding="UTF-8"?>
<svg width="20px" height="26px" viewBox="0 0 20 26" version="1.1" xmlns="http://www.w3.org/2000/svg" xmlns:xlink="http://www.w3.org/1999/xlink">
    <!-- Generator: Sketch 62 (91390) - https://sketch.com -->
    <title>Path 2</title>
    <desc>Created with Sketch.</desc>
    <g id="Final-Journey-screens" stroke="none" stroke-width="1" fill="none" fill-rule="evenodd" stroke-linecap="round" stroke-linejoin="round">
        <g id="14.5-Uploaded-state-—-edited" transform="translate(-740.000000, -350.000000)" stroke="#373737">
            <g id="Group-3-Copy" transform="translate(715.000000, 328.000000)">
                <g id="Group-4">
                    <g id="Group-7-Copy">
                        <g id="3" transform="translate(26.000000, 23.000000)">
                            <g id="1">
                                <g id="document_20">
                                    <path d="M-0.308571429,6.53142857 L5.39027027,6.53142857 C6.02998234,6.53142857 6.54857143,6.07612493 6.54857143,5.51447942 L6.54857143,0.531428571 M17.675314,16.8156285 L17.675314,22.614215 C17.675314,23.1996759 17.1943307,23.6742857 16.6010078,23.6742857 L0.765734749,23.6742857 C0.17241183,23.6742857 -0.308571429,23.1996759 -0.308571429,22.614215 L-0.308571429,5.92870268 L6.05132114,-0.325714286 L16.6171224,-0.325714286 C17.2104453,-0.325714286 17.6914286,0.14889552 17.6914286,0.734356386 L17.6914286,5.94990409 L17.675314,16.8156285 Z" id="Path-2" transform="translate(9.000000, 12.000000) scale(-1, 1) translate(-9.000000, -12.000000) "></path>
                                </g>
                            </g>
                        </g>
                    </g>
                </g>
            </g>
        </g>
    </g>
</svg>