<svg xmlns="http://www.w3.org/2000/svg" width="80" height="80"><g fill="none" fill-rule="evenodd"><g stroke="#373737" class="B"><path d="M13 37h54" class="C D"/><path d="M13 69c4.416 0 8-3.584 8-8s-3.584-8-8-8-8 3.584-8 8a8 8 0 0 0 8 8zm54 0c4.416 0 8-3.584 8-8s-3.584-8-8-8-8 3.584-8 8a8 8 0 0 0 8 8zm-27 0c4.416 0 8-3.584 8-8s-3.584-8-8-8-8 3.584-8 8a8 8 0 0 0 8 8z"/><path d="M25 79c-2.992-3.81-7.387-6-12-6-4.623 0-9.008 2.19-12 6m78 0c-2.992-3.81-7.387-6-12-6-4.623 0-9.008 2.19-12 6m-3 0c-2.992-3.81-7.387-6-12-6-4.623 0-9.008 2.19-12 6m-4-42l.995 9m31-9L55 46" class="C D"/></g><g stroke="#eb2f16" class="B"><path d="M40 17c4.416 0 8-3.584 8-8s-3.584-8-8-8-8 3.584-8 8 3.584 8 8 8z"/><path d="M52 28c-2.992-3.81-7.387-6-12-6-4.623 0-9.008 2.19-12 6" class="C D"/></g><g fill-rule="nonzero"><path fill="#eb2f16" d="M40 21c4.93 0 9.6 2.34 12.786 6.382a1 1 0 1 1-1.572 1.236C48.412 25.05 44.307 23 40 23c-4.313 0-8.4 2.048-11.214 5.618a1 1 0 1 1-1.572-1.236C30.392 23.336 35.064 21 40 21zm0-21c4.968 0 9 4.032 9 9s-4.032 9-9 9-9-4.032-9-9 4.032-9 9-9zm0 2c-3.863 0-7 3.137-7 7s3.137 7 7 7 7-3.137 7-7-3.137-7-7-7z"/><path fill="#373737" d="M40 72c4.93 0 9.6 2.34 12.786 6.382a1 1 0 1 1-1.572 1.236C48.412 76.05 44.307 74 40 74c-4.313 0-8.4 2.048-11.214 5.618a1 1 0 1 1-1.572-1.236C30.392 74.336 35.064 72 40 72zm0-20c4.968 0 9 4.032 9 9s-4.032 9-9 9a9 9 0 0 1-9-9c0-4.968 4.032-9 9-9zm0 2c-3.863 0-7 3.137-7 7a7 7 0 0 0 7 7c3.863 0 7-3.137 7-7s-3.137-7-7-7zm27 16c4.968 0 9-4.032 9-9s-4.032-9-9-9-9 4.032-9 9a9 9 0 0 0 9 9zm0 2c4.93 0 9.6 2.34 12.786 6.382a1 1 0 1 1-1.572 1.236C75.412 76.05 71.307 74 67 74c-4.313 0-8.4 2.048-11.214 5.618a1 1 0 1 1-1.572-1.236C57.392 74.336 62.064 72 67 72zm0-18c3.863 0 7 3.137 7 7s-3.137 7-7 7a7 7 0 0 1-7-7c0-3.863 3.137-7 7-7zM13 70c4.968 0 9-4.032 9-9s-4.032-9-9-9-9 4.032-9 9a9 9 0 0 0 9 9zm0 2c4.93 0 9.6 2.34 12.786 6.382a1 1 0 1 1-1.572 1.236C21.412 76.05 17.307 74 13 74c-4.313 0-8.4 2.048-11.214 5.618a1 1 0 1 1-1.572-1.236C3.392 74.336 8.064 72 13 72zm0-18c3.863 0 7 3.137 7 7s-3.137 7-7 7a7 7 0 0 1-7-7c0-3.863 3.137-7 7-7zm12.99-8.1a1 1 0 1 1-1.988.22l-.896-8.1H13a1 1 0 0 1-.993-.883L12 37a1 1 0 0 1 .883-.993L13 36h54a1 1 0 0 1 .117 1.993L67 38H56.89l-.895 8.1a1 1 0 1 1-1.988-.22l.872-7.9H25.116z"/></g></g></svg>