<?xml version="1.0" encoding="UTF-8"?>
<svg width="80px" height="80px" viewBox="0 0 80 80" version="1.1" xmlns="http://www.w3.org/2000/svg" xmlns:xlink="http://www.w3.org/1999/xlink">
    <!-- Generator: Sketch 57.1 (83088) - https://sketch.com -->
    <title>Pictogram/ Page 1/ Step 1/ 2@1x</title>
    <desc>Created with Sketch.</desc>
    <g id="Pictogram/-Page-1/-Step-1/-2" stroke="none" stroke-width="1" fill="none" fill-rule="evenodd">
        <g id="stroke" transform="translate(1.000000, 0.000000)" stroke-width="2">
            <path d="M12,37 L66,37" id="Shape_1270_2_" stroke="#373737" stroke-linecap="round" stroke-linejoin="round"></path>
            <path d="M12,69 C16.4155609,69 20,65.4155609 20,61 C20,56.5844391 16.4155609,53 12,53 C7.58443909,53 4,56.5844391 4,61 C4,65.4217105 7.58094007,69 12,69 Z" id="Oval_140_2_" stroke="#373737"></path>
            <path d="M66,69 C70.4155609,69 74,65.4155609 74,61 C74,56.5844391 70.4155609,53 66,53 C61.5844391,53 58,56.5844391 58,61 C58,65.4217105 61.5809401,69 66,69 Z" id="Oval_140_2_-Copy" stroke="#373737"></path>
            <path d="M39,69 C43.4155609,69 47,65.4155609 47,61 C47,56.5844391 43.4155609,53 39,53 C34.5844391,53 31,56.5844391 31,61 C31,65.4217105 34.5809401,69 39,69 Z" id="Oval_140_2_-Copy-2" stroke="#373737"></path>
            <path d="M24,79 C21.0077922,75.1910112 16.612987,73 12,73 C7.37662338,73 2.99220779,75.1910112 0,79" id="Shape_1273_2_" stroke="#373737" stroke-linecap="round" stroke-linejoin="round"></path>
            <path d="M78,79 C75.0077922,75.1910112 70.612987,73 66,73 C61.3766234,73 56.9922078,75.1910112 54,79" id="Shape_1273_2_-Copy" stroke="#373737" stroke-linecap="round" stroke-linejoin="round"></path>
            <path d="M51,79 C48.0077922,75.1910112 43.612987,73 39,73 C34.3766234,73 29.9922078,75.1910112 27,79" id="Shape_1273_2_-Copy-2" stroke="#373737" stroke-linecap="round" stroke-linejoin="round"></path>
            <path d="M23,37 L23.9950372,46" id="Line" stroke="#373737" stroke-linecap="round" stroke-linejoin="round"></path>
            <path d="M54,37 L54.9950372,46" id="Line-Copy" stroke="#373737" stroke-linecap="round" stroke-linejoin="round" transform="translate(54.497519, 41.500000) scale(-1, 1) translate(-54.497519, -41.500000) "></path>
            <path d="M39,17 C43.4155609,17 47,13.4155609 47,9 C47,4.58443909 43.4155609,1 39,1 C34.5844391,1 31,4.58443909 31,9 C31,13.4155609 34.5844391,17 39,17 Z" id="Oval_139_2_" stroke="#EB2F16"></path>
            <path d="M51,28 C48.0077922,24.1910112 43.612987,22 39,22 C34.3766234,22 29.9922078,24.1910112 27,28" id="Shape_1272_2_" stroke="#EB2F16" stroke-linecap="round" stroke-linejoin="round"></path>
        </g>
        <path d="M40,21 C44.9286604,21 49.6100287,23.3388592 52.7863754,27.3822511 C53.1275487,27.8165542 53.0520521,28.4452021 52.6177489,28.7863754 C52.1834458,29.1275487 51.5547979,29.0520521 51.2136246,28.6177489 C48.4116047,25.0508636 44.3066771,23 40,23 C35.6868361,23 31.590908,25.047665 28.7863754,28.6177489 C28.4452021,29.0520521 27.8165542,29.1275487 27.3822511,28.7863754 C26.9479479,28.4452021 26.8724513,27.8165542 27.2136246,27.3822511 C30.392374,23.3358006 35.0646576,21 40,21 Z M40,0 C44.9678457,0 49,4.03215434 49,9 C49,13.9678457 44.9678457,18 40,18 C35.0321543,18 31,13.9678457 31,9 C31,4.03215434 35.0321543,0 40,0 Z M40,2 C36.1367238,2 33,5.13672384 33,9 C33,12.8632762 36.1367238,16 40,16 C43.8632762,16 47,12.8632762 47,9 C47,5.13672384 43.8632762,2 40,2 Z" id="Shape_1272_2_" fill="#EB2F16" fill-rule="nonzero"></path>
        <path d="M40,72 C44.9286604,72 49.6100287,74.3388592 52.7863754,78.3822511 C53.1275487,78.8165542 53.0520521,79.4452021 52.6177489,79.7863754 C52.1834458,80.1275487 51.5547979,80.0520521 51.2136246,79.6177489 C48.4116047,76.0508636 44.3066771,74 40,74 C35.6868361,74 31.590908,76.047665 28.7863754,79.6177489 C28.4452021,80.0520521 27.8165542,80.1275487 27.3822511,79.7863754 C26.9479479,79.4452021 26.8724513,78.8165542 27.2136246,78.3822511 C30.392374,74.3358006 35.0646576,72 40,72 Z M40,52 C44.9678457,52 49,56.0321543 49,61 C49,65.9678457 44.9678457,70 40,70 C35.0321543,70 31,65.977492 31,61 C31,56.0321543 35.0321543,52 40,52 Z M40,54 C36.1367238,54 33,57.1367238 33,61 C33,64.8692599 36.1330591,68 40,68 C43.8632762,68 47,64.8632762 47,61 C47,57.1367238 43.8632762,54 40,54 Z" id="Shape_1273_2_-Copy-2" fill="#373737" fill-rule="nonzero"></path>
        <path d="M67,70 C71.9678457,70 76,65.9678457 76,61 C76,56.0321543 71.9678457,52 67,52 C62.0321543,52 58,56.0321543 58,61 C58,65.977492 62.0321543,70 67,70 Z M67,72 C71.9286604,72 76.6100287,74.3388592 79.7863754,78.3822511 C80.1275487,78.8165542 80.0520521,79.4452021 79.6177489,79.7863754 C79.1834458,80.1275487 78.5547979,80.0520521 78.2136246,79.6177489 C75.4116047,76.0508636 71.3066771,74 67,74 C62.6868361,74 58.590908,76.047665 55.7863754,79.6177489 C55.4452021,80.0520521 54.8165542,80.1275487 54.3822511,79.7863754 C53.9479479,79.4452021 53.8724513,78.8165542 54.2136246,78.3822511 C57.392374,74.3358006 62.0646576,72 67,72 Z M67,54 C70.8632762,54 74,57.1367238 74,61 C74,64.8632762 70.8632762,68 67,68 C63.1330591,68 60,64.8692599 60,61 C60,57.1367238 63.1367238,54 67,54 Z" id="Oval_140_2_-Copy" fill="#373737" fill-rule="nonzero"></path>
        <path d="M13,70 C17.9678457,70 22,65.9678457 22,61 C22,56.0321543 17.9678457,52 13,52 C8.03215434,52 4,56.0321543 4,61 C4,65.977492 8.03215434,70 13,70 Z M13,72 C17.9286604,72 22.6100287,74.3388592 25.7863754,78.3822511 C26.1275487,78.8165542 26.0520521,79.4452021 25.6177489,79.7863754 C25.1834458,80.1275487 24.5547979,80.0520521 24.2136246,79.6177489 C21.4116047,76.0508636 17.3066771,74 13,74 C8.68683615,74 4.59090797,76.047665 1.78637541,79.6177489 C1.44520211,80.0520521 0.816554243,80.1275487 0.382251095,79.7863754 C-0.0520520534,79.4452021 -0.127548713,78.8165542 0.213624587,78.3822511 C3.39237396,74.3358006 8.06465763,72 13,72 Z M13,54 C16.8632762,54 20,57.1367238 20,61 C20,64.8632762 16.8632762,68 13,68 C9.13305912,68 6,64.8692599 6,61 C6,57.1367238 9.13672384,54 13,54 Z" id="Oval_140_2_" fill="#373737" fill-rule="nonzero"></path>
        <path d="M25.9889809,45.8901099 C26.0496716,46.4390499 25.6538673,46.9332531 25.1049273,46.9939437 C24.5559873,47.0546344 24.0617841,46.6588301 24.0010934,46.1098901 L24.0010934,46.1098901 L23.105,38 L13,38 C12.4871642,38 12.0644928,37.6139598 12.0067277,37.1166211 L12,37 C12,36.4871642 12.3860402,36.0644928 12.8833789,36.0067277 L13,36 L24.006,36 L67,36 C67.5522847,36 68,36.4477153 68,37 C68,37.5128358 67.6139598,37.9355072 67.1166211,37.9932723 L67,38 L56.889,38 L55.9939437,46.1098901 C55.9332531,46.6588301 55.4390499,47.0546344 54.8901099,46.9939437 C54.3411699,46.9332531 53.9453656,46.4390499 54.0060563,45.8901099 L54.878,38 L25.116,38 Z" id="Shape_1270_2_" fill="#373737" fill-rule="nonzero"></path>
    </g>
</svg>