<?xml version="1.0" encoding="UTF-8"?>
<svg xmlns="http://www.w3.org/2000/svg" xmlns:xlink="http://www.w3.org/1999/xlink" viewBox="0 0 24 24" version="1.1">
<g id="surface1">
<path style=" stroke:none;fill-rule:evenodd;" d="M 13.125 7.125 C 13.125 7.953125 12.453125 8.625 11.625 8.625 C 10.796875 8.625 10.125 7.953125 10.125 7.125 C 10.125 6.296875 10.796875 5.625 11.625 5.625 C 12.453125 5.625 13.125 6.296875 13.125 7.125 Z M 13.125 7.125 "/>
<path style=" stroke:none;fill-rule:nonzero;" d="M 11.101562 9.75 C 11.933594 9.75 12.449219 10.558594 12.449219 11.4375 L 12.449219 16.125 C 12.449219 16.796875 12.738281 17.25 12.898438 17.25 L 13.5 17.25 C 13.914062 17.25 14.25 17.585938 14.25 18 C 14.25 18.414062 13.914062 18.75 13.5 18.75 L 12.898438 18.75 C 11.734375 18.75 10.949219 17.523438 10.949219 16.125 L 10.949219 11.4375 C 10.949219 11.28125 10.929688 11.25 11.101562 11.25 L 10.5 11.25 C 10.085938 11.25 9.75 10.914062 9.75 10.5 C 9.75 10.085938 10.085938 9.75 10.5 9.75 Z M 11.625 6 C 12.246094 6 12.75 6.503906 12.75 7.125 C 12.75 7.746094 12.246094 8.25 11.625 8.25 C 11.003906 8.25 10.5 7.746094 10.5 7.125 C 10.5 6.503906 11.003906 6 11.625 6 Z M 12 24 C 18.628906 24 24 18.628906 24 12 C 24 5.371094 18.628906 0 12 0 C 5.371094 0 0 5.371094 0 12 C 0 18.628906 5.371094 24 12 24 Z M 12 22.5 C 6.199219 22.5 1.5 17.800781 1.5 12 C 1.5 6.199219 6.199219 1.5 12 1.5 C 17.800781 1.5 22.5 6.199219 22.5 12 C 22.5 17.800781 17.800781 22.5 12 22.5 Z M 12 22.5 "/>
</g>
</svg>
