<?xml version="1.0" encoding="UTF-8"?>
<svg width="64px" height="64px" viewBox="0 0 64 64" version="1.1" xmlns="http://www.w3.org/2000/svg" xmlns:xlink="http://www.w3.org/1999/xlink">
    <!-- Generator: Sketch 57.1 (83088) - https://sketch.com -->
    <title>Pictogram/ Page 3/ Step 1/ 1@1x</title>
    <desc>Created with Sketch.</desc>
    <g id="Pictogram/-Page-3/-Step-1/-1" stroke="none" stroke-width="1" fill="none" fill-rule="evenodd">
        <path d="M54.2013071,40.3982611 L45.8110632,51.5346991 C45.6111571,51.8027058 45.3012393,51.9696014 44.9480934,51.9966241 C44.6166798,52.0223126 44.2792856,51.8970439 44.0320463,51.6555723 L39.7052462,47.3513936 C39.313697,46.9618969 38.6805342,46.9635608 38.2910375,47.35511 C37.9015408,47.7466591 37.9032046,48.3798219 38.2947538,48.7693186 L42.6280872,53.079937 C43.2901571,53.7266207 44.1914896,54.06127 45.101672,53.9907185 C46.0234678,53.9201833 46.8647838,53.4671215 47.4113519,52.7343044 L55.7986929,41.6017389 C56.1310241,41.160633 56.0428448,40.5336384 55.6017389,40.2013071 C55.160633,39.8689759 54.5336384,39.9571552 54.2013071,40.3982611 Z M47,64 C56.3886545,64 64,56.3886545 64,47 C64,37.6113455 56.3886545,30 47,30 C37.6113455,30 30,37.6113455 30,47 C30,56.3886545 37.6033755,64 47,64 Z M47,62 C38.7108427,62 32,55.2869834 32,47 C32,38.715915 38.715915,32 47,32 C55.284085,32 62,38.715915 62,47 C62,55.284085 55.284085,62 47,62 Z" id="Oval_19_2_" fill="#EB2F16" fill-rule="nonzero"></path>
        <path d="M54.7385,0 C59.757708,0 63.8539982,3.97873321 63.9961829,8.93655789 L64,9.20307519 L64,30 C64,30.5522847 63.5522847,31 63,31 C62.4871642,31 62.0644928,30.6139598 62.0067277,30.1166211 L62,30 L62,9.20307519 C62,5.31107326 58.8775196,2.13214582 54.982898,2.00401467 L54.7385,2 L9.26925,2 C5.33691774,2 2.13317313,5.09849713 2.00404583,8.96071336 L2,9.20307519 L2,33 L27,33 C27.5128358,33 27.9355072,33.3860402 27.9932723,33.8833789 L28,34 C28,34.5128358 27.6139598,34.9355072 27.1166211,34.9932723 L27,35 L2.09999208,35.000641 C2.66201666,38.3250968 5.52740213,40.8788305 9.0188209,40.9958109 L9.26925,41 L23.9793151,40.9999758 C24.0601509,40.9983637 24.1424909,41.0066007 24.2248595,41.0256088 C24.7630009,41.1497953 25.0985777,41.6867181 24.9743912,42.2248595 L24.9743912,42.2248595 L21.9743912,55.2248595 C21.9524866,55.3197795 21.9177411,55.4083974 21.8724129,55.4893017 C21.8634188,55.5051365 21.8540685,55.5207542 21.844312,55.5360882 C21.7956105,55.6122386 21.7407942,55.6772154 21.6790995,55.7341786 C21.5813132,55.8245757 21.4653268,55.8958301 21.3372588,55.9417014 C21.2280188,55.9801802 21.1166451,56.0000339 21.0025077,56.0002203 L21,56 L13,56 C12.4477153,56 12,55.5522847 12,55 C12,54.4871642 12.3860402,54.0644928 12.8833789,54.0067277 L13,54 L20.204,54 L22.742,43 L9.26925,43 C4.24257587,43 0.146009356,39.0288452 0.00381732557,34.0711314 L0.003,34.054 L0,34 L0,9.20307519 C0,4.20992671 4.00952981,0.14488414 9.00093143,0.00378789327 L9.26925,0 L54.7385,0 Z" id="Shape_396_2_" fill="#373737" fill-rule="nonzero"></path>
    </g>
</svg>