<svg xmlns="http://www.w3.org/2000/svg" width="24" height="24" viewBox="0 0 24 24">
    <g fill="none" fill-rule="evenodd" stroke="#3B3A3A" stroke-linecap="round" stroke-linejoin="round" stroke-width="1.5">
        <path d="M18.314 6.311a.489.489 0 0 1 .872 0L20.2 8.352a.483.483 0 0 0 .366.263l2.271.329a.477.477 0 0 1 .27.814l-1.65 1.6a.475.475 0 0 0-.138.421l.389 2.255a.484.484 0 0 1-.7.5l-2.024-1.059a.492.492 0 0 0-.454 0l-2.03 1.061a.484.484 0 0 1-.7-.5l.389-2.255a.475.475 0 0 0-.138-.421l-1.65-1.6a.477.477 0 0 1 .27-.814l2.271-.329a.483.483 0 0 0 .366-.263l1.006-2.043z"/>
        <path d="M8.25 12.043c0-3.818 2.945-8.4 7.838-8.959a.751.751 0 0 0 .2-1.438 11.249 11.249 0 1 0-.003 20.796.751.751 0 0 0-.2-1.439 9.142 9.142 0 0 1-7.835-8.96z"/>
    </g>
</svg>
