<svg width="22" height="22" viewBox="0 0 22 22" fill="none" xmlns="http://www.w3.org/2000/svg">
<g id="Group 1203">
<g id="Group">
<g id="Group_2">
<g id="Group_3">
<g id="Group_4">
<path id="Vector" fill-rule="evenodd" clip-rule="evenodd" d="M1.2923 3.02346C1.2923 3.02346 -1.83211 7.08788 1.63537 13.1078C5.11511 19.1278 10.1955 18.4402 10.1955 18.4402C10.1955 18.4402 13.3322 14.389 9.85293 8.3686C6.37271 2.33591 1.29277 3.02157 1.29277 3.02157L1.2923 3.02346Z" fill="#56C225"/>
<path id="Vector_2" fill-rule="evenodd" clip-rule="evenodd" d="M1.29328 3.02352C1.05414 3.37076 0.849921 3.7408 0.683594 4.12822C2.43621 4.34435 5.53514 5.3476 7.8847 9.42477C10.2852 13.5906 9.53633 16.8165 8.83745 18.4167C9.28779 18.48 9.74412 18.4885 10.1965 18.4422C10.1965 18.4422 13.3332 14.391 9.85391 8.37055C6.37369 2.33786 1.29375 3.02352 1.29375 3.02352H1.29328Z" fill="#ABE233"/>
</g>
<g id="Group_5">
<path id="Vector_3" fill-rule="evenodd" clip-rule="evenodd" d="M20.4703 0.243085C20.4703 0.243085 14.4886 -0.569988 10.3864 6.52919C6.29699 13.6161 9.99287 18.4044 9.99287 18.4044C9.99287 18.4044 15.9746 19.2066 20.064 12.1178C24.1662 5.01865 20.4703 0.243085 20.4703 0.243085Z" fill="#ABE233"/>
<path id="Vector_4" fill-rule="evenodd" clip-rule="evenodd" d="M20.4703 0.243085C20.4703 0.243085 14.4886 -0.569988 10.3864 6.52919C6.29699 13.6161 9.99287 18.4044 9.99287 18.4044C10.3646 18.4369 10.7385 18.4369 11.1103 18.4044C10.285 16.564 9.33269 12.727 12.2023 7.74856C15.212 2.54027 19.2255 1.58893 21.156 1.44925C20.9724 1.0231 20.7425 0.618449 20.4703 0.242613V0.243085Z" fill="#B6FF62"/>
</g>
</g>
<path id="Vector_5" d="M15.4327 9.92697L14.6154 9.45508L10.0036 17.4442L6.16566 10.5041L5.33984 10.9604L9.52319 18.5254V21.7838H10.467V18.5301L15.4327 9.92697Z" fill="#703A3A"/>
</g>
</g>
</g>
</svg>
