<?xml version="1.0" encoding="UTF-8"?>
<svg width="31px" height="31px" viewBox="0 0 31 31" version="1.1" xmlns="http://www.w3.org/2000/svg" xmlns:xlink="http://www.w3.org/1999/xlink">
    <!-- Generator: Sketch 64 (93537) - https://sketch.com -->
    <title>loader-white</title>
    <desc>Created with Sketch.</desc>
    <g id="Symbols" stroke="none" stroke-width="1" fill="none" fill-rule="evenodd">
        <g id="Button-56/-Grey-(Loading)" transform="translate(-77.000000, -13.000000)" fill="#FFFFFF" fill-rule="nonzero">
            <g id="loader-white" transform="translate(78.000000, 14.000000)">
                <path d="M14.5,-1 C5.93958638,-1 -1,5.93958638 -1,14.5 C-1,23.0604136 5.93958638,30 14.5,30 C23.0604136,30 30,23.0604136 30,14.5 C30,5.93958638 23.0604136,-1 14.5,-1 Z M14.5,1 C21.9558441,1 28,7.04415588 28,14.5 C28,21.9558441 21.9558441,28 14.5,28 C7.04415588,28 1,21.9558441 1,14.5 C1,7.04415588 7.04415588,1 14.5,1 Z" id="Oval" fill-opacity="0.5"></path>
                <path d="M14,-1 C22.7304322,-1 29.8291826,5.99481676 29.9969632,14.685162 L30,15 L28,15 C28,7.37342505 21.8993349,1.16969812 14.312608,1.00342255 L14,1 L14,-1 Z" id="Path"></path>
            </g>
        </g>
    </g>
</svg>