<svg width="24" height="24" viewBox="0 0 24 24" fill="none" xmlns="http://www.w3.org/2000/svg">
<path d="M17 9L10.5669 15.8063C10.3229 16.0646 9.92714 16.0646 9.68306 15.8063L7 12.9676M6.5 21.5284C4.99963 20.6605 3.72328 19.4484 2.77893 18M6.5 2.4716C4.99963 3.33952 3.72328 4.55165 2.77893 6M1.28533 14.5C1.09868 13.6969 1 12.8599 1 12C1 11.1401 1.09868 10.3031 1.28533 9.5M10 1.18138C10.6486 1.06225 11.317 1 12 1C18.0751 1 23 5.92487 23 12C23 18.0751 18.0751 23 12 23C11.317 23 10.6486 22.9378 10 22.8186" stroke="#66C17A" stroke-width="2" stroke-linecap="round"/>
</svg>
