<svg width="25" height="24" viewBox="0 0 25 24" fill="none" xmlns="http://www.w3.org/2000/svg">
<path d="M7 21.5284C5.49963 20.6605 4.22328 19.4484 3.27893 18M7 2.4716C5.49963 3.33952 4.22328 4.55165 3.27893 6M1.78533 14.5C1.59868 13.6969 1.5 12.8599 1.5 12C1.5 11.1401 1.59868 10.3031 1.78533 9.5M10.5 1.18138C11.1486 1.06225 11.817 1 12.5 1C18.5751 1 23.5 5.92487 23.5 12C23.5 18.0751 18.5751 23 12.5 23C11.817 23 11.1486 22.9378 10.5 22.8186" stroke="#E31C24" stroke-width="2" stroke-linecap="round"/>
<path d="M16.3951 8.50796L16.3948 8.5076C16.3779 8.49108 16.3578 8.47805 16.3359 8.46928C16.3139 8.4605 16.2904 8.45615 16.2667 8.45646C16.2431 8.45677 16.2197 8.46174 16.198 8.47109L16.0015 8.01438L16.198 8.4711C16.1763 8.48045 16.1566 8.49399 16.1401 8.51096L16.1394 8.51169L12.8454 11.8867L12.4966 12.2441L12.1388 11.8956L8.75694 8.60177L9.10581 8.24359L8.75694 8.60177C8.73995 8.58522 8.71987 8.57218 8.69784 8.5634L8.86734 8.13843L8.69784 8.5634C8.67581 8.55461 8.65226 8.55025 8.62854 8.55056C8.60483 8.55087 8.58141 8.55585 8.55961 8.56522C8.53782 8.57458 8.51809 8.58815 8.50154 8.60514C8.48499 8.62213 8.47195 8.64221 8.46317 8.66424C8.45438 8.68627 8.45002 8.70982 8.45033 8.73353C8.45064 8.75725 8.45562 8.78067 8.46499 8.80246L8.00561 8.99987L8.46499 8.80246C8.47435 8.82425 8.48792 8.84399 8.50491 8.86054L8.15604 9.21872L8.50491 8.86054L11.8867 12.1544L12.2449 12.5033L11.896 12.8614L8.60218 16.2433C8.58563 16.2602 8.57259 16.2803 8.5638 16.3024M16.3951 8.50796L8.5638 16.3024M16.3951 8.50796C16.4601 8.57125 16.4617 8.69155 16.3984 8.75653L16.7566 9.1054L16.3984 8.75653L13.1046 12.1383L12.7557 12.4965L13.1139 12.8454L16.4957 16.1393C16.5127 16.1558 16.5263 16.1755 16.5356 16.1973C16.545 16.2191 16.55 16.2425 16.5503 16.2663C16.5506 16.29 16.5462 16.3135 16.5374 16.3355L17.0019 16.5208L16.5374 16.3355C16.5287 16.3576 16.5156 16.3777 16.4991 16.3946L16.8572 16.7435L16.4991 16.3947C16.4825 16.4116 16.4628 16.4252 16.441 16.4346L16.6384 16.8939L16.441 16.4346C16.4192 16.4439 16.3958 16.4489 16.3721 16.4492C16.3483 16.4495 16.3248 16.4452 16.3028 16.4364C16.2807 16.4276 16.2607 16.4146 16.2437 16.398L12.8618 13.1042L12.5037 12.7553L12.1548 13.1135L8.86094 16.4953L9.21913 16.8442M16.3951 8.50796L9.21913 16.8442M8.5638 16.3024C8.55502 16.3244 8.55066 16.3479 8.55097 16.3717C8.55128 16.3954 8.55626 16.4188 8.56563 16.4406L8.10625 16.638M8.5638 16.3024L8.10625 16.638M8.10625 16.638L8.56563 16.4406C8.57499 16.4624 8.58855 16.4821 8.60554 16.4987L8.25715 16.8563L8.60555 16.4987M8.10625 16.638L8.60555 16.4987M9.21913 16.8442L8.86094 16.4953C8.84439 16.5123 8.82466 16.5258 8.80287 16.5352C8.78108 16.5446 8.75766 16.5496 8.73394 16.5499C8.71023 16.5502 8.68668 16.5458 8.66465 16.537C8.64262 16.5282 8.62254 16.5152 8.60555 16.4987M9.21913 16.8442L8.60555 16.4987" fill="black" stroke="#E31C24"/>
</svg>
