<?xml version="1.0" encoding="UTF-8"?>
<svg viewBox="0 0 24 24" xmlns="http://www.w3.org/2000/svg">
<g fill="none" fill-rule="evenodd">
<g transform="translate(1 2)" stroke="#FFF" stroke-linecap="round" stroke-linejoin="round">
<circle cx="3" cy="18" r="3"/>
<path d="m6 18h7v2m-3-2v1"/>
<path d="M5 13.056V9.444A1.45 1.45 0 0 1 6.455 8h13.09A1.45 1.45 0 0 1 21 9.444v10.112A1.45 1.45 0 0 1 19.545 21h-4.363"/>
<path d="M8 8V4.667C8 2.089 10.239 0 13 0s5 2.09 5 4.667V8M13 12v3"/>
</g>
<path d="M14 1.5c3.03 0 5.5 2.305 5.5 5.167V9.5h1.045a1.95 1.95 0 0 1 1.95 1.8l.005.144v10.112a1.95 1.95 0 0 1-1.955 1.944h-4.363a.5.5 0 1 1 0-1h4.363a.95.95 0 0 0 .955-.944V11.444a.95.95 0 0 0-.955-.944H7.455a.95.95 0 0 0-.955.944v3.612a.5.5 0 0 1-1 0v-3.612A1.95 1.95 0 0 1 7.455 9.5H8.5V6.667c0-2.79 2.348-5.051 5.274-5.163zm0 12a.5.5 0 0 1 .5.5v3a.5.5 0 1 1-1 0v-3a.5.5 0 0 1 .5-.5zm0-11c-2.493 0-4.5 1.873-4.5 4.167V9.5h9V6.667c0-2.226-1.891-4.056-4.281-4.162z" fill="#FFF" fill-rule="nonzero"/>
<path d="M4 23.5a3.5 3.5 0 1 0 0-7 3.5 3.5 0 0 0 0 7zm0-6a2.5 2.5 0 1 1 0 5 2.5 2.5 0 0 1 0-5zm10 2a.5.5 0 0 1 .492.41l.008.09v2a.5.5 0 0 1-.992.09L13.5 22v-1.5h-2v.5a.5.5 0 0 1-.992.09L10.5 21v-.5H7a.5.5 0 0 1-.492-.41L6.5 20a.5.5 0 0 1 .41-.492L7 19.5h7z" fill="#FFF" fill-rule="nonzero"/>
</g>
</svg>
