<?xml version="1.0" encoding="UTF-8"?>
<svg width="80px" height="80px" viewBox="0 0 80 80" version="1.1" xmlns="http://www.w3.org/2000/svg" xmlns:xlink="http://www.w3.org/1999/xlink">
    <!-- Generator: Sketch 57.1 (83088) - https://sketch.com -->
    <title>Pictogram/ Page 2/ Step 3/ 1@1x</title>
    <desc>Created with Sketch.</desc>
    <g id="Pictogram/-Page-2/-Step-3/-1" stroke="none" stroke-width="1" fill="none" fill-rule="evenodd">
        <path d="M29.875,0 C30.4272847,0 30.875,0.44771525 30.875,1 C30.875,1.55228475 30.4272847,2 29.875,2 L29.875,2 L16.375,2 C15.0601376,2 14,3.04707547 14,4.33341606 L14,4.33341606 L14,27.6673285 C14,28.9530659 15.0605301,30.0007445 16.375,30.0007445 L16.375,30.0007445 L40,30.0007445 C40.5522847,30.0007445 41,30.4484598 41,31.0007445 L41,31.0007445 L41,38.6069599 L49.4223252,30.2892333 C49.6094896,30.1043933 49.861948,30.0007445 50.125,30.0007445 L50.125,30.0007445 L63.625,30.0007445 C64.9388573,30.0007445 66,28.9526764 66,27.6673285 L66,27.6673285 L66,4.33341606 C66,3.04746495 64.9392499,2 63.625,2 L63.625,2 L50.125,2 C49.5727153,2 49.125,1.55228475 49.125,1 C49.125,0.44771525 49.5727153,0 50.125,0 L50.125,0 L63.625,0 C66.0382163,0 68,1.93721371 68,4.33341606 L68,4.33341606 L68,27.6673285 C68,30.0628342 66.0379146,32.0007445 63.625,32.0007445 L63.625,32.0007445 L50.5355581,32.0007445 L40.7026748,41.7115112 C40.0709273,42.3354128 39,41.8878953 39,41 L39,41 L39,32.0007445 L16.375,32.0007445 C13.9613821,32.0007445 12,30.0631305 12,27.6673285 L12,27.6673285 L12,4.33341606 C12,1.93691758 13.9610804,0 16.375,0 L16.375,0 Z M40.8833789,5.00672773 L41,5 C41.5128358,5 41.9355072,5.38604019 41.9932723,5.88337887 L42,6 L42,8 L47,8 C47.5522847,8 48,8.44771525 48,9 C48,9.51283584 47.6139598,9.93550716 47.1166211,9.99327227 L47,10 L36.5,10 C35.1188422,10 34,11.1188422 34,12.5 C34,13.8259115 35.031125,14.9100729 36.335575,14.9946844 L36.5,15 L43.5,15 C45.9857273,15 48,17.0142727 48,19.5 C48,21.9147065 46.0991843,23.8845138 43.7118718,23.9951031 L43.5,24 L42,24 L42,26 C42,26.5128358 41.6139598,26.9355072 41.1166211,26.9932723 L41,27 C40.4871642,27 40.0644928,26.6139598 40.0067277,26.1166211 L40,26 L40,24 L33,24 C32.4871642,24 32.0644928,23.6139598 32.0067277,23.1166211 L32,23 C32,22.4871642 32.3860402,22.0644928 32.8833789,22.0067277 L33,22 L43.5,22 C44.8259115,22 45.9100729,20.968875 45.9946844,19.664425 L46,19.5 C46,18.1740885 44.968875,17.0899271 43.664425,17.0053156 L43.5,17 L36.5,17 C34.0142727,17 32,14.9857273 32,12.5 C32,10.0852935 33.9008157,8.11548616 36.2881282,8.00489693 L36.5,8 L40,8 L40,6 C40,5.48716416 40.3860402,5.06449284 40.8833789,5.00672773 L41,5 Z" id="Stroke-13" fill="#EB2F16" fill-rule="nonzero"></path>
        <path d="M51.2770084,50.6908569 C56.2384732,55.8831003 63.8408832,57.4367808 70.3975219,54.5962965 C70.9042944,54.3767512 71.137138,53.7879543 70.9175927,53.2811819 C70.6980474,52.7744094 70.1092505,52.5415658 69.6024781,52.7611111 C63.8155485,55.2681401 57.107077,53.8971509 52.7229916,49.3091431 C52.3414418,48.9098459 51.7084403,48.8954587 51.3091431,49.2770084 C50.9098459,49.6585582 50.8954587,50.2915597 51.2770084,50.6908569 Z M60,66 C66.0747595,66 71,61.0748528 71,54.9995036 C71,48.9249783 66.0745907,44 60,44 C53.9254093,44 49,48.9249783 49,54.9995036 C49,61.0748528 53.9252405,66 60,66 Z M60.0005156,69 C66.5568388,69 72.6078654,72.630927 75.8743011,78.514616 C76.1423713,78.9974792 75.9682471,79.6062309 75.485384,79.8743011 C75.0025208,80.1423713 74.3937691,79.9682471 74.1256989,79.485384 C71.2088198,74.231336 65.823721,71 60.0005156,71 C54.1760537,71 48.7901017,74.2315263 45.8743698,79.4852602 C45.606368,79.9681613 44.9976409,80.1423716 44.5147398,79.8743698 C44.0318387,79.606368 43.8576284,78.9976409 44.1256302,78.5147398 C47.3909199,72.6311524 53.4429247,69 60.0005156,69 Z M60,46 C64.9700604,46 69,50.029587 69,54.9995036 C69,59.9702748 64.9701985,64 60,64 C55.0298015,64 51,59.9702748 51,54.9995036 C51,50.029587 55.0299396,46 60,46 Z" id="Stroke-5-Copy" fill="#373737" fill-rule="nonzero"></path>
        <path d="M20.0005156,69 C26.5568388,69 32.6078654,72.630927 35.8743011,78.514616 C36.1423713,78.9974792 35.9682471,79.6062309 35.485384,79.8743011 C35.0025208,80.1423713 34.3937691,79.9682471 34.1256989,79.485384 C31.2088198,74.231336 25.823721,71 20.0005156,71 C14.1760537,71 8.79010166,74.2315263 5.8743698,79.4852602 C5.606368,79.9681613 4.99764092,80.1423716 4.51473981,79.8743698 C4.0318387,79.606368 3.8576284,78.9976409 4.1256302,78.5147398 C7.39091995,72.6311524 13.4429247,69 20.0005156,69 Z M20,44 C25.4415588,44 29.9609684,47.952 30.8438084,53.1421522 C30.8715304,53.1854526 30.8962984,53.2320288 30.9175927,53.2811819 C31.0171118,53.5109002 31.0236751,53.7574726 30.9539046,53.9788664 C30.9841758,54.3145729 31,54.6551916 31,54.9995036 C31,61.0748528 26.0747595,66 20,66 C13.9252405,66 9,61.0748528 9,54.9995036 C9,48.9249783 13.9254093,44 20,44 Z M11.8227992,51.2372998 L11.8080333,51.267589 C11.2891379,52.4045146 11,53.668276 11,54.9995036 C11,59.9702748 15.0298015,64 20,64 C24.881445,64 28.8557786,60.1129086 28.9961626,55.2648771 L28.9978174,55.131 L28.638833,55.2464515 C22.7605432,57.0595324 16.3299119,55.5540039 11.8227992,51.2372998 Z M20,46 C17.1099008,46 14.5376981,47.3625822 12.890948,49.4803011 C17.0707952,53.7227382 23.2741223,55.1073517 28.7941339,53.084073 C27.9165025,49.0332831 24.3120905,46 20,46 Z" id="Stroke-3" fill="#373737" fill-rule="nonzero"></path>
    </g>
</svg>