<svg width="17" height="16" viewBox="0 0 17 16" fill="none" xmlns="http://www.w3.org/2000/svg">
<g id="Group 1550">
<g id="manage_accounts">
<path d="M8.33203 8C7.23203 8 6.29036 7.60833 5.50703 6.825C4.7237 6.04167 4.33203 5.1 4.33203 4C4.33203 2.9 4.7237 1.95833 5.50703 1.175C6.29036 0.391667 7.23203 0 8.33203 0C9.43203 0 10.3737 0.391667 11.157 1.175C11.9404 1.95833 12.332 2.9 12.332 4C12.332 5.1 11.9404 6.04167 11.157 6.825C10.3737 7.60833 9.43203 8 8.33203 8ZM1.33203 16C1.0487 16 0.811365 15.904 0.620031 15.712C0.428031 15.5207 0.332031 15.2833 0.332031 15V13.2C0.332031 12.65 0.473698 12.1333 0.757031 11.65C1.04036 11.1667 1.43203 10.8 1.93203 10.55C2.78203 10.1167 3.74036 9.75 4.80703 9.45C5.8737 9.15 7.0487 9 8.33203 9H8.68203C8.78203 9 8.88203 9.01667 8.98203 9.05C8.8487 9.35 8.73603 9.66267 8.64403 9.988C8.5527 10.3127 8.48203 10.65 8.43203 11H8.33203C7.1487 11 6.08603 11.15 5.14403 11.45C4.2027 11.75 3.43203 12.05 2.83203 12.35C2.68203 12.4333 2.56136 12.55 2.47003 12.7C2.37803 12.85 2.33203 13.0167 2.33203 13.2V14H8.63203C8.73203 14.35 8.86536 14.696 9.03203 15.038C9.1987 15.3793 9.38203 15.7 9.58203 16H1.33203ZM8.33203 6C8.88203 6 9.35303 5.804 9.74503 5.412C10.1364 5.02067 10.332 4.55 10.332 4C10.332 3.45 10.1364 2.97933 9.74503 2.588C9.35303 2.196 8.88203 2 8.33203 2C7.78203 2 7.31137 2.196 6.92003 2.588C6.52803 2.97933 6.33203 3.45 6.33203 4C6.33203 4.55 6.52803 5.02067 6.92003 5.412C7.31137 5.804 7.78203 6 8.33203 6Z" fill="url(#paint0_linear_12125_921)"/>
<path d="M0.620031 15.712C0.811365 15.904 1.0487 16 1.33203 16H9.58203C9.38203 15.7 9.1987 15.3793 9.03203 15.038C8.86536 14.696 8.73203 14.35 8.63203 14H2.33203V13.2C2.33203 13.0167 2.37803 12.85 2.47003 12.7C2.56136 12.55 2.68203 12.4333 2.83203 12.35C3.43203 12.05 4.2027 11.75 5.14403 11.45C6.08603 11.15 7.1487 11 8.33203 11H8.43203C8.48203 10.65 8.5527 10.3127 8.64403 9.988C8.73603 9.66267 8.8487 9.35 8.98203 9.05C8.88203 9.01667 8.78203 9 8.68203 9H8.33203C7.0487 9 5.8737 9.15 4.80703 9.45C3.74036 9.75 2.78203 10.1167 1.93203 10.55C1.43203 10.8 1.04036 11.1667 0.757031 11.65C0.473698 12.1333 0.332031 12.65 0.332031 13.2V15C0.332031 15.2833 0.428031 15.5207 0.620031 15.712Z" fill="url(#paint1_linear_12125_921)"/>
</g>
<path id="manage_accounts_2" d="M16.044 15.712C15.8527 15.904 15.6154 16 15.332 16H7.08203C7.28203 15.7 7.46536 15.3793 7.63203 15.038C7.7987 14.696 7.93203 14.35 8.03203 14H14.332V13.2C14.332 13.0167 14.286 12.85 14.194 12.7C14.1027 12.55 13.982 12.4333 13.832 12.35C13.232 12.05 12.4614 11.75 11.52 11.45C10.578 11.15 9.51536 11 8.33203 11H8.23203C8.18203 10.65 8.11136 10.3127 8.02003 9.988C7.92803 9.66267 7.81536 9.35 7.68203 9.05C7.78203 9.01667 7.88203 9 7.98203 9H8.33203C9.61536 9 10.7904 9.15 11.857 9.45C12.9237 9.75 13.882 10.1167 14.732 10.55C15.232 10.8 15.6237 11.1667 15.907 11.65C16.1904 12.1333 16.332 12.65 16.332 13.2V15C16.332 15.2833 16.236 15.5207 16.044 15.712Z" fill="url(#paint2_linear_12125_921)"/>
</g>
<defs>
<linearGradient id="paint0_linear_12125_921" x1="12.9671" y1="2.14633" x2="2.13709" y2="2.42843" gradientUnits="userSpaceOnUse">
<stop offset="0.385417" stop-color="#EB151D"/>
<stop offset="1" stop-color="#FF007A"/>
</linearGradient>
<linearGradient id="paint1_linear_12125_921" x1="12.9671" y1="2.14633" x2="2.13709" y2="2.42843" gradientUnits="userSpaceOnUse">
<stop offset="0.385417" stop-color="#EB151D"/>
<stop offset="1" stop-color="#FF007A"/>
</linearGradient>
<linearGradient id="paint2_linear_12125_921" x1="6.59247" y1="9.93902" x2="14.9287" y2="10.3216" gradientUnits="userSpaceOnUse">
<stop offset="0.385417" stop-color="#EB151D"/>
<stop offset="1" stop-color="#FF007A"/>
</linearGradient>
</defs>
</svg>
