<svg width="72" height="72" viewBox="0 0 72 72" fill="none" xmlns="http://www.w3.org/2000/svg">
<circle cx="36" cy="36" r="36" fill="#FDE7E8"/>
<g clip-path="url(#clip0_14519_30233)">
<path d="M45.3339 21.3335H32.0006C30.5339 21.3335 29.3339 22.5335 29.3339 24.0002V28.0002H32.0006V25.3335H45.3339V46.6668H32.0006V44.0002H29.3339V48.0002C29.3339 49.4668 30.5339 50.6668 32.0006 50.6668H45.3339C46.8006 50.6668 48.0006 49.4668 48.0006 48.0002V24.0002C48.0006 22.5335 46.8006 21.3335 45.3339 21.3335ZM29.3472 37.9602L25.9472 34.5602L24.2539 36.2535L29.3339 41.3335L38.9206 31.7468L37.2272 30.0535L29.3472 37.9602Z" fill="#1F1F1F"/>
</g>
<defs>
<clipPath id="clip0_14519_30233">
<rect width="32" height="32" fill="white" transform="translate(20 20)"/>
</clipPath>
</defs>
</svg>
