<svg width="44" height="44" viewBox="0 0 44 44" fill="none" xmlns="http://www.w3.org/2000/svg">
<rect width="44" height="44" rx="22" fill="#FFE9EC"/>
<mask id="mask0_14552_32540" style="mask-type:alpha" maskUnits="userSpaceOnUse" x="10" y="10" width="24" height="24">
<rect x="10" y="10" width="24" height="24" fill="#D9D9D9"/>
</mask>
<g mask="url(#mask0_14552_32540)">
<path d="M30 22C29.7333 22 29.496 21.904 29.288 21.712C29.0793 21.5207 28.9583 21.2833 28.925 21C28.7083 19.45 28.0543 18.129 26.963 17.037C25.871 15.9457 24.55 15.2917 23 15.075C22.7167 15.0417 22.4793 14.925 22.288 14.725C22.096 14.525 22 14.2833 22 14C22 13.7167 22.1 13.479 22.3 13.287C22.5 13.0957 22.7333 13.0167 23 13.05C25.1 13.2833 26.8917 14.1417 28.375 15.625C29.8583 17.1083 30.7167 18.9 30.95 21C30.9833 21.2667 30.904 21.5 30.712 21.7C30.5207 21.9 30.2833 22 30 22ZM25.825 22C25.6083 22 25.4167 21.925 25.25 21.775C25.0833 21.625 24.9583 21.425 24.875 21.175C24.7417 20.6917 24.4877 20.2623 24.113 19.887C23.7377 19.5123 23.3083 19.2583 22.825 19.125C22.575 19.0417 22.375 18.9167 22.225 18.75C22.075 18.5833 22 18.3833 22 18.15C22 17.8167 22.1167 17.5457 22.35 17.337C22.5833 17.129 22.8417 17.0583 23.125 17.125C24.0583 17.3417 24.8627 17.7873 25.538 18.462C26.2127 19.1373 26.6583 19.9417 26.875 20.875C26.9417 21.1583 26.8667 21.4167 26.65 21.65C26.4333 21.8833 26.1583 22 25.825 22ZM29.95 31C27.8 31 25.7043 30.5207 23.663 29.562C21.621 28.604 19.8127 27.3373 18.238 25.762C16.6627 24.1873 15.396 22.379 14.438 20.337C13.4793 18.2957 13 16.2 13 14.05C13 13.75 13.1 13.5 13.3 13.3C13.5 13.1 13.75 13 14.05 13H18.1C18.3333 13 18.5417 13.075 18.725 13.225C18.9083 13.375 19.0167 13.5667 19.05 13.8L19.7 17.3C19.7333 17.5333 19.7293 17.7457 19.688 17.937C19.646 18.129 19.55 18.3 19.4 18.45L17 20.9C17.7 22.1 18.575 23.225 19.625 24.275C20.675 25.325 21.8333 26.2333 23.1 27L25.45 24.65C25.6 24.5 25.796 24.3873 26.038 24.312C26.2793 24.2373 26.5167 24.2167 26.75 24.25L30.2 24.95C30.4333 25 30.625 25.1123 30.775 25.287C30.925 25.4623 31 25.6667 31 25.9V29.95C31 30.25 30.9 30.5 30.7 30.7C30.5 30.9 30.25 31 29.95 31ZM16.05 19L17.7 17.35L17.25 15H15.05C15.1333 15.6833 15.25 16.3583 15.4 17.025C15.55 17.6917 15.7667 18.35 16.05 19ZM29 28.95V26.75L26.65 26.25L25 27.9C25.65 28.1833 26.3083 28.4167 26.975 28.6C27.6417 28.7833 28.3167 28.9 29 28.95Z" fill="black"/>
</g>
</svg>
