<svg width="20" height="20" viewBox="0 0 20 20" fill="none" xmlns="http://www.w3.org/2000/svg">
<path d="M2.42442 9.0237L3.33303 9.44134L3.33303 9.44134L2.42442 9.0237ZM17.576 10.9766L16.6673 10.559L17.576 10.9766ZM2.42442 10.9766L1.51581 11.3943H1.51581L2.42442 10.9766ZM17.576 9.0237L16.6673 9.44134L17.576 9.0237ZM15.0635 4.65846C14.5998 4.35849 13.9807 4.49123 13.6807 4.95495C13.3808 5.41867 13.5135 6.03777 13.9772 6.33774L15.0635 4.65846ZM6.05758 13.6847C5.5922 13.3874 4.97385 13.5235 4.67647 13.9889C4.37909 14.4543 4.51528 15.0727 4.98067 15.37L6.05758 13.6847ZM2.53403 13.1017C2.86577 13.5432 3.49265 13.6322 3.9342 13.3005C4.37575 12.9687 4.46476 12.3418 4.13302 11.9003L2.53403 13.1017ZM11.4679 5.31354C12.0092 5.42341 12.537 5.07371 12.6469 4.53246C12.7567 3.99121 12.407 3.46338 11.8658 3.35351L11.4679 5.31354ZM17.374 4.0406C17.7645 3.65008 17.7645 3.01691 17.374 2.62639C16.9834 2.23586 16.3503 2.23586 15.9597 2.62639L17.374 4.0406ZM2.62641 15.9597C2.23588 16.3502 2.23588 16.9834 2.62641 17.3739C3.01693 17.7645 3.6501 17.7645 4.04062 17.3739L2.62641 15.9597ZM10.0002 3.16683C6.23375 3.16683 2.99048 5.3978 1.51581 8.60606L3.33303 9.44134C4.49354 6.91657 7.04357 5.16683 10.0002 5.16683V3.16683ZM10.0002 16.8335C13.7666 16.8335 17.0099 14.6025 18.4846 11.3943L16.6673 10.559C15.5068 13.0838 12.9568 14.8335 10.0002 14.8335V16.8335ZM1.51581 8.60606C1.10931 9.49042 1.10931 10.5099 1.51581 11.3943L3.33303 10.559C3.17024 10.2048 3.17024 9.79551 3.33303 9.44134L1.51581 8.60606ZM16.6673 9.44134C16.8301 9.7955 16.8301 10.2048 16.6673 10.559L18.4846 11.3943C18.8911 10.5099 18.8911 9.49041 18.4846 8.60606L16.6673 9.44134ZM18.4846 8.60606C17.7401 6.98642 16.5465 5.61778 15.0635 4.65846L13.9772 6.33774C15.144 7.09252 16.0828 8.16957 16.6673 9.44134L18.4846 8.60606ZM4.98067 15.37C6.43066 16.2966 8.15425 16.8335 10.0002 16.8335V14.8335C8.54712 14.8335 7.19557 14.4119 6.05758 13.6847L4.98067 15.37ZM1.51581 11.3943C1.79496 12.0016 2.13721 12.5735 2.53403 13.1017L4.13302 11.9003C3.82092 11.4849 3.55209 11.0356 3.33303 10.559L1.51581 11.3943ZM11.8658 3.35351C11.2622 3.23098 10.6382 3.16683 10.0002 3.16683V5.16683C10.5038 5.16683 10.9945 5.21744 11.4679 5.31354L11.8658 3.35351ZM7.52531 12.475C8.89215 13.8419 11.1082 13.8419 12.4751 12.475L11.0608 11.0608C10.4751 11.6466 9.52531 11.6466 8.93953 11.0608L7.52531 12.475ZM12.4751 12.475C13.8419 11.1082 13.8419 8.89212 12.4751 7.52529L11.0608 8.9395C11.6466 9.52529 11.6466 10.475 11.0608 11.0608L12.4751 12.475ZM15.9597 2.62639L2.62641 15.9597L4.04062 17.3739L17.374 4.0406L15.9597 2.62639Z" fill="#757575"/>
</svg>
