<svg width="16" height="12" viewBox="0 0 16 12" fill="none" xmlns="http://www.w3.org/2000/svg">
<path d="M8 1.99999C9.33726 1.99554 10.6486 2.36856 11.7834 3.07615C12.9181 3.78375 13.8301 4.79719 14.4145 5.99999C13.2145 8.4509 10.7636 9.99999 8 9.99999C5.23636 9.99999 2.78545 8.4509 1.58545 5.99999C2.1699 4.79719 3.08191 3.78375 4.21664 3.07615C5.35136 2.36856 6.66274 1.99554 8 1.99999ZM8 0.545441C4.36364 0.545441 1.25818 2.80726 0 5.99999C1.25818 9.19271 4.36364 11.4545 8 11.4545C11.6364 11.4545 14.7418 9.19271 16 5.99999C14.7418 2.80726 11.6364 0.545441 8 0.545441ZM8 4.1818C8.48221 4.1818 8.94467 4.37336 9.28565 4.71434C9.62662 5.05531 9.81818 5.51777 9.81818 5.99999C9.81818 6.4822 9.62662 6.94466 9.28565 7.28563C8.94467 7.62661 8.48221 7.81817 8 7.81817C7.51779 7.81817 7.05533 7.62661 6.71435 7.28563C6.37338 6.94466 6.18182 6.4822 6.18182 5.99999C6.18182 5.51777 6.37338 5.05531 6.71435 4.71434C7.05533 4.37336 7.51779 4.1818 8 4.1818ZM8 2.72726C6.19636 2.72726 4.72727 4.19635 4.72727 5.99999C4.72727 7.80362 6.19636 9.27271 8 9.27271C9.80364 9.27271 11.2727 7.80362 11.2727 5.99999C11.2727 4.19635 9.80364 2.72726 8 2.72726Z" fill="#5E080B"/>
</svg>
