<svg width="25" height="24" viewBox="0 0 25 24" fill="none" xmlns="http://www.w3.org/2000/svg">
<mask id="mask0_11098_197835" style="mask-type:alpha" maskUnits="userSpaceOnUse" x="0" y="0" width="25" height="24">
<rect x="0.667969" width="24" height="24" fill="#D9D9D9"/>
</mask>
<g mask="url(#mask0_11098_197835)">
<path d="M12.668 16.475C14.318 15.1417 15.564 13.8583 16.406 12.625C17.2473 11.3917 17.668 10.2333 17.668 9.15C17.668 8.21667 17.4973 7.42067 17.156 6.762C16.814 6.104 16.393 5.57067 15.893 5.162C15.393 4.754 14.8513 4.45833 14.268 4.275C13.6846 4.09167 13.1513 4 12.668 4C12.1846 4 11.6513 4.09167 11.068 4.275C10.4846 4.45833 9.94297 4.754 9.44297 5.162C8.94297 5.57067 8.5223 6.104 8.18097 6.762C7.83897 7.42067 7.66797 8.21667 7.66797 9.15C7.66797 10.2333 8.08864 11.3917 8.92997 12.625C9.77197 13.8583 11.018 15.1417 12.668 16.475ZM12.668 18.65C12.518 18.65 12.3763 18.629 12.243 18.587C12.1096 18.5457 11.9846 18.4833 11.868 18.4C9.78464 16.7833 8.23064 15.2083 7.20597 13.675C6.18064 12.1417 5.66797 10.6333 5.66797 9.15C5.66797 7.96667 5.88064 6.929 6.30597 6.037C6.73064 5.14567 7.2763 4.4 7.94297 3.8C8.60964 3.2 9.35964 2.75 10.193 2.45C11.0263 2.15 11.8513 2 12.668 2C13.4846 2 14.3096 2.15 15.143 2.45C15.9763 2.75 16.7263 3.2 17.393 3.8C18.0596 4.4 18.6056 5.14567 19.031 6.037C19.4556 6.929 19.668 7.96667 19.668 9.15C19.668 10.6333 19.1553 12.1417 18.13 13.675C17.1053 15.2083 15.5513 16.7833 13.468 18.4C13.368 18.4833 13.2473 18.5457 13.106 18.587C12.964 18.629 12.818 18.65 12.668 18.65ZM12.668 11C13.218 11 13.689 10.804 14.081 10.412C14.4723 10.0207 14.668 9.55 14.668 9C14.668 8.45 14.4723 7.979 14.081 7.587C13.689 7.19567 13.218 7 12.668 7C12.118 7 11.6473 7.19567 11.256 7.587C10.864 7.979 10.668 8.45 10.668 9C10.668 9.55 10.864 10.0207 11.256 10.412C11.6473 10.804 12.118 11 12.668 11ZM6.66797 22C6.38464 22 6.14697 21.904 5.95497 21.712C5.76364 21.5207 5.66797 21.2833 5.66797 21C5.66797 20.7167 5.76364 20.4793 5.95497 20.288C6.14697 20.096 6.38464 20 6.66797 20H18.668C18.9513 20 19.1886 20.096 19.38 20.288C19.572 20.4793 19.668 20.7167 19.668 21C19.668 21.2833 19.572 21.5207 19.38 21.712C19.1886 21.904 18.9513 22 18.668 22H6.66797Z" fill="url(#paint0_linear_11098_197835)"/>
</g>
<defs>
<linearGradient id="paint0_linear_11098_197835" x1="20.4089" y1="4.68291" x2="7.77277" y2="4.99012" gradientUnits="userSpaceOnUse">
<stop offset="0.385417" stop-color="#EB151D"/>
<stop offset="1" stop-color="#FF007A"/>
</linearGradient>
</defs>
</svg>
