<svg xmlns="http://www.w3.org/2000/svg" width="24" height="24" viewBox="0 0 24 24">
    <g fill="none" fill-rule="nonzero">
        <path fill="#E9E9ED" d="M12 24c6.627 0 12-5.373 12-12S18.627 0 12 0 0 5.373 0 12s5.373 12 12 12zm0-1C5.925 23 1 18.075 1 12S5.925 1 12 1s11 4.925 11 11-4.925 11-11 11z"/>
        <path fill="#000" d="M12 16.75a.875.875 0 1 1 0 1.75.875.875 0 0 1 0-1.75zm-.395-11.227a3.5 3.5 0 0 1 1.562 6.777 1 1 0 0 0-.667.944v1.006a.5.5 0 1 1-1 0v-1.006a2 2 0 0 1 1.333-1.886A2.5 2.5 0 1 0 9.5 9a.5.5 0 0 1-1 0 3.5 3.5 0 0 1 3.105-3.477z"/>
    </g>
</svg>
