<?xml version="1.0" encoding="UTF-8"?>
<svg width="80px" height="80px" viewBox="0 0 80 80" version="1.1" xmlns="http://www.w3.org/2000/svg" xmlns:xlink="http://www.w3.org/1999/xlink">
    <!-- Generator: Sketch 57.1 (83088) - https://sketch.com -->
    <title>Pictogram/ Page 2/ Step 2/ 1@1x</title>
    <desc>Created with Sketch.</desc>
    <g id="Pictogram/-Page-2/-Step-2/-1" stroke="none" stroke-width="1" fill="none" fill-rule="evenodd">
        <path d="M70.0497195,9 C75.6888544,9 80,13.6429921 80,19.496 L80,60.505 C80,66.2968134 75.3941342,71 69.7011726,71 L10.2978482,71 C4.60569774,71 0,66.2966429 0,60.505 L0,19.496 C0,13.6825928 4.4991749,9 10.1718213,9 L70.0497195,9 Z M10.1718213,11 C5.62201914,11 2,14.7696781 2,19.496 L2,60.505 C2,65.2013571 5.71976885,69 10.2978482,69 L69.7011726,69 C74.2800964,69 78,65.2014958 78,60.505 L78,19.496 C78,14.7157878 74.5497891,11 70.0497195,11 L10.1718213,11 Z" id="Stroke-1" fill="#000000" fill-rule="nonzero"></path>
        <path d="M21.1936301,34.0199521 L30.3702325,51.4629532 C30.6870862,52.0652328 31.4999402,52.1819535 31.9734641,51.6931671 L41.7969385,41.5530651 L51.6204128,51.6931671 C52.0681619,52.1553479 52.8295567,52.0804579 53.1786772,51.5398979 L68.9912358,27.0565606 C69.2908697,26.5926232 69.1576754,25.9736263 68.6937379,25.6739923 C68.2298005,25.3743584 67.6108036,25.5075528 67.3111697,25.9714902 L52.1813102,49.397772 L42.5151698,39.4200751 C42.1222404,39.0144809 41.4716365,39.0144809 41.0787071,39.4200751 L31.497515,49.3100857 L22.1220987,31.4891765 C21.756093,30.7934683 20.7674282,30.7726587 20.3724729,31.4523502 L9.30719578,50.4949459 C9.02971861,50.9724654 9.19188496,51.5845111 9.66940445,51.8619883 C10.1469239,52.1394654 10.7589697,51.9772991 11.0364468,51.4997796 L21.1936301,34.0199521 Z" id="Stroke-3" fill="#EB2F16" fill-rule="nonzero"></path>
    </g>
</svg>