<?xml version="1.0" encoding="UTF-8"?>
<svg width="80px" height="80px" viewBox="0 0 80 80" version="1.1" xmlns="http://www.w3.org/2000/svg" xmlns:xlink="http://www.w3.org/1999/xlink">
    <!-- Generator: Sketch 57.1 (83088) - https://sketch.com -->
    <title>Pictogram/ Page 2/ Step 2/ 2@1x</title>
    <desc>Created with Sketch.</desc>
    <g id="Pictogram/-Page-2/-Step-2/-2" stroke="none" stroke-width="1" fill="none" fill-rule="evenodd">
        <path d="M67.9967582,19 L70.0497195,19 C75.1858136,19 79,23.1093 79,28.1794667 L79,67.8215 C79,72.8907 74.8372667,77 69.7011726,77 L10.2978482,77 C5.16273329,77 1,72.8907 1,67.8215 L1,28.1794667 C1,23.1093 5.03670642,19 10.1718213,19 L12.071342,19" id="Stroke-1" stroke="#000000" stroke-width="2" stroke-linecap="round" stroke-linejoin="round"></path>
        <path d="M21.1936301,43.0199521 L30.3702325,60.4629532 C30.6870862,61.0652328 31.4999402,61.1819535 31.9734641,60.6931671 L41.7969385,50.5530651 L51.6204128,60.6931671 C52.0681619,61.1553479 52.8295567,61.0804579 53.1786772,60.5398979 L68.9912358,36.0565606 C69.2908697,35.5926232 69.1576754,34.9736263 68.6937379,34.6739923 C68.2298005,34.3743584 67.6108036,34.5075528 67.3111697,34.9714902 L52.1813102,58.397772 L42.5151698,48.4200751 C42.1222404,48.0144809 41.4716365,48.0144809 41.0787071,48.4200751 L31.497515,58.3100857 L22.1220987,40.4891765 C21.756093,39.7934683 20.7674282,39.7726587 20.3724729,40.4523502 L9.30719578,59.4949459 C9.02971861,59.9724654 9.19188496,60.5845111 9.66940445,60.8619883 C10.1469239,61.1394654 10.7589697,60.9772991 11.0364468,60.4997796 L21.1936301,43.0199521 Z" id="Stroke-3" fill="#EB2F16" fill-rule="nonzero"></path>
        <path d="M60,0 C62.209139,-4.05812251e-16 64,1.790861 64,4 L64,24 C64,26.209139 62.209139,28 60,28 L44.863,28 L40.7840241,34.2933679 C40.5869358,34.5973882 40.1420075,34.5973882 39.9449192,34.2933679 L35.865,28 L21,28 C18.790861,28 17,26.209139 17,24 L17,4 C17,1.790861 18.790861,4.05812251e-16 21,0 L60,0 Z" id="Rectangle-2" fill="#EB2F16"></path>
        <path d="M28.8266605,19 L25.5885212,9.85081744 L25.5274242,9.85081744 C25.6139787,11.209589 25.6572553,12.4834182 25.6572553,13.6723433 L25.6572553,19 L24,19 L24,8.04495913 L26.5737098,8.04495913 L29.6743809,16.7595368 L29.7202037,16.7595368 L32.9125202,8.04495913 L35.4938672,8.04495913 L35.4938672,19 L33.7373293,19 L33.7373293,13.5824251 C33.7373293,13.0379174 33.7513306,12.3285693 33.7793335,11.4543597 C33.8073364,10.58015 33.8315204,10.0506367 33.8518861,9.86580381 L33.7907892,9.86580381 L30.438093,19 L28.8266605,19 Z M45.3610275,19 L44.2460079,15.9577657 L39.9768572,15.9577657 L38.8847489,19 L36.9601944,19 L41.1376996,8 L43.1233511,8 L47.3008563,19 L45.3610275,19 Z M43.7648692,14.4141689 L42.7185837,11.4318801 C42.6422121,11.2320608 42.5365663,10.91735 42.4016431,10.4877384 C42.26672,10.0581268 42.1738026,9.74341608 42.1228882,9.54359673 C41.9854194,10.1580412 41.7843105,10.8299237 41.5195557,11.5592643 L40.5114557,14.4141689 L43.7648692,14.4141689 Z M57,19 L54.8997917,19 L52.1046054,14.5190736 L49.2865078,19 L47.3314048,19 L51.0354085,13.3201635 L47.5681555,8.04495913 L49.5996297,8.04495913 L52.1809766,12.1886921 L54.7623235,8.04495913 L56.7327008,8.04495913 L53.2425364,13.3501362 L57,19 Z" id="MAX" fill="#FFFFFF" fill-rule="nonzero"></path>
    </g>
</svg>