<?xml version="1.0" encoding="UTF-8"?>
<svg width="80px" height="80px" viewBox="0 0 80 80" version="1.1" xmlns="http://www.w3.org/2000/svg" xmlns:xlink="http://www.w3.org/1999/xlink">
    <!-- Generator: Sketch 57.1 (83088) - https://sketch.com -->
    <title>Pictogram/ Page 2/ Step 3/ 2@1x</title>
    <desc>Created with Sketch.</desc>
    <g id="Pictogram/-Page-2/-Step-3/-2" stroke="none" stroke-width="1" fill="none" fill-rule="evenodd">
        <g id="stroke" transform="translate(1.000000, 1.000000)" stroke-width="2">
            <path d="M0.226563025,38.6382722 L3.84310571,42.2450439 C7.75964709,46.1596038 14.1073467,46.1596038 18.0229141,42.2450439 L23.3420467,36.9269306 C24.2829517,35.9860337 24.8118455,34.7100761 24.8118455,33.3805478 C24.8118455,32.0500455 24.2829517,30.7740879 23.3420467,29.8331909 L13.0028061,19.4911165 C11.9810573,18.4557402 10.5589855,17.9161368 9.10769316,18.0106161 C7.65542676,18.1050954 6.3171209,18.8268393 5.4385533,19.9859153 C-5.3954904,34.700336 1.16941606,50.2007855 14.4833191,63.5174969 C27.7981961,76.8351824 43.2978039,83.3941887 58.0162463,72.5602375 C59.1753322,71.6807034 59.8951342,70.3414349 59.9896143,68.8901549 C60.0840944,67.4379009 59.5435124,66.0168153 58.5071533,64.9960493 L48.1649905,54.6530008 C47.2240855,53.7121038 45.9490911,53.1841886 44.6185774,53.1841886 C43.2880637,53.1841886 42.0120953,53.7121038 41.0721643,54.6530008 L35.7540056,59.9711141 C33.8721957,61.851934 32.8153821,64.4028751 32.8153821,67.0629058 C32.8153821,69.7229364 33.8721957,72.2738775 35.7540056,74.1546974 L39.4309377,77.8111438" id="Stroke-1" stroke="#373737" stroke-linecap="round" stroke-linejoin="round"></path>
            <path d="M57.3001981,0.0001 C49.9448347,0.00109285576 43.1416516,3.85337319 39.4272584,10.1192859 C35.7128653,16.3871842 35.6444714,24.1284806 39.2472215,30.4589289 L34,46.0001 L49.277994,39.2973308 C57.0115355,42.4992906 65.9379474,40.7816502 71.8872123,34.945644 C77.8354715,29.1106307 79.6328233,20.3099573 76.4374193,12.6550395 C73.2420153,5.00111444 65.6864992,0.00407142302 57.3001981,0.0001 Z" id="Stroke-3" stroke="#EA2E18" stroke-linecap="round" stroke-linejoin="round"></path>
            <path d="M65,23 C65,27.4184556 61.4178525,31 57.0003885,31 C52.5821475,31 49,27.4184556 49,23 L65,23 Z" id="Stroke-5" stroke="#EA2E18" stroke-linecap="round" stroke-linejoin="round"></path>
            <circle id="Oval" stroke="#EB2F16" fill="#D8D8D8" cx="49" cy="14" r="1"></circle>
            <circle id="Oval-Copy" stroke="#EB2F16" fill="#D8D8D8" cx="66" cy="14" r="1"></circle>
        </g>
        <path d="M58.3006716,0.000100009112 C67.0884088,0.00426163951 75.0087457,5.24200275 78.3602455,13.2698227 C81.7132279,21.3022359 79.8276286,30.5381787 73.5874913,36.6595133 C67.5545184,42.5776338 58.6038927,44.4548988 50.6895249,41.5321528 L50.2946884,41.382012 L35.4017567,47.9158464 C34.64081,48.2496894 33.8468892,47.5674127 34.0224961,46.787131 L34.0525461,46.6802077 L39.1583793,31.5577989 C35.6020186,24.9901989 35.7466243,17.0561675 39.5670427,10.6093555 C43.4621887,4.03852587 50.5929379,0.00114034705 58.3006716,0.000100009112 Z M58.3000288,2.00010003 C51.297181,2.00115149 44.821385,5.66776398 41.287545,11.6290967 C37.7562659,17.587997 37.6911708,24.9459068 41.1163297,30.9643068 C41.2372609,31.176797 41.2754798,31.424884 41.2264702,31.6616177 L41.1946754,31.7788211 L36.6717957,45.1746436 L49.8762372,39.3815844 C50.1256466,39.2721633 50.4088965,39.2692051 50.6605369,39.3733931 C58.0244733,42.4223233 66.5244952,40.7864145 72.1869337,35.2317744 C77.8440854,29.6823263 79.5520046,21.3166866 76.514611,14.0402987 C73.4750013,6.75954659 66.2839265,2.00400163 58.3000288,2.00010003 Z M67,13 C68.1045695,13 69,13.8954305 69,15 C69,16.1045695 68.1045695,17 67,17 C65.8954305,17 65,16.1045695 65,15 C65,13.8954305 65.8954305,13 67,13 Z M50,13 C51.1045695,13 52,13.8954305 52,15 C52,16.1045695 51.1045695,17 50,17 C48.8954305,17 48,16.1045695 48,15 C48,13.8954305 48.8954305,13 50,13 Z M66,23 C66.5522847,23 67,23.4477153 67,24 C67,28.9704761 62.9704014,33 58.0003885,33 C53.0297337,33 49,28.9706113 49,24 C49,23.4477153 49.4477153,23 50,23 L66,23 Z M51.0708943,25 C51.5561616,28.3923015 54.4737969,31 58.0003885,31 C61.5263592,31 64.443848,28.3922258 64.9291052,25 L51.0708943,25 Z" id="Stroke-5" fill="#EB2F16" fill-rule="nonzero"></path>
        <path d="M4.15727029,43.9430761 C8.46200361,48.245496 15.4401834,48.245496 19.7447118,43.9422116 L25.0619805,38.6261305 C26.1900799,37.4980765 26.8241149,35.9683587 26.8241149,34.374217 C26.8241149,32.7792562 26.1901892,31.2494932 25.0620452,30.1213946 L14.7265727,19.7834171 C13.5064575,18.5470379 11.8017375,17.8994015 10.0609494,18.0127235 C8.32055795,18.1259436 6.71538329,18.9904738 5.66140032,20.3809275 C-4.61850831,34.3421351 -0.502153912,49.9087052 14.7926773,65.2062777 C30.0851959,80.501537 45.6538781,84.6160636 59.6096806,74.343802 C61.010797,73.2807782 61.8739972,71.6752593 61.9872912,69.9350389 C62.1006046,68.1933535 61.4519875,66.4892797 60.2093003,65.2653288 L49.8762153,54.9316454 C48.7482177,53.8036931 47.219445,53.1705905 45.6241743,53.1705905 C44.0284847,53.1705905 42.4986525,53.804004 41.3718005,54.9319782 L36.0558947,60.24767 C33.9874847,62.3149261 32.8255214,65.1191616 32.8255214,68.0435573 C32.8255214,70.9679531 33.9874847,73.7721885 36.0560777,75.8396276 L37.4743459,77.2499511 C30.5271789,75.5569814 23.3833234,70.9708312 16.2065381,63.7927598 C9.03697511,56.6219117 4.45280054,49.485557 2.75554906,42.5451863 L4.15727029,43.9430761 Z M37.4676261,74.4238029 C35.7760008,72.7331166 34.8248118,70.4375555 34.8248118,68.0435573 C34.8248118,65.6495591 35.7760008,63.3539981 37.4694175,61.661526 L42.7858723,56.3452851 C43.5378918,55.5925168 44.5588031,55.1698175 45.6241743,55.1698175 C46.689248,55.1698175 47.7094829,55.5923221 48.4624763,56.3452851 L58.8009364,66.6843029 C59.6351529,67.5059826 60.0678483,68.6427778 59.9922213,69.8052051 C59.9165937,70.9668594 59.3403487,72.038653 58.4128185,72.7424564 C52.8272008,76.8537308 46.9577357,78.4889239 40.9154766,77.8523354 L37.4676261,74.4238029 Z M2.1518211,39.1195914 C1.50439813,33.0622718 3.13927557,27.1780095 7.2630343,21.5774417 C7.95841304,20.6602325 9.02966748,20.0832661 10.1907852,20.0077303 C11.3531001,19.9320659 12.4910669,20.3643884 13.3080971,21.1922893 L23.6482396,31.5349678 C24.4016118,32.2883097 24.8248244,33.3095887 24.8248244,34.374217 C24.8248244,35.4379747 24.4015388,36.4592237 23.6483394,37.2123927 L18.3311587,42.5283859 C14.807354,46.0511722 9.0946388,46.0511722 5.56984642,42.5282748 L2.1518211,39.1195914 Z" id="Stroke-1" fill="#373737" fill-rule="nonzero"></path>
    </g>
</svg>