<svg xmlns="http://www.w3.org/2000/svg" width="24" height="24" viewBox="0 0 24 24">
    <g fill="none" fill-rule="evenodd">
        <path fill="#373737" fill-rule="nonzero" d="M22.494 11.074c.4-.002.783.155 1.066.435.246.244.398.564.433.904l.007.148v6.946a1.48 1.48 0 0 1-.438 1.056 1.505 1.505 0 0 1-.917.43l-.15.007H1.534a1.507 1.507 0 0 1-1.079-.42 1.481 1.481 0 0 1-.445-.909L0 19.522v-6.948c0-.772.594-1.408 1.355-1.48l.145-.007h2.622a.5.5 0 0 1 .503.496.498.498 0 0 1-.413.489l-.09.008H1.5a.493.493 0 0 0-.485.405l-.008.089v6.944a.494.494 0 0 0 .431.485l.084.004h20.976a.492.492 0 0 0 .49-.418l.005-.08v-6.948a.494.494 0 0 0-.419-.489l-.078-.005h-9.727a.5.5 0 0 1-.503-.497c0-.243.178-.446.413-.488l.09-.008h9.725zM19.434.144a.491.491 0 0 1 .06.633l-.058.069-.333.332a1.87 1.87 0 0 1-.33 2.298l-.657.642a2.359 2.359 0 0 1-.199 2.809l-.128.138-1.925 1.909v.733a.5.5 0 0 1-.504.497.502.502 0 0 1-.495-.407l-.008-.09V8.77c0-.105.033-.206.095-.29l.051-.06 2.071-2.053a1.378 1.378 0 0 0 .298-1.514l-8.095 8.045-.003.003a.503.503 0 0 1-.164.107h-.002l-3.183 1.265-.742.737v.003l-.708.703a.509.509 0 0 1-.712.003.491.491 0 0 1-.061-.633l.058-.069.641-.638.812-.807 1.272-3.16a.494.494 0 0 1 .113-.17l8.518-8.466.984-.977.043-.043a1.913 1.913 0 0 1 2.246-.28l.332-.328a.509.509 0 0 1 .712-.003zM6.543 12.957l1.483-.591-.89-.885-.594 1.476zm8.93-10.127l-7.812 7.763 1.257 1.249 7.812-7.763-1.257-1.25zm1.375-1.367l-.666.662.252.25 1.008 1.003.627-.612a.891.891 0 0 0 .088-1.2.5.5 0 0 1-.161-.155.887.887 0 0 0-1.148.052z"/>
    </g>
</svg>
