<?xml version="1.0" encoding="UTF-8"?>
<svg width="64px" height="64px" viewBox="0 0 64 64" version="1.1" xmlns="http://www.w3.org/2000/svg" xmlns:xlink="http://www.w3.org/1999/xlink">
    <!-- Generator: Sketch 57.1 (83088) - https://sketch.com -->
    <title>Pictogram/ Page 3/ Step 1/ 2@1x</title>
    <desc>Created with Sketch.</desc>
    <g id="Pictogram/-Page-3/-Step-1/-2" stroke="none" stroke-width="1" fill="none" fill-rule="evenodd">
        <path d="M59.5865861,11.9927849 L59.7494667,12.1453115 L61.8395883,14.2150568 C63.3352301,15.6961178 63.3850848,18.0769865 61.9893636,19.6178255 L61.839822,19.7741547 L55.0045346,26.546 L63.6332757,34.2109121 C64.0143059,34.5494009 64.0752966,35.1136833 63.7938342,35.5229616 L63.7163211,35.6218315 C63.3776276,36.0026314 62.8130037,36.0635851 62.4034778,35.7822929 L62.304548,35.7048268 L53.5825346,27.956 L47.1775928,34.3029058 C49.9036166,35.2629803 51.3643974,37.3636101 51.1506276,39.7530779 C50.9314782,42.2026779 48.9787645,44.1568439 46.3973991,44.2867995 L46.1610284,44.2935513 L37.6359946,44.2935513 C35.6210094,44.2935513 34,45.8813812 34,47.8297681 C34,49.7171442 35.5199704,51.2632878 37.4424467,51.361075 L37.6359946,51.3659849 L46.3558863,51.3659849 C46.6419264,51.3659849 46.9142738,51.4884017 47.1040617,51.7022804 C50.9110699,55.9925339 55.8818943,55.8975159 62.5438545,52.4848095 C63.0353356,52.2330396 63.637983,52.4271231 63.8899052,52.9183069 C64.1418274,53.4094908 63.9476265,54.0117738 63.4561455,54.2635436 C56.3642206,57.896507 50.6215491,58.1424636 46.1455358,53.6038076 L45.9151471,53.3647755 L37.6359946,53.3647755 C35.3011623,53.3647755 33.2933159,51.9701407 32.4390914,49.9768757 L19.4131777,55.883492 C18.6053027,56.2498171 17.7759986,55.4666998 18.049936,54.6599128 L18.0900055,54.5590226 L23.1321511,43.4993881 C23.1669612,43.4230344 23.211183,43.3515196 23.2636731,43.2864585 L23.3484665,43.1939091 L25.6959909,40.9343267 C23.116992,40.5917586 21.1091537,38.4381126 21.0043052,35.7982515 L21,35.5810842 L21,34.1139579 C21,27.8353913 24.4502314,22.0569879 29.9874192,19.068175 C35.2361955,16.2350383 41.5540071,16.3213773 46.6974809,19.2423305 L54.1615243,12.1453115 C55.6504639,10.6708875 58.0358245,10.6200453 59.5865861,11.9927849 Z M45.6195346,23.027 L40.6893011,27.7143613 C40.682889,27.7204585 40.676417,27.7264538 40.6698873,27.7323475 C40.6541735,27.7467001 40.6377602,27.7605448 40.6209398,27.7738343 L40.5735189,27.8091879 C40.5557542,27.8214843 40.5378487,27.8331522 40.519597,27.8442348 C40.5049303,27.8533939 40.4901421,27.8618806 40.4751947,27.8699573 L40.424922,27.895013 C40.4053453,27.9044814 40.3858996,27.9128426 40.3662632,27.9205569 L40.3116996,27.9400105 C40.2960327,27.945294 40.2805513,27.9499361 40.2649893,27.9541947 C40.2417544,27.9605241 40.2181288,27.9661271 40.1942791,27.9708689 C40.1689425,27.9757939 40.1435593,27.97978 40.1180872,27.9827872 C40.0906754,27.9862505 40.0629695,27.9883983 40.0351027,27.9893763 L40.0231751,27.9894585 C39.9888268,27.9905169 39.9542134,27.989529 39.9194922,27.9866952 C39.9094304,27.9856732 39.8997187,27.984747 39.8900203,27.9836795 C39.8616705,27.9806938 39.8328665,27.9762206 39.8040813,27.9704369 C39.7862839,27.9668997 39.7685462,27.9628716 39.7509104,27.9583569 C39.7338585,27.9538465 39.7168391,27.948982 39.6998556,27.9436414 C37.8939404,27.3757505 36.2121483,27.7391201 34.4483888,29.013208 C32.8830914,30.1552017 31.927175,31.9386988 31.8410361,33.8522596 L31.8347055,34.1139579 L31.8347055,35.5810842 C31.8347055,37.3726417 30.9585409,38.9608669 29.6106467,39.9434405 L24.8731125,44.5014696 L21.0160045,52.9617973 L32.0020543,47.9808877 C32.0006877,47.9306816 32,47.8803056 32,47.8297681 C32,45.282596 33.7482466,43.142302 36.1272943,42.4951805 C36.1560586,42.4414865 36.1908731,42.3899942 36.2312472,42.3414568 L36.2959166,42.270961 L50.6465346,28.05 L45.6195346,23.027 Z M45.555918,35.9109935 L39.1125346,42.294 L46.1540734,42.294785 C47.7927683,42.2833945 49.0226847,41.0940163 49.158574,39.5750776 C49.3047212,37.9414793 48.1522011,36.5067424 45.7149394,35.9606765 C45.6597413,35.9483094 45.6066411,35.9316017 45.555918,35.9109935 Z M30.9378499,20.8268499 C26.151151,23.4105708 23.1304981,28.3539261 23.0041266,33.7607043 L23,34.1139579 L23,35.5810842 C23,37.4578921 24.530711,38.9830678 26.4173528,38.9830678 C27.1265903,38.9830678 27.7855276,38.7675295 28.3317533,38.3987985 L28.7412259,38.0034829 C28.8114929,37.9358523 28.8891,37.8805392 28.9713731,37.8374935 C29.4701382,37.2814372 29.786526,36.560288 29.8296467,35.7675494 L29.8347055,35.5810842 L29.8347113,34.1105713 C29.843703,31.458647 31.1195672,28.967093 33.2729649,27.3960529 C35.3463921,25.8982541 37.4825637,25.3535045 39.7200526,25.8777793 L45.1748167,20.6905589 C40.7304604,18.3964424 35.3977621,18.419519 30.9378499,20.8268499 Z M50.7435346,18.154 L47.9827312,20.7806574 C47.9593511,20.9040455 47.9121556,21.02506 47.8397098,21.1370171 C47.6756043,21.3906243 47.4159379,21.5452072 47.1384455,21.5840975 L47.0695346,21.649 L52.0665346,26.643 L55.6675346,23.074 L50.7435346,18.154 Z M55.6811483,13.4641959 L55.554675,13.5792679 L52.1935346,16.776 L57.0875346,21.667 L60.4318891,18.3545474 C61.1495029,17.6439295 61.187272,16.5120562 60.5451965,15.7570957 L60.4318891,15.6348958 L58.3417675,13.5651505 C57.6193225,12.8497485 56.4617648,12.8120957 55.6811483,13.4641959 Z" id="Shape_5_3_" fill="#EB2F16" fill-rule="nonzero"></path>
        <path d="M47,9.56375 L47,3.883 C46.9893779,1.73728541 45.2348366,0.0103781715 43.0756673,0 L3.92913386,0 C1.76516338,0.0103781715 0.0106221107,1.73728541 0,3.87804395 L0,60.117 C0.0106221107,62.2627146 1.76516338,63.9896218 3.92433269,64 L43.0708661,64 C45.2348366,63.9896218 46.9893779,62.2627146 47,60.121956 C47.0027249,59.5696781 46.557234,59.1197494 46.004956,59.1170123 C45.4526781,59.1142751 45.0027494,59.559766 45.0000123,60.112044 C44.9948741,61.1487854 44.1352421,61.9948782 43.066065,62.0000115 L3.92913386,62 C2.86475788,61.9948782 2.00512592,61.1487854 1.99998772,60.112044 L2,3.883 C2.00512592,2.85121459 2.86475788,2.00512183 3.93393502,1.99998847 L43.0708661,2 C44.1352421,2.00512183 44.9948741,2.85121459 45.0000123,3.88795605 L45,9.56375 C45,10.1160347 45.4477153,10.56375 46,10.56375 C46.5522847,10.56375 47,10.1160347 47,9.56375 Z" id="Shape_1_" fill="#373737" fill-rule="nonzero"></path>
    </g>
</svg>