<svg xmlns="http://www.w3.org/2000/svg" width="80" height="80"><path fill="#eb2f16" d="M33.4 46a1 1 0 0 0 1 1h11.202a1 1 0 0 0 1-1v-6.015C51.714 37.52 54.99 32.403 55 26.76c.01-7.37-5.518-13.614-12.938-14.618-7.413-1.015-14.456 3.508-16.495 10.598-1.978 6.878 1.36 14.124 7.834 17.245V46zM45 52a1 1 0 0 1 .117 1.993L45 54H35a1 1 0 0 1-.117-1.993L35 52h10zm-3.208-37.877C48.227 14.994 53 20.394 53 26.756c-.01 5.06-3.065 9.638-7.792 11.667a1 1 0 0 0-.606.919V45H35.4v-5.658a1 1 0 0 0-.605-.919c-5.948-2.556-9.066-9.015-7.307-15.13 1.763-6.13 7.868-10.05 14.303-9.17zM67 25a1 1 0 0 1 .117 1.993L67 27h-6a1 1 0 0 1-.117-1.993L61 25h6zm-54 0h6a1 1 0 0 1 .117 1.993L19 27h-6a1 1 0 0 1-.117-1.993L13 25h6zM62.78 7.375a1 1 0 0 1-.155 1.406l-5 4a1 1 0 1 1-1.25-1.562l5-4a1 1 0 0 1 1.406.156zm-44.258-.228l.103.072 5 4a1 1 0 0 1-1.147 1.634l-.103-.072-5-4a1 1 0 0 1 1.147-1.634zM40 0a1 1 0 0 1 1 1v5a1 1 0 0 1-2 0V1a1 1 0 0 1 1-1z"/><path fill="#373737" d="M64.005 68c7.167 0 13.557 4.262 15.932 10.652a1 1 0 1 1-1.874.696c-2.08-5.6-7.71-9.348-14.058-9.348s-11.98 3.756-14.068 9.35a1 1 0 1 1-1.874-.7C50.45 72.26 56.84 68 64.005 68zM64 48c4.968 0 9 4.032 9 9s-4.032 9-9 9-9-4.032-9-9a9 9 0 0 1 9-9zm0 2a7 7 0 0 0-7 7c0 3.863 3.137 7 7 7s7-3.137 7-7-3.137-7-7-7zM16 66c4.968 0 9-4.032 9-9s-4.032-9-9-9a9 9 0 0 0-9 9c0 4.968 4.032 9 9 9zm.005 2c7.167 0 13.557 4.262 15.932 10.652a1 1 0 1 1-1.874.696c-2.08-5.6-7.71-9.348-14.058-9.348s-11.98 3.756-14.068 9.35a1 1 0 0 1-1.874-.7C2.45 72.26 8.84 68 16.005 68zM16 50c3.863 0 7 3.137 7 7s-3.137 7-7 7-7-3.137-7-7a7 7 0 0 1 7-7z"/></svg>