<?xml version="1.0" encoding="UTF-8"?>
<svg width="80px" height="80px" viewBox="0 0 80 80" version="1.1" xmlns="http://www.w3.org/2000/svg" xmlns:xlink="http://www.w3.org/1999/xlink">
    <!-- Generator: Sketch 57.1 (83088) - https://sketch.com -->
    <title>Pictogram/ Page 1/ Step 1/ 1@1x</title>
    <desc>Created with Sketch.</desc>
    <g id="Pictogram/-Page-1/-Step-1/-1" stroke="none" stroke-width="1" fill="none" fill-rule="evenodd">
        <path d="M33.4009393,46 C33.4009393,46.5522847 33.8486545,47 34.4009393,47 L45.6018931,47 C46.1541778,47 46.6018931,46.5522847 46.6018931,46 L46.6018931,39.9851928 C51.7136317,37.5209838 54.9891374,32.4025083 55.0000501,26.7596842 C55.0112536,19.3888497 49.481581,13.1459973 42.0618735,12.1416013 C34.6489622,11.127097 27.6058418,15.6500291 25.5666871,22.7400964 C23.5885324,29.6180691 26.9281333,36.8639802 33.4009393,39.9850021 L33.4009393,46 Z M45,52 C45.5522847,52 46,52.4477153 46,53 C46,53.5128358 45.6139598,53.9355072 45.1166211,53.9932723 L45,54 L35,54 C34.4477153,54 34,53.5522847 34,53 C34,52.4871642 34.3860402,52.0644928 34.8833789,52.0067277 L35,52 L45,52 Z M41.7921359,14.1233277 C48.2265571,14.9943479 53.0096162,20.394227 53.0000304,26.7560337 C52.9901819,31.8164252 49.9345855,36.3944019 45.2075202,38.4230487 C44.8400789,38.5807383 44.6018931,38.9421505 44.6018931,39.3419993 L44.6018931,45 L35.4009393,45 L35.4009393,39.3419993 C35.4009393,38.9423286 35.1629629,38.5810416 34.7957626,38.4232422 C28.8479307,35.8672422 25.7300812,29.4078025 27.488771,23.2929017 C29.2517258,17.1631713 35.3568249,13.2426152 41.7921359,14.1233277 Z M67,25 C67.5522847,25 68,25.4477153 68,26 C68,26.5128358 67.6139598,26.9355072 67.1166211,26.9932723 L67,27 L61,27 C60.4477153,27 60,26.5522847 60,26 C60,25.4871642 60.3860402,25.0644928 60.8833789,25.0067277 L61,25 L67,25 Z M13,25 L19,25 C19.5522847,25 20,25.4477153 20,26 C20,26.5128358 19.6139598,26.9355072 19.1166211,26.9932723 L19,27 L13,27 C12.4477153,27 12,26.5522847 12,26 C12,25.4871642 12.3860402,25.0644928 12.8833789,25.0067277 L13,25 L19,25 Z M62.7808688,7.37530495 C63.1258784,7.80656689 63.055957,8.43585926 62.624695,8.78086881 L57.624695,12.7808688 C57.1934331,13.1258784 56.5641407,13.055957 56.2191312,12.624695 C55.8741216,12.1934331 55.944043,11.5641407 56.375305,11.2191312 L61.375305,7.21913119 C61.8065669,6.87412164 62.4358593,6.94404302 62.7808688,7.37530495 Z M18.5218773,7.14685485 L18.624695,7.21913119 L23.624695,11.2191312 C24.055957,11.5641407 24.1258784,12.1934331 23.7808688,12.624695 C23.4623985,13.022783 22.901699,13.1129831 22.4781227,12.8531452 L22.375305,12.7808688 L17.375305,8.78086881 C16.944043,8.43585926 16.8741216,7.80656689 17.2191312,7.37530495 C17.5376015,6.97721701 18.098301,6.88701689 18.5218773,7.14685485 Z M40,2.30926389e-13 C40.5522847,2.30926389e-13 41,0.44771525 41,1 L41,1 L41,6 C41,6.55228475 40.5522847,7 40,7 C39.4477153,7 39,6.55228475 39,6 L39,6 L39,1 C39,0.44771525 39.4477153,2.30926389e-13 40,2.30926389e-13 Z" id="Shape_93_1_" fill="#EB2F16" fill-rule="nonzero"></path>
        <path d="M64.0049917,68 C71.1724497,68 77.562112,72.2621837 79.9373284,78.6515528 C80.1297705,79.169225 79.8661194,79.7448863 79.3484472,79.9373284 C78.830775,80.1297705 78.2551137,79.8661194 78.0626716,79.3484472 C75.9841595,73.7572173 70.3515187,70 64.0049917,70 C57.6595537,70 52.0254694,73.7563949 49.9368173,79.3498189 C49.7436177,79.8672088 49.167571,80.130017 48.6501811,79.9368173 C48.1327912,79.7436177 47.869983,79.167571 48.0631827,78.6501811 C50.4491793,72.2604663 56.8393027,68 64.0049917,68 Z M64,48 C68.9678457,48 73,52.0321543 73,57 C73,61.9678457 68.9678457,66 64,66 C59.0321543,66 55,61.9678457 55,57 C55,52.0321543 59.022508,48 64,48 Z M64,50 C60.1307401,50 57,53.1330591 57,57 C57,60.8632762 60.1367238,64 64,64 C67.8632762,64 71,60.8632762 71,57 C71,53.1367238 67.8632762,50 64,50 Z" id="Shape_96_1_-Copy" fill="#373737" fill-rule="nonzero"></path>
        <path d="M16,66 C20.9678457,66 25,61.9678457 25,57 C25,52.0321543 20.9678457,48 16,48 C11.022508,48 7,52.0321543 7,57 C7,61.9678457 11.0321543,66 16,66 Z M16.0049917,68 C23.1724497,68 29.562112,72.2621837 31.9373284,78.6515528 C32.1297705,79.169225 31.8661194,79.7448863 31.3484472,79.9373284 C30.830775,80.1297705 30.2551137,79.8661194 30.0626716,79.3484472 C27.9841595,73.7572173 22.3515187,70 16.0049917,70 C9.65955374,70 4.02546943,73.7563949 1.93681734,79.3498189 C1.74361769,79.8672088 1.16757102,80.130017 0.650181092,79.9368173 C0.132791161,79.7436177 -0.13001699,79.167571 0.0631826583,78.6501811 C2.44917931,72.2604663 8.83930268,68 16.0049917,68 Z M16,50 C19.8632762,50 23,53.1367238 23,57 C23,60.8632762 19.8632762,64 16,64 C12.1367238,64 9,60.8632762 9,57 C9,53.1330591 12.1307401,50 16,50 Z" id="Oval_6_1_" fill="#373737" fill-rule="nonzero"></path>
    </g>
</svg>