<svg width="44" height="44" viewBox="0 0 44 44" fill="none" xmlns="http://www.w3.org/2000/svg">
<rect width="44" height="44" rx="22" fill="#FFE9EC"/>
<path d="M19.0508 24.8501H25.4508M19.0508 27.6501H23.4508" stroke="black" stroke-width="1.5" stroke-linecap="round"/>
<path d="M24.6484 15.6499V17.5166C24.6484 19.2765 24.6484 20.1568 25.169 20.7033C25.6895 21.2499 26.5279 21.2499 28.204 21.2499H31.0484" stroke="black" stroke-width="1.5"/>
<path d="M16.3663 20.7616C16.3663 20.6136 16.3075 20.4717 16.2028 20.367C16.0981 20.2623 15.9562 20.2035 15.8081 20.2035C15.6601 20.2035 15.5181 20.2623 15.4135 20.367C15.3088 20.4717 15.25 20.6136 15.25 20.7616H16.3663ZM30.1337 23.7384C30.1337 23.8864 30.1925 24.0284 30.2972 24.133C30.4018 24.2377 30.5438 24.2965 30.6918 24.2965C30.8398 24.2965 30.9818 24.2377 31.0865 24.133C31.1911 24.0284 31.25 23.8864 31.25 23.7384H30.1337ZM15.3281 17.7306C15.3137 17.8779 15.3584 18.025 15.4524 18.1393C15.5464 18.2537 15.682 18.326 15.8293 18.3404C15.9767 18.3549 16.1237 18.3101 16.2381 18.2161C16.3525 18.1222 16.4248 17.9866 16.4392 17.8392L15.3281 17.7306ZM31.1718 26.7694C31.1789 26.6965 31.1716 26.6228 31.1503 26.5527C31.129 26.4826 31.0941 26.4173 31.0475 26.3607C31.001 26.3041 30.9437 26.2572 30.8791 26.2227C30.8144 26.1882 30.7436 26.1667 30.6706 26.1596C30.5977 26.1525 30.524 26.1598 30.4539 26.1811C30.3837 26.2024 30.3185 26.2373 30.2619 26.2839C30.1475 26.3779 30.0752 26.5135 30.0607 26.6608L31.1718 26.7694ZM24.7383 29.1337H21.7616V30.25H24.7383V29.1337ZM16.3663 23.7384V20.7616H15.25V23.7384H16.3663ZM30.1337 23.4132V23.7384H31.25V23.4132H30.1337ZM25.4014 16.7512L28.3476 19.4028L29.0941 18.5723L26.1486 15.9207L25.4014 16.7512ZM31.25 23.4132C31.25 22.1562 31.2611 21.36 30.9448 20.6485L29.9246 21.1032C30.1225 21.5483 30.1337 22.058 30.1337 23.4132H31.25ZM28.3476 19.4028C29.3545 20.3092 29.7266 20.659 29.9246 21.1032L30.9448 20.6485C30.6278 19.9363 30.0287 19.4132 29.0941 18.5723L28.3476 19.4028ZM21.7839 15.3663C22.9612 15.3663 23.4055 15.3752 23.8007 15.5271L24.201 14.4852C23.567 14.2411 22.8764 14.25 21.7839 14.25V15.3663ZM26.1486 15.9215C25.3404 15.1944 24.8351 14.7278 24.201 14.4852L23.8014 15.5271C24.1973 15.6789 24.5307 15.9676 25.4014 16.7512L26.1486 15.9215ZM21.7616 29.1337C20.3425 29.1337 19.3348 29.1322 18.5691 29.0295C17.8212 28.9291 17.3895 28.74 17.0747 28.4253L16.2859 29.2141C16.8426 29.7722 17.5488 30.0185 18.421 30.1361C19.2768 30.2515 20.3744 30.25 21.7616 30.25V29.1337ZM15.25 23.7384C15.25 25.1255 15.2485 26.2225 15.3639 27.079C15.4814 27.9512 15.7285 28.6574 16.2852 29.2148L17.074 28.426C16.7599 28.1105 16.5709 27.6788 16.4705 26.9302C16.3678 26.1659 16.3663 25.1575 16.3663 23.7384H15.25ZM24.7383 30.25C26.1255 30.25 27.2224 30.2515 28.079 30.1361C28.9512 30.0185 29.6574 29.7715 30.2148 29.2148L29.426 28.426C29.1104 28.74 28.6788 28.9291 27.9301 29.0295C27.1659 29.1322 26.1575 29.1337 24.7383 29.1337V30.25ZM21.7839 14.25C20.3886 14.25 19.2865 14.2486 18.4269 14.3639C17.551 14.4815 16.8426 14.7286 16.2852 15.2852L17.074 16.074C17.3895 15.76 17.8219 15.571 18.575 15.4705C19.3438 15.3678 20.3573 15.3663 21.7839 15.3663V14.25ZM16.4392 17.8392C16.5293 16.9209 16.7235 16.4253 17.0747 16.0748L16.2859 15.2859C15.6638 15.9066 15.4279 16.714 15.3281 17.7306L16.4392 17.8392ZM30.0607 26.6608C29.9707 27.5791 29.7757 28.0747 29.4252 28.4253L30.214 29.2141C30.8362 28.5934 31.0721 27.786 31.1718 26.7694L30.0607 26.6608Z" fill="black"/>
</svg>
