<svg xmlns="http://www.w3.org/2000/svg" width="24" height="24" viewBox="0 0 24 24">
    <g fill="none" fill-rule="evenodd">
        <g>
            <circle cx="12" cy="12" r="11.5" stroke="#E9E9ED"/>
            <circle cx="12" cy="12" r="4.5" stroke="#373737"/>
        </g>
        <path fill="#000" fill-rule="nonzero" d="M12 17a5 5 0 1 0 0-10 5 5 0 0 0 0 10zm0-1a4 4 0 1 1 0-8 4 4 0 0 1 0 8z"/>
        <path fill="#E9E9ED" fill-rule="nonzero" d="M12 24c6.627 0 12-5.373 12-12S18.627 0 12 0 0 5.373 0 12s5.373 12 12 12zm0-1C5.925 23 1 18.075 1 12S5.925 1 12 1s11 4.925 11 11-4.925 11-11 11z"/>
    </g>
</svg>
