<svg xmlns="http://www.w3.org/2000/svg" width="24" height="24" viewBox="0 0 24 24">
    <g fill="none" fill-rule="evenodd">
        <path fill="#373737" fill-rule="nonzero" d="M9.545 14.571c.16.292.557.35.794.115l2.17-2.16 2.171 2.16a.502.502 0 0 0 .77-.076l3.787-5.652a.495.495 0 0 0-.14-.689.502.502 0 0 0-.693.138l-3.448 5.147-2.093-2.083a.502.502 0 0 0-.707 0l-2.051 2.04-2.08-3.81a.502.502 0 0 0-.868-.018l-2.65 4.396a.495.495 0 0 0 .172.682.502.502 0 0 0 .686-.171l2.2-3.649 1.98 3.63zM2 6.271C2 5.293 2.79 4.5 3.767 4.5h16.466C21.21 4.5 22 5.294 22 6.27v11.46c0 .976-.79 1.77-1.767 1.77H3.767A1.768 1.768 0 0 1 2 17.73V6.27zm1 0V17.73c0 .43.344.776.767.776h16.466A.772.772 0 0 0 21 17.73V6.27a.772.772 0 0 0-.767-.776H3.767A.772.772 0 0 0 3 6.27z"/>
    </g>
</svg>
