<?xml version="1.0" standalone="no"?>
<!DOCTYPE svg PUBLIC "-//W3C//DTD SVG 20010904//EN"
 "http://www.w3.org/TR/2001/REC-SVG-20010904/DTD/svg10.dtd">
<svg version="1.0" xmlns="http://www.w3.org/2000/svg"
 width="512.000000pt" height="512.000000pt" viewBox="0 0 512.000000 512.000000"
 preserveAspectRatio="xMidYMid meet">
<metadata>
Created by potrace 1.11, written by Peter Selinger 2001-2013
</metadata>
<g transform="translate(0.000000,512.000000) scale(0.100000,-0.100000)"
fill="#000000" stroke="none">
<path d="M2497 5004 c-1 -1 -76 -5 -167 -8 -91 -4 -178 -9 -195 -11 -16 -3
-61 -7 -100 -10 -86 -6 -167 -14 -220 -20 -53 -6 -284 -35 -315 -40 -14 -2
-45 -6 -70 -10 -38 -5 -177 -27 -260 -40 -34 -6 -102 -17 -117 -19 -23 -4 -23
-12 0 -12 46 -1 168 -19 232 -33 83 -20 141 -33 157 -36 57 -12 267 -83 368
-126 109 -46 332 -166 376 -203 11 -8 47 -36 82 -62 123 -91 272 -249 362
-383 47 -70 140 -252 140 -273 0 -8 4 -18 9 -23 28 -32 90 -298 107 -455 4
-44 5 -355 0 -395 -8 -74 -20 -170 -21 -175 0 -3 -4 -27 -9 -53 -4 -27 -9 -59
-12 -70 -2 -12 -7 -35 -10 -52 -23 -135 -117 -451 -193 -653 -17 -46 -26 -80
-20 -77 10 7 206 206 254 260 15 17 46 50 69 75 156 169 383 442 523 630 352
475 552 857 630 1205 18 81 25 300 12 376 -44 254 -236 451 -549 563 -88 32
-244 72 -315 82 -27 3 -53 8 -56 10 -3 1 -37 6 -75 9 -38 3 -78 8 -89 10 -46
9 -519 26 -528 19z"/>
<path d="M4568 4420 c-91 -27 -137 -87 -173 -223 -244 -924 -777 -1773 -1430
-2282 -91 -71 -256 -181 -285 -190 -11 -4 -20 -10 -20 -14 0 -10 125 11 234
39 556 144 1076 534 1451 1090 41 61 75 106 75 101 0 -23 -115 -355 -161 -465
-128 -306 -313 -628 -489 -851 -44 -56 -55 -63 -143 -98 -246 -96 -502 -161
-732 -185 -88 -9 -479 -9 -565 0 -490 50 -995 258 -1438 590 -139 105 -218
174 -375 327 -70 69 -137 131 -150 138 -37 21 -93 16 -123 -11 l-28 -23 49
-79 c167 -273 380 -530 631 -764 430 -400 998 -684 1563 -779 l106 -18 -71
-21 c-224 -68 -396 -93 -634 -93 -247 0 -429 31 -682 115 -86 29 -155 49 -152
44 3 -4 53 -52 112 -105 309 -279 608 -436 954 -499 120 -22 352 -26 472 -9
982 143 1809 1190 2130 2695 26 125 27 126 55 310 31 194 47 325 56 455 3 44
8 103 10 130 2 28 7 142 11 255 7 222 1 266 -42 332 -45 70 -144 110 -216 88z"/>
</g>
</svg>
