<svg xmlns="http://www.w3.org/2000/svg" width="24" height="24" viewBox="0 0 24 24">
    <g fill="none" fill-rule="evenodd" stroke="#16216A" stroke-linecap="round" stroke-linejoin="round" stroke-width="1.5">
        <path d="M12.75.75a10.485 10.485 0 0 0-8.917 16.025L.75 23.25l6.474-3.084A10.5 10.5 0 1 0 12.75.75z"/>
        <path d="M8.25 10.875a.375.375 0 1 0 0 .75.375.375 0 0 0 0-.75M12.75 10.875a.375.375 0 1 0 0 .75.375.375 0 0 0 0-.75M17.25 10.875a.375.375 0 1 0 0 .75.375.375 0 0 0 0-.75"/>
    </g>
</svg>
