<svg xmlns="http://www.w3.org/2000/svg" width="111" height="97" viewBox="0 0 111 97">
    <g fill="none" fill-rule="evenodd">
        <path stroke="#373737" stroke-linecap="round" stroke-linejoin="round" stroke-width="1.701" d="M80.995 96H69.349L66 76h25M30.005 96H41.651L45 76H20M99.048 71H11.952C5.928 71 1 66.026 1 59.947V12.053C1 5.973 5.928 1 11.952 1h87.096C105.072 1 110 5.974 110 12.053v47.894C110 66.027 105.072 71 99.048 71z"/>
        <path fill="#EB2F16" d="M56 51c8.837 0 16-7.163 16-16s-7.163-16-16-16c-8.836 0-16 7.163-16 16s7.164 16 16 16"/>
        <path fill="#FFF" d="M53.939 41a2.566 2.566 0 0 1-1.79-.722L48 36.223l.65-.635 4.147 4.055a1.642 1.642 0 0 0 2.436-.172L63.266 29l.734.538-8.033 10.472a2.554 2.554 0 0 1-2.028.99"/>
    </g>
</svg>
