<svg xmlns="http://www.w3.org/2000/svg" viewBox="0 0 24 24"><path d="M13.125 7.125a1.5 1.5 0 1 1-3 0 1.5 1.5 0 1 1 3 0zm0 0" fill-rule="evenodd"/><path d="M11.102 9.75c.832 0 1.348.81 1.348 1.688v4.688c0 .672.29 1.125.45 1.125h.602a.75.75 0 1 1 0 1.5h-.602c-1.164 0-1.95-1.227-1.95-2.625v-4.687c0-.156-.02-.187.152-.187H10.5a.75.75 0 1 1 0-1.5zM11.625 6c.62 0 1.125.504 1.125 1.125s-.504 1.125-1.125 1.125S10.5 7.746 10.5 7.125 11.004 6 11.625 6zM12 24a12 12 0 1 0 0-24 12 12 0 1 0 0 24zm0-1.5a10.5 10.5 0 1 1 0-21 10.5 10.5 0 1 1 0 21zm0 0"/></svg>