<svg width="300" height="54" viewBox="0 0 300 54" fill="none" xmlns="http://www.w3.org/2000/svg">
<mask id="mask0_20212_89565" style="mask-type:luminance" maskUnits="userSpaceOnUse" x="0" y="25" width="15" height="15">
<path d="M0.0078125 25.2192H14.4348V39.6542H0.0078125V25.2192Z" fill="white"/>
</mask>
<g mask="url(#mask0_20212_89565)">
<path fill-rule="evenodd" clip-rule="evenodd" d="M9.837 37.0562C10.951 37.0562 11.858 36.1492 11.858 35.0352C11.8572 34.4997 11.6442 33.9862 11.2655 33.6074C10.8869 33.2286 10.3736 33.0153 9.838 33.0142H2.578V37.0772H9.838V37.0562H9.837ZM2.577 30.4362H9.115C9.46428 30.4336 9.79851 30.2937 10.0455 30.0467C10.2925 29.7997 10.4324 29.4655 10.435 29.1162C10.435 28.3942 9.837 27.7962 9.115 27.7962H2.578V30.4362H2.577ZM14.436 35.0562C14.4347 36.2755 13.9497 37.4444 13.0875 38.3064C12.2252 39.1684 11.0562 39.6532 9.837 39.6542H0V25.2192H9.095C10.1277 25.2221 11.1172 25.6336 11.8474 26.3638C12.5776 27.0941 12.9891 28.0836 12.992 29.1162C12.9961 29.8629 12.7812 30.5944 12.374 31.2202C13.0078 31.6395 13.5279 32.2094 13.8877 32.8788C14.2476 33.5481 14.4359 34.2963 14.436 35.0562Z" fill="#E30613"/>
</g>
<path fill-rule="evenodd" clip-rule="evenodd" d="M34.5454 25.2192V32.4372C34.5454 36.4172 31.3074 39.6552 27.3274 39.6552C23.3474 39.6552 20.1094 36.4172 20.1094 32.4372V25.2192H22.6874V32.4372C22.6892 33.6673 23.1787 34.8464 24.0484 35.7162C24.9182 36.5859 26.0973 37.0754 27.3274 37.0772C28.5574 37.0754 29.7365 36.5859 30.6063 35.7162C31.4761 34.8464 31.9655 33.6673 31.9674 32.4372V25.2192H34.5454ZM51.8064 29.2202V29.1372C51.8064 28.4152 51.2084 27.8172 50.4864 27.8172H44.6294C44.2801 27.8199 43.9459 27.9598 43.6989 28.2067C43.4519 28.4537 43.312 28.788 43.3094 29.1372V29.2202C43.3094 29.9412 43.9074 30.5402 44.6294 30.5402H49.8264C51.1664 30.5402 52.3634 31.1172 53.1874 32.0242C53.2494 32.0862 53.2914 32.1482 53.3524 32.2102C53.8985 32.878 54.2439 33.6871 54.3485 34.5433C54.4531 35.3996 54.3126 36.268 53.9434 37.0476C53.5742 37.8273 52.9913 38.4861 52.2626 38.9477C51.5338 39.4093 50.689 39.6546 49.8264 39.6552H45.3104C44.1016 39.655 42.9424 39.1747 42.0877 38.3199C41.2329 37.4652 40.7526 36.306 40.7524 35.0972H43.3304C43.3304 35.6224 43.539 36.126 43.9103 36.4973C44.2816 36.8686 44.7852 37.0772 45.3104 37.0772H49.8264C50.9194 37.0772 51.8264 36.1902 51.8264 35.0972C51.8264 34.0042 50.9194 33.1172 49.8264 33.1172H44.6294C43.5774 33.1172 42.6294 32.7052 41.9284 32.0242C41.741 31.837 41.5746 31.6297 41.4324 31.4062C40.9842 30.758 40.7468 29.9873 40.7524 29.1992V29.1172C40.7524 26.9722 42.4844 25.2192 44.6294 25.2192H50.4864C51.5194 25.2219 52.5093 25.6334 53.2398 26.3639C53.9702 27.0943 54.3817 28.0842 54.3844 29.1172V29.1992L51.8064 29.2202ZM60.5704 39.6552H63.1484V25.2192H60.5704V39.6552ZM83.7704 25.2392V39.6752L81.1934 37.6962L71.9124 30.5392V39.6752H69.3344V25.2812L71.9124 27.2612L81.1934 34.4162V25.2192L83.7704 25.2392ZM92.5354 29.1172V30.4572H101.815V33.0352H92.5354V35.7572C92.5354 36.4792 93.1334 37.0772 93.8554 37.0772H104.393V39.6552H93.8554C91.7104 39.6552 89.9774 37.9022 89.9774 35.7572V29.1172C89.9774 26.9722 91.7104 25.2192 93.8554 25.2192H104.393V27.7972H93.8554C93.5061 27.7999 93.1719 27.9398 92.9249 28.1867C92.6779 28.4337 92.538 28.768 92.5354 29.1172ZM121.654 29.2202V29.1372C121.654 28.4152 121.056 27.8172 120.334 27.8172H114.477C114.128 27.8199 113.794 27.9598 113.547 28.2067C113.3 28.4537 113.16 28.788 113.157 29.1372V29.2202C113.157 29.9412 113.755 30.5402 114.477 30.5402H119.674C121.014 30.5402 122.211 31.1172 123.035 32.0242C123.097 32.0862 123.138 32.1482 123.2 32.2102C123.746 32.878 124.092 33.6871 124.196 34.5433C124.301 35.3996 124.161 36.268 123.791 37.0476C123.422 37.8273 122.839 38.4861 122.111 38.9477C121.382 39.4093 120.537 39.6546 119.674 39.6552H115.157C113.949 39.6547 112.79 39.1743 111.935 38.3196C111.081 37.4649 110.601 36.3058 110.6 35.0972H113.178C113.178 35.3573 113.23 35.6147 113.329 35.855C113.429 36.0952 113.574 36.3134 113.758 36.4973C113.942 36.6812 114.16 36.827 114.401 36.9265C114.641 37.026 114.898 37.0772 115.158 37.0772H119.674C120.767 37.0772 121.674 36.1902 121.674 35.0972C121.674 34.0042 120.767 33.1172 119.674 33.1172H114.477C113.425 33.1172 112.477 32.7052 111.776 32.0242C111.589 31.837 111.423 31.6297 111.28 31.4062C110.832 30.758 110.595 29.9873 110.6 29.1992V29.1172C110.6 26.9722 112.332 25.2192 114.477 25.2192H120.334C121.367 25.2219 122.357 25.6334 123.088 26.3639C123.818 27.0943 124.23 28.0842 124.232 29.1172V29.1992L121.654 29.2202ZM141.492 29.2202V29.1372C141.492 28.4152 140.894 27.8172 140.172 27.8172H134.316C133.967 27.8199 133.633 27.9598 133.386 28.2067C133.139 28.4537 132.999 28.788 132.996 29.1372V29.2202C132.996 29.9412 133.594 30.5402 134.316 30.5402H139.513C140.853 30.5402 142.049 31.1172 142.875 32.0242C142.935 32.0862 142.977 32.1482 143.039 32.2102C143.585 32.8782 143.93 33.6871 144.035 34.5433C144.139 35.3994 143.998 36.2676 143.629 37.0471C143.26 37.8265 142.677 38.4853 141.949 38.947C141.22 39.4086 140.376 39.6542 139.513 39.6552H134.996C133.788 39.6547 132.629 39.1743 131.774 38.3196C130.92 37.4649 130.44 36.3058 130.439 35.0972H133.017C133.017 35.6224 133.226 36.126 133.597 36.4973C133.969 36.8686 134.472 37.0772 134.997 37.0772H139.513C140.606 37.0772 141.513 36.1902 141.513 35.0972C141.513 34.0042 140.606 33.1172 139.513 33.1172H134.316C133.264 33.1172 132.316 32.7052 131.614 32.0242C131.427 31.8369 131.261 31.6297 131.119 31.4062C130.671 30.758 130.434 29.9873 130.439 29.1992V29.1172C130.439 26.9722 132.171 25.2192 134.316 25.2192H140.173C141.206 25.2219 142.196 25.6334 142.927 26.3639C143.657 27.0943 144.069 28.0842 144.071 29.1172V29.1992L141.492 29.2202Z" fill="#E30613"/>
<path fill-rule="evenodd" clip-rule="evenodd" d="M47.9419 2.23305C47.92 2.23029 47.898 2.22829 47.8759 2.22705H47.8119L47.7749 2.22805L47.7529 2.23005C47.4289 2.26605 47.1479 2.51505 47.0539 2.87405C45.8059 7.70005 43.3159 11.3571 40.2859 12.6331C43.0549 12.2631 45.4889 10.4411 47.1289 7.76705C46.5629 9.83905 45.6269 11.6801 44.4229 13.1541C43.0759 13.7561 41.6389 14.0831 40.1459 14.0831C36.9539 14.0831 34.0139 12.5931 31.6699 10.0901C31.5894 10.0021 31.4788 9.94749 31.3599 9.93705C31.3389 9.93705 31.3149 9.93405 31.2899 9.93705H31.2799C31.2557 9.94046 31.2317 9.94513 31.2079 9.95105C31.2049 9.95105 31.2029 9.95105 31.2009 9.95305C31.1753 9.96016 31.1502 9.96918 31.1259 9.98005L31.1239 9.98205C31.0614 10.0139 31.0059 10.0581 30.9609 10.1121C32.9709 13.5221 36.2369 15.8931 40.0059 16.3721C39.1379 16.6781 38.2259 16.842 37.2819 16.842C36.164 16.8401 35.0582 16.6104 34.0319 16.1671C34.5475 16.712 35.1293 17.19 35.7639 17.5901L35.8939 17.668C35.9498 17.7029 36.0069 17.736 36.0649 17.7671L36.1819 17.831C36.193 17.8365 36.204 17.8422 36.2149 17.8481C36.2549 17.8681 36.2919 17.8901 36.3309 17.9081C36.3439 17.9151 36.3569 17.92 36.3689 17.9281L36.4819 17.9821C36.4959 17.9891 36.5089 17.9941 36.5219 18.0021L36.6349 18.0531C36.6489 18.059 36.6609 18.0631 36.6739 18.0701C36.7129 18.0871 36.7519 18.1051 36.7909 18.1201C36.8009 18.1241 36.8109 18.1291 36.8219 18.1321C36.9989 18.2051 37.1789 18.2701 37.3599 18.3271L37.4129 18.3431C37.4429 18.3531 37.4759 18.3611 37.5079 18.3701C37.5303 18.3775 37.553 18.3838 37.5759 18.3891C37.6039 18.3981 37.6349 18.4051 37.6659 18.4131L37.7399 18.4311C37.7679 18.4391 37.7949 18.4451 37.8239 18.4511L37.9039 18.4711L37.9859 18.4871L38.0709 18.5021L38.1509 18.5181L38.2379 18.5311L38.3159 18.5431L38.4059 18.5551L38.4829 18.5651L38.5769 18.5741L38.6509 18.5801C38.6839 18.5841 38.7169 18.5851 38.7509 18.5871C38.7729 18.5901 38.7959 18.5921 38.8189 18.5931C38.8579 18.5961 38.8939 18.5971 38.9319 18.5981L38.9889 18.6011C39.0456 18.6027 39.1023 18.6037 39.1589 18.6041C42.5359 18.6041 45.4999 15.7441 47.1809 11.4391V11.4381C48.0379 9.24305 48.5599 6.66905 48.6329 3.90805C48.6329 3.86605 48.6329 3.82405 48.6349 3.78105C48.6389 3.60405 48.6409 3.42905 48.6409 3.25305V3.11405C48.6389 2.67005 48.3419 2.29405 47.9419 2.23305Z" fill="#731A35"/>
<path fill-rule="evenodd" clip-rule="evenodd" d="M30.9619 10.1122C31.0036 10.0589 31.0564 10.0153 31.1168 9.98468C31.1771 9.95403 31.2434 9.93701 31.3111 9.93481C31.3787 9.93262 31.446 9.94531 31.5082 9.97198C31.5703 9.99866 31.6259 10.0387 31.6709 10.0892C34.0149 12.5922 36.9549 14.0832 40.1469 14.0832C42.7139 14.0832 45.1199 13.1182 47.1829 11.4382C46.4629 13.2822 45.5059 14.8612 44.3829 16.0642C43.4329 16.3252 42.4409 16.4642 41.4209 16.4642C37.0609 16.4642 33.2199 13.9422 30.9619 10.1122Z" fill="#FBD13E"/>
<mask id="mask1_20212_89565" style="mask-type:luminance" maskUnits="userSpaceOnUse" x="30" y="0" width="19" height="19">
<path d="M30.9609 0.012207H48.6409V18.6032H30.9609V0.012207Z" fill="white"/>
</mask>
<g mask="url(#mask1_20212_89565)">
<path fill-rule="evenodd" clip-rule="evenodd" d="M48.6419 3.25316V3.10416V3.10916V3.10216C48.6391 2.89373 48.5677 2.69204 48.4389 2.52816L48.4339 2.52316C48.4046 2.48613 48.3721 2.45167 48.3369 2.42016L48.3059 2.39816C48.2769 2.37516 48.2489 2.35216 48.2199 2.33416C48.1959 2.31916 48.1709 2.31016 48.1469 2.29916C48.1269 2.28916 48.1079 2.27816 48.0869 2.27016C48.0403 2.25311 47.992 2.24072 47.9429 2.23316C47.8988 2.22745 47.8544 2.22544 47.8099 2.22716C47.7929 2.22716 47.7769 2.23016 47.7599 2.23216C47.7439 2.23216 47.7269 2.23216 47.7099 2.23516V2.23916C47.4059 2.29116 47.1449 2.53116 47.0549 2.87416C45.8069 7.70016 42.9199 11.1762 40.2869 12.6332C43.0549 12.2632 45.4869 10.4412 47.1269 7.76916C46.3769 10.5212 44.9709 12.8652 43.1549 14.4812C42.152 14.8506 41.0918 15.0402 40.0229 15.0412C36.5569 15.0412 33.4529 13.0612 31.3739 9.93916C31.259 9.92586 31.1433 9.95738 31.0509 10.0272C31.0175 10.052 30.9873 10.0809 30.9609 10.1132C32.9709 13.5202 36.2349 15.8922 40.0019 16.3732C39.1285 16.683 38.2087 16.842 37.2819 16.8432C36.1639 16.841 35.0581 16.611 34.0319 16.1672C34.1489 16.2892 34.2689 16.4062 34.3879 16.5192L34.3859 16.5182L34.4689 16.5942C34.5259 16.6452 34.5809 16.6972 34.6379 16.7472L34.7259 16.8222C34.7899 16.8782 34.8549 16.9332 34.9209 16.9862L34.9439 17.0042C35.1899 17.2042 35.4429 17.3842 35.7009 17.5472L35.7709 17.5932C35.8359 17.6332 35.9009 17.6702 35.9659 17.7082L36.0759 17.7722C36.1349 17.8052 36.1959 17.8362 36.2559 17.8672C36.3542 17.9212 36.455 17.9706 36.5579 18.0152C36.6589 18.064 36.762 18.1084 36.8669 18.1482L37.0149 18.2082L37.1799 18.2672C37.2339 18.2842 37.2859 18.3022 37.3399 18.3182C37.3929 18.3352 37.4459 18.3522 37.4999 18.3672C37.5549 18.3832 37.6119 18.3972 37.6679 18.4122L37.8229 18.4512C37.8829 18.4652 37.9429 18.4762 38.0029 18.4882C38.0529 18.4982 38.1029 18.5082 38.1529 18.5162C38.2169 18.5272 38.2819 18.5362 38.3459 18.5462L38.4839 18.5642C38.5589 18.5722 38.6319 18.5782 38.7059 18.5842C38.7439 18.5862 38.7819 18.5912 38.8209 18.5942C38.9329 18.6002 39.0459 18.6042 39.1599 18.6042C41.0899 18.6042 42.8849 17.6672 44.3819 16.0642H44.3829L44.3929 16.0542C44.4989 15.9392 44.6029 15.8212 44.7059 15.7002L44.7629 15.6362C44.8609 15.5172 44.9599 15.3952 45.0559 15.2702L45.1189 15.1902C45.2129 15.0672 45.3049 14.9402 45.3959 14.8102L45.4609 14.7192C45.5499 14.5912 45.6369 14.4602 45.7219 14.3272L45.7909 14.2222C45.8739 14.0902 45.9549 13.9552 46.0349 13.8182L46.1049 13.7012C46.2867 13.3824 46.4575 13.0576 46.6169 12.7272L46.6839 12.5912C46.7539 12.4432 46.8209 12.2952 46.8869 12.1452L46.9269 12.0552L46.9259 12.0582C47.8739 9.87016 48.4769 7.26416 48.6119 4.44516C48.6119 4.44016 48.6139 4.43516 48.6149 4.43216C48.6199 4.34016 48.6209 4.24816 48.6249 4.15616L48.6309 3.96516C48.6379 3.72916 48.6419 3.49216 48.6419 3.25316Z" fill="#E30613"/>
</g>
<mask id="mask2_20212_89565" style="mask-type:luminance" maskUnits="userSpaceOnUse" x="30" y="0" width="19" height="19">
<path d="M30.9609 0.012207H48.6409V18.6032H30.9609V0.012207Z" fill="white"/>
</mask>
<g mask="url(#mask2_20212_89565)">
<path fill-rule="evenodd" clip-rule="evenodd" d="M34.0234 0.639032C34.0234 0.639032 44.5934 1.27603 40.1174 12.46C40.1174 12.46 56.6234 -3.28197 34.0234 0.639032Z" fill="#E30613"/>
</g>
<path fill-rule="evenodd" clip-rule="evenodd" d="M51.4062 14.2301H53.4663V11.4461H56.0312C56.6673 11.4461 57.1263 11.7081 57.1263 12.7761C57.1263 13.5721 57.1362 13.8761 57.3302 14.2291H59.5802C59.2202 13.8481 59.1883 12.9561 59.1883 12.5811C59.1883 11.8351 59.0503 10.6911 58.1463 10.5511V10.5331C59.0063 10.2251 59.3803 9.62809 59.3803 8.70509C59.3803 7.92709 59.0273 6.64209 56.9233 6.64209H51.4062V14.2301ZM53.4663 8.08709H56.0942C56.5952 8.08709 57.1883 8.27709 57.1883 9.03209C57.1883 9.74509 56.6583 9.99909 56.2013 9.99909H53.4673L53.4663 8.08709Z" fill="#E30613"/>
<path fill-rule="evenodd" clip-rule="evenodd" d="M66.2369 14.2301H68.4609L65.1209 6.64111H62.6339L59.2969 14.2281H61.5189L62.1349 12.6651H65.6229L66.2359 14.2281L66.2369 14.2301ZM65.0689 11.2901H62.6889L63.8789 8.27711L65.0689 11.2891V11.2901ZM70.8059 9.90611V6.64211H68.7429V14.2291H70.8059V11.9741L72.0089 10.9461L74.5909 14.2291H77.3749L73.6229 9.69111L77.1099 6.64211H74.3349L70.8059 9.90611ZM80.4459 8.02011H83.0259C83.8799 8.02011 84.0899 8.36211 84.0899 8.84011C84.0899 9.40411 83.7919 9.66111 83.3159 9.66111H80.4459V8.02011ZM78.3799 14.2301H83.7919C86.0889 14.2301 86.5549 12.9481 86.5549 11.9331C86.5549 11.1161 86.0889 10.2431 85.2069 10.0931V10.0751C85.9209 9.85311 86.2169 9.14111 86.2169 8.55511C86.2169 7.14911 85.1849 6.64211 84.0789 6.64211H78.3799V14.2301ZM80.4459 10.9781H83.2709C83.9929 10.9781 84.3669 11.2961 84.3669 11.8931C84.3669 12.3701 84.1239 12.7841 83.4839 12.7841H80.4459V10.9781Z" fill="#E30613"/>
<path fill-rule="evenodd" clip-rule="evenodd" d="M92.9234 14.2301H95.1454L91.8074 6.64111H89.3224L85.9844 14.2281H88.2004L88.8204 12.6651H92.3074L92.9234 14.2281V14.2301ZM91.7534 11.2901H89.3734L90.5654 8.27711L91.7544 11.2891L91.7534 11.2901ZM101.83 11.9331H101.809L97.8214 6.64211H95.4294V14.2291H97.4294V8.93811H97.4494L101.586 14.2291H103.825V6.64211H101.83V11.9331ZM106.531 9.90611V6.64211H104.47V14.2291H106.531V11.9741L107.733 10.9461L110.318 14.2291H113.103L109.35 9.69111L112.835 6.64211H110.064L106.531 9.90611Z" fill="#E30613"/>
<path fill-rule="evenodd" clip-rule="evenodd" d="M171.519 9.62831H177.526C178.673 9.62831 180.029 10.0603 180.029 11.7873C180.029 13.4173 178.815 14.0003 177.772 14.0003H171.522V9.62831H171.519ZM166.805 23.6753H171.521V17.3053H177.384C178.841 17.3053 179.889 17.9063 179.889 20.3463C179.889 22.1693 179.915 22.8663 180.355 23.6733H185.503C184.678 22.8033 184.605 20.7583 184.605 19.9023C184.605 18.1963 184.292 15.5793 182.226 15.2613V15.2183C184.193 14.5123 185.047 13.1463 185.047 11.0383C185.047 9.25831 184.237 6.32031 179.428 6.32031H166.808V23.6753H166.805Z" fill="#008D36"/>
<path fill-rule="evenodd" clip-rule="evenodd" d="M198.054 16.9503H192.614L195.332 10.0603L198.054 16.9503ZM200.726 23.6753H205.812L198.179 6.32227H192.492L184.859 23.6753H189.939L191.35 20.1013H199.325L200.726 23.6753Z" fill="#008D36"/>
<path d="M211.179 13.7853V6.32031H206.461V23.6763H211.179V18.5163L213.928 16.1643L219.835 23.6763H226.2L217.624 13.2963L225.597 6.32031H219.25L211.179 13.7853Z" fill="#008D36"/>
<path d="M228.148 6.1121C228.173 5.3581 228.498 5.0621 229.226 5.0621C230.061 5.0621 230.33 5.3581 230.33 6.1931C230.33 7.0011 230.007 7.3261 229.226 7.3261C228.445 7.3261 228.148 7.0291 228.148 6.2471V6.1121ZM228.417 23.3501V10.6361C228.417 10.4461 228.578 10.2851 228.767 10.2851H229.685C229.9 10.2851 230.061 10.4461 230.061 10.6351V23.3501C230.061 23.5401 229.9 23.7001 229.685 23.7001H228.768C228.676 23.6986 228.588 23.6612 228.522 23.5959C228.457 23.5307 228.419 23.4425 228.417 23.3501ZM237.362 18.1521L235.505 16.8861C233.806 15.7821 233.296 15.0261 233.296 13.6281C233.296 11.4191 234.806 10.0721 237.229 10.0721C238.845 10.0721 240.408 10.6921 240.408 11.3381V11.8221C240.408 11.9831 240.3 12.1191 240.165 12.1191C240.057 12.1191 239.949 12.0651 239.735 11.9581L239.545 11.8501C238.682 11.4201 237.903 11.2021 237.175 11.2021C235.666 11.2021 234.67 12.0121 234.67 13.3021C234.67 14.1921 234.913 14.5141 236.207 15.4031L238.497 16.9381C240.195 18.0681 240.679 18.8511 240.679 20.3041C240.679 22.4871 239.037 23.9421 236.557 23.9421C235.561 23.9421 234.239 23.6191 233.514 23.2421L233.378 23.1601C233.081 22.9991 233.056 22.9451 233.056 22.6481V22.1641C233.056 21.9741 233.137 21.8671 233.299 21.8671C233.406 21.8671 233.542 21.9211 233.704 22.0021C234.7 22.5691 235.428 22.7841 236.342 22.7841C238.012 22.7841 239.037 21.9231 239.037 20.5221C239.03 19.5251 238.682 19.0411 237.362 18.1521ZM243.692 23.3501V4.9501C243.692 4.7601 243.854 4.6001 244.043 4.6001H244.96C245.175 4.6001 245.337 4.7601 245.337 4.9501V23.3501C245.337 23.5401 245.175 23.7001 244.96 23.7001H244.043C243.951 23.6983 243.863 23.6609 243.798 23.5956C243.733 23.5303 243.694 23.4424 243.692 23.3501ZM257.782 23.7001H257.162C256.893 23.7001 256.757 23.5931 256.757 23.3501V23.1881C256.757 23.0811 256.703 22.9991 256.542 22.9991C256.462 22.9991 256.352 23.0531 256.004 23.1891C254.549 23.7551 253.742 23.9161 252.745 23.9161C249.999 23.9161 248.301 22.5961 248.301 20.3881C248.301 18.5311 249.405 17.4531 252.315 16.4021L255.627 15.2161C256.327 14.9731 256.491 14.7321 256.491 14.0301V13.5461C256.491 11.9291 255.576 11.1761 253.634 11.1761C252.207 11.1761 251.049 11.5271 249.73 12.3341C249.637 12.408 249.525 12.4541 249.407 12.4671C249.246 12.4671 249.138 12.3071 249.138 12.0911V11.5531C249.138 11.2831 249.274 11.1231 249.732 10.9331C251.026 10.3951 252.586 10.0701 253.854 10.0701C255.553 10.0701 256.495 10.3391 257.249 11.0941C257.922 11.7681 258.137 12.3881 258.137 13.7071V23.3501C258.133 23.4424 258.094 23.5297 258.028 23.5946C257.963 23.6595 257.875 23.6972 257.782 23.7001ZM256.488 16.1871L253.471 17.2121C250.858 18.1291 249.943 18.9361 249.943 20.4161C249.943 21.8431 251.127 22.7861 252.879 22.7861C255.195 22.7861 256.489 22.1941 256.489 21.1161V16.1861L256.488 16.1871ZM261.689 23.3501V10.6361C261.689 10.4461 261.849 10.2851 262.039 10.2851H262.739C262.979 10.2851 263.036 10.3671 263.036 10.6081V10.7691C263.036 10.9051 263.116 10.9841 263.279 10.9841C263.415 10.9841 263.494 10.9561 263.871 10.7691C264.734 10.3111 265.918 10.0691 267.051 10.0691C268.585 10.0691 269.528 10.3931 270.471 11.3351C270.685 11.5251 270.793 11.6051 270.901 11.6051C271.116 11.6051 271.17 11.5791 271.521 11.3351C272.786 10.4461 274.001 10.0701 275.427 10.0701C276.937 10.0701 278.068 10.4741 278.929 11.3631C279.926 12.3601 280.223 13.3561 280.223 15.5931V23.3501C280.223 23.5401 280.089 23.7001 279.872 23.7001H278.955C278.863 23.6985 278.775 23.6611 278.71 23.5958C278.645 23.5305 278.608 23.4424 278.606 23.3501V15.1601C278.606 12.4651 277.395 11.2001 274.807 11.2001C272.922 11.2001 271.79 11.9271 271.79 13.1391V23.3481C271.79 23.5371 271.628 23.6981 271.413 23.6981H270.498C270.406 23.6963 270.318 23.6589 270.253 23.5936C270.188 23.5283 270.15 23.4404 270.148 23.3481V15.2931C270.148 13.0311 269.556 11.9531 268.072 11.4411C267.559 11.2772 267.023 11.1949 266.484 11.1971C264.355 11.1971 263.331 11.7911 263.331 13.0031V23.3481C263.331 23.5371 263.169 23.6981 262.954 23.6981H262.039C261.947 23.6973 261.859 23.6605 261.794 23.5954C261.728 23.5304 261.691 23.4423 261.689 23.3501ZM283.509 6.1121C283.535 5.3581 283.86 5.0621 284.588 5.0621C285.423 5.0621 285.692 5.3581 285.692 6.1931C285.692 7.0011 285.369 7.3261 284.588 7.3261C283.807 7.3261 283.509 7.0291 283.509 6.2471V6.1121ZM283.779 23.3501V10.6361C283.779 10.4461 283.939 10.2851 284.129 10.2851H285.044C285.259 10.2851 285.421 10.4461 285.421 10.6351V23.3501C285.421 23.5401 285.259 23.7001 285.044 23.7001H284.129C284.037 23.6983 283.949 23.6609 283.884 23.5956C283.819 23.5303 283.781 23.4424 283.779 23.3501ZM299.026 22.1661V22.7321C299.026 23.4061 297.194 23.9441 294.958 23.9441C290.864 23.9441 288.385 21.3841 288.385 17.1811C288.385 12.8181 290.944 10.0441 294.93 10.0441C297.166 10.0441 299.024 10.6641 299.024 11.4171V11.8761C299.024 12.0911 298.916 12.2261 298.727 12.2261C298.647 12.2261 298.591 12.2011 298.322 12.0661C297.056 11.4191 296.193 11.2021 295.063 11.2021C291.966 11.2021 290.027 13.4381 290.027 17.0761C290.027 20.6571 291.94 22.7861 295.199 22.7861C296.352 22.7845 297.487 22.5078 298.511 21.9791C298.619 21.9251 298.727 21.8711 298.781 21.8711C298.944 21.8691 299.026 21.9771 299.026 22.1661Z" fill="#008D36"/>
<path d="M173.191 37.832V38.693H170.815L170.688 38.176L170.368 38.544L167.156 38.062L167.591 36.766L167.717 36.469C167.752 36.41 167.867 36.331 168.061 36.228L170.068 35.126L170 34.794L170.644 34.221L171.354 37.835H173.191V37.832ZM170.171 35.652L168.279 36.696C168.152 36.776 168.049 36.972 167.947 37.304L170.597 37.706L170.171 35.652ZM171.273 33.472L170.756 33.931L170.309 33.472L169.759 33.931L169.163 33.311L169.713 32.873L170.139 33.311L170.689 32.873L171.273 33.472Z" fill="#575756"/>
<path d="M177.426 37.8322V38.6932H175.176L175.084 38.3492L174.752 38.6932H172.125V37.8332H174.937L174.558 36.6042L175.12 36.0762L175.637 37.8302H177.427V37.8322H177.426ZM174.041 40.3242L174.57 39.8652L175.005 40.3242L175.566 39.8652L176.163 40.4852L175.611 40.9202L175.187 40.4852L174.626 40.9202L174.041 40.3242Z" fill="#575756"/>
<path d="M176.352 37.8319H178.682L179.933 36.2039L180.553 35.3899C180.873 35.0229 181.15 34.8379 181.379 34.8379C181.735 34.8379 182.125 35.1379 182.539 35.7339C182.951 36.3189 183.159 36.9039 183.159 37.4789C183.159 37.6729 183.069 37.9609 182.872 38.3289C182.695 38.6804 182.504 39.0244 182.299 39.3599L179.269 38.0399L178.822 38.6959H176.354V37.8319H176.352ZM182.322 38.4289C182.413 38.1089 182.46 37.8209 182.46 37.5789C182.46 37.0629 182.299 36.5929 181.978 36.1689C181.714 35.8249 181.473 35.6519 181.267 35.6519C181.196 35.6543 181.126 35.6719 181.063 35.7035C181 35.735 180.944 35.7799 180.9 35.8349L180.6 36.1549L179.763 37.3149L182.322 38.4289ZM190.926 37.8319V38.6929H189.263C188.86 38.6929 188.608 38.5899 188.505 38.3929C188.425 38.2559 188.378 38.0729 188.378 37.8329V36.9149L187.576 38.0049C187.3 38.3849 187.036 38.6019 186.795 38.6719C186.554 38.7279 186.095 38.7749 185.393 38.7869L184.371 38.8099H184.154C184.016 38.8099 183.821 38.7989 183.569 38.7749C185.232 38.4649 186.484 38.0049 187.321 37.3969L187.265 37.1909L186.977 36.2159C186.622 34.9879 186.002 33.8979 185.141 32.9219C185.061 33.1399 184.935 33.2539 184.785 33.2539C184.694 33.2539 184.603 33.1739 184.509 33.0139C184.292 32.6229 184.177 32.3469 184.177 32.1759C184.177 32.0609 184.268 31.8529 184.453 31.5559C184.603 31.3159 184.729 31.2009 184.832 31.2009C185.005 31.2009 185.29 31.4769 185.669 32.0379C185.957 32.4519 186.186 32.8079 186.345 33.1159C186.575 33.5859 186.804 34.1949 187.045 34.9179C187.285 35.6759 187.48 36.4219 187.618 37.1449L188.203 36.5249C188.294 36.4339 188.341 36.3629 188.341 36.3189C188.353 36.2159 188.376 35.9629 188.376 35.8599V31.6379L189.087 30.8569L189.099 37.5939C189.099 37.7549 189.269 37.8339 189.628 37.8339H190.926V37.8319Z" fill="#575756"/>
<path d="M194.61 37.833V38.693H189.859V37.833H194.61Z" fill="#575756"/>
<path d="M199.027 38.6937H198.636L198.463 38.3027L198.153 38.6927H193.656V37.8327H198.256L197.408 35.9517L197.855 35.3438L199.025 37.8327V38.6927L199.027 38.6937Z" fill="#575756"/>
<path d="M198.844 37.8318H201.115L200.278 35.9518L200.724 35.3428L201.894 37.8328H203.134L203.169 37.4208C203.169 36.9738 203.008 36.4808 202.675 35.9168L203.134 35.2968C203.546 35.7218 203.754 36.2158 203.754 36.7768C203.754 36.9948 203.73 37.1798 203.686 37.3388C203.56 37.7618 203.446 38.1088 203.342 38.3728C203.284 38.4988 203.251 38.6128 203.216 38.6928H201.494L201.333 38.3028L201.023 38.6928H198.9L198.844 37.8318ZM205.89 41.4468C205.346 41.5335 204.852 41.8141 204.5 42.2368C204.57 41.9048 204.706 41.6408 204.926 41.4468C204.559 41.3788 204.374 41.1708 204.374 40.8378C204.374 40.5278 204.5 40.2538 204.753 40.0128C205.005 39.7828 205.293 39.6688 205.613 39.6688C205.775 39.6688 205.855 39.7158 205.855 39.8188C205.855 39.8768 205.819 40.0008 205.74 40.2088L205.578 40.1858C205.2 40.1858 204.912 40.3708 204.706 40.7378C204.946 40.9438 205.223 41.0488 205.532 41.0488C205.693 41.0488 205.887 41.0138 206.128 40.9338L205.89 41.4468ZM209.539 36.7188C209.745 37.0628 209.85 37.3148 209.85 37.4768C209.846 37.5753 209.827 37.6725 209.792 37.7648L209.735 37.9148L209.471 38.6948H205.513L205.548 38.5348L205.766 37.3528L206.327 36.8588C206.914 36.3366 207.455 35.7644 207.944 35.1488L207.864 35.0458C207.038 33.9908 206.407 33.3248 205.981 33.0508C205.913 33.2908 205.796 33.4178 205.637 33.4178C205.534 33.4178 205.443 33.3598 205.337 33.2568C205.029 32.9128 204.867 32.6368 204.867 32.4188C204.867 32.1548 204.994 31.8688 205.235 31.5468C205.293 31.4668 205.361 31.4318 205.429 31.4318C205.555 31.4318 205.761 31.5698 206.025 31.8458C206.584 32.4246 207.102 33.0421 207.574 33.6938C207.7 33.8668 207.883 34.1408 208.135 34.5198L208.238 34.6928C208.421 34.4628 208.65 34.0968 208.926 33.5798C209.237 33.0058 209.455 32.5568 209.569 32.2248L209.511 32.1688C209.385 32.0428 209.328 31.9388 209.328 31.8488C209.328 31.7568 209.408 31.6308 209.569 31.4688L210.154 30.8848L210.131 31.0458C210.131 31.2188 210.245 31.4128 210.463 31.6078L211.036 32.1128L210.463 32.8588L210.21 32.6738C209.757 33.5596 209.207 34.3915 208.568 35.1538L209.539 36.7188ZM208.219 35.5838L208.069 35.7668C207.876 36.0068 207.588 36.3048 207.232 36.6388L206.189 37.6148L206.142 37.8318H209.333L209.356 37.7648L209.403 37.5348C209.403 37.4548 209.347 37.3298 209.242 37.1558L208.219 35.5838ZM212.957 30.8898L213.186 32.1758L212.956 32.4638L212.98 32.7038L213.083 33.8978C213.083 34.0478 213.095 34.3448 213.106 34.8048L213.13 35.5748C213.13 36.3648 213.083 36.9648 212.992 37.3758C212.844 38.0078 212.604 38.6148 212.281 39.1778L212.304 38.9828C212.407 38.0988 212.454 37.2848 212.43 36.5508L212.374 34.4608L212.339 33.0628C212.304 32.8328 212.236 32.4658 212.109 31.9608L212.957 30.8898ZM223.823 37.8318V38.6928H221.448L221.322 38.1758L221.002 38.5438L217.787 38.0618L218.222 36.7658L218.349 36.4688C218.384 36.4098 218.499 36.3308 218.693 36.2278L220.7 35.1258L220.632 34.7938L221.275 34.2208L221.986 37.8348H223.823V37.8318ZM220.805 35.6518L218.912 36.6958C218.786 36.7758 218.683 36.9718 218.58 37.3038L221.23 37.7058L220.805 35.6518ZM221.907 33.4718L221.39 33.9308L220.943 33.4718L220.393 33.9308L219.797 33.3108L220.347 32.8728L220.772 33.3108L221.322 32.8728L221.907 33.4718Z" fill="#575756"/>
<path d="M227.501 37.833V38.693H222.75V37.833H227.501Z" fill="#575756"/>
<path d="M231.848 37.8322V38.6932H229.6L229.51 38.3492L229.177 38.6932H226.547V37.8332H229.359L228.98 36.6042L229.544 36.0762L230.061 37.8302H231.848V37.8322ZM228.464 40.3242L228.992 39.8652L229.427 40.3242L229.989 39.8652L230.585 40.4852L230.035 40.9202L229.612 40.4852L229.051 40.9202L228.464 40.3242Z" fill="#575756"/>
<path d="M235.625 37.0071L235.258 37.4891H234.397C233.985 37.4891 233.697 37.4421 233.537 37.3391C233.272 37.1771 233.145 36.9041 233.145 36.5251C233.145 35.9961 233.351 35.4581 233.777 34.9061C234.144 34.4241 234.465 34.1831 234.753 34.1831C234.993 34.1831 235.258 34.3451 235.523 34.6531C235.728 34.9061 235.889 35.1701 236.004 35.4561C236.142 35.8001 236.21 36.1561 236.21 36.5341C236.21 36.8101 236.175 37.0961 236.107 37.3951C236.069 37.59 236.015 37.7816 235.946 37.9681L235.866 38.1621C235.81 38.3019 235.76 38.4441 235.716 38.5881L235.681 38.6911H230.781V37.8311H235.555L235.578 37.7391L235.613 37.4511L235.637 37.1401L235.625 37.0071ZM235.637 36.6271C235.639 36.2923 235.573 35.9606 235.443 35.6521C235.27 35.2621 235.04 35.0671 234.731 35.0671C234.388 35.0671 234.1 35.3081 233.859 35.7901C233.788 35.9213 233.749 36.0671 233.744 36.2161C233.744 36.4921 233.985 36.6281 234.467 36.6281L235.637 36.6271ZM235.131 32.5771L234.591 33.0111L233.995 32.4151L234.535 31.9331L235.131 32.5771ZM238.388 36.2841C238.526 36.4341 238.64 36.6041 238.732 36.7891H241.015V35.8371L241.738 35.2051V37.5001C241.738 37.7181 241.841 37.8321 242.048 37.8321H243.553V38.6931H241.658C241.235 38.6931 241.015 38.4061 241.015 37.8331V37.2131L240.683 37.6271H239.031L239.043 37.6731L239.031 37.6501C239.078 37.8461 239.099 38.0401 239.099 38.2231C239.099 38.8781 238.881 39.5541 238.456 40.2531C238.277 40.537 238.069 40.8021 237.836 41.0441C237.504 41.3881 237.239 41.5611 237.022 41.5611C236.734 41.5611 236.264 41.2061 235.612 40.5061C235.932 40.6681 236.254 40.7471 236.563 40.7471C237.436 40.7471 238.159 40.0371 238.72 38.6231C238.645 38.3273 238.541 38.0394 238.411 37.7631C238.266 37.45 238.081 37.1566 237.861 36.8901L238.388 36.2841Z" fill="#575756"/>
<path d="M243.164 37.8317L243.29 37.8207L247.043 35.4437C247.513 35.1677 247.88 35.0317 248.156 35.0317C248.467 35.0317 248.823 35.2147 249.211 35.5817C249.441 35.7997 249.646 36.0637 249.843 36.3717C250.06 36.7277 250.175 37.0387 250.175 37.3017C250.175 37.4517 250.14 37.6217 250.06 37.8297H252.046V38.6907H243.164V37.8317ZM249.648 37.8317L249.581 37.5237C249.398 36.6977 248.984 36.1237 248.341 35.8017C248.181 35.7189 248.004 35.6718 247.824 35.6637C247.721 35.6637 247.559 35.7107 247.342 35.8017L247.148 35.9167L246.011 36.6157L244.107 37.8317H249.648Z" fill="#575756"/>
<path d="M254.341 32.5642L254.685 37.3152C254.685 37.4862 254.72 37.6252 254.776 37.7182C254.811 37.7742 254.903 37.8442 255.064 37.9482L255.214 38.0382L256.166 38.5672L255.752 39.2312L254.112 38.3142L253.801 38.6942H250.977V37.8322H254.053L253.56 32.2912C253.342 32.2112 253.24 32.1292 253.24 32.0382C253.24 31.9822 253.274 31.8882 253.33 31.7742L253.8 30.9132C253.8 31.1302 253.904 31.2922 254.1 31.3952L254.353 31.5212L254.996 31.8212L254.606 32.6582L254.341 32.5642ZM258.07 30.8902L258.3 32.1762L258.07 32.4642L258.093 32.7042L258.196 33.8982C258.196 34.0482 258.208 34.3452 258.22 34.8052L258.243 35.5752C258.243 36.3652 258.196 36.9652 258.105 37.3762C257.956 38.0082 257.717 38.6152 257.394 39.1782L257.417 38.9832C257.52 38.0992 257.567 37.2852 257.544 36.5512L257.485 34.4612L257.45 33.0632C257.415 32.8332 257.347 32.4662 257.22 31.9612L258.07 30.8902ZM269.612 38.6932H264.402C263.885 38.6932 263.518 38.4872 263.277 38.0852C263.127 37.8322 263.06 37.5332 263.06 37.2012C263.06 36.5692 263.233 35.9962 263.588 35.4792C263.474 35.8232 263.415 36.1792 263.415 36.5342C263.415 37.2222 263.633 37.6362 264.07 37.7622C264.22 37.8092 264.381 37.8302 264.576 37.8302H269.521C269.556 37.6452 269.568 37.4982 269.568 37.3832C269.568 36.9692 269.406 36.4762 269.074 35.9142L269.521 35.2942C269.935 35.7082 270.141 36.2022 270.141 36.7752C270.141 37.0392 270.014 37.5332 269.773 38.2792L269.612 38.6932ZM267.444 35.3322L266.927 35.7902L266.48 35.3322L265.93 35.7902L265.333 35.1702L265.883 34.7352L266.307 35.1702L266.857 34.7352L267.444 35.3322ZM274.178 37.8322V38.6932H272.262C271.94 38.6932 271.745 38.6372 271.678 38.5112C271.631 38.4312 271.61 38.2112 271.61 37.8322V31.6362L272.344 30.8892V37.5002C272.344 37.7182 272.447 37.8322 272.641 37.8322H274.178Z" fill="#575756"/>
<path d="M277.86 37.833V38.693H273.109V37.833H277.86Z" fill="#575756"/>
<path d="M276.906 37.8321H279.236L280.488 36.2041L281.108 35.3901C281.428 35.0231 281.704 34.8381 281.933 34.8381C282.289 34.8381 282.68 35.1381 283.091 35.7341C283.505 36.3191 283.711 36.9041 283.711 37.4791C283.711 37.6731 283.621 37.9611 283.424 38.3291C283.247 38.6806 283.056 39.0246 282.85 39.3601L279.821 38.0401L279.374 38.6961H276.906V37.8321ZM282.874 38.4291C282.965 38.1091 283.012 37.8211 283.012 37.5791C283.012 37.0631 282.85 36.5931 282.53 36.1691C282.266 35.8251 282.025 35.6521 281.819 35.6521C281.749 35.6545 281.679 35.672 281.616 35.7036C281.552 35.7352 281.497 35.78 281.452 35.8351L281.152 36.1551L280.315 37.3151L282.874 38.4291ZM290.675 37.8321V38.6931H288.542L288.357 38.3261L288.057 38.6931H285.246C285.028 38.6931 284.866 38.6701 284.764 38.6251C284.603 38.5451 284.524 38.4201 284.524 38.2231C284.524 38.0271 284.603 37.7761 284.776 37.4651C284.799 37.5457 284.843 37.6188 284.904 37.6771C284.964 37.7353 285.039 37.7767 285.12 37.7971C285.2 37.8211 285.372 37.8321 285.637 37.8321H288.057L286.612 35.3081L287.026 34.6421L288.851 37.8321H290.675Z" fill="#575756"/>
<path d="M294.716 32.5642L294.889 35.4002C294.889 35.6402 294.798 35.8462 294.613 36.0082C294.993 36.2022 295.393 36.3872 295.818 36.5362C296.391 36.7422 296.885 36.8802 297.287 36.9392L296.907 37.5472C296.624 37.4892 296.336 37.4587 296.047 37.4562C295.139 37.4562 294.396 37.7442 293.808 38.3282L293.614 38.5232L293.464 38.6352C293.374 38.6822 293.362 38.6912 293.132 38.6912H289.609V37.8312H293.535C293.845 37.5542 294.178 37.3372 294.534 37.1752C294.648 37.1192 294.798 37.0722 294.98 37.0142L294.74 36.8872L293.006 35.9702C292.753 35.8442 292.524 35.7762 292.33 35.7762C292.227 35.7762 292.1 35.8002 291.951 35.8562L291.825 35.9032C292.342 35.4092 292.709 35.1562 292.926 35.1562L293.167 35.1912C293.523 35.2502 293.776 35.2712 293.902 35.2592L294.202 35.2482L293.996 32.2862L293.916 32.2512C293.743 32.1712 293.652 32.0892 293.652 32.0102C293.652 31.9422 293.708 31.8042 293.825 31.5962L294.204 30.9082C294.251 31.1492 294.389 31.3222 294.606 31.4372L294.906 31.5872L295.399 31.8162L294.987 32.6532L294.716 32.5642ZM292.959 33.6102L292.419 34.0572L291.834 33.4492L292.363 32.9672L292.959 33.6102ZM299.2 30.8902L299.43 32.1762L299.2 32.4642L299.224 32.7042L299.327 33.8982C299.327 34.0482 299.338 34.3452 299.35 34.8052L299.374 35.5752C299.374 36.3652 299.327 36.9652 299.236 37.3762C299.088 38.0082 298.848 38.6153 298.524 39.1782L298.548 38.9832C298.651 38.0992 298.698 37.2852 298.674 36.5512L298.616 34.4612L298.581 33.0632C298.545 32.8332 298.478 32.4662 298.351 31.9612L299.201 30.8892L299.2 30.8902Z" fill="#575756"/>
<path fill-rule="evenodd" clip-rule="evenodd" d="M154.953 4.50537H155.953V40.5414H154.953V4.50537Z" fill="white"/>
</svg>
