<?xml version="1.0" encoding="UTF-8"?>
<svg width="300px" height="54px" viewBox="0 0 300 54" version="1.1" xmlns="http://www.w3.org/2000/svg" xmlns:xlink="http://www.w3.org/1999/xlink">
    <g id="Final-Journey-screens" stroke="none" stroke-width="1" fill="none" fill-rule="evenodd">
        <g id="2.3.Islamic---RAKelite-account-2/3" transform="translate(-40.000000, -30.000000)">
            <g id="Logo-/-Elite-Islamic" transform="translate(40.000000, 30.000000)">
                <g>
                    <g id="Logo-/-Elite">
                        <g id="ELITE">
                            <path d="M14.5167965,34.9872997 C14.5144395,37.5216544 12.4605269,39.5755671 9.92617211,39.5779228 L0.109673591,39.5779228 L0.109673591,25.1708012 L9.18551929,25.1708012 C11.3298896,25.1762692 13.067546,26.9120168 13.0753709,29.0563798 C13.078995,29.8013802 12.8646132,30.5311694 12.458635,31.1558457 C13.7447431,32.0061789 14.5179113,33.4455023 14.5167965,34.9872997 Z M2.6820178,30.3767359 L9.20688427,30.3767359 C9.91727832,30.3533688 10.4810782,29.7707189 10.4810782,29.0599407 C10.4810782,28.3491624 9.91727832,27.7665125 9.20688427,27.7431454 L2.6820178,27.7431454 L2.6820178,30.3767359 Z M9.92617211,36.9842136 C11.0400501,36.9842136 11.9430267,36.0812371 11.9430267,34.9673591 C11.9430267,33.853481 11.0400501,32.9505045 9.92617211,32.9505045 L2.6820178,32.9505045 L2.6820178,37.0041543 L9.92617211,37.0041543 L9.92617211,36.9842136 Z" id="Shape" fill="#FFFFFF" fill-rule="nonzero"></path>
                            <path d="M34.5827893,25.1708012 L34.5827893,32.3736499 C34.6193182,34.9713741 33.2543724,37.3875556 31.0105678,38.6970771 C28.7667632,40.0065987 25.9916938,40.0065987 23.7478892,38.6970771 C21.5040846,37.3875556 20.1391388,34.9713741 20.1756677,32.3736499 L20.1756677,25.1708012 L22.7494362,25.1708012 L22.7494362,32.3736499 C22.8117522,34.885495 24.8658982,36.8893121 27.3785163,36.8893121 C29.8911344,36.8893121 31.9452804,34.885495 32.0075964,32.3736499 L32.0075964,25.1708012 L34.5827893,25.1708012 Z" id="Path" fill="#FFFFFF" fill-rule="nonzero"></path>
                            <path d="M51.810089,29.1632047 L51.810089,29.0805935 C51.805427,28.3548941 51.218281,27.7677481 50.4925816,27.7630861 L44.652819,27.7630861 C43.92744,27.768514 43.3407395,28.3552145 43.3353116,29.0805935 L43.3353116,29.1632047 C43.3407395,29.8885838 43.92744,30.4752842 44.652819,30.4807122 L49.8402374,30.4807122 C51.1174936,30.477979 52.3361894,31.0161716 53.1945401,31.9620178 C53.2557864,32.0232641 53.297092,32.0859347 53.3597626,32.147181 C54.4730997,33.5074338 54.7031822,35.3873692 53.9507509,36.9759706 C53.1983196,38.564572 51.5980221,39.5775592 49.8402374,39.5779228 L45.3265282,39.5779228 C42.8145658,39.5771364 40.778545,37.5405679 40.778545,35.0286053 L43.3509792,35.0286053 C43.3509792,36.1196709 44.2354626,37.0041543 45.3265282,37.0041543 L49.8345401,37.0041543 C50.9256056,37.0041543 51.810089,36.1196709 51.810089,35.0286053 C51.810089,33.9375398 50.9256056,33.0530564 49.8345401,33.0530564 L44.6471217,33.0530564 C43.6401913,33.0563886 42.6721195,32.6646596 41.9508605,31.9620178 C41.7643707,31.7748493 41.5986603,31.5680694 41.4566172,31.3452819 C41.0099414,30.6977397 40.7732457,29.9284789 40.778545,29.1418398 L40.778545,29.0563798 C40.7739072,26.9144557 42.505204,25.1735972 44.6471217,25.1665282 L50.4868843,25.1665282 C52.6351408,25.168875 54.3769423,26.908129 54.3824332,29.0563798 L54.3824332,29.1375668 L51.810089,29.1632047 Z" id="Path" fill="#FFFFFF" fill-rule="nonzero"></path>
                            <polygon id="Path" fill="#FFFFFF" fill-rule="nonzero" points="60.5569139 39.5779228 60.5569139 25.1708012 63.1292582 25.1708012 63.1292582 39.5779228"></polygon>
                            <polygon id="Path" fill="#FFFFFF" fill-rule="nonzero" points="83.7108605 25.1907418 83.7108605 39.5964392 81.1385163 37.6208902 71.8803561 30.4792878 71.8803561 39.5950148 69.3037389 39.5950148 69.3037389 25.2320475 71.8760831 27.2047478 81.1342433 34.3463501 81.1342433 25.1708012"></polygon>
                            <path d="M92.4576855,29.0563798 L92.4576855,30.3938279 L101.715846,30.3938279 L101.715846,32.9661721 L92.4576855,32.9661721 L92.4576855,35.6837982 C92.4631229,36.4089413 93.0500443,36.9952282 93.7751929,36.9998813 L104.292463,36.9998813 L104.292463,39.5736499 L93.7751929,39.5736499 C91.6330458,39.5665811 89.9013411,37.8259533 89.9052752,35.6837982 L89.9052752,29.0563798 C89.9013411,26.9142247 91.6330458,25.173597 93.7751929,25.1665282 L104.292463,25.1665282 L104.292463,27.7388724 L93.7751929,27.7388724 C93.0494935,27.7435344 92.4623475,28.3306804 92.4576855,29.0563798 L92.4576855,29.0563798 Z" id="Path" fill="#FFFFFF" fill-rule="nonzero"></path>
                            <path d="M121.518338,29.1632047 L121.518338,29.0805935 C121.513685,28.3554449 120.927398,27.7685235 120.202255,27.7630861 L114.362493,27.7630861 C113.636793,27.7677481 113.049647,28.3548941 113.044985,29.0805935 L113.044985,29.1632047 C113.049647,29.8889042 113.636793,30.4760501 114.362493,30.4807122 L119.548487,30.4807122 C120.826201,30.4777549 122.045423,31.0159514 122.904214,31.9620178 C122.96546,32.0232641 123.006766,32.0859347 123.068012,32.147181 C124.182588,33.5071122 124.413382,35.3876994 123.660721,36.9767856 C122.90806,38.5658719 121.306808,39.578722 119.548487,39.5779233 L115.036202,39.5779233 C112.525634,39.5732199 110.491587,37.5391734 110.486884,35.0286053 L113.060653,35.0286053 C113.060653,36.1196709 113.945136,37.0041543 115.036202,37.0041543 L119.542789,37.0041543 C120.633855,37.0041543 121.518338,36.1196709 121.518338,35.0286053 C121.518338,33.9375398 120.633855,33.0530564 119.542789,33.0530564 L114.356795,33.0530564 C113.352328,33.0545248 112.387152,32.6629331 111.667656,31.9620178 C111.480751,31.7752206 111.315003,31.5683934 111.173412,31.3452819 C110.726232,30.6979058 110.489035,29.9286316 110.494006,29.1418398 L110.494006,29.0563798 C110.490065,26.9142247 112.22177,25.173597 114.363917,25.1665282 L120.20368,25.1665282 C122.349155,25.17279 124.086631,26.910902 124.092107,29.0563798 L124.092107,29.1375668 L121.518338,29.1632047 Z" id="Path" fill="#FFFFFF" fill-rule="nonzero"></path>
                            <path d="M141.317982,29.1632047 L141.317982,29.0805935 C141.31332,28.3548941 140.726174,27.7677481 140.000475,27.7630861 L134.160712,27.7630861 C133.435013,27.7677481 132.847867,28.3548941 132.843205,29.0805935 L132.843205,29.1632047 C132.847867,29.8889042 133.435013,30.4760501 134.160712,30.4807122 L139.346706,30.4807122 C140.623962,30.477979 141.842658,31.0161716 142.701009,31.9620178 C142.76368,32.0232641 142.804985,32.0859347 142.866231,32.147181 C143.980808,33.5071122 144.211601,35.3876994 143.45894,36.9767856 C142.706279,38.5658719 141.105027,39.578722 139.346706,39.5779233 L134.838694,39.5779233 C132.328683,39.5724366 130.295501,37.5386188 130.290801,35.0286053 L132.863145,35.0286053 C132.863931,36.1193454 133.747954,37.0033687 134.838694,37.0041543 L139.346706,37.0041543 C140.437772,37.0041543 141.322255,36.1196709 141.322255,35.0286053 C141.322255,33.9375398 140.437772,33.0530564 139.346706,33.0530564 L134.160712,33.0530564 C133.154274,33.0560154 132.186782,32.6643139 131.465875,31.9620178 C131.278971,31.7752206 131.113222,31.5683934 130.971632,31.3452819 C130.523863,30.6981916 130.286607,29.928727 130.292226,29.1418398 L130.292226,29.0563798 C130.288285,26.9142247 132.019989,25.173597 134.162136,25.1665282 L140.001899,25.1665282 C142.147607,25.1727862 143.885493,26.9106716 143.891751,29.0563798 L143.891751,29.1375668 L141.317982,29.1632047 Z" id="Path" fill="#FFFFFF" fill-rule="nonzero"></path>
                            <path d="M31.0105638,10.0942433 C31.0365015,10.0614417 31.0666757,10.0322254 31.1002967,10.0073591 C31.2921986,9.8666732 31.5595017,9.89438896 31.718457,10.071454 C34.0572107,12.5683086 36.9884866,14.0595846 40.1775668,14.0595846 C42.741365,14.0595846 45.1399407,13.0967359 47.1995252,11.4188724 C46.4802374,13.2605341 45.5259347,14.83727 44.4049852,16.0365579 C43.442164,16.3014305 42.4480856,16.4355712 41.4494955,16.4353711 C37.0967359,16.4353711 33.2624332,13.9185757 31.0105638,10.097092" id="Path" fill="#FFD618" fill-rule="nonzero"></path>
                            <path d="M48.6551929,3.24747774 L48.6551929,3.09792285 C48.6518201,2.89101703 48.5807816,2.69090847 48.4529377,2.52818991 L48.4529377,2.52818991 C48.4227593,2.49162249 48.3899095,2.45734443 48.3546588,2.42563798 C48.3461128,2.41709199 48.3332938,2.41139466 48.3233234,2.40284866 C48.2961434,2.37979488 48.2676055,2.35839149 48.2378635,2.33875371 C48.2143494,2.3259282 48.1900929,2.31451337 48.1652226,2.30456973 C48.1459925,2.29364872 48.126,2.28412849 48.1054006,2.27608309 C48.0172954,2.24267295 47.9231616,2.22811618 47.8290801,2.23335312 C47.8124927,2.23194576 47.7958159,2.23194576 47.7792285,2.23335312 L47.7293769,2.23335312 L47.7293769,2.23335312 C47.4057783,2.297692 47.1499369,2.54573001 47.0756083,2.86718101 C45.8293175,7.684273 42.9450445,11.1525223 40.3214243,12.6067656 C43.0832047,12.2364392 45.5116914,10.4189911 47.1482493,7.75264095 C46.3990504,10.4987537 44.9960831,12.8389318 43.1843323,14.447003 C42.1809856,14.8168482 41.1201421,15.0063535 40.0508012,15.0067656 C36.5910979,15.0067656 33.4988724,13.028368 31.4193472,9.91335312 C31.3046834,9.90029458 31.1893972,9.93192177 31.0974481,10.0016617 C31.0635435,10.0256369 31.0333147,10.0544262 31.0077151,10.0871217 C33.0131751,13.4884273 36.2691988,15.8542433 40.0294362,16.3342433 C38.090007,17.025376 35.9601745,16.9520389 34.0728783,16.1291395 C34.1882493,16.2502077 34.3078932,16.367003 34.4275371,16.4809496 L34.4275371,16.4809496 L34.5115727,16.5564392 C34.5671217,16.6077151 34.6226706,16.6589911 34.6796439,16.7088427 C34.7081306,16.735905 34.7380415,16.7586944 34.7665282,16.7843323 C34.8306231,16.8398813 34.8961424,16.8954303 34.9616617,16.9481306 L34.984451,16.9666469 C35.2257602,17.1610416 35.4777885,17.3417411 35.7393472,17.5078932 L35.8105638,17.5534718 C35.8746588,17.5947774 35.940178,17.6318101 36.004273,17.6688427 L36.1139466,17.7315134 C36.1723442,17.7656973 36.2335905,17.7956083 36.2948368,17.828368 L36.4216024,17.8938872 C36.4785757,17.9223739 36.5369733,17.9494362 36.5953709,17.9750742 C36.6537685,18.0007122 36.6865282,18.0192285 36.7378042,18.0377448 C36.7890801,18.0562611 36.8503264,18.0861721 36.9072997,18.1089614 L37.0497329,18.1673591 L37.2149555,18.227181 L37.3730564,18.278457 L37.5340059,18.3268843 L37.7020772,18.3710386 L37.855905,18.4094955 C37.915727,18.4237389 37.9769733,18.4351335 38.0367953,18.4465282 C38.0966172,18.4579228 38.1350742,18.4678932 38.1792285,18.4750148 C38.2233828,18.4821365 38.3088427,18.4949555 38.3729377,18.5035015 L38.5153709,18.5234421 L38.7361424,18.5419585 C38.7745994,18.5419585 38.811632,18.5505045 38.850089,18.5519288 C38.9626113,18.5590504 39.0751335,18.5618991 39.1890801,18.5618991 C41.1162018,18.5618991 42.9065875,17.6275371 44.4007122,16.0280119 L44.4007122,16.0280119 L44.4106825,16.0166172 C44.5160831,15.904095 44.618635,15.7858754 44.7226113,15.6648071 L44.7795846,15.6007122 C44.8778635,15.4824926 44.9761424,15.36 45.072997,15.2346588 C45.094362,15.2090208 45.1143027,15.1833828 45.1342433,15.1563205 C45.2282493,15.0338279 45.3208309,14.9070623 45.4105638,14.7774481 L45.4760831,14.6848665 C45.5643917,14.5581009 45.651276,14.4270623 45.7367359,14.2945994 C45.7595252,14.2589911 45.7837389,14.2248071 45.8051039,14.1906231 C45.8891395,14.0581602 45.9689021,13.9228487 46.0486647,13.7861128 L46.118457,13.6693175 C46.1967953,13.5268843 46.2722849,13.3944214 46.3477745,13.2534125 L46.4161424,13.1266469 C46.4887834,12.9842136 46.5585757,12.8417804 46.6312166,12.6993472 L46.6967359,12.5569139 C46.7665282,12.4144807 46.8391691,12.2620772 46.8989911,12.1125223 L46.9402967,12.0227893 L46.9402967,12.0227893 C47.8874777,9.83928783 48.4899703,7.23845697 48.6238576,4.42397626 C48.6231905,4.4197293 48.6231905,4.41540423 48.6238576,4.41115727 C48.6238576,4.32 48.6238576,4.2274184 48.6338279,4.13626113 C48.6338279,4.0735905 48.6338279,4.00949555 48.6338279,3.94540059 C48.6409496,3.71038576 48.6452226,3.47394659 48.6452226,3.23323442" id="Path" fill="#FFFFFF" fill-rule="nonzero"></path>
                            <path d="M34.0686053,0.639525223 C34.0686053,0.639525223 44.6172107,1.27477745 40.1505045,12.43727 C40.1505045,12.43727 56.622908,-3.27454006 34.0686053,0.639525223" id="Path" fill="#FFFFFF" fill-rule="nonzero"></path>
                            <path d="M53.4694362,8.07311573 L56.0902077,8.07311573 C56.5915727,8.07311573 57.1826706,8.2611276 57.1826706,9.01602374 C57.1826706,9.72818991 56.652819,9.98172107 56.1970326,9.98172107 L53.4694362,9.98172107 L53.4694362,8.07311573 Z M51.4127003,14.1977448 L53.4694362,14.1977448 L53.4694362,11.4202967 L56.0332344,11.4202967 C56.6684866,11.4202967 57.1256973,11.6823739 57.1256973,12.7477745 C57.1256973,13.5425519 57.137092,13.8459347 57.3293769,14.1977448 L59.575549,14.1977448 C59.2151929,13.8174481 59.1838576,12.9272404 59.1838576,12.5540653 C59.1838576,11.8091395 59.0414243,10.6668249 58.144095,10.5272404 L58.144095,10.5101484 C58.9986944,10.2010682 59.3761424,9.60569733 59.3761424,8.6841543 C59.3761424,7.90789318 59.0243323,6.62599407 56.9234421,6.62599407 L51.4183976,6.62599407 L51.4127003,14.1977448 Z" id="Shape" fill="#FFFFFF"></path>
                            <path d="M65.0478338,11.2678932 L62.6706231,11.2678932 L63.8599407,8.2611276 L65.0478338,11.2678932 Z M66.214362,14.2020178 L68.4320475,14.2020178 L65.1005341,6.63026706 L62.6179228,6.63026706 L59.2878338,14.2020178 L61.5055193,14.2020178 L62.1208309,12.6352522 L65.6004748,12.6352522 L66.214362,14.2020178 Z" id="Shape" fill="#FFFFFF"></path>
                            <polygon id="Path" fill="#FFFFFF" fill-rule="nonzero" points="70.7736499 9.88771513 70.7736499 6.63026706 68.7154896 6.63026706 68.7154896 14.2034421 70.7736499 14.2034421 70.7736499 11.9515727 71.974362 10.9260534 74.5509792 14.2034421 77.3284273 14.2034421 73.5852819 9.67406528 77.0649258 6.63026706 74.2960237 6.63026706"></polygon>
                            <path d="M80.3935905,10.9573887 L83.2137685,10.9573887 C83.9344807,10.9573887 84.3076558,11.2750148 84.3076558,11.8718101 C84.3076558,12.3475371 84.064095,12.7605935 83.4259941,12.7605935 L80.3935905,12.7605935 L80.3935905,10.9573887 Z M78.3382789,14.2020178 L83.7393472,14.2020178 C86.0310979,14.2020178 86.4968546,12.9201187 86.4968546,11.9102671 C86.4968546,11.095549 86.0310979,10.2252819 85.1508605,10.0743027 L85.1508605,10.0557864 C85.8630267,9.83501484 86.1592878,9.124273 86.1592878,8.54029674 C86.1592878,7.13590504 85.1294955,6.63026706 84.0227893,6.63026706 L78.3382789,6.63026706 L78.3382789,14.2020178 Z M80.3992878,8.00617211 L82.9744807,8.00617211 C83.8290801,8.00617211 84.0370326,8.34658754 84.0370326,8.82373887 C84.0370326,9.39347181 83.7393472,9.6441543 83.2636202,9.6441543 L80.3935905,9.6441543 L80.3992878,8.00617211 Z" id="Shape" fill="#FFFFFF"></path>
                            <path d="M91.684273,11.2678932 L89.305638,11.2678932 L90.4963798,8.2611276 L91.684273,11.2678932 Z M92.8508012,14.2020178 L95.0670623,14.2020178 L91.7369733,6.63026706 L89.2557864,6.63026706 L85.924273,14.2020178 L88.1376855,14.2020178 L88.7558457,12.6352522 L92.2354896,12.6352522 L92.8508012,14.2020178 Z" id="Shape" fill="#FFFFFF"></path>
                            <polygon id="Path" fill="#FFFFFF" fill-rule="nonzero" points="101.740059 11.9116914 101.718694 11.9116914 97.7376855 6.63026706 95.3519288 6.63026706 95.3519288 14.2034421 97.3474184 14.2034421 97.3474184 8.9220178 97.3673591 8.9220178 101.496499 14.2034421 103.731276 14.2034421 103.731276 6.63026706 101.740059 6.63026706"></polygon>
                            <polygon id="Path" fill="#FFFFFF" fill-rule="nonzero" points="106.430386 9.88771513 106.430386 6.63026706 104.37365 6.63026706 104.37365 14.2034421 106.430386 14.2034421 106.430386 11.9515727 107.631098 10.9260534 110.210564 14.2034421 112.989436 14.2034421 109.244866 9.67406528 112.721662 6.63026706 109.957033 6.63026706"></polygon>
                            <path d="M48.6979228,47.8803561 L48.6979228,48.6081899 L54.287003,48.6081899 L54.287003,50.0083086 L48.6979228,50.0083086 L48.6979228,51.4867656 C48.7261255,51.9002876 49.0785735,52.2161012 49.4927003,52.1989318 L55.8338279,52.1989318 L55.8338279,53.5976261 L49.4927003,53.5976261 C48.2022552,53.5976261 47.1582196,52.6461721 47.1582196,51.4810682 L47.1582196,47.8803561 C47.1582196,46.7166766 48.2022552,45.7637982 49.4927003,45.7637982 L55.8338279,45.7637982 L55.8338279,47.1639169 L49.4927003,47.1639169 C49.0582789,47.1639169 48.6979228,47.4886647 48.6979228,47.8803561 Z" id="Path" fill="#FFFFFF" fill-rule="nonzero"></path>
                            <path d="M66.728546,52.2145994 L66.728546,53.6147471 L62.3131157,53.6147471 C61.8939033,53.6165798 61.4791499,53.5286754 61.0967359,53.3569139 C60.5641421,53.126024 60.1229271,52.7253748 59.8418991,52.2174481 C59.6541792,51.8824617 59.5560617,51.5047091 59.5570255,51.1207122 L59.5570255,45.7751929 L61.1095549,45.7751929 L61.1095549,51.2517507 C61.2101171,51.7688553 61.6403269,52.1572633 62.1649852,52.2046291 L66.728546,52.2145994 Z" id="Path" fill="#FFFFFF" fill-rule="nonzero"></path>
                            <polygon id="Path" fill="#FFFFFF" fill-rule="nonzero" points="70.4545994 53.6033234 70.4545994 45.7694955 72.0056973 45.7694955 72.0056973 53.6033234"></polygon>
                            <polygon id="Path" fill="#FFFFFF" fill-rule="nonzero" points="84.411632 45.7751929 84.411632 47.1753116 80.8508012 47.1753116 80.8508012 53.6147181 79.2982789 53.6147181 79.2982789 47.1753116 75.7374481 47.1753116 75.7374481 45.7751929"></polygon>
                            <path d="M89.7016024,47.8803561 L89.7016024,48.6081899 L95.2878338,48.6081899 L95.2878338,50.0083086 L89.7016024,50.0083086 L89.7016024,51.4867656 C89.7290734,51.9006443 90.0819784,52.2168674 90.4963798,52.1989318 L96.8417804,52.1989318 L96.8417804,53.5976261 L90.4963798,53.5976261 C89.2045104,53.5976261 88.1604748,52.6461721 88.1604748,51.4810682 L88.1604748,47.8803561 C88.1604748,46.7166766 89.2045104,45.7637982 90.4963798,45.7637982 L96.8417804,45.7637982 L96.8417804,47.1639169 L90.4963798,47.1639169 C90.0804184,47.1460618 89.7268525,47.464778 89.7016024,47.8803561 Z" id="Path" fill="#FFFFFF" fill-rule="nonzero"></path>
                        </g>
                    </g>
                    <g id="RAKislamic" transform="translate(166.666667, 4.504505)" fill="#FFFFFF">
                        <g id="Group">
                            <path d="M4.84936023,5.12305784 L10.8566719,5.12305784 C12.0029268,5.12305784 13.3597184,5.55582757 13.3597184,7.28222788 C13.3597184,8.91271706 12.1456239,9.49520172 11.102298,9.49520172 L4.85169953,9.49520172 L4.85169953,5.12305784 L4.84936023,5.12305784 Z M0.135679157,19.1705292 L4.85169953,19.1705292 L4.85169953,12.8006267 L10.7139748,12.8006267 C12.1713561,12.8006267 13.2193607,13.4018257 13.2193607,15.8417113 C13.2193607,17.6640227 13.2450929,18.3611329 13.6848805,19.1681899 L18.8336706,19.1681899 C18.0078992,18.2979719 17.935381,16.2534273 17.935381,15.3972451 C17.935381,13.6918984 17.6219154,11.0742264 15.5563172,10.7560822 L15.5563172,10.7139748 C17.523665,10.0075075 18.3775079,8.64135875 18.3775079,6.53365322 C18.3775079,4.7534491 17.5681116,1.81529355 12.7585194,1.81529355 L0.138018453,1.81529355 L0.138018453,19.1705292 L0.135679157,19.1705292 Z" id="Shape"></path>
                            <path d="M31.3839927,12.4450537 L25.9427906,12.4450537 L28.6610524,5.55582757 L31.3839927,12.4450537 L31.3839927,12.4450537 Z M34.0554685,19.1705292 L39.1410976,19.1705292 L31.5079754,1.81763285 L25.8211472,1.81763285 L18.188025,19.1705292 L23.2689755,19.1705292 L24.6795709,15.5960852 L32.6542303,15.5960852 L34.0554685,19.1705292 L34.0554685,19.1705292 Z" id="Shape"></path>
                            <polygon id="Path" fill-rule="nonzero" points="44.5074422 9.27998651 44.5074422 1.81529355 39.7890826 1.81529355 39.7890826 19.1705292 44.5074422 19.1705292 44.5074422 14.0123819 47.2561148 11.6590504 53.1628367 19.1705292 59.5280607 19.1705292 50.9522022 8.79107368 58.9245223 1.81529355 52.5780128 1.81529355"></polygon>
                            <g transform="translate(61.289550, 0.000000)" fill-rule="nonzero">
                                <path d="M0.189482961,1.60709623 C0.215215215,0.853842973 0.540377334,0.556752405 1.26789833,0.556752405 C2.10302694,0.556752405 2.37204596,0.853842973 2.37204596,1.68897158 C2.37204596,2.49602864 2.04922314,2.82119076 1.26789833,2.82119076 C0.48657353,2.82119076 0.189482961,2.52410019 0.189482961,1.74277538 C0.189482961,1.68663228 0.189482961,1.63282848 0.189482961,1.60709623 Z M0.45850198,18.8453671 L0.45850198,6.13129434 C0.45850198,5.94181138 0.619913392,5.78039997 0.809396353,5.78039997 L1.72640031,5.78039997 C1.94161553,5.78039997 2.10302694,5.94181138 2.10302694,6.13129434 L2.10302694,18.8453671 C2.10302694,19.0348501 1.94161553,19.1962615 1.72640031,19.1962615 L0.809396353,19.1962615 C0.619913392,19.1962615 0.45850198,19.0348501 0.45850198,18.8453671 Z" id="Shape"></path>
                                <path d="M9.40396919,13.6474518 L7.54656831,12.3818928 C5.84823954,11.2777451 5.33827306,10.5221526 5.33827306,9.12325369 C5.33827306,6.91495844 6.84711886,5.56752405 9.27062932,5.56752405 C10.8870827,5.56752405 12.4497323,6.18743744 12.4497323,6.83308308 L12.4497323,7.31731732 C12.4497323,7.47872873 12.3421247,7.61440789 12.2064456,7.61440789 C12.098838,7.61440789 11.9912304,7.56060408 11.7760151,7.45299647 L11.5865322,7.34538887 C10.723332,6.91495844 9.94434652,6.69740393 9.21682552,6.69740393 C7.70797972,6.69740393 6.7114397,7.50680028 6.7114397,8.79809157 C6.7114397,9.68702398 6.95472647,10.0098468 8.24835705,10.8987792 L10.5385277,12.4333573 C12.2368564,13.5632372 12.7210907,14.3469012 12.7210907,15.799604 C12.7210907,17.9821669 11.078905,19.4372089 8.59925143,19.4372089 C7.60271141,19.4372089 6.28100927,19.1143861 5.55582757,18.7377595 L5.42014841,18.6558841 C5.12305784,18.4944727 5.09732559,18.4406689 5.09732559,18.1435784 L5.09732559,17.6593441 C5.09732559,17.4698612 5.17920094,17.3622536 5.34061235,17.3622536 C5.44821996,17.3622536 5.58389912,17.4160574 5.74531053,17.4979327 C6.74185055,18.0640423 7.46937155,18.2792575 8.38403621,18.2792575 C10.0542934,18.2792575 11.078905,17.4183967 11.078905,16.0171585 C11.0718871,15.0206184 10.723332,14.5363842 9.40396919,13.6474518 Z" id="Path"></path>
                                <path d="M15.7341037,18.8453671 L15.7341037,0.446805501 C15.7341037,0.25732254 15.8955151,0.0959111285 16.084998,0.0959111285 L17.002002,0.0959111285 C17.2172172,0.0959111285 17.3786286,0.25732254 17.3786286,0.446805501 L17.3786286,18.8453671 C17.3786286,19.0348501 17.2172172,19.1962615 17.002002,19.1962615 L16.084998,19.1962615 C15.8955151,19.1962615 15.7341037,19.0348501 15.7341037,18.8453671 Z" id="Path"></path>
                                <path d="M29.8236824,19.1962615 L29.203769,19.1962615 C28.93475,19.1962615 28.7990708,19.0886539 28.7990708,18.8453671 L28.7990708,18.6839557 C28.7990708,18.5763481 28.745267,18.4944727 28.5838556,18.4944727 C28.5043195,18.4944727 28.3943726,18.5482765 28.0458176,18.6839557 C26.5907756,19.2500653 25.7837185,19.4114767 24.7871785,19.4114767 C22.0408452,19.4114767 20.3425164,18.0921139 20.3425164,15.8838186 C20.3425164,14.0264177 21.4466641,12.9480024 24.3567481,11.8976585 L27.6691909,10.7116355 C28.3686404,10.4683488 28.5323911,10.2274013 28.5323911,9.52561257 L28.5323911,9.04137833 C28.5323911,7.42492492 27.6177264,6.67167167 25.6761109,6.67167167 C24.2491404,6.67167167 23.091189,7.02256604 21.7718262,7.8296231 C21.6642186,7.91149845 21.5285394,7.96296296 21.4490034,7.96296296 C21.2875919,7.96296296 21.1799843,7.80155155 21.1799843,7.58633634 L21.1799843,7.0482983 C21.1799843,6.77927928 21.3156635,6.61786787 21.7741655,6.42838491 C23.0677961,5.89034687 24.6281064,5.56518475 25.8960047,5.56518475 C27.5943335,5.56518475 28.5370697,5.83420377 29.2903229,6.58979632 C29.9640401,7.26351351 30.1792553,7.88342691 30.1792553,9.20278975 L30.1792553,18.8453671 C30.1722375,19.0348501 30.010826,19.1962615 29.8236824,19.1962615 Z M28.5300518,11.6824433 L25.5123602,12.7070549 C22.8993668,13.6240588 21.9847021,14.4311159 21.9847021,15.9118902 C21.9847021,17.3388606 23.1683858,18.2815968 24.9205183,18.2815968 C27.2364212,18.2815968 28.5300518,17.689755 28.5300518,16.6113396 L28.5300518,11.6824433 L28.5300518,11.6824433 Z" id="Shape"></path>
                                <path d="M33.7303064,18.8453671 L33.7303064,6.13129434 C33.7303064,5.94181138 33.8917178,5.78039997 34.0812008,5.78039997 L34.7806502,5.78039997 C35.0215977,5.78039997 35.0777408,5.86227532 35.0777408,6.10322279 L35.0777408,6.2646342 C35.0777408,6.40031336 35.1572768,6.47984941 35.3210275,6.47984941 C35.4567067,6.47984941 35.5362428,6.45177786 35.9128694,6.2646342 C36.7760695,5.80613222 37.9597532,5.56518475 39.0919724,5.56518475 C40.6265505,5.56518475 41.5692867,5.88800757 42.5120229,6.83074379 C42.7272381,7.02022675 42.8348457,7.09976281 42.9424533,7.09976281 C43.1576685,7.09976281 43.2114723,7.07403055 43.5623667,6.83074379 C44.8279258,5.94181138 46.0420203,5.56518475 47.4689907,5.56518475 C48.9778365,5.56518475 50.1100557,5.96988293 50.9709166,6.85881534 C51.9674566,7.85535536 52.2645472,8.85189537 52.2645472,11.0882622 L52.2645472,18.8453671 C52.2645472,19.0348501 52.1312073,19.1962615 51.9136528,19.1962615 L50.9966488,19.1962615 C50.8071659,19.1962615 50.6480937,19.0348501 50.6480937,18.8453671 L50.6480937,10.6554924 C50.6480937,7.96062367 49.4363385,6.69506463 46.8490773,6.69506463 C44.9636049,6.69506463 43.8313857,7.42258563 43.8313857,8.63434086 L43.8313857,18.8430278 C43.8313857,19.0325108 43.6699743,19.1939222 43.4547591,19.1939222 L42.5400944,19.1939222 C42.3506115,19.1939222 42.1892001,19.0325108 42.1892001,18.8430278 L42.1892001,10.7888323 C42.1892001,8.52673325 41.5973582,7.44831788 40.1142447,6.9360121 C39.6042782,6.77460069 39.0919724,6.69272533 38.5258628,6.69272533 C36.3971036,6.69272533 35.3724921,7.28690647 35.3724921,8.49866171 L35.3724921,18.8430278 C35.3724921,19.0325108 35.2110806,19.1939222 34.9958654,19.1939222 L34.0812008,19.1939222 C33.8917178,19.1962615 33.7303064,19.0348501 33.7303064,18.8453671 Z" id="Path"></path>
                                <path d="M55.5512578,1.60709623 C55.57699,0.853842973 55.9021522,0.556752405 56.6296732,0.556752405 C57.4648018,0.556752405 57.7338208,0.853842973 57.7338208,1.68897158 C57.7338208,2.49602864 57.410998,2.82119076 56.6296732,2.82119076 C55.8483483,2.82119076 55.5512578,2.52410019 55.5512578,1.74277538 C55.5512578,1.68663228 55.5512578,1.63282848 55.5512578,1.60709623 Z M55.8202768,18.8453671 L55.8202768,6.13129434 C55.8202768,5.94181138 55.9816882,5.78039997 56.1711712,5.78039997 L57.0858358,5.78039997 C57.3010511,5.78039997 57.4624625,5.94181138 57.4624625,6.13129434 L57.4624625,18.8453671 C57.4624625,19.0348501 57.3010511,19.1962615 57.0858358,19.1962615 L56.1711712,19.1962615 C55.9816882,19.1962615 55.8202768,19.0348501 55.8202768,18.8453671 Z" id="Shape"></path>
                                <path d="M71.0678069,17.6616834 L71.0678069,18.227793 C71.0678069,18.9015102 69.2361383,19.4395482 66.9997715,19.4395482 C62.9060038,19.4395482 60.4263503,16.8803586 60.4263503,12.676644 C60.4263503,8.31385734 62.9855399,5.5394525 66.9717,5.5394525 C69.2080668,5.5394525 71.0654676,6.15936589 71.0654676,6.91261914 L71.0654676,7.37112112 C71.0654676,7.58633634 70.95786,7.72201549 70.7683771,7.72201549 C70.688841,7.72201549 70.6326979,7.69628324 70.3636789,7.56060408 C69.0981199,6.91495844 68.2349197,6.69740393 67.1050398,6.69740393 C64.0078122,6.69740393 62.0685359,8.93377073 62.0685359,12.5713757 C62.0685359,16.1528376 63.9820799,18.2815968 67.240719,18.2815968 C68.3986704,18.2815968 69.5846934,17.9868455 70.5531619,17.4745398 C70.6607695,17.420736 70.7683771,17.3669321 70.8221809,17.3669321 C70.9859316,17.3645929 71.0678069,17.4722005 71.0678069,17.6616834 Z" id="Path"></path>
                            </g>
                        </g>
                        <g id="Group" transform="translate(0.467859, 26.200113)" fill-rule="nonzero">
                            <path d="M6.05175828,7.12783436 L6.05175828,7.98869522 L3.67503373,7.98869522 L3.54871176,7.47171084 L3.22822823,7.83898028 L0.0163750707,7.35708535 L0.451484093,6.06111546 L0.577806067,5.76402489 C0.612895504,5.7055425 0.727520999,5.62600644 0.921682552,5.52307743 L2.92879836,4.4212691 L2.86095878,4.08908909 L3.50426513,3.51596161 L4.21541106,7.13017365 L6.05175828,7.13017365 L6.05175828,7.12783436 Z M3.03172738,4.94761065 L1.13923706,5.99093659 C1.01291509,6.07047265 0.909986073,6.2669735 0.807057057,6.5991535 L3.45747922,7.00151238 L3.03172738,4.94761065 Z M4.13353571,2.76738695 L3.61655133,3.22588893 L3.16974583,2.76738695 L2.62001132,3.22588893 L2.02349088,2.60597554 L2.5732254,2.16852722 L2.99897724,2.60597554 L3.54871176,2.16852722 L4.13353571,2.76738695 Z" id="Shape"></path>
                            <path d="M10.2835444,7.12783436 L10.2835444,7.98869522 L8.03314184,7.98869522 L7.9419093,7.64481873 L7.60972929,7.98869522 L4.98270009,7.98869522 L4.98270009,7.12783436 L7.79453366,7.12783436 L7.41556774,5.89970405 L7.97699874,5.3710232 L8.49398311,7.12549506 L10.2835444,7.12549506 L10.2835444,7.12783436 Z M6.89858337,9.6191844 L7.42726422,9.16068242 L7.86237324,9.6191844 L8.42380424,9.16068242 L9.02032467,9.78059581 L8.46825086,10.2157048 L8.04483832,9.78059581 L7.48340732,10.2157048 L6.89858337,9.6191844 Z" id="Shape"></path>
                            <path d="M9.21448623,7.12783436 L11.5444249,7.12783436 L12.7959481,5.49968447 L13.4158615,4.68560952 C13.736345,4.31834008 14.0123819,4.13353571 14.2416329,4.13353571 C14.5972059,4.13353571 14.9878683,4.43296557 15.4019237,5.02948601 C15.8136397,5.61430996 16.0218371,6.19913392 16.0218371,6.77460069 C16.0218371,6.96876224 15.9306045,7.25649563 15.7341037,7.62376507 C15.5516386,7.99103451 15.3551377,8.334911 15.1609762,8.65539452 L12.1315881,7.33603168 L11.6847826,7.99103451 L9.21682552,7.99103451 L9.21682552,7.12783436 L9.21448623,7.12783436 Z M15.1843692,7.72435479 C15.2756017,7.40387126 15.3223876,7.11613788 15.3223876,6.87519041 C15.3223876,6.35820603 15.1609762,5.88800757 14.8404927,5.46459503 C14.5761522,5.12071854 14.3352048,4.94761065 14.1293467,4.94761065 C14.0030248,4.94761065 13.8767028,5.00375375 13.7620773,5.13007573 L13.4626474,5.45055925 L12.6251795,6.61084998 L15.1843692,7.72435479 Z" id="Shape"></path>
                            <path d="M23.7882992,7.12783436 L23.7882992,7.98869522 L22.1250598,7.98869522 C21.722701,7.98869522 21.470057,7.8857662 21.367128,7.68926535 C21.2875919,7.5512469 21.240806,7.36878183 21.240806,7.12783436 L21.240806,6.2108304 L20.4384276,7.30094225 C20.1623907,7.67990817 19.8980502,7.89746268 19.6571028,7.96764155 C19.4161553,8.02378465 18.9576533,8.07057057 18.2558646,8.08226705 L17.2335923,8.10566001 C17.2335923,8.10566001 17.1657527,8.10566001 17.0160378,8.10566001 C16.8780193,8.10566001 16.6838578,8.09396353 16.4312138,8.07057057 C18.0944531,7.75944423 19.3459764,7.30094225 20.1834443,6.69272533 L20.1273012,6.4868673 L19.8395678,5.51138095 C19.4839949,4.28325064 18.8640815,3.19313879 18.0032206,2.21765244 C17.9236846,2.43520695 17.7973626,2.54983244 17.6476476,2.54983244 C17.5564151,2.54983244 17.4651826,2.47029638 17.3716107,2.30888497 C17.1540562,1.91822257 17.0394307,1.64218566 17.0394307,1.47141707 C17.0394307,1.35679157 17.1306633,1.14859425 17.3154676,0.851503678 C17.4651826,0.610556208 17.5915045,0.495930713 17.6944336,0.495930713 C17.8675415,0.495930713 18.1529355,0.77196762 18.5319015,1.33339862 C18.8196349,1.74745398 19.0488858,2.10302694 19.207958,2.41181399 C19.4372089,2.88201245 19.6664599,3.49022936 19.9074074,4.21307177 C20.1483549,4.97100361 20.3425164,5.71723898 20.4805349,6.44008139 L21.0653588,5.82016799 C21.1565914,5.72893546 21.2033773,5.65875658 21.2033773,5.61430996 C21.2150738,5.51138095 21.2384667,5.258737 21.2384667,5.15580798 L21.2384667,0.933379031 L21.9496127,0.152054228 L21.9613091,6.88922618 C21.9613091,7.05063759 22.1320777,7.13017365 22.48999,7.13017365 L23.7882992,7.13017365 L23.7882992,7.12783436 Z" id="Path"></path>
                            <polygon id="Path" points="27.4703508 7.12783436 27.4703508 7.98869522 22.719241 7.98869522 22.719241 7.12783436"></polygon>
                            <polygon id="Path" points="31.8869413 7.98869522 31.4962789 7.98869522 31.323171 7.59803282 31.0143839 7.98869522 26.5159181 7.98869522 26.5159181 7.12783436 31.117313 7.12783436 30.2681486 5.24704052 30.7149541 4.63882361 31.884602 7.12783436 31.884602 7.98869522"></polygon>
                            <path d="M31.7021369,7.12783436 L33.9735932,7.12783436 L33.1361253,5.24704052 L33.5829308,4.63882361 L34.7525787,7.12783436 L35.9924054,7.12783436 L36.0274949,6.71611829 C36.0274949,6.26931279 35.8660835,5.77572137 35.5339035,5.21195108 L35.9924054,4.59203769 C36.4041215,5.01778953 36.6123188,5.51138095 36.6123188,6.07281194 C36.6123188,6.29036645 36.5889259,6.47517082 36.5444793,6.63424294 C36.4181573,7.05765548 36.3035318,7.40387126 36.2006028,7.66821169 C36.1421204,7.79453366 36.1093702,7.90915916 36.0742808,7.98869522 L34.3525591,7.98869522 L34.1911477,7.59803282 L33.8823606,7.98869522 L31.75828,7.98869522 L31.7021369,7.12783436 Z" id="Path"></path>
                            <path d="M38.7480959,10.7420464 C38.1749684,10.8449754 37.7141272,11.1093158 37.3585542,11.5327284 C37.4287331,11.2005484 37.5644122,10.9362079 37.784306,10.7420464 C37.4170366,10.6742068 37.2322322,10.4660095 37.2322322,10.1338295 C37.2322322,9.82270314 37.3585542,9.54900553 37.6111982,9.30805806 C37.8638421,9.07880707 38.1515755,8.96418157 38.472059,8.96418157 C38.6334704,8.96418157 38.7130065,9.01096749 38.7130065,9.11389651 C38.7130065,9.1723789 38.677917,9.29636158 38.598381,9.50455891 L38.4369696,9.48116595 C38.0580037,9.48116595 37.7702703,9.66597032 37.5644122,10.0332398 C37.8053597,10.2390978 38.0813966,10.3443661 38.3901837,10.3443661 C38.5515951,10.3443661 38.7457566,10.3092767 38.9867041,10.2297406 L38.7480959,10.7420464 Z" id="Path"></path>
                            <path d="M42.3973974,6.01432955 C42.6032554,6.35820603 42.7085237,6.61084998 42.7085237,6.77226139 C42.7085237,6.86349393 42.6851308,6.95472647 42.6500413,7.05999478 L42.5938982,7.20970971 L42.3295578,7.99103451 L38.3714693,7.99103451 L38.4065587,7.8296231 L38.6241132,6.64827871 L39.1855442,6.1546873 C39.6089568,5.77572137 39.9879227,5.39675545 40.3317992,5.00609305 C40.4581212,4.8680746 40.6078361,4.68560952 40.8019976,4.44466205 L40.7224616,4.34173304 C39.8966902,3.28671062 39.2650803,2.62001132 38.8393285,2.34631371 C38.7714889,2.58726117 38.6545241,2.71358315 38.495452,2.71358315 C38.392523,2.71358315 38.3012904,2.65510075 38.1960221,2.55217174 C37.8872351,2.20829525 37.7258236,1.93225835 37.7258236,1.71470383 C37.7258236,1.45036341 37.8521456,1.16496932 38.0930931,0.842146494 C38.1515755,0.762610437 38.2194151,0.727520999 38.2872546,0.727520999 C38.4135766,0.727520999 38.6194347,0.865539452 38.8837751,1.14157636 C39.468599,1.74979327 39.9855834,2.36970666 40.4323889,2.98962005 C40.5587109,3.16272795 40.741176,3.43642556 40.9938199,3.81539148 L41.0967489,3.98849937 C41.279214,3.75924838 41.508465,3.39197894 41.7845019,2.87499456 C42.0956282,2.30186708 42.3131827,1.85272229 42.4278082,1.52054228 L42.3693258,1.46439918 C42.2430039,1.33807721 42.1868608,1.23514819 42.1868608,1.14391565 C42.1868608,1.05268312 42.2663968,0.926361144 42.4278082,0.764949732 L43.0126322,0.180125778 L42.9892392,0.341537189 C42.9892392,0.51464508 43.1038647,0.708806633 43.3214192,0.902968186 L43.8945467,1.40825608 L43.3214192,2.15449145 L43.0687753,1.96968708 C42.5985768,2.87733386 42.0581995,3.70310528 41.4265896,4.44934064 L42.3973974,6.01432955 Z M41.0780346,4.87977108 L40.9283196,5.06223615 C40.7341581,5.30318362 40.4464247,5.60027419 40.0908517,5.93479349 L39.0475258,6.91027985 L39.0007399,7.12783436 L42.1915394,7.12783436 L42.2149323,7.05999478 L42.2617182,6.83074379 C42.2617182,6.75120773 42.2055751,6.62488576 42.1003068,6.45177786 L41.0780346,4.87977108 Z" id="Shape"></path>
                            <path d="M45.8151086,0.18480437 L46.0443596,1.47141707 L45.8151086,1.75915045 L45.8385015,2.00009792 L45.9414306,3.19313879 C45.9414306,3.34285372 45.953127,3.63994429 45.9648235,4.10078557 L45.9882165,4.87041389 C45.9882165,5.66109588 45.9414306,6.25995561 45.850198,6.67167167 C45.723876,7.23310267 45.4946251,7.84131958 45.1390521,8.47292945 L45.1624451,8.2787679 C45.2653741,7.39451408 45.31216,6.58043913 45.288767,5.84590025 L45.2326239,3.75690908 L45.1975345,2.35801018 C45.1624451,2.12875919 45.0946055,1.76148975 44.9682835,1.25620185 L45.8151086,0.18480437 Z" id="Path"></path>
                            <path d="M56.6811377,7.12783436 L56.6811377,7.98869522 L54.3067524,7.98869522 L54.1804304,7.47171084 L53.8599469,7.83898028 L50.6457545,7.35708535 L51.0808635,6.06111546 L51.2071854,5.76402489 C51.2422749,5.7055425 51.3569004,5.62600644 51.5510619,5.52307743 L53.5581777,4.4212691 L53.4903382,4.08908909 L54.1336445,3.51596161 L54.8447904,7.13017365 L56.6811377,7.13017365 L56.6811377,7.12783436 Z M53.6634461,4.94761065 L51.7709557,5.99093659 C51.6446338,6.07047265 51.5417047,6.2669735 51.4387757,6.5991535 L54.0891979,7.00151238 L53.6634461,4.94761065 Z M54.7652544,2.76738695 L54.24827,3.22588893 L53.8014645,2.76738695 L53.25173,3.22588893 L52.6552096,2.60597554 L53.2049441,2.16852722 L53.6306959,2.60597554 L54.1804304,2.16852722 L54.7652544,2.76738695 Z" id="Shape"></path>
                            <polygon id="Path" points="60.3631893 7.12783436 60.3631893 7.98869522 55.6120795 7.98869522 55.6120795 7.12783436"></polygon>
                            <path d="M64.7119402,7.12783436 L64.7119402,7.98869522 L62.4638769,7.98869522 L62.3726444,7.64481873 L62.0404644,7.98869522 L59.4110959,7.98869522 L59.4110959,7.12783436 L62.2229295,7.12783436 L61.8439635,5.89970405 L62.4077338,5.3710232 L62.9247182,7.12549506 L64.7119402,7.12549506 L64.7119402,7.12783436 Z M61.3269792,9.6191844 L61.85566,9.16068242 L62.290769,9.6191844 L62.8522,9.16068242 L63.4487205,9.78059581 L62.8989859,10.2157048 L62.4755734,9.78059581 L61.9141424,10.2157048 L61.3269792,9.6191844 Z" id="Shape"></path>
                            <path d="M68.4875637,6.30206293 L68.1202942,6.78395787 L67.2594333,6.78395787 C66.8477173,6.78395787 66.5599839,6.73717195 66.3985725,6.63424294 C66.1342321,6.47283153 66.0079101,6.19913392 66.0079101,5.82016799 C66.0079101,5.29148714 66.2137681,4.7534491 66.63952,4.20137529 C67.0067894,3.71948035 67.3272729,3.47853288 67.6150063,3.47853288 C67.8559538,3.47853288 68.1202942,3.63994429 68.3846346,3.94873134 C68.5904927,4.20137529 68.7519041,4.46571572 68.8665296,4.75110981 C69.004548,5.09498629 69.0723876,5.45055925 69.0723876,5.82952518 C69.0723876,6.10556208 69.0372982,6.39095617 68.9694586,6.69038604 C68.9343692,6.87519041 68.8782261,7.06935196 68.8080472,7.26351351 L68.7285111,7.45767507 C68.672368,7.59569352 68.6255821,7.73371197 68.5787962,7.88342691 L68.5437068,7.98635592 L63.642882,7.98635592 L63.642882,7.12549506 L68.4173848,7.12549506 L68.4407777,7.03426252 L68.4758672,6.74652914 L68.4992601,6.43540279 L68.4875637,6.30206293 Z M68.4992601,5.92309701 C68.4992601,5.56752405 68.4314206,5.24704052 68.3050986,4.94761065 C68.1319907,4.55694825 67.9027397,4.3627867 67.5939526,4.3627867 C67.2500762,4.3627867 66.9623428,4.60373417 66.7213953,5.08562911 C66.6418593,5.24704052 66.6067698,5.38505897 66.6067698,5.51138095 C66.6067698,5.78741785 66.8477173,5.92309701 67.3296122,5.92309701 L68.4992601,5.92309701 Z M67.9939722,1.87143665 L67.4535949,2.30654568 L66.8570745,1.71002524 L67.3974518,1.2281303 L67.9939722,1.87143665 Z" id="Shape"></path>
                            <path d="M71.250272,5.57922052 C71.3882905,5.72893546 71.502916,5.89970405 71.5941485,6.08450842 L73.8773012,6.08450842 L73.8773012,5.13241502 L74.6001436,4.50080515 L74.6001436,6.79565435 C74.6001436,7.01320886 74.7030726,7.12783436 74.91127,7.12783436 L76.4154372,7.12783436 L76.4154372,7.98869522 L74.5206076,7.98869522 C74.097195,7.98869522 73.8773012,7.70096183 73.8773012,7.12783436 L73.8773012,6.50792096 L73.5451212,6.92197632 L71.8935784,6.92197632 L71.9052748,6.96876224 L71.8935784,6.94536928 C71.9403643,7.14187013 71.9614179,7.33603168 71.9614179,7.51849676 C71.9614179,8.17349959 71.7438634,8.84955608 71.3181116,9.54900553 C71.1450037,9.82504243 70.9391457,10.0870436 70.6981982,10.3396875 C70.3660182,10.683564 70.1016778,10.8566719 69.8841233,10.8566719 C69.5963899,10.8566719 69.1261914,10.5010989 68.4735279,9.80164948 C68.7940114,9.96306089 69.1168342,10.0425969 69.4256213,10.0425969 C70.2981786,10.0425969 71.021021,9.33145102 71.582452,7.91851634 C71.502916,7.60739 71.3976476,7.32199591 71.273665,7.05765548 C71.12395,6.73717195 70.941485,6.44943857 70.7239305,6.18509814 L71.250272,5.57922052 Z" id="Path"></path>
                            <path d="M76.0224355,7.12783436 L76.1487575,7.11613788 L79.9009879,4.73941333 C80.3711864,4.46337642 80.7384558,4.32769726 81.0144928,4.32769726 C81.3256191,4.32769726 81.6811921,4.51016234 82.0695152,4.87743178 C82.2987662,5.09498629 82.5046242,5.35932672 82.701125,5.66811377 C82.9186795,6.02368673 83.033305,6.33481307 83.033305,6.59681421 C83.033305,6.74652914 82.9982156,6.91729773 82.9186795,7.12549506 L84.9047417,7.12549506 L84.9047417,7.98635592 L76.0224355,7.98635592 L76.0224355,7.12783436 Z M82.5069635,7.12783436 L82.4391239,6.81904731 C82.2566588,5.99327588 81.8426035,5.42014841 81.1992971,5.09732559 C81.0051356,5.00609305 80.8320277,4.95930713 80.6823127,4.95930713 C80.5793837,4.95930713 80.4179723,5.00609305 80.2004178,5.09732559 L80.0062563,5.21195108 L78.8693585,5.91140053 L76.9651717,7.12783436 L82.5069635,7.12783436 Z" id="Shape"></path>
                            <path d="M87.1995909,1.85974017 L87.5434674,6.61084998 C87.5434674,6.78161858 87.5785568,6.91963703 87.6346999,7.01320886 C87.6697894,7.06935196 87.7610219,7.13953084 87.9224333,7.24245985 L88.0721482,7.33369239 L89.0242416,7.86237324 L88.6101863,8.52673325 L86.9703399,7.60972929 L86.6592136,7.98869522 L83.8356835,7.98869522 L83.8356835,7.12783436 L86.9118575,7.12783436 L86.4182661,1.58604256 C86.2007116,1.50650651 86.0977826,1.42463115 86.0977826,1.33339862 C86.0977826,1.27725552 86.132872,1.18368368 86.1890151,1.06905819 L86.6592136,0.208197328 C86.6592136,0.425751839 86.7621426,0.58716325 86.9586434,0.690092266 L87.2112874,0.81641424 L87.8545937,1.1158441 L87.4639313,1.95331201 L87.1995909,1.85974017 Z" id="Path"></path>
                            <path d="M90.9284284,0.18480437 L91.1576794,1.47141707 L90.9284284,1.75915045 L90.9518214,2.00009792 L91.0547504,3.19313879 C91.0547504,3.34285372 91.0664469,3.63994429 91.0781434,4.10078557 L91.1015363,4.87041389 C91.1015363,5.66109588 91.0547504,6.25995561 90.9635179,6.67167167 C90.8371959,7.23310267 90.6079449,7.84131958 90.2523719,8.47292945 L90.2757649,8.2787679 C90.3786939,7.39451408 90.4254798,6.58043913 90.4020869,5.84590025 L90.3436045,3.75690908 L90.308515,2.35801018 C90.2734256,2.12875919 90.205586,1.76148975 90.079264,1.25620185 L90.9284284,0.18480437 Z" id="Path"></path>
                            <path d="M102.470514,7.98869522 L97.2609022,7.98869522 C96.7439178,7.98869522 96.3766484,7.78283719 96.1357009,7.3804783 C95.985986,7.12783436 95.9181464,6.82840449 95.9181464,6.49622449 C95.9181464,5.86461461 96.0912543,5.29148714 96.4468273,4.77450276 C96.3322018,5.11837925 96.2737194,5.47395221 96.2737194,5.82952518 C96.2737194,6.51727815 96.4912739,6.93133351 96.9287222,7.05765548 C97.0784371,7.1044414 97.2398485,7.12549506 97.4340101,7.12549506 L102.379281,7.12549506 C102.414371,6.94069069 102.426067,6.79331505 102.426067,6.67868956 C102.426067,6.2646342 102.264656,5.77104278 101.932476,5.20961179 L102.379281,4.58969839 C102.793337,5.00375375 102.999195,5.49734517 102.999195,6.07047265 C102.999195,6.33481307 102.872873,6.82840449 102.631925,7.57463986 L102.470514,7.98869522 Z M100.301987,4.62712713 L99.7850024,5.08562911 L99.3381969,4.62712713 L98.7884624,5.08562911 L98.1919419,4.46571572 L98.7416765,4.03060669 L99.165089,4.46571572 L99.7148235,4.03060669 L100.301987,4.62712713 Z" id="Shape"></path>
                            <path d="M107.036819,7.12783436 L107.036819,7.98869522 L105.120936,7.98869522 C104.798113,7.98869522 104.603952,7.93255212 104.536112,7.80623014 C104.489326,7.72669409 104.468273,7.50680028 104.468273,7.12783436 L104.468273,0.931039735 L105.202812,0.18480437 L105.202812,6.79565435 C105.202812,7.01320886 105.305741,7.12783436 105.499902,7.12783436 L107.036819,7.12783436 L107.036819,7.12783436 Z" id="Path"></path>
                            <polygon id="Path" points="110.718871 7.12783436 110.718871 7.98869522 105.967761 7.98869522 105.967761 7.12783436"></polygon>
                            <path d="M109.766778,7.12783436 L112.096716,7.12783436 L113.34824,5.49968447 L113.968153,4.68560952 C114.288636,4.31834008 114.564673,4.13353571 114.793924,4.13353571 C115.149497,4.13353571 115.54016,4.43296557 115.951876,5.02948601 C116.365931,5.61430996 116.571789,6.19913392 116.571789,6.77460069 C116.571789,6.96876224 116.480557,7.25649563 116.284056,7.62376507 C116.101591,7.99103451 115.90509,8.334911 115.710928,8.65539452 L112.68154,7.33603168 L112.234735,7.99103451 L109.766778,7.99103451 L109.766778,7.12783436 Z M115.734321,7.72435479 C115.825554,7.40387126 115.87234,7.11613788 115.87234,6.87519041 C115.87234,6.35820603 115.710928,5.88800757 115.390445,5.46459503 C115.126104,5.12071854 114.885157,4.94761065 114.679299,4.94761065 C114.552977,4.94761065 114.426655,5.00375375 114.312029,5.13007573 L114.0126,5.45055925 L113.175132,6.61084998 L115.734321,7.72435479 Z" id="Shape"></path>
                            <path d="M123.535873,7.12783436 L123.535873,7.98869522 L121.402435,7.98869522 L121.217631,7.62142577 L120.918201,7.98869522 L118.106367,7.98869522 C117.888813,7.98869522 117.727401,7.96530226 117.624472,7.92085564 C117.463061,7.84131958 117.383525,7.71499761 117.383525,7.51849676 C117.383525,7.32199591 117.463061,7.07169126 117.636169,6.76056491 C117.694651,6.9336728 117.809277,7.0482983 117.980045,7.09274492 C118.059581,7.11613788 118.232689,7.12783436 118.49703,7.12783436 L120.918201,7.12783436 L119.472516,4.60373417 L119.886571,3.93703486 L121.711222,7.12783436 L123.535873,7.12783436 L123.535873,7.12783436 Z" id="Path"></path>
                            <path d="M127.573497,1.85974017 L127.746605,4.69496671 C127.746605,4.93591418 127.655373,5.14177221 127.470568,5.30318362 C127.849534,5.49734517 128.249554,5.68214954 128.675306,5.83186447 C129.248433,6.03772251 129.742025,6.17574096 130.144384,6.23422335 L129.765418,6.84244027 C129.477684,6.78629717 129.19229,6.75120773 128.904557,6.75120773 C127.99691,6.75120773 127.253014,7.03894112 126.665851,7.62376507 L126.471689,7.81792662 L126.321974,7.93021282 C126.230742,7.97699874 126.219045,7.98635592 125.989794,7.98635592 L122.466815,7.98635592 L122.466815,7.12549506 L126.392153,7.12549506 C126.703279,6.84945815 127.035459,6.63190364 127.391032,6.47049223 C127.505658,6.41434913 127.655373,6.36756322 127.837838,6.30908082 L127.59689,6.18275885 L125.863472,5.26575489 C125.610828,5.13943291 125.381577,5.07159333 125.187416,5.07159333 C125.084487,5.07159333 124.958165,5.09498629 124.80845,5.15112939 L124.682128,5.19791531 C125.199112,4.70432389 125.566382,4.45167994 125.783936,4.45167994 L126.024884,4.48676938 C126.380457,4.54525177 126.6331,4.56630544 126.759422,4.55460896 L127.058852,4.54291248 L126.852994,1.58136397 L126.773458,1.54627454 C126.60035,1.46673848 126.509118,1.38486312 126.509118,1.30532707 C126.509118,1.23748749 126.565261,1.09946903 126.682226,0.891271706 L127.061192,0.203518736 C127.107978,0.444466205 127.245996,0.617574096 127.463551,0.732199591 L127.76298,0.881914523 L128.256572,1.11116551 L127.844856,1.94863342 L127.573497,1.85974017 Z M125.816686,2.90540541 L125.276309,3.35221091 L124.691485,2.74399399 L125.220166,2.26209906 L125.816686,2.90540541 Z" id="Shape"></path>
                            <path d="M132.057927,0.18480437 L132.287178,1.47141707 L132.057927,1.75915045 L132.08132,2.00009792 L132.184249,3.19313879 C132.184249,3.34285372 132.195946,3.63994429 132.207642,4.10078557 L132.231035,4.87041389 C132.231035,5.66109588 132.184249,6.25995561 132.093017,6.67167167 C131.966695,7.23310267 131.737444,7.84131958 131.381871,8.47292945 L131.405264,8.2787679 C131.508193,7.39451408 131.554979,6.58043913 131.531586,5.84590025 L131.473104,3.75690908 L131.438014,2.35801018 C131.402925,2.12875919 131.335085,1.76148975 131.208763,1.25620185 L132.057927,0.18480437 Z" id="Path"></path>
                        </g>
                    </g>
                    <rect id="Rectangle" fill="#FFFFFF" x="154.954955" y="4.5045045" width="1" height="36.036036"></rect>
                </g>
            </g>
        </g>
    </g>
</svg>
