<?xml version="1.0" encoding="UTF-8"?>
<svg width="160px" height="60px" viewBox="0 0 160 60" version="1.1" xmlns="http://www.w3.org/2000/svg" xmlns:xlink="http://www.w3.org/1999/xlink">
    <!-- Generator: Sketch 62 (91390) - https://sketch.com -->
    <title>Logo / Elite</title>
    <desc>Created with Sketch.</desc>
    <g id="Final-Journey-screens" stroke="none" stroke-width="1" fill="none" fill-rule="evenodd">
        <g id="2.3-RAKelite-account-1/3" transform="translate(-40.000000, -30.000000)">
            <g id="Logo-/-Elite" transform="translate(40.000000, 30.000000)">
                <g id="ELITE">
                    <path d="M16.1297738,38.8747774 C16.127155,41.6907272 13.8450298,43.9728524 11.0290801,43.9754698 L0.121859545,43.9754698 L0.121859545,27.9675569 L10.2061325,27.9675569 C12.5887662,27.9736325 14.5194955,29.9022409 14.5281899,32.2848665 C14.5322166,33.1126447 14.2940147,33.9235216 13.8429278,34.6176063 C15.2719368,35.562421 16.1310125,37.1616692 16.1297738,38.8747774 Z M2.98001978,33.7519288 L10.2298714,33.7519288 C11.0191981,33.7259654 11.6456424,33.0785766 11.6456424,32.2888229 C11.6456424,31.4990693 11.0191981,30.8516805 10.2298714,30.8257171 L2.98001978,30.8257171 L2.98001978,33.7519288 Z M11.0290801,41.0935707 C12.2667224,41.0935707 13.2700297,40.0902634 13.2700297,38.8526212 C13.2700297,37.6149789 12.2667224,36.6116716 11.0290801,36.6116716 L2.98001978,36.6116716 L2.98001978,41.115727 L11.0290801,41.115727 L11.0290801,41.0935707 Z" id="Shape" fill="#FFFFFF" fill-rule="nonzero"></path>
                    <path d="M38.4253215,27.9675569 L38.4253215,35.9707221 C38.4659091,38.8570824 36.9493026,41.5417284 34.4561864,42.9967524 C31.9630702,44.4517763 28.8796598,44.4517763 26.3865436,42.9967524 C23.8934274,41.5417284 22.3768209,38.8570824 22.4174085,35.9707221 L22.4174085,27.9675569 L25.2771513,27.9675569 L25.2771513,35.9707221 C25.3463913,38.7616612 27.6287758,40.9881246 30.4205737,40.9881246 C33.2123715,40.9881246 35.494756,38.7616612 35.563996,35.9707221 L35.563996,27.9675569 L38.4253215,27.9675569 Z" id="Path" fill="#FFFFFF" fill-rule="nonzero"></path>
                    <path d="M57.5667656,32.4035608 L57.5667656,32.3117705 C57.5615856,31.5054378 56.9092011,30.8530534 56.1028684,30.8478734 L49.6142433,30.8478734 C48.8082666,30.8539045 48.1563773,31.5057938 48.1503462,32.3117705 L48.1503462,32.4035608 C48.1563773,33.2095375 48.8082666,33.8614269 49.6142433,33.867458 L55.3780415,33.867458 C56.7972151,33.8644211 58.1513216,34.4624129 59.1050445,35.5133531 C59.1730959,35.5814045 59.2189911,35.6510386 59.2886251,35.71909 C60.5256663,37.2304821 60.7813135,39.3192991 59.9452787,41.0844118 C59.109244,42.8495245 57.3311357,43.9750658 55.3780415,43.9754698 L50.3628091,43.9754698 C47.5717397,43.974596 45.3094944,41.7117421 45.3094944,38.9206726 L48.1677547,38.9206726 C48.1677547,40.1329677 49.150514,41.115727 50.3628091,41.115727 L55.3717112,41.115727 C56.5840062,41.115727 57.5667656,40.1329677 57.5667656,38.9206726 C57.5667656,37.7083775 56.5840062,36.7256182 55.3717112,36.7256182 L49.607913,36.7256182 C48.4891014,36.7293206 47.4134661,36.2940662 46.6120673,35.5133531 C46.4048563,35.3053881 46.2207337,35.0756327 46.062908,34.828091 C45.5666015,34.1085997 45.3036064,33.2538654 45.3094944,32.379822 L45.3094944,32.2848665 C45.3043413,29.9049508 47.2280044,27.9706636 49.607913,27.9628091 L56.0965381,27.9628091 C58.4834898,27.9654167 60.4188247,29.8979211 60.4249258,32.2848665 L60.4249258,32.3750742 L57.5667656,32.4035608 Z" id="Path" fill="#FFFFFF" fill-rule="nonzero"></path>
                    <polygon id="Path" fill="#FFFFFF" fill-rule="nonzero" points="67.2854599 43.9754698 67.2854599 27.9675569 70.1436202 27.9675569 70.1436202 43.9754698"></polygon>
                    <polygon id="Path" fill="#FFFFFF" fill-rule="nonzero" points="93.0120673 27.9897132 93.0120673 43.9960435 90.153907 41.8009891 79.8670623 33.8658754 79.8670623 43.9944609 77.0041543 43.9944609 77.0041543 28.0356083 79.8623145 30.2274975 90.1491592 38.1626113 90.1491592 27.9675569"></polygon>
                    <path d="M102.730762,32.2848665 L102.730762,33.7709199 L113.017606,33.7709199 L113.017606,36.6290801 L102.730762,36.6290801 L102.730762,39.6486647 C102.736803,40.4543793 103.388938,41.1058092 104.194659,41.1109792 L115.880514,41.1109792 L115.880514,43.9707221 L104.194659,43.9707221 C101.814495,43.9628678 99.890379,42.0288371 99.8947502,39.6486647 L99.8947502,32.2848665 C99.890379,29.9046941 101.814495,27.9706633 104.194659,27.9628091 L115.880514,27.9628091 L115.880514,30.8209693 L104.194659,30.8209693 C103.388326,30.8261494 102.735942,31.4785338 102.730762,32.2848665 L102.730762,32.2848665 Z" id="Path" fill="#FFFFFF" fill-rule="nonzero"></path>
                    <path d="M135.020376,32.4035608 L135.020376,32.3117705 C135.015206,31.5060499 134.363776,30.853915 133.558061,30.8478734 L127.069436,30.8478734 C126.263104,30.8530534 125.610719,31.5054378 125.605539,32.3117705 L125.605539,32.4035608 C125.610719,33.2098935 126.263104,33.8622779 127.069436,33.867458 L132.831652,33.867458 C134.251334,33.8641721 135.606026,34.4621683 136.560237,35.5133531 C136.628289,35.5814045 136.674184,35.6510386 136.742235,35.71909 C137.980654,37.2301246 138.237091,39.319666 137.400801,41.0853174 C136.564511,42.8509687 134.785342,43.9763577 132.831652,43.9754704 L127.818002,43.9754704 C125.028482,43.9702444 122.76843,41.7101927 122.763205,38.9206726 L125.622948,38.9206726 C125.622948,40.1329677 126.605707,41.115727 127.818002,41.115727 L132.825321,41.115727 C134.037617,41.115727 135.020376,40.1329677 135.020376,38.9206726 C135.020376,37.7083775 134.037617,36.7256182 132.825321,36.7256182 L127.063106,36.7256182 C125.947031,36.7272498 124.874613,36.2921479 124.075173,35.5133531 C123.867501,35.3058007 123.683336,35.0759927 123.526014,34.828091 C123.029147,34.1087842 122.765594,33.2540352 122.771118,32.379822 L122.771118,32.2848665 C122.766739,29.9046941 124.690855,27.9706633 127.071019,27.9628091 L133.559644,27.9628091 C135.943506,27.9697666 137.874034,29.9010022 137.880119,32.2848665 L137.880119,32.3750742 L135.020376,32.4035608 Z" id="Path" fill="#FFFFFF" fill-rule="nonzero"></path>
                    <path d="M157.01998,32.4035608 L157.01998,32.3117705 C157.0148,31.5054378 156.362416,30.8530534 155.556083,30.8478734 L149.067458,30.8478734 C148.261125,30.8530534 147.608741,31.5054378 147.603561,32.3117705 L147.603561,32.4035608 C147.608741,33.2098935 148.261125,33.8622779 149.067458,33.867458 L154.829674,33.867458 C156.248847,33.8644211 157.602954,34.4624129 158.556677,35.5133531 C158.626311,35.5814045 158.672206,35.6510386 158.740257,35.71909 C159.978675,37.2301246 160.235113,39.319666 159.398823,41.0853174 C158.562533,42.8509687 156.783364,43.9763577 154.829674,43.9754704 L149.820772,43.9754704 C147.031869,43.969374 144.772779,41.7095764 144.767557,38.9206726 L147.625717,38.9206726 C147.62659,40.1326059 148.608838,41.1148542 149.820772,41.115727 L154.829674,41.115727 C156.041969,41.115727 157.024728,40.1329677 157.024728,38.9206726 C157.024728,37.7083775 156.041969,36.7256182 154.829674,36.7256182 L149.067458,36.7256182 C147.949194,36.728906 146.874202,36.2936821 146.073195,35.5133531 C145.865523,35.3058007 145.681358,35.0759927 145.524036,34.828091 C145.026514,34.1091018 144.762897,33.2541411 144.769139,32.379822 L144.769139,32.2848665 C144.764761,29.9046941 146.688877,27.9706633 149.069041,27.9628091 L155.557666,27.9628091 C157.941786,27.9697625 159.87277,29.9007462 159.879723,32.2848665 L159.879723,32.3750742 L157.01998,32.4035608 Z" id="Path" fill="#FFFFFF" fill-rule="nonzero"></path>
                    <path d="M34.456182,11.2158259 C34.4850017,11.1793796 34.5185285,11.1469172 34.5558853,11.1192878 C34.7691095,10.9629702 35.066113,10.9937655 35.24273,11.1905045 C37.8413452,13.9647873 41.0983185,15.6217606 44.6417409,15.6217606 C47.4904055,15.6217606 50.1554896,14.5519288 52.4439169,12.687636 C51.6447082,14.7339268 50.5843719,16.4858556 49.3388724,17.8183976 C48.2690711,18.1127005 47.1645395,18.2617457 46.0549951,18.2615235 C41.2185955,18.2615235 36.9582591,15.4650841 34.456182,11.2189911" id="Path" fill="#FFD618" fill-rule="nonzero"></path>
                    <path d="M54.0613254,3.60830861 L54.0613254,3.4421365 C54.0575779,3.21224115 53.9786462,2.9898983 53.8365974,2.8090999 L53.8365974,2.8090999 C53.8030659,2.76846943 53.7665661,2.7303827 53.7273986,2.69515331 C53.7179031,2.68565776 53.7036597,2.6793274 53.6925816,2.66983185 C53.6623816,2.64421653 53.6306728,2.62043499 53.5976261,2.59861523 C53.5714993,2.58436467 53.5445476,2.57168152 53.5169139,2.56063304 C53.4955472,2.54849858 53.4733333,2.53792054 53.4504451,2.52898121 C53.3525505,2.49185883 53.2479574,2.47568464 53.1434224,2.48150346 C53.1249919,2.47993973 53.1064621,2.47993973 53.0880317,2.48150346 L53.0326409,2.48150346 L53.0326409,2.48150346 C52.6730871,2.55299111 52.3888188,2.8285889 52.3062315,3.18575668 C50.9214639,8.53808111 47.7167161,12.3916914 44.8015826,14.0075173 C47.8702275,13.5960435 50.568546,11.5766568 52.3869436,8.6140455 C51.5545005,11.6652819 49.9956479,14.2654797 47.9825915,16.0522255 C46.8677618,16.4631647 45.6890468,16.6737261 44.5008902,16.674184 C40.6567755,16.674184 37.2209693,14.4759644 34.9103858,11.0148368 C34.7829816,11.0003273 34.6548858,11.0354686 34.5527201,11.1129575 C34.5150483,11.1395966 34.4814608,11.1715847 34.4530168,11.207913 C36.6813056,14.9871414 40.2991098,17.6158259 44.4771513,18.1491592 C42.32223,18.9170844 39.9557494,18.8355987 37.8587537,17.9212661 C37.9869436,18.0557864 38.1198813,18.1855589 38.252819,18.3121662 L38.252819,18.3121662 L38.3461919,18.3960435 C38.407913,18.4530168 38.469634,18.5099901 38.5329377,18.5653808 C38.5645895,18.59545 38.5978239,18.6207715 38.6294758,18.6492582 C38.7006924,18.7109792 38.7734916,18.7727003 38.8462908,18.8312562 L38.8716123,18.8518299 C39.1397336,19.067824 39.419765,19.2686013 39.7103858,19.4532146 L39.7895153,19.5038576 C39.8607319,19.5497527 39.9335312,19.5909001 40.0047478,19.6320475 L40.1266073,19.7016815 C40.1914936,19.7396637 40.259545,19.7728981 40.3275964,19.8092977 L40.4684471,19.8820969 C40.5317507,19.9137488 40.596637,19.943818 40.6615232,19.9723046 C40.7264095,20.0007913 40.7628091,20.021365 40.8197824,20.0419387 C40.8767557,20.0625124 40.9448071,20.0957468 41.0081108,20.1210682 L41.1663699,20.1859545 L41.3499505,20.2524233 L41.5256182,20.3093966 L41.704451,20.3632047 L41.8911968,20.4122651 L42.0621167,20.4549951 C42.1285856,20.470821 42.196637,20.4834817 42.2631058,20.4961424 C42.3295747,20.5088032 42.3723046,20.5198813 42.421365,20.5277943 C42.4704253,20.5357072 42.5653808,20.5499505 42.6365974,20.5594461 L42.7948566,20.5816024 L43.0401583,20.6021761 C43.0828882,20.6021761 43.1240356,20.6116716 43.1667656,20.6132542 C43.2917903,20.6211672 43.416815,20.6243323 43.5434224,20.6243323 C45.6846686,20.6243323 47.6739862,19.5861523 49.3341246,17.8089021 L49.3341246,17.8089021 L49.3452028,17.7962413 C49.4623145,17.6712166 49.5762611,17.5398615 49.6917903,17.4053412 L49.755094,17.3341246 C49.8642928,17.2027695 49.9734916,17.0666667 50.0811078,16.9273986 C50.1048467,16.898912 50.127003,16.8704253 50.1491592,16.8403561 C50.2536103,16.7042532 50.3564787,16.5634026 50.456182,16.4193867 L50.5289812,16.3165183 C50.6271019,16.1756677 50.72364,16.0300692 50.8185955,15.8828882 C50.8439169,15.8433234 50.870821,15.8053412 50.8945598,15.7673591 C50.9879327,15.620178 51.0765579,15.4698318 51.165183,15.3179031 L51.24273,15.1881306 C51.3297725,15.0298714 51.4136499,14.8826904 51.4975272,14.7260138 L51.5734916,14.5851632 C51.6542038,14.4269041 51.7317507,14.2686449 51.8124629,14.1103858 L51.8852621,13.9521266 C51.9628091,13.7938675 52.0435213,13.6245302 52.1099901,13.4583581 L52.1558853,13.3586548 L52.1558853,13.3586548 C53.2083086,10.932542 53.8777448,8.04272997 54.0265084,4.91552918 C54.0257672,4.91081033 54.0257672,4.9060047 54.0265084,4.90128586 C54.0265084,4.8 54.0265084,4.69713155 54.0375865,4.5958457 C54.0375865,4.52621167 54.0375865,4.45499505 54.0375865,4.38377844 C54.0454995,4.12265084 54.0502473,3.85994065 54.0502473,3.59248269" id="Path" fill="#FFFFFF" fill-rule="nonzero"></path>
                    <path d="M37.8540059,0.710583581 C37.8540059,0.710583581 49.5746785,1.41641939 44.6116716,13.8191889 C44.6116716,13.8191889 62.9143422,-3.63837784 37.8540059,0.710583581" id="Path" fill="#FFFFFF" fill-rule="nonzero"></path>
                    <path d="M59.4104847,8.97012859 L62.322453,8.97012859 C62.8795252,8.97012859 63.5363007,9.17903066 63.5363007,10.0178042 C63.5363007,10.8090999 62.9475767,11.0908012 62.4411474,11.0908012 L59.4104847,11.0908012 L59.4104847,8.97012859 Z M57.1252226,15.775272 L59.4104847,15.775272 L59.4104847,12.6892186 L62.2591494,12.6892186 C62.9649852,12.6892186 63.472997,12.9804154 63.472997,14.1641939 C63.472997,15.0472799 63.4856578,15.3843719 63.6993076,15.775272 L66.1950544,15.775272 C65.7946588,15.3527201 65.7598417,14.3636004 65.7598417,13.9489614 C65.7598417,13.1212661 65.6015826,11.8520277 64.60455,11.6969337 L64.60455,11.6779426 C65.5541048,11.3345203 65.9734916,10.672997 65.9734916,9.64906034 C65.9734916,8.78654797 65.5825915,7.36221563 63.248269,7.36221563 L57.1315529,7.36221563 L57.1252226,15.775272 Z" id="Shape" fill="#FFFFFF"></path>
                    <path d="M72.2753709,12.5198813 L69.6340257,12.5198813 L70.9554896,9.17903066 L72.2753709,12.5198813 Z M73.5715134,15.7800198 L76.0356083,15.7800198 L72.3339268,7.3669634 L69.5754698,7.3669634 L65.8753709,15.7800198 L68.3394659,15.7800198 L69.0231454,14.0391691 L72.8894164,14.0391691 L73.5715134,15.7800198 Z" id="Shape" fill="#FFFFFF"></path>
                    <polygon id="Path" fill="#FFFFFF" fill-rule="nonzero" points="78.6373887 10.9863501 78.6373887 7.3669634 76.350544 7.3669634 76.350544 15.7816024 78.6373887 15.7816024 78.6373887 13.2795252 79.9715134 12.1400593 82.8344214 15.7816024 85.9204748 15.7816024 81.7614243 10.7489614 85.6276954 7.3669634 82.5511375 7.3669634"></polygon>
                    <path d="M89.3262117,12.1748764 L92.4597428,12.1748764 C93.2605341,12.1748764 93.6751731,12.5277943 93.6751731,13.1909001 C93.6751731,13.7194857 93.40455,14.1784372 92.695549,14.1784372 L89.3262117,14.1784372 L89.3262117,12.1748764 Z M87.0425321,15.7800198 L93.0437191,15.7800198 C95.5901088,15.7800198 96.1076162,14.3556874 96.1076162,13.2336301 C96.1076162,12.3283877 95.5901088,11.3614243 94.6120673,11.1936696 L94.6120673,11.1730959 C95.403363,10.9277943 95.732542,10.1380811 95.732542,9.4892186 C95.732542,7.92878338 94.5883284,7.3669634 93.3586548,7.3669634 L87.0425321,7.3669634 L87.0425321,15.7800198 Z M89.332542,8.89574679 L92.1938675,8.89574679 C93.1434224,8.89574679 93.3744807,9.27398615 93.3744807,9.8041543 C93.3744807,10.4371909 93.0437191,10.715727 92.5151335,10.715727 L89.3262117,10.715727 L89.332542,8.89574679 Z" id="Shape" fill="#FFFFFF"></path>
                    <path d="M101.871414,12.5198813 L99.2284866,12.5198813 L100.551533,9.17903066 L101.871414,12.5198813 Z M103.167557,15.7800198 L105.630069,15.7800198 L101.92997,7.3669634 L99.1730959,7.3669634 L95.4714144,15.7800198 L97.9307616,15.7800198 L98.6176063,14.0391691 L102.483877,14.0391691 L103.167557,15.7800198 Z" id="Shape" fill="#FFFFFF"></path>
                    <polygon id="Path" fill="#FFFFFF" fill-rule="nonzero" points="113.04451 13.2352127 113.020772 13.2352127 108.597428 7.3669634 105.946588 7.3669634 105.946588 15.7816024 108.163798 15.7816024 108.163798 9.91335312 108.185955 9.91335312 112.773887 15.7816024 115.256973 15.7816024 115.256973 7.3669634 113.04451 7.3669634"></polygon>
                    <polygon id="Path" fill="#FFFFFF" fill-rule="nonzero" points="118.255984 10.9863501 118.255984 7.3669634 115.970722 7.3669634 115.970722 15.7816024 118.255984 15.7816024 118.255984 13.2795252 119.590109 12.1400593 122.456182 15.7816024 125.543818 15.7816024 121.383185 10.7489614 125.246291 7.3669634 122.174481 7.3669634"></polygon>
                    <path d="M54.1088032,53.2003956 L54.1088032,54.0090999 L60.3188922,54.0090999 L60.3188922,55.5647873 L54.1088032,55.5647873 L54.1088032,57.2075173 C54.1401394,57.6669862 54.5317483,58.0178902 54.9918892,57.9988131 L62.0375865,57.9988131 L62.0375865,59.5529179 L54.9918892,59.5529179 C53.5580613,59.5529179 52.3980218,58.4957468 52.3980218,57.2011869 L52.3980218,53.2003956 C52.3980218,51.9074184 53.5580613,50.8486647 54.9918892,50.8486647 L62.0375865,50.8486647 L62.0375865,52.4043521 L54.9918892,52.4043521 C54.5091988,52.4043521 54.1088032,52.765183 54.1088032,53.2003956 Z" id="Path" fill="#FFFFFF" fill-rule="nonzero"></path>
                    <path d="M74.1428289,58.0162216 L74.1428289,59.5719412 L69.2367953,59.5719412 C68.7710037,59.5739776 68.3101666,59.476306 67.8852621,59.2854599 C67.2934913,59.0289156 66.8032524,58.5837497 66.490999,58.0193867 C66.2824213,57.6471797 66.1734018,57.2274546 66.1744728,56.8007913 L66.1744728,50.8613254 L67.8995054,50.8613254 L67.8995054,56.9463897 C68.0112412,57.5209503 68.4892521,57.9525148 69.0722057,58.0051434 L74.1428289,58.0162216 Z" id="Path" fill="#FFFFFF" fill-rule="nonzero"></path>
                    <polygon id="Path" fill="#FFFFFF" fill-rule="nonzero" points="78.2828882 59.5592483 78.2828882 50.8549951 80.0063304 50.8549951 80.0063304 59.5592483"></polygon>
                    <polygon id="Path" fill="#FFFFFF" fill-rule="nonzero" points="93.7907023 50.8613254 93.7907023 52.4170129 89.8342235 52.4170129 89.8342235 59.571909 88.1091988 59.571909 88.1091988 52.4170129 84.1527201 52.4170129 84.1527201 50.8613254"></polygon>
                    <path d="M99.6684471,53.2003956 L99.6684471,54.0090999 L105.875371,54.0090999 L105.875371,55.5647873 L99.6684471,55.5647873 L99.6684471,57.2075173 C99.6989705,57.6673825 100.091087,58.0187415 100.551533,57.9988131 L107.601978,57.9988131 L107.601978,59.5529179 L100.551533,59.5529179 C99.1161227,59.5529179 97.9560831,58.4957468 97.9560831,57.2011869 L97.9560831,53.2003956 C97.9560831,51.9074184 99.1161227,50.8486647 100.551533,50.8486647 L107.601978,50.8486647 L107.601978,52.4043521 L100.551533,52.4043521 C100.089354,52.3845131 99.6965028,52.7386422 99.6684471,53.2003956 Z" id="Path" fill="#FFFFFF" fill-rule="nonzero"></path>
                </g>
            </g>
        </g>
    </g>
</svg>