<?xml version="1.0" encoding="UTF-8"?>
<svg width="300px" height="43px" viewBox="0 0 300 43" version="1.1" xmlns="http://www.w3.org/2000/svg" xmlns:xlink="http://www.w3.org/1999/xlink">
    <!-- Generator: Sketch 62 (91390) - https://sketch.com -->
    <title>Logo / Business Islamic</title>
    <desc>Created with Sketch.</desc>
    <defs>
        <polygon id="path-1" points="0.00856301846 0.100615467 14.4359647 0.100615467 14.4359647 14.5364374 0.00856301846 14.5364374"></polygon>
        <polygon id="path-3" points="0.135581126 0.0115600749 17.8163589 0.0115600749 17.8163589 18.603443 0.135581126 18.603443"></polygon>
    </defs>
    <g id="Final-Journey-screens" stroke="none" stroke-width="1" fill="none" fill-rule="evenodd">
        <g id="2.1.Islamic---RAKstarter-account-1/3" transform="translate(-40.000000, -30.000000)">
            <g id="Logo-/-Business-Islamic" transform="translate(40.000000, 30.000000)">
                <g>
                    <g id="Logo-/-Business">
                        <g>
                            <g id="Group-3" transform="translate(0.000000, 25.118187)">
                                <mask id="mask-2" fill="white">
                                    <use xlink:href="#path-1"></use>
                                </mask>
                                <g id="Clip-2"></g>
                                <path d="M9.83719561,11.9379895 C10.9506734,11.9379895 11.858068,11.030595 11.858068,9.9169744 C11.858068,8.80349657 10.9506734,7.89595933 9.83719561,7.89595933 L2.57789671,7.89595933 L2.57789671,11.9586834 L9.83719561,11.9586834 L9.83719561,11.9379895 Z M2.57789671,5.31820533 L9.11533315,5.31820533 C9.83719561,5.31820533 10.4351797,4.72007849 10.4351797,3.99835875 C10.4351797,3.2764963 9.83719561,2.67851218 9.11533315,2.67851218 L2.57789671,2.67851218 L2.57789671,5.31820533 Z M14.4359647,9.93766836 C14.4359647,12.4741771 12.3737044,14.5364374 9.83719561,14.5364374 L0,14.5364374 L0,0.100615467 L9.09478191,0.100615467 C11.2393899,0.100615467 12.9923825,1.85346535 12.9923825,3.99835875 C12.9923825,4.78201766 12.7654625,5.5037374 12.3737044,6.10186424 C13.6110606,6.92676835 14.4359647,8.32896263 14.4359647,9.93766836 L14.4359647,9.93766836 Z" id="Fill-1" fill="#FFFFFE" mask="url(#mask-2)"></path>
                            </g>
                            <path d="M34.542931,25.218803 L34.542931,32.4367139 C34.542931,36.4169476 31.3051111,39.6546249 27.3248774,39.6546249 C23.3447864,39.6546249 20.1069664,36.4169476 20.1069664,32.4367139 L20.1069664,25.218803 L22.6848631,25.218803 L22.6848631,32.4367139 C22.6848631,34.9939167 24.7676746,37.0768709 27.3248774,37.0768709 C29.8822228,37.0768709 31.9650343,34.9939167 31.9650343,32.4367139 L31.9650343,25.218803 L34.542931,25.218803" id="Fill-4" fill="#FFFFFE"></path>
                            <path d="M51.8036928,29.2195879 L51.8036928,29.1370975 C51.8036928,28.415235 51.2057087,27.8172509 50.4838462,27.8172509 L44.627027,27.8172509 C43.9053073,27.8172509 43.3071804,28.415235 43.3071804,29.1370975 L43.3071804,29.2195879 C43.3071804,29.9414504 43.9053073,30.5394345 44.627027,30.5394345 L49.8239229,30.5394345 C51.1644635,30.5394345 52.3605744,31.1168674 53.1854785,32.0244046 C53.247275,32.0860583 53.2885202,32.1479975 53.3503167,32.209794 C53.9896887,32.9935956 54.3815895,34.0041745 54.3815895,35.0971011 C54.3815895,37.6130586 52.3398805,39.6546249 49.8239229,39.6546249 L45.3075016,39.6546249 C42.791544,39.6546249 40.749835,37.6130586 40.749835,35.0971011 L43.3278744,35.0971011 C43.3278744,36.1900277 44.214575,37.0768709 45.3075016,37.0768709 L49.8239229,37.0768709 C50.9169922,37.0768709 51.8243868,36.1900277 51.8243868,35.0971011 C51.8243868,34.0041745 50.9169922,33.1173312 49.8239229,33.1173312 L44.627027,33.1173312 C43.5752029,33.1173312 42.6267059,32.7048791 41.9255374,32.0244046 C41.7398626,31.8387298 41.5748818,31.6323611 41.4304522,31.4055838 C40.9974489,30.7869057 40.749835,30.0239408 40.749835,29.1990367 L40.749835,29.1165462 C40.749835,26.9716528 42.4822763,25.218803 44.627027,25.218803 L50.4838462,25.218803 C52.6285969,25.218803 54.3815895,26.9716528 54.3815895,29.1165462 L54.3815895,29.1990367 L51.8036928,29.2195879" id="Fill-5" fill="#FFFFFE"></path>
                            <polygon id="Fill-6" fill="#FFFFFE" points="60.5680849 39.6546249 63.1459816 39.6546249 63.1459816 25.218803 60.5680849 25.218803"></polygon>
                            <polyline id="Fill-7" fill="#FFFFFE" points="83.7684417 25.2394969 83.7684417 39.6753189 81.190545 37.695549 71.9103737 30.5394345 71.9103737 39.6753189 69.332477 39.6753189 69.332477 25.2807421 71.9103737 27.260512 81.190545 34.4164838 81.190545 25.218803 83.7684417 25.2394969"></polyline>
                            <path d="M92.5326911,29.1165462 L92.5326911,30.4569441 L101.812862,30.4569441 L101.812862,33.0348408 L92.5326911,33.0348408 L92.5326911,35.7570244 C92.5326911,36.4787441 93.1308179,37.0768709 93.8525377,37.0768709 L104.390759,37.0768709 L104.390759,39.6546249 L93.8525377,39.6546249 C91.707787,39.6546249 89.9753456,37.901775 89.9753456,35.7570244 L89.9753456,29.1165462 C89.9753456,26.9716528 91.707787,25.218803 93.8525377,25.218803 L104.390759,25.218803 L104.390759,27.7966997 L93.8525377,27.7966997 C93.1308179,27.7966997 92.5326911,28.3946838 92.5326911,29.1165462" id="Fill-8" fill="#FFFFFE"></path>
                            <path d="M121.651664,29.2195879 L121.651664,29.1370975 C121.651664,28.415235 121.053679,27.8172509 120.331817,27.8172509 L114.474998,27.8172509 C113.753278,27.8172509 113.155151,28.415235 113.155151,29.1370975 L113.155151,29.2195879 C113.155151,29.9414504 113.753278,30.5394345 114.474998,30.5394345 L119.671894,30.5394345 C121.012434,30.5394345 122.208545,31.1168674 123.033449,32.0244046 C123.095246,32.0860583 123.136491,32.1479975 123.198287,32.209794 C123.837659,32.9935956 124.22956,34.0041745 124.22956,35.0971011 C124.22956,37.6130586 122.187851,39.6546249 119.671894,39.6546249 L115.155472,39.6546249 C112.639515,39.6546249 110.597806,37.6130586 110.597806,35.0971011 L113.175845,35.0971011 C113.175845,36.1900277 114.062546,37.0768709 115.155472,37.0768709 L119.671894,37.0768709 C120.764963,37.0768709 121.672358,36.1900277 121.672358,35.0971011 C121.672358,34.0041745 120.764963,33.1173312 119.671894,33.1173312 L114.474998,33.1173312 C113.423174,33.1173312 112.474677,32.7048791 111.773508,32.0244046 C111.587833,31.8387298 111.422853,31.6323611 111.278423,31.4055838 C110.84542,30.7869057 110.597806,30.0239408 110.597806,29.1990367 L110.597806,29.1165462 C110.597806,26.9716528 112.330247,25.218803 114.474998,25.218803 L120.331817,25.218803 C122.476568,25.218803 124.22956,26.9716528 124.22956,29.1165462 L124.22956,29.1990367 L121.651664,29.2195879" id="Fill-9" fill="#FFFFFE"></path>
                            <path d="M141.490465,29.2195879 L141.490465,29.1370975 C141.490465,28.415235 140.892481,27.8172509 140.170618,27.8172509 L134.313799,27.8172509 C133.592079,27.8172509 132.993952,28.415235 132.993952,29.1370975 L132.993952,29.2195879 C132.993952,29.9414504 133.592079,30.5394345 134.313799,30.5394345 L139.510695,30.5394345 C140.851235,30.5394345 142.047346,31.1168674 142.872536,32.0244046 C142.933904,32.0860583 142.975292,32.1479975 143.03666,32.209794 C143.676032,32.9935956 144.068504,34.0041745 144.068504,35.0971011 C144.068504,37.6130586 142.026652,39.6546249 139.510695,39.6546249 L134.994273,39.6546249 C132.478316,39.6546249 130.436607,37.6130586 130.436607,35.0971011 L133.014646,35.0971011 C133.014646,36.1900277 133.901204,37.0768709 134.994273,37.0768709 L139.510695,37.0768709 C140.603621,37.0768709 141.511159,36.1900277 141.511159,35.0971011 C141.511159,34.0041745 140.603621,33.1173312 139.510695,33.1173312 L134.313799,33.1173312 C133.261975,33.1173312 132.313478,32.7048791 131.612167,32.0244046 C131.426635,31.8387298 131.261511,31.6323611 131.117224,31.4055838 C130.684221,30.7869057 130.436607,30.0239408 130.436607,29.1990367 L130.436607,29.1165462 C130.436607,26.9716528 132.169048,25.218803 134.313799,25.218803 L140.170618,25.218803 C142.315369,25.218803 144.068504,26.9716528 144.068504,29.1165462 L144.068504,29.1990367 L141.490465,29.2195879" id="Fill-10" fill="#FFFFFE"></path>
                            <path d="M47.9436268,2.23294978 C47.9215057,2.23009544 47.8993845,2.22852556 47.877977,2.2272411 C47.8678441,2.22624208 47.8587102,2.22624208 47.8488627,2.22624208 C47.8373026,2.22624208 47.8264562,2.22567122 47.8144679,2.22624208 C47.8016234,2.22624208 47.7883507,2.2272411 47.7770761,2.22795469 C47.7699402,2.22938186 47.7618054,2.22938186 47.7545268,2.23009544 C47.4309874,2.26648827 47.149835,2.51510124 47.0563554,2.87446258 C45.8075818,7.70015164 43.3180269,11.3572741 40.2881456,12.6328784 C43.0567122,12.2623852 45.4910356,10.4407457 47.1309963,7.76694318 C46.5649808,9.83905093 45.6289002,11.6803853 44.4247971,13.1536527 C43.0775488,13.7564892 41.6408171,14.0830256 40.1478548,14.0830256 C36.9562751,14.0830256 34.0161627,12.5920614 31.6716082,10.0896619 C31.5859781,9.99775221 31.4756578,9.94708768 31.362626,9.93724021 C31.3407903,9.93624119 31.3166711,9.93438587 31.2924092,9.93681206 C31.2894122,9.93681206 31.2855588,9.93724021 31.2815628,9.93724021 C31.2570154,9.94066542 31.2327535,9.94480421 31.2097761,9.95051289 C31.2073499,9.95179734 31.2052092,9.95179734 31.2029257,9.95279636 C31.1789492,9.95964678 31.1535456,9.96878066 31.1279993,9.98048345 C31.1270003,9.98048345 31.1270003,9.98048345 31.1258585,9.98205334 C31.1004549,9.99475515 31.0764785,10.0091696 31.0523593,10.0264383 C31.0189635,10.0512711 30.988993,10.0805281 30.9625903,10.1124967 C32.9727589,13.5220052 36.2391223,15.8929623 40.007564,16.3727767 C39.1399875,16.6784765 38.2274552,16.8428865 37.2836678,16.8428865 C36.1489252,16.8428865 35.0559986,16.6044064 34.0334315,16.1671216 C34.5726162,16.7302828 35.1517617,17.2071002 35.7610204,17.5864419 C35.7631612,17.5877263 35.7644456,17.5885826 35.7657301,17.5898671 C35.8086879,17.6154134 35.8522166,17.6421015 35.8954598,17.6682187 C35.9023102,17.6726429 35.9094461,17.6762109 35.9160111,17.6790652 C35.9562572,17.703898 35.9966462,17.7274463 36.0378914,17.750281 C36.0475961,17.7555615 36.0575863,17.7611275 36.0667202,17.7669789 C36.1065382,17.788101 36.1447864,17.8100794 36.1840335,17.8312015 C36.195879,17.8370529 36.2068683,17.8427616 36.2171439,17.8483275 C36.2568192,17.8687361 36.2944965,17.8900009 36.3331728,17.9084114 C36.3460173,17.9146909 36.3587191,17.9202569 36.3712782,17.9271073 C36.4093836,17.9460887 36.4472036,17.9644992 36.4840246,17.9824815 C36.4978682,17.9889038 36.5107127,17.9944697 36.5241281,18.0013201 C36.5620908,18.0193025 36.5991972,18.0357149 36.6373026,18.0529837 C36.650718,18.0589778 36.6631344,18.0635447 36.6756935,18.0696816 C36.7149407,18.0869503 36.7540451,18.1049327 36.7931496,18.1197752 C36.8034252,18.1241994 36.8129872,18.1289091 36.8239765,18.132477 C37.0009455,18.2052627 37.1814825,18.2703416 37.3620194,18.3267148 C37.3798591,18.3322808 37.3976987,18.3369905 37.4149674,18.3426991 C37.4456516,18.3526893 37.4780483,18.3611096 37.5097315,18.3703862 C37.5321381,18.3772366 37.5544019,18.3839443 37.5779502,18.3887967 C37.6064936,18.3979306 37.6367496,18.404781 37.6674338,18.4129159 C37.6914102,18.4184818 37.7163857,18.425475 37.741932,18.4311837 C37.7699046,18.4387477 37.7974489,18.4450272 37.8262778,18.4507359 C37.8526804,18.4582999 37.8797966,18.4644367 37.9067701,18.4704308 C37.9337436,18.4755686 37.9610026,18.480421 37.9882615,18.4871287 C38.0163768,18.4922665 38.0450629,18.4978325 38.07275,18.5023994 C38.0998662,18.50768 38.1261261,18.5123896 38.1536705,18.5175274 C38.182642,18.5225225 38.2117563,18.5260904 38.240157,18.5308001 C38.2664169,18.5359379 38.2926768,18.5392204 38.3182232,18.5427883 C38.3479083,18.5467844 38.379306,18.5507805 38.4088485,18.5553474 C38.4353938,18.5576309 38.459513,18.561627 38.4853448,18.5640532 C38.5163143,18.5680492 38.5479975,18.5713317 38.5789671,18.5736152 C38.604228,18.5760414 38.6286326,18.5781821 38.6527518,18.5804656 C38.6858621,18.5836054 38.7191152,18.585318 38.7522255,18.587316 C38.7754884,18.5897422 38.7983231,18.5915975 38.8211578,18.5933101 C38.8595487,18.5955936 38.8959415,18.5965926 38.9341896,18.5978771 C38.9526001,18.5988761 38.9722951,18.6001606 38.9907056,18.6013023 C39.046936,18.6025867 39.1031665,18.6035858 39.1606815,18.6035858 C42.5377932,18.6035858 45.5023102,15.7441085 47.1832308,11.4389082 L47.1838016,11.4376238 C48.0399608,9.2426367 48.5620194,6.66930693 48.6348051,3.90873249 C48.6352333,3.86563197 48.6359468,3.82353046 48.6366604,3.78114352 C48.6406565,3.60417447 48.6432254,3.42877531 48.6432254,3.25266256 L48.6432254,3.11436982 C48.6406565,2.66966372 48.3422353,2.2944608 47.9436268,2.23294978" id="Fill-11" fill="#731A35"></path>
                            <path d="M30.9625903,10.1124967 C30.988993,10.0805281 31.0189635,10.0511284 31.0523593,10.0264383 C31.2464544,9.88443493 31.5046294,9.91098029 31.6716082,10.0896619 C34.0161627,12.5920614 36.9562751,14.0830256 40.1478548,14.0830256 C42.7154759,14.0830256 45.1211132,13.1179734 47.1838016,11.4376238 C46.4632236,13.2823834 45.5070199,14.8611185 44.3842655,16.0639372 C43.4331995,16.325252 42.4420301,16.4636874 41.4224601,16.4636874 C37.0618856,16.4636874 33.2199447,13.9420212 30.9625903,10.1124967" id="Fill-12" fill="#FBD13E"></path>
                            <g id="Group-16" transform="translate(30.826866, 0.000000)">
                                <mask id="mask-4" fill="white">
                                    <use xlink:href="#path-3"></use>
                                </mask>
                                <g id="Clip-14"></g>
                                <path d="M17.8163589,3.25251985 L17.8163589,3.10437963 C17.8163589,3.10537865 17.8153599,3.10637766 17.8153599,3.10880385 L17.8153599,3.10195344 C17.8109357,2.88345375 17.7362947,2.68250825 17.61313,2.5282312 C17.6114174,2.5265186 17.6097048,2.52494871 17.6084203,2.52280796 C17.5780216,2.48598698 17.5466239,2.45130675 17.5106592,2.42033717 C17.5015253,2.41163143 17.4891089,2.4054946 17.4795469,2.39750245 C17.4510035,2.37452502 17.4234591,2.35197574 17.3936313,2.33370797 C17.3699402,2.31915083 17.3453929,2.30987423 17.3212737,2.29902774 C17.3011507,2.2894657 17.282312,2.27790563 17.2609045,2.27034163 C17.2143787,2.25307287 17.1672821,2.24108465 17.116903,2.23294978 C17.0725181,2.22709839 17.0279904,2.2255285 16.9844617,2.22709839 C16.9673357,2.22709839 16.9510659,2.22952457 16.9339399,2.23195076 C16.9178129,2.23294978 16.9005441,2.23294978 16.8845598,2.23537597 L16.8845598,2.23865846 C16.5798591,2.29089287 16.3189724,2.53122826 16.2294889,2.87431986 C14.9807154,7.70029435 12.0942646,11.1757381 9.46142182,12.6330211 C12.2285612,12.2623852 14.6616002,10.4413166 16.3017037,7.76865578 C15.550727,10.5206672 14.1451075,12.8652217 12.3291767,14.481206 C11.3344394,14.845277 10.2829007,15.041941 9.19682455,15.041941 C5.73080011,15.041941 2.62756222,13.0606012 0.548175899,9.93895281 C0.438141111,9.92582285 0.323539381,9.95408081 0.225350103,10.026581 C0.191954331,10.0511284 0.1622692,10.0803853 0.135581126,10.1126394 C2.14489341,13.5201499 5.4086879,15.8916778 9.17613059,16.3723486 C8.30841138,16.6773348 7.39816252,16.8428865 6.45694407,16.8428865 C5.32191598,16.8428865 4.22898939,16.6042637 3.2067077,16.1669789 C3.32345018,16.2888592 3.44290429,16.4056016 3.5623584,16.5187762 C3.5623584,16.5187762 3.56064579,16.5176345 3.55950406,16.5176345 C3.58719115,16.543609 3.61573455,16.5681563 3.64342164,16.5935599 C3.69965213,16.6453662 3.75474088,16.696887 3.81182767,16.7469806 C3.84051378,16.7726697 3.8709125,16.7969316 3.89974133,16.8221925 C3.96410668,16.8779948 4.0290429,16.9330836 4.09512086,16.986317 C4.10311301,16.992882 4.10996343,16.9978771 4.11767015,17.0042993 C4.36414236,17.2032468 4.61689412,17.3836411 4.87506913,17.5474802 C4.8991883,17.5630363 4.92145215,17.5784497 4.94557131,17.5927214 C5.00979395,17.6336812 5.07544376,17.6703595 5.13980912,17.7081795 C5.1766301,17.7290161 5.21245206,17.7509946 5.24927304,17.7715458 C5.30892873,17.8049416 5.36972616,17.8359112 5.43052359,17.8674516 C5.47248238,17.8900009 5.51458389,17.9125502 5.55768442,17.9335296 C5.61491392,17.9615021 5.67299973,17.988761 5.73165641,18.015021 C5.77818214,18.0371421 5.82385157,18.0589778 5.87080546,18.0783873 C5.92703595,18.1036482 5.98326643,18.1260548 6.04035322,18.1484613 C6.0897333,18.1680136 6.13911337,18.1887075 6.18920703,18.207118 C6.24429578,18.2279547 6.29952725,18.2472215 6.35447329,18.2669164 C6.40770672,18.2840425 6.45994113,18.3020248 6.51331728,18.3184372 C6.56683614,18.3352779 6.62021229,18.351833 6.67415931,18.366961 C6.72910534,18.383088 6.78619213,18.397217 6.84242262,18.4117742 C6.89422888,18.4253323 6.94589243,18.4386049 6.9969851,18.4505932 C7.05692623,18.4645794 7.1171528,18.4758541 7.17752208,18.4876996 C7.22718758,18.4978325 7.27628222,18.5082508 7.32623316,18.516243 C7.39074124,18.5270895 7.45567746,18.5359379 7.52004282,18.5450718 C7.56599768,18.5519222 7.6123807,18.5589154 7.65847828,18.5639104 C7.73283382,18.572188 7.8057622,18.5778967 7.87968959,18.5834627 C7.91779502,18.5857461 7.95632861,18.5910267 7.99457675,18.5933101 C8.10746588,18.6001606 8.21992686,18.603443 8.33367229,18.603443 C10.2640621,18.603443 12.0585853,17.6673624 13.5561145,16.0642226 L13.5572563,16.0637945 C13.5595397,16.0600838 13.5629649,16.0569441 13.5666756,16.0532334 C13.6734279,15.9393453 13.7761841,15.8208902 13.8803675,15.7004371 C13.898778,15.6786014 13.9183302,15.6567657 13.936598,15.6356436 C14.0353581,15.5170458 14.1341183,15.39488 14.2303095,15.2695745 C14.2515743,15.2430292 14.2719829,15.2177683 14.2928196,15.1902239 C14.3871555,15.0672019 14.4792079,14.9403265 14.5696905,14.8108822 C14.5916689,14.7797699 14.6135046,14.7500847 14.6353403,14.7189724 C14.7238248,14.5912407 14.8107395,14.4603693 14.8963696,14.3270716 C14.9193471,14.2919633 14.9424672,14.2568549 14.9645884,14.2224601 C15.0480778,14.0903042 15.1289983,13.954723 15.2087771,13.8178575 C15.2317545,13.7790384 15.2554455,13.7397913 15.2789938,13.7006868 C15.3566319,13.5641067 15.4331282,13.4255285 15.5077692,13.2846668 C15.5308893,13.2419945 15.5541522,13.1990367 15.5767015,13.156507 C15.6494871,13.0157881 15.7214165,12.8720721 15.7914905,12.7267862 C15.8134689,12.6814022 15.8364463,12.6351619 15.858282,12.5906342 C15.9270716,12.4433503 15.9948622,12.2952101 16.0612256,12.1445009 C16.0743555,12.1141022 16.0880564,12.085987 16.1017572,12.0555883 L16.0996164,12.0578717 C17.0475426,9.87002052 17.6512354,7.26400856 17.7855321,4.44477745 C17.7861029,4.43963964 17.7878155,4.43564356 17.7889573,4.43179021 C17.7935242,4.34016591 17.7952368,4.24768531 17.7989475,4.15591829 C17.8006601,4.09269467 17.8028008,4.02932834 17.8045134,3.96496298 C17.8115066,3.72890911 17.8163589,3.49157078 17.8163589,3.25251985" id="Fill-13" fill="#FFFFFE" mask="url(#mask-4)"></path>
                                <path d="M3.20042815,0.638943894 C3.20042815,0.638943894 13.7704754,1.27617519 9.29387209,12.4600482 C9.29387209,12.4600482 25.7995183,-3.28234769 3.20042815,0.638943894" id="Fill-15" fill="#FFFFFE" mask="url(#mask-4)"></path>
                            </g>
                            <path d="M51.4050843,14.2294532 L53.4659174,14.2294532 L53.4659174,11.4457586 L56.0299706,11.4457586 C56.6660601,11.4457586 57.1247525,11.7079297 57.1247525,12.7754527 C57.1247525,13.5720988 57.135599,13.8765141 57.328695,14.2294532 L59.5790563,14.2294532 C59.2181251,13.8476853 59.1867273,12.9558469 59.1867273,12.5812149 C59.1867273,11.835376 59.0485773,10.6907858 58.1448934,10.5516368 L58.1448934,10.5332263 C59.0056195,10.2245295 59.3789671,9.62768709 59.3789671,8.70473642 C59.3789671,7.92664348 59.0263134,6.64176255 56.9220944,6.64176255 L51.4050843,6.64176255 L51.4050843,14.2294532 Z M53.4659174,8.08748551 L56.0933369,8.08748551 C56.5942735,8.08748551 57.1874052,8.27672821 57.1874052,9.03227188 C57.1874052,9.74471501 56.6564981,9.99946481 56.2002319,9.99946481 L53.4659174,9.99946481 L53.4659174,8.08748551 L53.4659174,8.08748551 Z" id="Fill-17" fill="#FFFFFE"></path>
                            <path d="M66.236375,14.2294532 L68.45962,14.2294532 L65.12147,6.64176255 L62.6339131,6.64176255 L59.2969048,14.2294532 L61.5190081,14.2294532 L62.1349746,12.6662742 L65.6225493,12.6662742 L66.236375,14.2294532 Z M65.0680938,11.2890554 L62.6877174,11.2890554 L63.8775488,8.27672821 L65.0680938,11.2890554 L65.0680938,11.2890554 Z" id="Fill-18" fill="#FFFFFE"></path>
                            <polyline id="Fill-19" fill="#FFFFFE" points="70.8053162 9.90627063 70.8053162 6.64176255 68.7424851 6.64176255 68.7424851 14.2294532 70.8053162 14.2294532 70.8053162 11.9743823 72.007564 10.9458211 74.5900277 14.2294532 77.3737222 14.2294532 73.6222638 9.69133886 77.1092677 6.64176255 74.3342788 6.64176255 70.8053162 9.90627063"></polyline>
                            <path d="M80.4445634,8.02083668 L83.0241727,8.02083668 C83.8790474,8.02083668 84.0888413,8.36221568 84.0888413,8.83917581 C84.0888413,9.40362144 83.7911337,9.6613683 83.3150299,9.6613683 L80.4445634,9.6613683 L80.4445634,8.02083668 Z M78.3794488,14.2293105 L83.7911337,14.2293105 C86.0877353,14.2293105 86.5541343,12.9478548 86.5541343,11.9329944 C86.5541343,11.1160824 86.0877353,10.2435108 85.2060298,10.0930871 L85.2060298,10.0746767 C85.9203282,9.85275176 86.2151815,9.14087949 86.2151815,8.55545446 C86.2151815,7.14855053 85.1841941,6.64176255 84.0775667,6.64176255 L78.3794488,6.64176255 L78.3794488,14.2293105 Z M80.4445634,10.9775042 L83.2695032,10.9775042 C83.9923646,10.9775042 84.3659977,11.2957631 84.3659977,11.8934618 C84.3659977,12.3704219 84.122808,12.7840157 83.4832932,12.7840157 L80.4445634,12.7840157 L80.4445634,10.9775042 L80.4445634,10.9775042 Z" id="Fill-20" fill="#FFFFFE"></path>
                            <path d="M92.9258764,14.2294532 L95.1475515,14.2294532 L91.8099723,6.64176255 L89.324699,6.64176255 L85.9865489,14.2294532 L88.2033717,14.2294532 L88.8231915,12.6662742 L92.3104808,12.6662742 L92.9258764,14.2294532 Z M91.7568816,11.2890554 L89.3763625,11.2890554 L90.5676211,8.27672821 L91.7568816,11.2890554 L91.7568816,11.2890554 Z" id="Fill-21" fill="#FFFFFE"></path>
                            <polyline id="Fill-22" fill="#FFFFFE" points="101.833128 11.9331371 101.811721 11.9331371 97.8236375 6.64176255 95.4319864 6.64176255 95.4319864 14.2294532 97.4323076 14.2294532 97.4323076 8.93807867 97.4518598 8.93807867 101.588654 14.2294532 103.828169 14.2294532 103.828169 6.64176255 101.833128 6.64176255 101.833128 11.9331371"></polyline>
                            <polyline id="Fill-23" fill="#FFFFFE" points="106.533512 9.90627063 106.533512 6.64176255 104.472821 6.64176255 104.472821 14.2294532 106.533512 14.2294532 106.533512 11.9743823 107.73633 10.9458211 110.320649 14.2294532 113.105771 14.2294532 109.353028 9.69133886 112.837606 6.64176255 110.066613 6.64176255 106.533512 9.90627063"></polyline>
                        </g>
                    </g>
                    <g id="RAKislamic" transform="translate(166.666667, 4.504505)" fill="#FFFFFF">
                        <g id="Group">
                            <path d="M4.84936023,5.12305784 L10.8566719,5.12305784 C12.0029268,5.12305784 13.3597184,5.55582757 13.3597184,7.28222788 C13.3597184,8.91271706 12.1456239,9.49520172 11.102298,9.49520172 L4.85169953,9.49520172 L4.85169953,5.12305784 L4.84936023,5.12305784 Z M0.135679157,19.1705292 L4.85169953,19.1705292 L4.85169953,12.8006267 L10.7139748,12.8006267 C12.1713561,12.8006267 13.2193607,13.4018257 13.2193607,15.8417113 C13.2193607,17.6640227 13.2450929,18.3611329 13.6848805,19.1681899 L18.8336706,19.1681899 C18.0078992,18.2979719 17.935381,16.2534273 17.935381,15.3972451 C17.935381,13.6918984 17.6219154,11.0742264 15.5563172,10.7560822 L15.5563172,10.7139748 C17.523665,10.0075075 18.3775079,8.64135875 18.3775079,6.53365322 C18.3775079,4.7534491 17.5681116,1.81529355 12.7585194,1.81529355 L0.138018453,1.81529355 L0.138018453,19.1705292 L0.135679157,19.1705292 Z" id="Shape"></path>
                            <path d="M31.3839927,12.4450537 L25.9427906,12.4450537 L28.6610524,5.55582757 L31.3839927,12.4450537 L31.3839927,12.4450537 Z M34.0554685,19.1705292 L39.1410976,19.1705292 L31.5079754,1.81763285 L25.8211472,1.81763285 L18.188025,19.1705292 L23.2689755,19.1705292 L24.6795709,15.5960852 L32.6542303,15.5960852 L34.0554685,19.1705292 L34.0554685,19.1705292 Z" id="Shape"></path>
                            <polygon id="Path" fill-rule="nonzero" points="44.5074422 9.27998651 44.5074422 1.81529355 39.7890826 1.81529355 39.7890826 19.1705292 44.5074422 19.1705292 44.5074422 14.0123819 47.2561148 11.6590504 53.1628367 19.1705292 59.5280607 19.1705292 50.9522022 8.79107368 58.9245223 1.81529355 52.5780128 1.81529355"></polygon>
                            <g transform="translate(61.289550, 0.000000)" fill-rule="nonzero">
                                <path d="M0.189482961,1.60709623 C0.215215215,0.853842973 0.540377334,0.556752405 1.26789833,0.556752405 C2.10302694,0.556752405 2.37204596,0.853842973 2.37204596,1.68897158 C2.37204596,2.49602864 2.04922314,2.82119076 1.26789833,2.82119076 C0.48657353,2.82119076 0.189482961,2.52410019 0.189482961,1.74277538 C0.189482961,1.68663228 0.189482961,1.63282848 0.189482961,1.60709623 Z M0.45850198,18.8453671 L0.45850198,6.13129434 C0.45850198,5.94181138 0.619913392,5.78039997 0.809396353,5.78039997 L1.72640031,5.78039997 C1.94161553,5.78039997 2.10302694,5.94181138 2.10302694,6.13129434 L2.10302694,18.8453671 C2.10302694,19.0348501 1.94161553,19.1962615 1.72640031,19.1962615 L0.809396353,19.1962615 C0.619913392,19.1962615 0.45850198,19.0348501 0.45850198,18.8453671 Z" id="Shape"></path>
                                <path d="M9.40396919,13.6474518 L7.54656831,12.3818928 C5.84823954,11.2777451 5.33827306,10.5221526 5.33827306,9.12325369 C5.33827306,6.91495844 6.84711886,5.56752405 9.27062932,5.56752405 C10.8870827,5.56752405 12.4497323,6.18743744 12.4497323,6.83308308 L12.4497323,7.31731732 C12.4497323,7.47872873 12.3421247,7.61440789 12.2064456,7.61440789 C12.098838,7.61440789 11.9912304,7.56060408 11.7760151,7.45299647 L11.5865322,7.34538887 C10.723332,6.91495844 9.94434652,6.69740393 9.21682552,6.69740393 C7.70797972,6.69740393 6.7114397,7.50680028 6.7114397,8.79809157 C6.7114397,9.68702398 6.95472647,10.0098468 8.24835705,10.8987792 L10.5385277,12.4333573 C12.2368564,13.5632372 12.7210907,14.3469012 12.7210907,15.799604 C12.7210907,17.9821669 11.078905,19.4372089 8.59925143,19.4372089 C7.60271141,19.4372089 6.28100927,19.1143861 5.55582757,18.7377595 L5.42014841,18.6558841 C5.12305784,18.4944727 5.09732559,18.4406689 5.09732559,18.1435784 L5.09732559,17.6593441 C5.09732559,17.4698612 5.17920094,17.3622536 5.34061235,17.3622536 C5.44821996,17.3622536 5.58389912,17.4160574 5.74531053,17.4979327 C6.74185055,18.0640423 7.46937155,18.2792575 8.38403621,18.2792575 C10.0542934,18.2792575 11.078905,17.4183967 11.078905,16.0171585 C11.0718871,15.0206184 10.723332,14.5363842 9.40396919,13.6474518 Z" id="Path"></path>
                                <path d="M15.7341037,18.8453671 L15.7341037,0.446805501 C15.7341037,0.25732254 15.8955151,0.0959111285 16.084998,0.0959111285 L17.002002,0.0959111285 C17.2172172,0.0959111285 17.3786286,0.25732254 17.3786286,0.446805501 L17.3786286,18.8453671 C17.3786286,19.0348501 17.2172172,19.1962615 17.002002,19.1962615 L16.084998,19.1962615 C15.8955151,19.1962615 15.7341037,19.0348501 15.7341037,18.8453671 Z" id="Path"></path>
                                <path d="M29.8236824,19.1962615 L29.203769,19.1962615 C28.93475,19.1962615 28.7990708,19.0886539 28.7990708,18.8453671 L28.7990708,18.6839557 C28.7990708,18.5763481 28.745267,18.4944727 28.5838556,18.4944727 C28.5043195,18.4944727 28.3943726,18.5482765 28.0458176,18.6839557 C26.5907756,19.2500653 25.7837185,19.4114767 24.7871785,19.4114767 C22.0408452,19.4114767 20.3425164,18.0921139 20.3425164,15.8838186 C20.3425164,14.0264177 21.4466641,12.9480024 24.3567481,11.8976585 L27.6691909,10.7116355 C28.3686404,10.4683488 28.5323911,10.2274013 28.5323911,9.52561257 L28.5323911,9.04137833 C28.5323911,7.42492492 27.6177264,6.67167167 25.6761109,6.67167167 C24.2491404,6.67167167 23.091189,7.02256604 21.7718262,7.8296231 C21.6642186,7.91149845 21.5285394,7.96296296 21.4490034,7.96296296 C21.2875919,7.96296296 21.1799843,7.80155155 21.1799843,7.58633634 L21.1799843,7.0482983 C21.1799843,6.77927928 21.3156635,6.61786787 21.7741655,6.42838491 C23.0677961,5.89034687 24.6281064,5.56518475 25.8960047,5.56518475 C27.5943335,5.56518475 28.5370697,5.83420377 29.2903229,6.58979632 C29.9640401,7.26351351 30.1792553,7.88342691 30.1792553,9.20278975 L30.1792553,18.8453671 C30.1722375,19.0348501 30.010826,19.1962615 29.8236824,19.1962615 Z M28.5300518,11.6824433 L25.5123602,12.7070549 C22.8993668,13.6240588 21.9847021,14.4311159 21.9847021,15.9118902 C21.9847021,17.3388606 23.1683858,18.2815968 24.9205183,18.2815968 C27.2364212,18.2815968 28.5300518,17.689755 28.5300518,16.6113396 L28.5300518,11.6824433 L28.5300518,11.6824433 Z" id="Shape"></path>
                                <path d="M33.7303064,18.8453671 L33.7303064,6.13129434 C33.7303064,5.94181138 33.8917178,5.78039997 34.0812008,5.78039997 L34.7806502,5.78039997 C35.0215977,5.78039997 35.0777408,5.86227532 35.0777408,6.10322279 L35.0777408,6.2646342 C35.0777408,6.40031336 35.1572768,6.47984941 35.3210275,6.47984941 C35.4567067,6.47984941 35.5362428,6.45177786 35.9128694,6.2646342 C36.7760695,5.80613222 37.9597532,5.56518475 39.0919724,5.56518475 C40.6265505,5.56518475 41.5692867,5.88800757 42.5120229,6.83074379 C42.7272381,7.02022675 42.8348457,7.09976281 42.9424533,7.09976281 C43.1576685,7.09976281 43.2114723,7.07403055 43.5623667,6.83074379 C44.8279258,5.94181138 46.0420203,5.56518475 47.4689907,5.56518475 C48.9778365,5.56518475 50.1100557,5.96988293 50.9709166,6.85881534 C51.9674566,7.85535536 52.2645472,8.85189537 52.2645472,11.0882622 L52.2645472,18.8453671 C52.2645472,19.0348501 52.1312073,19.1962615 51.9136528,19.1962615 L50.9966488,19.1962615 C50.8071659,19.1962615 50.6480937,19.0348501 50.6480937,18.8453671 L50.6480937,10.6554924 C50.6480937,7.96062367 49.4363385,6.69506463 46.8490773,6.69506463 C44.9636049,6.69506463 43.8313857,7.42258563 43.8313857,8.63434086 L43.8313857,18.8430278 C43.8313857,19.0325108 43.6699743,19.1939222 43.4547591,19.1939222 L42.5400944,19.1939222 C42.3506115,19.1939222 42.1892001,19.0325108 42.1892001,18.8430278 L42.1892001,10.7888323 C42.1892001,8.52673325 41.5973582,7.44831788 40.1142447,6.9360121 C39.6042782,6.77460069 39.0919724,6.69272533 38.5258628,6.69272533 C36.3971036,6.69272533 35.3724921,7.28690647 35.3724921,8.49866171 L35.3724921,18.8430278 C35.3724921,19.0325108 35.2110806,19.1939222 34.9958654,19.1939222 L34.0812008,19.1939222 C33.8917178,19.1962615 33.7303064,19.0348501 33.7303064,18.8453671 Z" id="Path"></path>
                                <path d="M55.5512578,1.60709623 C55.57699,0.853842973 55.9021522,0.556752405 56.6296732,0.556752405 C57.4648018,0.556752405 57.7338208,0.853842973 57.7338208,1.68897158 C57.7338208,2.49602864 57.410998,2.82119076 56.6296732,2.82119076 C55.8483483,2.82119076 55.5512578,2.52410019 55.5512578,1.74277538 C55.5512578,1.68663228 55.5512578,1.63282848 55.5512578,1.60709623 Z M55.8202768,18.8453671 L55.8202768,6.13129434 C55.8202768,5.94181138 55.9816882,5.78039997 56.1711712,5.78039997 L57.0858358,5.78039997 C57.3010511,5.78039997 57.4624625,5.94181138 57.4624625,6.13129434 L57.4624625,18.8453671 C57.4624625,19.0348501 57.3010511,19.1962615 57.0858358,19.1962615 L56.1711712,19.1962615 C55.9816882,19.1962615 55.8202768,19.0348501 55.8202768,18.8453671 Z" id="Shape"></path>
                                <path d="M71.0678069,17.6616834 L71.0678069,18.227793 C71.0678069,18.9015102 69.2361383,19.4395482 66.9997715,19.4395482 C62.9060038,19.4395482 60.4263503,16.8803586 60.4263503,12.676644 C60.4263503,8.31385734 62.9855399,5.5394525 66.9717,5.5394525 C69.2080668,5.5394525 71.0654676,6.15936589 71.0654676,6.91261914 L71.0654676,7.37112112 C71.0654676,7.58633634 70.95786,7.72201549 70.7683771,7.72201549 C70.688841,7.72201549 70.6326979,7.69628324 70.3636789,7.56060408 C69.0981199,6.91495844 68.2349197,6.69740393 67.1050398,6.69740393 C64.0078122,6.69740393 62.0685359,8.93377073 62.0685359,12.5713757 C62.0685359,16.1528376 63.9820799,18.2815968 67.240719,18.2815968 C68.3986704,18.2815968 69.5846934,17.9868455 70.5531619,17.4745398 C70.6607695,17.420736 70.7683771,17.3669321 70.8221809,17.3669321 C70.9859316,17.3645929 71.0678069,17.4722005 71.0678069,17.6616834 Z" id="Path"></path>
                            </g>
                        </g>
                        <g id="Group" transform="translate(0.467859, 26.200113)" fill-rule="nonzero">
                            <path d="M6.05175828,7.12783436 L6.05175828,7.98869522 L3.67503373,7.98869522 L3.54871176,7.47171084 L3.22822823,7.83898028 L0.0163750707,7.35708535 L0.451484093,6.06111546 L0.577806067,5.76402489 C0.612895504,5.7055425 0.727520999,5.62600644 0.921682552,5.52307743 L2.92879836,4.4212691 L2.86095878,4.08908909 L3.50426513,3.51596161 L4.21541106,7.13017365 L6.05175828,7.13017365 L6.05175828,7.12783436 Z M3.03172738,4.94761065 L1.13923706,5.99093659 C1.01291509,6.07047265 0.909986073,6.2669735 0.807057057,6.5991535 L3.45747922,7.00151238 L3.03172738,4.94761065 Z M4.13353571,2.76738695 L3.61655133,3.22588893 L3.16974583,2.76738695 L2.62001132,3.22588893 L2.02349088,2.60597554 L2.5732254,2.16852722 L2.99897724,2.60597554 L3.54871176,2.16852722 L4.13353571,2.76738695 Z" id="Shape"></path>
                            <path d="M10.2835444,7.12783436 L10.2835444,7.98869522 L8.03314184,7.98869522 L7.9419093,7.64481873 L7.60972929,7.98869522 L4.98270009,7.98869522 L4.98270009,7.12783436 L7.79453366,7.12783436 L7.41556774,5.89970405 L7.97699874,5.3710232 L8.49398311,7.12549506 L10.2835444,7.12549506 L10.2835444,7.12783436 Z M6.89858337,9.6191844 L7.42726422,9.16068242 L7.86237324,9.6191844 L8.42380424,9.16068242 L9.02032467,9.78059581 L8.46825086,10.2157048 L8.04483832,9.78059581 L7.48340732,10.2157048 L6.89858337,9.6191844 Z" id="Shape"></path>
                            <path d="M9.21448623,7.12783436 L11.5444249,7.12783436 L12.7959481,5.49968447 L13.4158615,4.68560952 C13.736345,4.31834008 14.0123819,4.13353571 14.2416329,4.13353571 C14.5972059,4.13353571 14.9878683,4.43296557 15.4019237,5.02948601 C15.8136397,5.61430996 16.0218371,6.19913392 16.0218371,6.77460069 C16.0218371,6.96876224 15.9306045,7.25649563 15.7341037,7.62376507 C15.5516386,7.99103451 15.3551377,8.334911 15.1609762,8.65539452 L12.1315881,7.33603168 L11.6847826,7.99103451 L9.21682552,7.99103451 L9.21682552,7.12783436 L9.21448623,7.12783436 Z M15.1843692,7.72435479 C15.2756017,7.40387126 15.3223876,7.11613788 15.3223876,6.87519041 C15.3223876,6.35820603 15.1609762,5.88800757 14.8404927,5.46459503 C14.5761522,5.12071854 14.3352048,4.94761065 14.1293467,4.94761065 C14.0030248,4.94761065 13.8767028,5.00375375 13.7620773,5.13007573 L13.4626474,5.45055925 L12.6251795,6.61084998 L15.1843692,7.72435479 Z" id="Shape"></path>
                            <path d="M23.7882992,7.12783436 L23.7882992,7.98869522 L22.1250598,7.98869522 C21.722701,7.98869522 21.470057,7.8857662 21.367128,7.68926535 C21.2875919,7.5512469 21.240806,7.36878183 21.240806,7.12783436 L21.240806,6.2108304 L20.4384276,7.30094225 C20.1623907,7.67990817 19.8980502,7.89746268 19.6571028,7.96764155 C19.4161553,8.02378465 18.9576533,8.07057057 18.2558646,8.08226705 L17.2335923,8.10566001 C17.2335923,8.10566001 17.1657527,8.10566001 17.0160378,8.10566001 C16.8780193,8.10566001 16.6838578,8.09396353 16.4312138,8.07057057 C18.0944531,7.75944423 19.3459764,7.30094225 20.1834443,6.69272533 L20.1273012,6.4868673 L19.8395678,5.51138095 C19.4839949,4.28325064 18.8640815,3.19313879 18.0032206,2.21765244 C17.9236846,2.43520695 17.7973626,2.54983244 17.6476476,2.54983244 C17.5564151,2.54983244 17.4651826,2.47029638 17.3716107,2.30888497 C17.1540562,1.91822257 17.0394307,1.64218566 17.0394307,1.47141707 C17.0394307,1.35679157 17.1306633,1.14859425 17.3154676,0.851503678 C17.4651826,0.610556208 17.5915045,0.495930713 17.6944336,0.495930713 C17.8675415,0.495930713 18.1529355,0.77196762 18.5319015,1.33339862 C18.8196349,1.74745398 19.0488858,2.10302694 19.207958,2.41181399 C19.4372089,2.88201245 19.6664599,3.49022936 19.9074074,4.21307177 C20.1483549,4.97100361 20.3425164,5.71723898 20.4805349,6.44008139 L21.0653588,5.82016799 C21.1565914,5.72893546 21.2033773,5.65875658 21.2033773,5.61430996 C21.2150738,5.51138095 21.2384667,5.258737 21.2384667,5.15580798 L21.2384667,0.933379031 L21.9496127,0.152054228 L21.9613091,6.88922618 C21.9613091,7.05063759 22.1320777,7.13017365 22.48999,7.13017365 L23.7882992,7.13017365 L23.7882992,7.12783436 Z" id="Path"></path>
                            <polygon id="Path" points="27.4703508 7.12783436 27.4703508 7.98869522 22.719241 7.98869522 22.719241 7.12783436"></polygon>
                            <polygon id="Path" points="31.8869413 7.98869522 31.4962789 7.98869522 31.323171 7.59803282 31.0143839 7.98869522 26.5159181 7.98869522 26.5159181 7.12783436 31.117313 7.12783436 30.2681486 5.24704052 30.7149541 4.63882361 31.884602 7.12783436 31.884602 7.98869522"></polygon>
                            <path d="M31.7021369,7.12783436 L33.9735932,7.12783436 L33.1361253,5.24704052 L33.5829308,4.63882361 L34.7525787,7.12783436 L35.9924054,7.12783436 L36.0274949,6.71611829 C36.0274949,6.26931279 35.8660835,5.77572137 35.5339035,5.21195108 L35.9924054,4.59203769 C36.4041215,5.01778953 36.6123188,5.51138095 36.6123188,6.07281194 C36.6123188,6.29036645 36.5889259,6.47517082 36.5444793,6.63424294 C36.4181573,7.05765548 36.3035318,7.40387126 36.2006028,7.66821169 C36.1421204,7.79453366 36.1093702,7.90915916 36.0742808,7.98869522 L34.3525591,7.98869522 L34.1911477,7.59803282 L33.8823606,7.98869522 L31.75828,7.98869522 L31.7021369,7.12783436 Z" id="Path"></path>
                            <path d="M38.7480959,10.7420464 C38.1749684,10.8449754 37.7141272,11.1093158 37.3585542,11.5327284 C37.4287331,11.2005484 37.5644122,10.9362079 37.784306,10.7420464 C37.4170366,10.6742068 37.2322322,10.4660095 37.2322322,10.1338295 C37.2322322,9.82270314 37.3585542,9.54900553 37.6111982,9.30805806 C37.8638421,9.07880707 38.1515755,8.96418157 38.472059,8.96418157 C38.6334704,8.96418157 38.7130065,9.01096749 38.7130065,9.11389651 C38.7130065,9.1723789 38.677917,9.29636158 38.598381,9.50455891 L38.4369696,9.48116595 C38.0580037,9.48116595 37.7702703,9.66597032 37.5644122,10.0332398 C37.8053597,10.2390978 38.0813966,10.3443661 38.3901837,10.3443661 C38.5515951,10.3443661 38.7457566,10.3092767 38.9867041,10.2297406 L38.7480959,10.7420464 Z" id="Path"></path>
                            <path d="M42.3973974,6.01432955 C42.6032554,6.35820603 42.7085237,6.61084998 42.7085237,6.77226139 C42.7085237,6.86349393 42.6851308,6.95472647 42.6500413,7.05999478 L42.5938982,7.20970971 L42.3295578,7.99103451 L38.3714693,7.99103451 L38.4065587,7.8296231 L38.6241132,6.64827871 L39.1855442,6.1546873 C39.6089568,5.77572137 39.9879227,5.39675545 40.3317992,5.00609305 C40.4581212,4.8680746 40.6078361,4.68560952 40.8019976,4.44466205 L40.7224616,4.34173304 C39.8966902,3.28671062 39.2650803,2.62001132 38.8393285,2.34631371 C38.7714889,2.58726117 38.6545241,2.71358315 38.495452,2.71358315 C38.392523,2.71358315 38.3012904,2.65510075 38.1960221,2.55217174 C37.8872351,2.20829525 37.7258236,1.93225835 37.7258236,1.71470383 C37.7258236,1.45036341 37.8521456,1.16496932 38.0930931,0.842146494 C38.1515755,0.762610437 38.2194151,0.727520999 38.2872546,0.727520999 C38.4135766,0.727520999 38.6194347,0.865539452 38.8837751,1.14157636 C39.468599,1.74979327 39.9855834,2.36970666 40.4323889,2.98962005 C40.5587109,3.16272795 40.741176,3.43642556 40.9938199,3.81539148 L41.0967489,3.98849937 C41.279214,3.75924838 41.508465,3.39197894 41.7845019,2.87499456 C42.0956282,2.30186708 42.3131827,1.85272229 42.4278082,1.52054228 L42.3693258,1.46439918 C42.2430039,1.33807721 42.1868608,1.23514819 42.1868608,1.14391565 C42.1868608,1.05268312 42.2663968,0.926361144 42.4278082,0.764949732 L43.0126322,0.180125778 L42.9892392,0.341537189 C42.9892392,0.51464508 43.1038647,0.708806633 43.3214192,0.902968186 L43.8945467,1.40825608 L43.3214192,2.15449145 L43.0687753,1.96968708 C42.5985768,2.87733386 42.0581995,3.70310528 41.4265896,4.44934064 L42.3973974,6.01432955 Z M41.0780346,4.87977108 L40.9283196,5.06223615 C40.7341581,5.30318362 40.4464247,5.60027419 40.0908517,5.93479349 L39.0475258,6.91027985 L39.0007399,7.12783436 L42.1915394,7.12783436 L42.2149323,7.05999478 L42.2617182,6.83074379 C42.2617182,6.75120773 42.2055751,6.62488576 42.1003068,6.45177786 L41.0780346,4.87977108 Z" id="Shape"></path>
                            <path d="M45.8151086,0.18480437 L46.0443596,1.47141707 L45.8151086,1.75915045 L45.8385015,2.00009792 L45.9414306,3.19313879 C45.9414306,3.34285372 45.953127,3.63994429 45.9648235,4.10078557 L45.9882165,4.87041389 C45.9882165,5.66109588 45.9414306,6.25995561 45.850198,6.67167167 C45.723876,7.23310267 45.4946251,7.84131958 45.1390521,8.47292945 L45.1624451,8.2787679 C45.2653741,7.39451408 45.31216,6.58043913 45.288767,5.84590025 L45.2326239,3.75690908 L45.1975345,2.35801018 C45.1624451,2.12875919 45.0946055,1.76148975 44.9682835,1.25620185 L45.8151086,0.18480437 Z" id="Path"></path>
                            <path d="M56.6811377,7.12783436 L56.6811377,7.98869522 L54.3067524,7.98869522 L54.1804304,7.47171084 L53.8599469,7.83898028 L50.6457545,7.35708535 L51.0808635,6.06111546 L51.2071854,5.76402489 C51.2422749,5.7055425 51.3569004,5.62600644 51.5510619,5.52307743 L53.5581777,4.4212691 L53.4903382,4.08908909 L54.1336445,3.51596161 L54.8447904,7.13017365 L56.6811377,7.13017365 L56.6811377,7.12783436 Z M53.6634461,4.94761065 L51.7709557,5.99093659 C51.6446338,6.07047265 51.5417047,6.2669735 51.4387757,6.5991535 L54.0891979,7.00151238 L53.6634461,4.94761065 Z M54.7652544,2.76738695 L54.24827,3.22588893 L53.8014645,2.76738695 L53.25173,3.22588893 L52.6552096,2.60597554 L53.2049441,2.16852722 L53.6306959,2.60597554 L54.1804304,2.16852722 L54.7652544,2.76738695 Z" id="Shape"></path>
                            <polygon id="Path" points="60.3631893 7.12783436 60.3631893 7.98869522 55.6120795 7.98869522 55.6120795 7.12783436"></polygon>
                            <path d="M64.7119402,7.12783436 L64.7119402,7.98869522 L62.4638769,7.98869522 L62.3726444,7.64481873 L62.0404644,7.98869522 L59.4110959,7.98869522 L59.4110959,7.12783436 L62.2229295,7.12783436 L61.8439635,5.89970405 L62.4077338,5.3710232 L62.9247182,7.12549506 L64.7119402,7.12549506 L64.7119402,7.12783436 Z M61.3269792,9.6191844 L61.85566,9.16068242 L62.290769,9.6191844 L62.8522,9.16068242 L63.4487205,9.78059581 L62.8989859,10.2157048 L62.4755734,9.78059581 L61.9141424,10.2157048 L61.3269792,9.6191844 Z" id="Shape"></path>
                            <path d="M68.4875637,6.30206293 L68.1202942,6.78395787 L67.2594333,6.78395787 C66.8477173,6.78395787 66.5599839,6.73717195 66.3985725,6.63424294 C66.1342321,6.47283153 66.0079101,6.19913392 66.0079101,5.82016799 C66.0079101,5.29148714 66.2137681,4.7534491 66.63952,4.20137529 C67.0067894,3.71948035 67.3272729,3.47853288 67.6150063,3.47853288 C67.8559538,3.47853288 68.1202942,3.63994429 68.3846346,3.94873134 C68.5904927,4.20137529 68.7519041,4.46571572 68.8665296,4.75110981 C69.004548,5.09498629 69.0723876,5.45055925 69.0723876,5.82952518 C69.0723876,6.10556208 69.0372982,6.39095617 68.9694586,6.69038604 C68.9343692,6.87519041 68.8782261,7.06935196 68.8080472,7.26351351 L68.7285111,7.45767507 C68.672368,7.59569352 68.6255821,7.73371197 68.5787962,7.88342691 L68.5437068,7.98635592 L63.642882,7.98635592 L63.642882,7.12549506 L68.4173848,7.12549506 L68.4407777,7.03426252 L68.4758672,6.74652914 L68.4992601,6.43540279 L68.4875637,6.30206293 Z M68.4992601,5.92309701 C68.4992601,5.56752405 68.4314206,5.24704052 68.3050986,4.94761065 C68.1319907,4.55694825 67.9027397,4.3627867 67.5939526,4.3627867 C67.2500762,4.3627867 66.9623428,4.60373417 66.7213953,5.08562911 C66.6418593,5.24704052 66.6067698,5.38505897 66.6067698,5.51138095 C66.6067698,5.78741785 66.8477173,5.92309701 67.3296122,5.92309701 L68.4992601,5.92309701 Z M67.9939722,1.87143665 L67.4535949,2.30654568 L66.8570745,1.71002524 L67.3974518,1.2281303 L67.9939722,1.87143665 Z" id="Shape"></path>
                            <path d="M71.250272,5.57922052 C71.3882905,5.72893546 71.502916,5.89970405 71.5941485,6.08450842 L73.8773012,6.08450842 L73.8773012,5.13241502 L74.6001436,4.50080515 L74.6001436,6.79565435 C74.6001436,7.01320886 74.7030726,7.12783436 74.91127,7.12783436 L76.4154372,7.12783436 L76.4154372,7.98869522 L74.5206076,7.98869522 C74.097195,7.98869522 73.8773012,7.70096183 73.8773012,7.12783436 L73.8773012,6.50792096 L73.5451212,6.92197632 L71.8935784,6.92197632 L71.9052748,6.96876224 L71.8935784,6.94536928 C71.9403643,7.14187013 71.9614179,7.33603168 71.9614179,7.51849676 C71.9614179,8.17349959 71.7438634,8.84955608 71.3181116,9.54900553 C71.1450037,9.82504243 70.9391457,10.0870436 70.6981982,10.3396875 C70.3660182,10.683564 70.1016778,10.8566719 69.8841233,10.8566719 C69.5963899,10.8566719 69.1261914,10.5010989 68.4735279,9.80164948 C68.7940114,9.96306089 69.1168342,10.0425969 69.4256213,10.0425969 C70.2981786,10.0425969 71.021021,9.33145102 71.582452,7.91851634 C71.502916,7.60739 71.3976476,7.32199591 71.273665,7.05765548 C71.12395,6.73717195 70.941485,6.44943857 70.7239305,6.18509814 L71.250272,5.57922052 Z" id="Path"></path>
                            <path d="M76.0224355,7.12783436 L76.1487575,7.11613788 L79.9009879,4.73941333 C80.3711864,4.46337642 80.7384558,4.32769726 81.0144928,4.32769726 C81.3256191,4.32769726 81.6811921,4.51016234 82.0695152,4.87743178 C82.2987662,5.09498629 82.5046242,5.35932672 82.701125,5.66811377 C82.9186795,6.02368673 83.033305,6.33481307 83.033305,6.59681421 C83.033305,6.74652914 82.9982156,6.91729773 82.9186795,7.12549506 L84.9047417,7.12549506 L84.9047417,7.98635592 L76.0224355,7.98635592 L76.0224355,7.12783436 Z M82.5069635,7.12783436 L82.4391239,6.81904731 C82.2566588,5.99327588 81.8426035,5.42014841 81.1992971,5.09732559 C81.0051356,5.00609305 80.8320277,4.95930713 80.6823127,4.95930713 C80.5793837,4.95930713 80.4179723,5.00609305 80.2004178,5.09732559 L80.0062563,5.21195108 L78.8693585,5.91140053 L76.9651717,7.12783436 L82.5069635,7.12783436 Z" id="Shape"></path>
                            <path d="M87.1995909,1.85974017 L87.5434674,6.61084998 C87.5434674,6.78161858 87.5785568,6.91963703 87.6346999,7.01320886 C87.6697894,7.06935196 87.7610219,7.13953084 87.9224333,7.24245985 L88.0721482,7.33369239 L89.0242416,7.86237324 L88.6101863,8.52673325 L86.9703399,7.60972929 L86.6592136,7.98869522 L83.8356835,7.98869522 L83.8356835,7.12783436 L86.9118575,7.12783436 L86.4182661,1.58604256 C86.2007116,1.50650651 86.0977826,1.42463115 86.0977826,1.33339862 C86.0977826,1.27725552 86.132872,1.18368368 86.1890151,1.06905819 L86.6592136,0.208197328 C86.6592136,0.425751839 86.7621426,0.58716325 86.9586434,0.690092266 L87.2112874,0.81641424 L87.8545937,1.1158441 L87.4639313,1.95331201 L87.1995909,1.85974017 Z" id="Path"></path>
                            <path d="M90.9284284,0.18480437 L91.1576794,1.47141707 L90.9284284,1.75915045 L90.9518214,2.00009792 L91.0547504,3.19313879 C91.0547504,3.34285372 91.0664469,3.63994429 91.0781434,4.10078557 L91.1015363,4.87041389 C91.1015363,5.66109588 91.0547504,6.25995561 90.9635179,6.67167167 C90.8371959,7.23310267 90.6079449,7.84131958 90.2523719,8.47292945 L90.2757649,8.2787679 C90.3786939,7.39451408 90.4254798,6.58043913 90.4020869,5.84590025 L90.3436045,3.75690908 L90.308515,2.35801018 C90.2734256,2.12875919 90.205586,1.76148975 90.079264,1.25620185 L90.9284284,0.18480437 Z" id="Path"></path>
                            <path d="M102.470514,7.98869522 L97.2609022,7.98869522 C96.7439178,7.98869522 96.3766484,7.78283719 96.1357009,7.3804783 C95.985986,7.12783436 95.9181464,6.82840449 95.9181464,6.49622449 C95.9181464,5.86461461 96.0912543,5.29148714 96.4468273,4.77450276 C96.3322018,5.11837925 96.2737194,5.47395221 96.2737194,5.82952518 C96.2737194,6.51727815 96.4912739,6.93133351 96.9287222,7.05765548 C97.0784371,7.1044414 97.2398485,7.12549506 97.4340101,7.12549506 L102.379281,7.12549506 C102.414371,6.94069069 102.426067,6.79331505 102.426067,6.67868956 C102.426067,6.2646342 102.264656,5.77104278 101.932476,5.20961179 L102.379281,4.58969839 C102.793337,5.00375375 102.999195,5.49734517 102.999195,6.07047265 C102.999195,6.33481307 102.872873,6.82840449 102.631925,7.57463986 L102.470514,7.98869522 Z M100.301987,4.62712713 L99.7850024,5.08562911 L99.3381969,4.62712713 L98.7884624,5.08562911 L98.1919419,4.46571572 L98.7416765,4.03060669 L99.165089,4.46571572 L99.7148235,4.03060669 L100.301987,4.62712713 Z" id="Shape"></path>
                            <path d="M107.036819,7.12783436 L107.036819,7.98869522 L105.120936,7.98869522 C104.798113,7.98869522 104.603952,7.93255212 104.536112,7.80623014 C104.489326,7.72669409 104.468273,7.50680028 104.468273,7.12783436 L104.468273,0.931039735 L105.202812,0.18480437 L105.202812,6.79565435 C105.202812,7.01320886 105.305741,7.12783436 105.499902,7.12783436 L107.036819,7.12783436 L107.036819,7.12783436 Z" id="Path"></path>
                            <polygon id="Path" points="110.718871 7.12783436 110.718871 7.98869522 105.967761 7.98869522 105.967761 7.12783436"></polygon>
                            <path d="M109.766778,7.12783436 L112.096716,7.12783436 L113.34824,5.49968447 L113.968153,4.68560952 C114.288636,4.31834008 114.564673,4.13353571 114.793924,4.13353571 C115.149497,4.13353571 115.54016,4.43296557 115.951876,5.02948601 C116.365931,5.61430996 116.571789,6.19913392 116.571789,6.77460069 C116.571789,6.96876224 116.480557,7.25649563 116.284056,7.62376507 C116.101591,7.99103451 115.90509,8.334911 115.710928,8.65539452 L112.68154,7.33603168 L112.234735,7.99103451 L109.766778,7.99103451 L109.766778,7.12783436 Z M115.734321,7.72435479 C115.825554,7.40387126 115.87234,7.11613788 115.87234,6.87519041 C115.87234,6.35820603 115.710928,5.88800757 115.390445,5.46459503 C115.126104,5.12071854 114.885157,4.94761065 114.679299,4.94761065 C114.552977,4.94761065 114.426655,5.00375375 114.312029,5.13007573 L114.0126,5.45055925 L113.175132,6.61084998 L115.734321,7.72435479 Z" id="Shape"></path>
                            <path d="M123.535873,7.12783436 L123.535873,7.98869522 L121.402435,7.98869522 L121.217631,7.62142577 L120.918201,7.98869522 L118.106367,7.98869522 C117.888813,7.98869522 117.727401,7.96530226 117.624472,7.92085564 C117.463061,7.84131958 117.383525,7.71499761 117.383525,7.51849676 C117.383525,7.32199591 117.463061,7.07169126 117.636169,6.76056491 C117.694651,6.9336728 117.809277,7.0482983 117.980045,7.09274492 C118.059581,7.11613788 118.232689,7.12783436 118.49703,7.12783436 L120.918201,7.12783436 L119.472516,4.60373417 L119.886571,3.93703486 L121.711222,7.12783436 L123.535873,7.12783436 L123.535873,7.12783436 Z" id="Path"></path>
                            <path d="M127.573497,1.85974017 L127.746605,4.69496671 C127.746605,4.93591418 127.655373,5.14177221 127.470568,5.30318362 C127.849534,5.49734517 128.249554,5.68214954 128.675306,5.83186447 C129.248433,6.03772251 129.742025,6.17574096 130.144384,6.23422335 L129.765418,6.84244027 C129.477684,6.78629717 129.19229,6.75120773 128.904557,6.75120773 C127.99691,6.75120773 127.253014,7.03894112 126.665851,7.62376507 L126.471689,7.81792662 L126.321974,7.93021282 C126.230742,7.97699874 126.219045,7.98635592 125.989794,7.98635592 L122.466815,7.98635592 L122.466815,7.12549506 L126.392153,7.12549506 C126.703279,6.84945815 127.035459,6.63190364 127.391032,6.47049223 C127.505658,6.41434913 127.655373,6.36756322 127.837838,6.30908082 L127.59689,6.18275885 L125.863472,5.26575489 C125.610828,5.13943291 125.381577,5.07159333 125.187416,5.07159333 C125.084487,5.07159333 124.958165,5.09498629 124.80845,5.15112939 L124.682128,5.19791531 C125.199112,4.70432389 125.566382,4.45167994 125.783936,4.45167994 L126.024884,4.48676938 C126.380457,4.54525177 126.6331,4.56630544 126.759422,4.55460896 L127.058852,4.54291248 L126.852994,1.58136397 L126.773458,1.54627454 C126.60035,1.46673848 126.509118,1.38486312 126.509118,1.30532707 C126.509118,1.23748749 126.565261,1.09946903 126.682226,0.891271706 L127.061192,0.203518736 C127.107978,0.444466205 127.245996,0.617574096 127.463551,0.732199591 L127.76298,0.881914523 L128.256572,1.11116551 L127.844856,1.94863342 L127.573497,1.85974017 Z M125.816686,2.90540541 L125.276309,3.35221091 L124.691485,2.74399399 L125.220166,2.26209906 L125.816686,2.90540541 Z" id="Shape"></path>
                            <path d="M132.057927,0.18480437 L132.287178,1.47141707 L132.057927,1.75915045 L132.08132,2.00009792 L132.184249,3.19313879 C132.184249,3.34285372 132.195946,3.63994429 132.207642,4.10078557 L132.231035,4.87041389 C132.231035,5.66109588 132.184249,6.25995561 132.093017,6.67167167 C131.966695,7.23310267 131.737444,7.84131958 131.381871,8.47292945 L131.405264,8.2787679 C131.508193,7.39451408 131.554979,6.58043913 131.531586,5.84590025 L131.473104,3.75690908 L131.438014,2.35801018 C131.402925,2.12875919 131.335085,1.76148975 131.208763,1.25620185 L132.057927,0.18480437 Z" id="Path"></path>
                        </g>
                    </g>
                    <rect id="Rectangle" fill="#FFFFFF" x="154.954955" y="4.5045045" width="1" height="36.036036"></rect>
                </g>
            </g>
        </g>
    </g>
</svg>