<?xml version="1.0" encoding="UTF-8"?>
<svg version="1.1" width="40px" height="44px" viewBox="0 0 40 44" xmlns="http://www.w3.org/2000/svg">
    <g fill="none" fill-rule="evenodd">
        <g transform="translate(-42 -34)" fill="#fff">
            <g transform="translate(42 34)">
                <path id="Mask" d="m1.159 23.682c1.126 1.7584 4.3562 5.2172 6.2758 6.7244 1.6613 1.314 4.8915 3.0917 6.7373 3.7294 2.3627 0.81157 4.1347 1.0821 6.9219 1.0628 2.658-0.019323 4.2454-0.27052 6.3681-0.96616 1.1649-0.38897 2.8708-2.1292 4.5378-4.4401-0.47678 0.60385-0.80386 0.8278-1.5106 1.1551-4.3008 1.9516-10.392 2.3961-15.117 1.1205-4.8915-1.3331-8.86-3.7485-13.327-8.1348-1.0571-1.0417-1.6441-1.5024-2.045-1.5337 0.29017 0.06879 0.64254 0.47728 1.159 1.2825"/>
                <path id="a" d="m34.958 5.6066c-0.86053-2.9795-3.4063-4.6387-8.2467-5.3523-2.3485-0.33898-7.4938-0.33898-11.043 0-2.4983 0.25019-6.2497 0.77446-7.2352 0.99629-0.073221 0.016482-0.20716 0.049953-0.26497 0.065552-0.038546 0.010399-0.094411 0.027399-0.1676 0.051 0.19968 0.043111 0.3772 0.082449 0.53258 0.11801 5.4321 1.0171 8.7846 2.605 11.653 5.4596 1.2729 1.2667 1.6852 1.8376 2.3844 3.2292 1.2908 2.6226 1.5956 3.9964 1.5956 7.297 0 3.2292-0.3227 5.0847-1.5776 8.9206l-0.78882 2.4085 1.739-1.7841c0.95017-0.98126 2.3485-2.5158 3.1015-3.3898 6.5077-7.7252 9.4658-14.112 8.3184-18.02z"/>
                <path d="m38.193 4.8c-1.0522 0-1.5257 0.59554-2.122 2.6168-1.6485 5.7028-4.2616 10.954-7.4358 14.961-1.5257 1.913-4.4895 4.7643-6.0679 5.8471-0.52126 0.35367-1.12 0.76117-1.7963 1.2225 1.0007-0.25696 1.8976-0.50203 2.6907-0.73522 4.3843-1.2994 8.4003-4.2771 11.575-8.6263 0.71903-0.97452 1.2978-1.6964 1.2978-1.5881 0 0.12182-0.1552 0.63145-0.38249 1.3001-0.066291 0.20483-0.13802 0.4232-0.21378 0.64896-0.30497 0.88718-0.62468 1.7282-0.96437 2.537-0.10189 0.25338-0.19712 0.48347-0.28077 0.67531-0.21343 0.47806-0.44527 0.95864-0.69027 1.4371-0.68045 1.3539-1.4433 2.6386-2.3261 3.9226-0.22185 0.31419-0.40178 0.56035-0.564 0.76211-1.5838 2.1582-3.2046 3.7835-4.3114 4.1468-2.0168 0.64968-3.525 0.88429-6.0504 0.90234-2.6481 0.018047-4.3317-0.23461-6.5765-0.99257-1.7537-0.59554-4.8227-2.2558-6.4011-3.483-1.8239-1.4076-4.8929-4.638-5.9627-6.2803-0.49069-0.75201-0.82548-1.1335-1.1012-1.1978-0.18449-0.014257-0.32812 0.064246-0.45965 0.22324-0.54365 0.66773 3.5425 5.9554 6.6466 8.6261 3.5951 3.0862 7.2429 4.9628 11.732 5.9917l1.8239 0.41489-1.5608 0.41525c-3.1392 0.8121-6.9448 0.68577-10.154-0.36093l-1.5784-0.52335 1.1224 1.1007c2.0694 2.0034 4.928 3.6276 7.4533 4.2231 1.631 0.3788 5.2962 0.23461 6.8571-0.28875 8.7511-2.8694 15.31-13.661 17.187-28.297 0.31567-2.4724 0.52612-7.1284 0.36828-8.0127-0.17537-0.95648-0.85933-1.5881-1.7537-1.5881z"/>
            </g>
        </g>
    </g>
</svg>
