<?xml version="1.0" encoding="UTF-8"?>
<svg width="160px" height="60px" viewBox="0 0 160 60" version="1.1" xmlns="http://www.w3.org/2000/svg" xmlns:xlink="http://www.w3.org/1999/xlink">
    <defs>
        <polygon id="path-1" points="0.0095049505 0.111683168 16.0239208 0.111683168 16.0239208 16.1354455 0.0095049505 16.1354455"></polygon>
        <polygon id="path-3" points="0.15049505 0.0128316832 19.7761584 0.0128316832 19.7761584 20.6498218 0.15049505 20.6498218"></polygon>
    </defs>
    <g id="Final-Journey-screens" stroke="none" stroke-width="1" fill="none" fill-rule="evenodd">
        <g id="1.-RAKBANK-accounts-1/3" transform="translate(-40.000000, -29.000000)">
            <g id="Logo-/-Business" transform="translate(40.000000, 29.000000)">
                <g>
                    <g id="Group-3" transform="translate(0.000000, 27.881188)">
                        <mask id="mask-2" fill="white">
                            <use xlink:href="#path-1"></use>
                        </mask>
                        <g id="Clip-2"></g>
                        <path d="M10.9192871,13.2511683 C12.1552475,13.2511683 13.1624554,12.2439604 13.1624554,11.0078416 C13.1624554,9.77188119 12.1552475,8.76451485 10.9192871,8.76451485 L2.86146535,8.76451485 L2.86146535,13.2741386 L10.9192871,13.2741386 L10.9192871,13.2511683 Z M2.86146535,5.90320792 L10.1180198,5.90320792 C10.9192871,5.90320792 11.5830495,5.23928713 11.5830495,4.43817822 C11.5830495,3.63691089 10.9192871,2.97314851 10.1180198,2.97314851 L2.86146535,2.97314851 L2.86146535,5.90320792 Z M16.0239208,11.0308119 C16.0239208,13.8463366 13.7348119,16.1354455 10.9192871,16.1354455 L0,16.1354455 L0,0.111683168 L10.0952079,0.111683168 C12.4757228,0.111683168 14.4215446,2.05734653 14.4215446,4.43817822 C14.4215446,5.3080396 14.1696634,6.10914851 13.7348119,6.77306931 C15.1082772,7.68871287 16.0239208,9.24514851 16.0239208,11.0308119 L16.0239208,11.0308119 Z" id="Fill-1" fill="#FFFFFE" mask="url(#mask-2)"></path>
                    </g>
                    <path d="M38.3426535,27.9928713 L38.3426535,36.0047525 C38.3426535,40.4228119 34.7486733,44.0166337 30.3306139,44.0166337 C25.9127129,44.0166337 22.3187327,40.4228119 22.3187327,36.0047525 L22.3187327,27.9928713 L25.180198,27.9928713 L25.180198,36.0047525 C25.180198,38.8432475 27.4921188,41.1553267 30.3306139,41.1553267 C33.1692673,41.1553267 35.4811881,38.8432475 35.4811881,36.0047525 L35.4811881,27.9928713 L38.3426535,27.9928713" id="Fill-4" fill="#FFFFFE"></path>
                    <path d="M57.502099,32.4337426 L57.502099,32.3421782 C57.502099,31.5409109 56.8383366,30.8771485 56.0370693,30.8771485 L49.536,30.8771485 C48.7348911,30.8771485 48.0709703,31.5409109 48.0709703,32.3421782 L48.0709703,32.4337426 C48.0709703,33.2350099 48.7348911,33.8987723 49.536,33.8987723 L55.3045545,33.8987723 C56.7925545,33.8987723 58.1202376,34.5397228 59.0358812,35.5470891 C59.1044752,35.6155248 59.1502574,35.6842772 59.2188515,35.7528713 C59.9285545,36.6228911 60.3635644,37.7446337 60.3635644,38.9577822 C60.3635644,41.750495 58.0972673,44.0166337 55.3045545,44.0166337 L50.2913267,44.0166337 C47.4986139,44.0166337 45.2323168,41.750495 45.2323168,38.9577822 L48.0939406,38.9577822 C48.0939406,40.1709307 49.0781782,41.1553267 50.2913267,41.1553267 L55.3045545,41.1553267 C56.5178614,41.1553267 57.5250693,40.1709307 57.5250693,38.9577822 C57.5250693,37.7446337 56.5178614,36.7602376 55.3045545,36.7602376 L49.536,36.7602376 C48.3684752,36.7602376 47.3156436,36.3024158 46.5373465,35.5470891 C46.3312475,35.3409901 46.1481188,35.1119208 45.987802,34.860198 C45.5071683,34.1734653 45.2323168,33.3265743 45.2323168,32.4109307 L45.2323168,32.3193663 C45.2323168,29.9385347 47.1553267,27.9928713 49.536,27.9928713 L56.0370693,27.9928713 C58.4177426,27.9928713 60.3635644,29.9385347 60.3635644,32.3193663 L60.3635644,32.4109307 L57.502099,32.4337426" id="Fill-5" fill="#FFFFFE"></path>
                    <polygon id="Fill-6" fill="#FFFFFE" points="67.2305743 44.0166337 70.0920396 44.0166337 70.0920396 27.9928713 67.2305743 27.9928713"></polygon>
                    <polyline id="Fill-7" fill="#FFFFFE" points="92.9829703 28.0158416 92.9829703 44.039604 90.121505 41.8420594 79.8205149 33.8987723 79.8205149 44.039604 76.9590495 44.039604 76.9590495 28.0616238 79.8205149 30.2591683 90.121505 38.202297 90.121505 27.9928713 92.9829703 28.0158416"></polyline>
                    <path d="M102.711287,32.3193663 L102.711287,33.8072079 L113.012277,33.8072079 L113.012277,36.6686733 L102.711287,36.6686733 L102.711287,39.690297 C102.711287,40.4914059 103.375208,41.1553267 104.176317,41.1553267 L115.873743,41.1553267 L115.873743,44.0166337 L104.176317,44.0166337 C101.795644,44.0166337 99.8726337,42.0709703 99.8726337,39.690297 L99.8726337,32.3193663 C99.8726337,29.9385347 101.795644,27.9928713 104.176317,27.9928713 L115.873743,27.9928713 L115.873743,30.8543366 L104.176317,30.8543366 C103.375208,30.8543366 102.711287,31.518099 102.711287,32.3193663" id="Fill-8" fill="#FFFFFE"></path>
                    <path d="M135.033347,32.4337426 L135.033347,32.3421782 C135.033347,31.5409109 134.369584,30.8771485 133.568317,30.8771485 L127.067248,30.8771485 C126.266139,30.8771485 125.602218,31.5409109 125.602218,32.3421782 L125.602218,32.4337426 C125.602218,33.2350099 126.266139,33.8987723 127.067248,33.8987723 L132.835802,33.8987723 C134.323802,33.8987723 135.651485,34.5397228 136.567129,35.5470891 C136.635723,35.6155248 136.681505,35.6842772 136.750099,35.7528713 C137.459802,36.6228911 137.894812,37.7446337 137.894812,38.9577822 C137.894812,41.750495 135.628515,44.0166337 132.835802,44.0166337 L127.822574,44.0166337 C125.029861,44.0166337 122.763564,41.750495 122.763564,38.9577822 L125.625188,38.9577822 C125.625188,40.1709307 126.609426,41.1553267 127.822574,41.1553267 L132.835802,41.1553267 C134.049109,41.1553267 135.056317,40.1709307 135.056317,38.9577822 C135.056317,37.7446337 134.049109,36.7602376 132.835802,36.7602376 L127.067248,36.7602376 C125.899723,36.7602376 124.846891,36.3024158 124.068594,35.5470891 C123.862495,35.3409901 123.679366,35.1119208 123.51905,34.860198 C123.038416,34.1734653 122.763564,33.3265743 122.763564,32.4109307 L122.763564,32.3193663 C122.763564,29.9385347 124.686574,27.9928713 127.067248,27.9928713 L133.568317,27.9928713 C135.94899,27.9928713 137.894812,29.9385347 137.894812,32.3193663 L137.894812,32.4109307 L135.033347,32.4337426" id="Fill-9" fill="#FFFFFE"></path>
                    <path d="M157.054416,32.4337426 L157.054416,32.3421782 C157.054416,31.5409109 156.390653,30.8771485 155.589386,30.8771485 L149.088317,30.8771485 C148.287208,30.8771485 147.623287,31.5409109 147.623287,32.3421782 L147.623287,32.4337426 C147.623287,33.2350099 148.287208,33.8987723 149.088317,33.8987723 L154.856871,33.8987723 C156.344871,33.8987723 157.672554,34.5397228 158.588515,35.5470891 C158.656634,35.6155248 158.702574,35.6842772 158.770693,35.7528713 C159.480396,36.6228911 159.91604,37.7446337 159.91604,38.9577822 C159.91604,41.750495 157.649584,44.0166337 154.856871,44.0166337 L149.843644,44.0166337 C147.050931,44.0166337 144.784634,41.750495 144.784634,38.9577822 L147.646257,38.9577822 C147.646257,40.1709307 148.630337,41.1553267 149.843644,41.1553267 L154.856871,41.1553267 C156.07002,41.1553267 157.077386,40.1709307 157.077386,38.9577822 C157.077386,37.7446337 156.07002,36.7602376 154.856871,36.7602376 L149.088317,36.7602376 C147.920792,36.7602376 146.86796,36.3024158 146.089505,35.5470891 C145.883564,35.3409901 145.700277,35.1119208 145.540119,34.860198 C145.059485,34.1734653 144.784634,33.3265743 144.784634,32.4109307 L144.784634,32.3193663 C144.784634,29.9385347 146.707644,27.9928713 149.088317,27.9928713 L155.589386,27.9928713 C157.970059,27.9928713 159.91604,29.9385347 159.91604,32.3193663 L159.91604,32.4109307 L157.054416,32.4337426" id="Fill-10" fill="#FFFFFE"></path>
                    <path d="M53.2174257,2.47857426 C53.1928713,2.47540594 53.1683168,2.47366337 53.1445545,2.47223762 C53.1333069,2.47112871 53.1231683,2.47112871 53.1122376,2.47112871 C53.0994059,2.47112871 53.0873663,2.47049505 53.0740594,2.47112871 C53.059802,2.47112871 53.0450693,2.47223762 53.0325545,2.4730297 C53.0246337,2.47461386 53.015604,2.47461386 53.0075248,2.47540594 C52.648396,2.51580198 52.3363168,2.79176238 52.2325545,3.19065347 C50.8464158,8.54716832 48.0830099,12.6065743 44.7198416,14.022495 C47.7929505,13.6112475 50.4950495,11.5892277 52.3154059,8.62130693 C51.6871287,10.9213465 50.6480792,12.9652277 49.3115248,14.6005545 C47.8160792,15.269703 46.2213069,15.6321584 44.5641188,15.6321584 C41.0214653,15.6321584 37.7579406,13.9771881 35.1554851,11.1995248 C35.0604356,11.097505 34.9379802,11.0412673 34.8125149,11.0303366 C34.7882772,11.0292277 34.761505,11.0271683 34.7345743,11.0298614 C34.7312475,11.0298614 34.7269703,11.0303366 34.7225347,11.0303366 C34.6952871,11.0341386 34.6683564,11.0387327 34.6428515,11.0450693 C34.6401584,11.046495 34.6377822,11.046495 34.6352475,11.047604 C34.6086337,11.0552079 34.5804356,11.0653465 34.5520792,11.0783366 C34.5509703,11.0783366 34.5509703,11.0783366 34.549703,11.0800792 C34.521505,11.0941782 34.4948911,11.1101782 34.4681188,11.1293465 C34.4310495,11.1569109 34.3977822,11.1893861 34.3684752,11.2248713 C36.5997624,15.0094257 40.2254257,17.6411881 44.408396,18.1737822 C43.4453861,18.5131089 42.4324752,18.695604 41.3848713,18.695604 C40.1253069,18.695604 38.9121584,18.4308911 37.7771089,17.945505 C38.375604,18.5706139 39.0184554,19.0998812 39.6947327,19.5209505 C39.6971089,19.5223762 39.6985347,19.5233267 39.6999604,19.5247525 C39.7476436,19.5531089 39.7959604,19.5827327 39.8439604,19.6117228 C39.8515644,19.6166337 39.8594851,19.6205941 39.8667723,19.6237624 C39.9114455,19.6513267 39.9562772,19.6774653 40.0020594,19.7028119 C40.0128317,19.7086733 40.0239208,19.7148515 40.0340594,19.7213465 C40.0782574,19.7447921 40.1207129,19.7691881 40.1642772,19.7926337 C40.1774257,19.7991287 40.1896238,19.8054653 40.2010297,19.8116436 C40.2450693,19.834297 40.2868911,19.857901 40.3298218,19.8783366 C40.3440792,19.8853069 40.3581782,19.8914851 40.3721188,19.8990891 C40.4144158,19.9201584 40.456396,19.9405941 40.4972673,19.9605545 C40.5126337,19.9676832 40.5268911,19.9738614 40.5417822,19.9814653 C40.5839208,20.0014257 40.6251089,20.0196436 40.6674059,20.0388119 C40.682297,20.0454653 40.6960792,20.0505347 40.7100198,20.0573465 C40.7535842,20.0765149 40.7969901,20.0964752 40.840396,20.1129505 C40.851802,20.1178614 40.8624158,20.1230891 40.8746139,20.1270495 C41.0710495,20.2078416 41.2714455,20.2800792 41.4718416,20.3426535 C41.4916436,20.3488317 41.5114455,20.3540594 41.5306139,20.360396 C41.5646733,20.3714851 41.6006337,20.3808317 41.635802,20.3911287 C41.6606733,20.3987327 41.6853861,20.4061782 41.7115248,20.4115644 C41.7432079,20.421703 41.7767921,20.4293069 41.8108515,20.4383366 C41.8374653,20.4445149 41.8651881,20.4522772 41.8935446,20.4586139 C41.9245941,20.4670099 41.9551683,20.4739802 41.9871683,20.4803168 C42.0164752,20.4887129 42.0465743,20.4955248 42.0765149,20.5021782 C42.1064554,20.5078812 42.1367129,20.5132673 42.1669703,20.5207129 C42.1981782,20.5264158 42.2300198,20.5325941 42.2607525,20.5376634 C42.2908515,20.5435248 42.32,20.5487525 42.3505743,20.5544554 C42.3827327,20.56 42.4150495,20.5639604 42.4465743,20.5691881 C42.4757228,20.5748911 42.5048713,20.5785347 42.5332277,20.582495 C42.5661782,20.5869307 42.6010297,20.5913663 42.6338218,20.5964356 C42.6632871,20.5989703 42.6900594,20.6034059 42.7187327,20.606099 C42.7531089,20.6105347 42.7882772,20.6141782 42.8226535,20.6167129 C42.8506931,20.6194059 42.8777822,20.6217822 42.9045545,20.6243168 C42.9413069,20.627802 42.9782178,20.629703 43.0149703,20.6319208 C43.0407921,20.6346139 43.0661386,20.6366733 43.0914851,20.6385743 C43.134099,20.6411089 43.174495,20.6422178 43.2169505,20.6436436 C43.2373861,20.6447525 43.2592475,20.6461782 43.2796832,20.6474455 C43.342099,20.6488713 43.4045149,20.6499802 43.4683564,20.6499802 C47.2169505,20.6499802 50.5075644,17.4759604 52.3733861,12.6971881 L52.3740198,12.6957624 C53.3243564,10.2593267 53.9038416,7.40293069 53.9846337,4.33869307 C53.9851089,4.29085149 53.985901,4.24411881 53.9866931,4.19706931 C53.9911287,4.00063366 53.9939802,3.80594059 53.9939802,3.61045545 L53.9939802,3.4569505 C53.9911287,2.96332673 53.6598812,2.54685149 53.2174257,2.47857426" id="Fill-11" fill="#731A35"></path>
                    <path d="M34.3684752,11.2248713 C34.3977822,11.1893861 34.4310495,11.1567525 34.4681188,11.1293465 C34.6835644,10.9717228 34.9701386,11.0011881 35.1554851,11.1995248 C37.7579406,13.9771881 41.0214653,15.6321584 44.5641188,15.6321584 C47.4141782,15.6321584 50.0844356,14.5609505 52.3740198,12.6957624 C51.5741782,14.7434455 50.5127921,16.4958416 49.2665347,17.8309703 C48.2108515,18.1210297 47.1106535,18.2746931 45.9789307,18.2746931 C41.1386931,18.2746931 36.8741386,15.4756436 34.3684752,11.2248713" id="Fill-12" fill="#FBD13E"></path>
                    <g id="Group-16" transform="translate(34.217822, 0.000000)">
                        <mask id="mask-4" fill="white">
                            <use xlink:href="#path-3"></use>
                        </mask>
                        <g id="Clip-14"></g>
                        <path d="M19.7761584,3.61029703 L19.7761584,3.44586139 C19.7761584,3.4469703 19.7750495,3.44807921 19.7750495,3.45077228 L19.7750495,3.44316832 C19.7701386,3.20063366 19.6872871,2.97758416 19.5505743,2.80633663 C19.5486733,2.80443564 19.5467723,2.80269307 19.5453465,2.80031683 C19.511604,2.75944554 19.4767525,2.7209505 19.4368317,2.68657426 C19.4266931,2.67691089 19.4129109,2.67009901 19.402297,2.66122772 C19.3706139,2.63572277 19.3400396,2.61069307 19.3069307,2.59041584 C19.2806337,2.57425743 19.2533861,2.5639604 19.2266139,2.55192079 C19.2042772,2.54130693 19.1833663,2.52847525 19.159604,2.52007921 C19.1079604,2.50091089 19.0556832,2.48760396 18.9997624,2.47857426 C18.950495,2.47207921 18.9010693,2.47033663 18.8527525,2.47207921 C18.8337426,2.47207921 18.8156832,2.47477228 18.7966733,2.47746535 C18.7787723,2.47857426 18.759604,2.47857426 18.7418614,2.48126733 L18.7418614,2.48491089 C18.4036436,2.54289109 18.1140594,2.80966337 18.0147327,3.19049505 C16.6285941,8.54732673 13.4246337,12.4050693 10.5021782,14.0226535 C13.573703,13.6112475 16.2743762,11.5898614 18.0948911,8.62320792 C17.2613069,11.6779406 15.7010693,14.280396 13.6853861,16.0741386 C12.5812277,16.4782574 11.4140198,16.6965545 10.2084752,16.6965545 C6.36118812,16.6965545 2.91659406,14.4972673 0.608475248,11.0322376 C0.486336634,11.0176634 0.359128713,11.0490297 0.250138614,11.129505 C0.213069307,11.1567525 0.180118812,11.1892277 0.15049505,11.2250297 C2.38083168,15.0073663 6.00364356,17.6397624 10.185505,18.1733069 C9.22233663,18.5118416 8.2119604,18.695604 7.16720792,18.695604 C5.90732673,18.695604 4.69417822,18.4307327 3.55944554,17.9453465 C3.6890297,18.0806337 3.82162376,18.2102178 3.95421782,18.3358416 C3.95421782,18.3358416 3.95231683,18.3345743 3.9510495,18.3345743 C3.98178218,18.3634059 4.01346535,18.3906535 4.04419802,18.4188515 C4.10661386,18.4763564 4.16776238,18.5335446 4.23112871,18.5891485 C4.2629703,18.6176634 4.29671287,18.6445941 4.32871287,18.6726337 C4.40015842,18.7345743 4.47223762,18.7957228 4.54558416,18.8548119 C4.55445545,18.862099 4.56205941,18.8676436 4.57061386,18.8747723 C4.84419802,19.095604 5.12475248,19.2958416 5.41132673,19.477703 C5.43809901,19.4949703 5.46281188,19.5120792 5.48958416,19.5279208 C5.56087129,19.5733861 5.63374257,19.614099 5.70518812,19.6560792 C5.74605941,19.6792079 5.78582178,19.703604 5.82669307,19.7264158 C5.89291089,19.7634851 5.96039604,19.7978614 6.02788119,19.8328713 C6.07445545,19.857901 6.12118812,19.8829307 6.1690297,19.9062178 C6.23255446,19.9372673 6.2970297,19.9675248 6.36213861,19.9966733 C6.41378218,20.0212277 6.46447525,20.0454653 6.51659406,20.0670099 C6.5790099,20.0950495 6.64142574,20.1199208 6.70479208,20.1447921 C6.75960396,20.166495 6.81441584,20.1894653 6.8700198,20.209901 C6.93116832,20.2330297 6.99247525,20.2544158 7.05346535,20.2762772 C7.11255446,20.2952871 7.17053465,20.3152475 7.22978218,20.3334653 C7.28918812,20.3521584 7.34843564,20.3705347 7.40831683,20.3873267 C7.46930693,20.4052277 7.53267327,20.4209109 7.59508911,20.4370693 C7.65259406,20.4521188 7.70994059,20.4668515 7.76665347,20.4801584 C7.83318812,20.4956832 7.9000396,20.508198 7.9670495,20.5213465 C8.02217822,20.5325941 8.07667327,20.5441584 8.13211881,20.5530297 C8.20372277,20.5650693 8.27580198,20.5748911 8.34724752,20.5850297 C8.39825743,20.5926337 8.44974257,20.600396 8.50091089,20.6059406 C8.58344554,20.6151287 8.66439604,20.6214653 8.74645545,20.6276436 C8.78875248,20.6301782 8.83152475,20.6360396 8.8739802,20.6385743 C8.99928713,20.6461782 9.12411881,20.6498218 9.25037624,20.6498218 C11.3931089,20.6498218 13.3850297,19.6107723 15.0472871,17.8312871 L15.0485545,17.8308119 C15.0510891,17.8266931 15.0548911,17.8232079 15.0590099,17.8190891 C15.177505,17.6926733 15.2915644,17.5611881 15.4072079,17.4274851 C15.4276436,17.4032475 15.4493465,17.3790099 15.4696238,17.3555644 C15.5792475,17.2239208 15.6888713,17.0883168 15.7956436,16.9492277 C15.8192475,16.9197624 15.841901,16.8917228 15.8650297,16.8611485 C15.9697426,16.7245941 16.0719208,16.5837624 16.1723564,16.4400792 C16.1967525,16.4055446 16.2209901,16.3725941 16.2452277,16.3380594 C16.3434455,16.1962772 16.4399208,16.0510099 16.5349703,15.9030495 C16.5604752,15.8640792 16.5861386,15.8251089 16.6106931,15.7869307 C16.7033663,15.6402376 16.7931881,15.4897426 16.8817426,15.3378218 C16.9072475,15.2947327 16.9335446,15.2511683 16.9596832,15.2077624 C17.0458614,15.0561584 17.1307723,14.9023366 17.2136238,14.7459802 C17.2392871,14.6986139 17.2651089,14.6509307 17.2901386,14.6037228 C17.3709307,14.4475248 17.4507723,14.288 17.5285545,14.1267327 C17.5529505,14.0763564 17.5784554,14.0250297 17.6026931,13.975604 C17.6790495,13.8121188 17.754297,13.6476832 17.8279604,13.480396 C17.8425347,13.4466535 17.8577426,13.4154455 17.8729505,13.381703 L17.8705743,13.3842376 C18.9227723,10.9557228 19.5928713,8.0630495 19.7419406,4.93370297 C19.7425743,4.928 19.7444752,4.92356436 19.7457426,4.91928713 C19.7508119,4.81758416 19.7527129,4.71493069 19.7568317,4.61306931 C19.7587327,4.54289109 19.7611089,4.47255446 19.7630099,4.40110891 C19.7707723,4.13908911 19.7761584,3.87564356 19.7761584,3.61029703" id="Fill-13" fill="#FFFFFE" mask="url(#mask-4)"></path>
                        <path d="M3.55247525,0.709227723 C3.55247525,0.709227723 15.2852277,1.41655446 10.316198,13.8306535 C10.316198,13.8306535 28.6374653,-3.64340594 3.55247525,0.709227723" id="Fill-15" fill="#FFFFFE" mask="url(#mask-4)"></path>
                    </g>
                    <path d="M57.0596436,15.7946931 L59.3471683,15.7946931 L59.3471683,12.7047921 L62.1932673,12.7047921 C62.8993267,12.7047921 63.4084752,12.995802 63.4084752,14.1807525 C63.4084752,15.0650297 63.4205149,15.4029307 63.6348515,15.7946931 L66.1327525,15.7946931 C65.7321188,15.3709307 65.6972673,14.3809901 65.6972673,13.9651485 C65.6972673,13.1372673 65.5439208,11.8667723 64.5408317,11.7123168 L64.5408317,11.6918812 C65.4962376,11.3492277 65.9106535,10.6867327 65.9106535,9.66225743 C65.9106535,8.79857426 65.5192079,7.37235644 63.1835248,7.37235644 L57.0596436,7.37235644 L57.0596436,15.7946931 Z M59.3471683,8.97710891 L62.263604,8.97710891 C62.8196436,8.97710891 63.4780198,9.18716832 63.4780198,10.0258218 C63.4780198,10.8166337 62.8887129,11.0994059 62.3822574,11.0994059 L59.3471683,11.0994059 L59.3471683,8.97710891 L59.3471683,8.97710891 Z" id="Fill-17" fill="#FFFFFE"></path>
                    <path d="M73.5223762,15.7946931 L75.9901782,15.7946931 L72.2848317,7.37235644 L69.5236436,7.37235644 L65.8195644,15.7946931 L68.286099,15.7946931 L68.9698218,14.0595644 L72.8410297,14.0595644 L73.5223762,15.7946931 Z M72.2255842,12.5308515 L69.5833663,12.5308515 L70.9040792,9.18716832 L72.2255842,12.5308515 L72.2255842,12.5308515 Z" id="Fill-18" fill="#FFFFFE"></path>
                    <polyline id="Fill-19" fill="#FFFFFE" points="78.593901 10.9959604 78.593901 7.37235644 76.3041584 7.37235644 76.3041584 15.7946931 78.593901 15.7946931 78.593901 13.2915644 79.928396 12.1498614 82.7949307 15.7946931 85.8848317 15.7946931 81.7207129 10.7573861 85.5912871 7.37235644 82.5110495 7.37235644 78.593901 10.9959604"></polyline>
                    <path d="M89.2934653,8.90312871 L92.1568317,8.90312871 C93.1057426,8.90312871 93.3386139,9.28205941 93.3386139,9.81148515 C93.3386139,10.4380198 93.0081584,10.7241188 92.4796832,10.7241188 L89.2934653,10.7241188 L89.2934653,8.90312871 Z M87.0011881,15.7945347 L93.0081584,15.7945347 C95.5573861,15.7945347 96.0750891,14.3721188 96.0750891,13.2456238 C96.0750891,12.3388515 95.5573861,11.370297 94.5786931,11.2033267 L94.5786931,11.1828911 C95.3715644,10.9365545 95.6988515,10.1463762 95.6988515,9.49655446 C95.6988515,7.93489109 94.5544554,7.37235644 93.326099,7.37235644 L87.0011881,7.37235644 L87.0011881,15.7945347 Z M89.2934653,12.1850297 L92.4291485,12.1850297 C93.2315248,12.1850297 93.6462574,12.538297 93.6462574,13.2017426 C93.6462574,13.7311683 93.3763168,14.1902574 92.6664554,14.1902574 L89.2934653,14.1902574 L89.2934653,12.1850297 L89.2934653,12.1850297 Z" id="Fill-20" fill="#FFFFFE"></path>
                    <path d="M103.147723,15.7946931 L105.613782,15.7946931 L101.909069,7.37235644 L99.1504158,7.37235644 L95.4450693,15.7946931 L97.9057426,15.7946931 L98.5937426,14.0595644 L102.464634,14.0595644 L103.147723,15.7946931 Z M101.850139,12.5308515 L99.2077624,12.5308515 L100.530059,9.18716832 L101.850139,12.5308515 L101.850139,12.5308515 Z" id="Fill-21" fill="#FFFFFE"></path>
                    <polyline id="Fill-22" fill="#FFFFFE" points="113.034772 13.2457822 113.01101 13.2457822 108.584238 7.37235644 105.929505 7.37235644 105.929505 15.7946931 108.149861 15.7946931 108.149861 9.92126733 108.171564 9.92126733 112.763406 15.7946931 115.249267 15.7946931 115.249267 7.37235644 113.034772 7.37235644 113.034772 13.2457822"></polyline>
                    <polyline id="Fill-23" fill="#FFFFFE" points="118.252198 10.9959604 118.252198 7.37235644 115.964832 7.37235644 115.964832 15.7946931 118.252198 15.7946931 118.252198 13.2915644 119.587327 12.1498614 122.455921 15.7946931 125.547406 15.7946931 121.381861 10.7573861 125.249743 7.37235644 122.173941 7.37235644 118.252198 10.9959604"></polyline>
                </g>
            </g>
        </g>
    </g>
</svg>
