<svg xmlns="http://www.w3.org/2000/svg" width="233" height="37" viewBox="0 0 233 37">
    <g fill="none" fill-rule="evenodd">
        <g fill="#FFF">
            <path d="M36.71 9.374v3.394h4.775c.458 0 .848-.126 1.17-.377.372-.315.557-.76.557-1.34 0-1.118-.638-1.677-1.913-1.677H36.71zm-3.25 10.182V7.11h9.507c1.6 0 2.76.407 3.481 1.22.5.57.751 1.29.751 2.161 0 1.511-.708 2.51-2.125 2.998v.035c1.197.174 1.795 1.284 1.795 3.329 0 1.348.226 2.248.678 2.702h-3.884c-.232-.407-.348-1.203-.348-2.388 0-1.453-.629-2.179-1.887-2.179h-4.415v4.567H33.46zM57.17 15.03l-2.139-4.525-2.138 4.525h4.277zm1.716 4.526l-1.007-2.563h-5.695l-1.008 2.563h-3.629L53 7.11h4.063l5.453 12.445h-3.63zM67.643 12.462l5.76-5.35h4.528l-5.69 5.001 6.124 7.443h-4.546l-4.216-5.386-1.96 1.69v3.696h-3.366V7.11h3.366zM82.496 13.899v3.394h5.04c.975 0 1.463-.56 1.463-1.677 0-1.145-.606-1.717-1.816-1.717h-4.687zm0-4.525v2.262h5.119c.922 0 1.384-.377 1.384-1.13 0-.755-.633-1.132-1.896-1.132h-4.607zm-3.25 10.182V7.11h9.819c1.062 0 1.917.233 2.564.697.745.558 1.118 1.371 1.118 2.44 0 .535-.135 1.023-.403 1.464a2.32 2.32 0 0 1-1.337 1.029v.035c.72.116 1.3.482 1.74 1.098a3.26 3.26 0 0 1 .586 1.917c0 1.034-.3 1.87-.897 2.51-.794.836-2.083 1.255-3.866 1.255h-9.325zM102.956 15.03l-2.139-4.525-2.138 4.525h4.277zm1.717 4.526l-1.007-2.563H97.97l-1.007 2.563h-3.63L98.786 7.11h4.063l5.453 12.445h-3.63zM119.247 7.111h3.143v12.445h-3.54l-6.524-8.68v8.68h-3.144V7.11h3.775l6.29 8.68zM129.278 12.462l5.76-5.35h4.528l-5.69 5.001L140 19.556h-4.546l-4.216-5.386-1.96 1.69v3.696h-3.366V7.11h3.366zM.638 13.157c.62.977 2.397 2.898 3.454 3.736.914.73 2.691 1.717 3.707 2.072 1.3.45 2.276.6 3.81.59 1.462-.01 2.336-.15 3.504-.537.64-.216 1.58-1.183 2.497-2.466-.262.335-.442.46-.831.641-2.367 1.085-5.72 1.331-8.32.623-2.691-.74-4.875-2.083-7.334-4.52-.581-.578-.904-.834-1.125-.852.16.039.354.266.638.713"/>
            <path d="M19.238 3.115C18.764 1.46 17.363.538 14.7.14c-1.293-.188-4.124-.188-6.078 0-1.375.14-3.44.43-3.981.554a2.141 2.141 0 0 0-.238.065c.11.023.207.045.293.065 2.989.565 4.834 1.447 6.412 3.033.7.704.928 1.021 1.313 1.794.71 1.457.878 2.22.878 4.054 0 1.794-.178 2.825-.869 4.956L11.996 16l.957-.991a53.23 53.23 0 0 0 1.707-1.883c3.581-4.292 5.21-7.84 4.578-10.011z"/>
            <path d="M21.018 2.667c-.58 0-.84.33-1.168 1.453-.907 3.169-2.345 6.086-4.092 8.312-.84 1.063-2.47 2.647-3.34 3.248l-.988.68c.551-.143 1.045-.28 1.481-.409 2.413-.722 4.623-2.376 6.37-4.792.395-.542.714-.943.714-.883 0 .068-.085.351-.21.723a22.762 22.762 0 0 1-.648 1.77l-.155.375c-.118.265-.245.532-.38.798a18.427 18.427 0 0 1-1.28 2.18 8.694 8.694 0 0 1-.31.423c-.872 1.199-1.764 2.102-2.373 2.304-1.11.36-1.94.49-3.33.5-1.457.01-2.384-.13-3.62-.55-.964-.331-2.653-1.254-3.522-1.936-1.003-.782-2.692-2.576-3.281-3.489-.27-.417-.454-.63-.606-.665-.102-.008-.18.036-.253.124-.3.37 1.95 3.309 3.658 4.792 1.978 1.715 3.986 2.757 6.456 3.329l1.004.23-.859.231c-1.728.451-3.822.381-5.588-.2l-.868-.291.617.611c1.139 1.113 2.712 2.016 4.102 2.347.897.21 2.914.13 3.773-.16 4.816-1.595 8.426-7.59 9.458-15.722.174-1.373.29-3.96.203-4.451-.096-.531-.473-.882-.965-.882z"/>
            <g fill-rule="nonzero">
                <path d="M33.066 29.721A238.28 238.28 0 0 0 33 28.166c.206.016.415.031.63.042.213.01.424.018.63.018.207 0 .416 0 .63-.029a4.71 4.71 0 0 1 .629-.03c.322-.002.644.024.962.077.28.045.55.14.798.28.225.128.413.312.547.536.143.259.212.552.201.848a1.805 1.805 0 0 1-.552 1.402c-.413.362-.91.608-1.444.716v.023a2.9 2.9 0 0 1 1.67.518c.408.314.612.82.612 1.512a2.2 2.2 0 0 1-.273 1.137c-.178.301-.422.556-.713.744-.298.191-.626.326-.97.4a4.858 4.858 0 0 1-1.052.114h-.576c-.193 0-.387-.013-.575-.013h-.578c-.194 0-.385 0-.576.023.024-.518.046-1.033.066-1.542.018-.519.028-1.037.028-1.555v-2.074c0-.543-.01-1.073-.028-1.592zm2.47 2.074c.259-.05.507-.146.732-.285.21-.132.385-.314.509-.531.14-.257.208-.547.196-.84a1.52 1.52 0 0 0-.178-.793 1.285 1.285 0 0 0-.451-.46c-.19-.111-.4-.185-.619-.217a4.39 4.39 0 0 0-.667-.052c-.206 0-.382 0-.525.018-.142.019-.27.026-.38.042-.015.386-.032.777-.048 1.148-.015.37-.023.762-.023 1.151v.907h.642c.273.001.545-.026.813-.08v-.008zm-1.443 2.989c.015.404.033.81.048 1.22a10.022 10.022 0 0 0 1.164.062c.25.002.497-.044.73-.134.23-.085.44-.218.615-.392.18-.183.32-.401.415-.642.106-.275.159-.568.155-.863a1.72 1.72 0 0 0-.186-.853 1.284 1.284 0 0 0-.527-.519 2.56 2.56 0 0 0-.828-.259 7.472 7.472 0 0 0-1.075-.072h-.534v1.236c0 .411.007.819.023 1.223v-.007zM46.539 29.457c.003-.433-.018-.865-.061-1.296.089.016.17.031.254.042a1.228 1.228 0 0 0 .596-.041 44.4 44.4 0 0 0-.071 1.01c-.023.391-.043.809-.061 1.257-.018.448-.03.907-.046 1.379-.015.472-.028.93-.036 1.374-.003.495-.089.986-.254 1.451a3.063 3.063 0 0 1-.66 1.089 2.745 2.745 0 0 1-1.052.676 4.134 4.134 0 0 1-1.431.254c-1.189 0-2.053-.273-2.593-.821-.54-.548-.809-1.412-.807-2.592 0-.379 0-.716.03-1.008.031-.293.028-.597.028-.903 0-.679 0-1.277-.022-1.814-.023-.536-.034-.967-.049-1.33a4.57 4.57 0 0 0 .619.06c.085 0 .17-.005.255-.018.084 0 .168-.026.254-.042-.017.177-.033.41-.048.695s-.033.612-.048.975c-.016.363-.028.754-.036 1.174-.008.42 0 .855 0 1.296v.853c.007.287.035.574.084.858.047.274.124.542.232.798.105.252.261.479.458.666.216.202.471.354.749.448.36.118.737.174 1.115.164.376.01.75-.055 1.1-.195.278-.117.527-.294.732-.518a2.31 2.31 0 0 0 .445-.726c.107-.277.185-.564.232-.858.048-.296.076-.596.084-.897v-.821c.012-1.139.014-2.019.008-2.639zM49.6 35.356a1.978 1.978 0 0 0 .932.702c.222.08.455.118.69.115.242.004.483-.044.706-.14a1.573 1.573 0 0 0 .873-.93c.08-.22.121-.451.12-.685a1.31 1.31 0 0 0-.29-.876 2.34 2.34 0 0 0-.696-.542 8.252 8.252 0 0 0-.896-.401 4.3 4.3 0 0 1-.897-.454 2.389 2.389 0 0 1-.695-.695 2.021 2.021 0 0 1-.28-1.138 2.33 2.33 0 0 1 .178-.925 1.97 1.97 0 0 1 .51-.718c.238-.21.515-.37.815-.472a3.135 3.135 0 0 1 1.07-.17c.333-.007.666.04.985.14.278.095.537.24.764.43-.072.14-.132.285-.178.435a6.814 6.814 0 0 0-.143.58h-.143a2.739 2.739 0 0 0-.16-.37 1.42 1.42 0 0 0-.234-.366 1.527 1.527 0 0 0-.41-.285 1.32 1.32 0 0 0-.571-.114 1.667 1.667 0 0 0-.611.11 1.398 1.398 0 0 0-.81.785 1.635 1.635 0 0 0-.112.606c-.019.323.08.641.277.894.198.226.434.412.698.55a6.5 6.5 0 0 0 .897.399c.311.113.611.255.896.425.275.166.512.388.696.653.2.317.297.69.28 1.066.001.36-.066.717-.196 1.052a2.466 2.466 0 0 1-1.485 1.433 3.566 3.566 0 0 1-1.23.2 3.028 3.028 0 0 1-1.195-.2 3.257 3.257 0 0 1-.764-.453c.065-.163.115-.331.15-.503.028-.148.054-.34.077-.573h.142c.065.153.145.3.24.435zM55.519 29.74c-.02-.519-.044-1.037-.067-1.556.102.016.202.031.298.042a2.135 2.135 0 0 0 .57 0c.095 0 .194-.026.299-.042-.026.532-.046 1.055-.066 1.556-.02.5-.031 1.036-.031 1.555v2.073c0 .533.01 1.056.03 1.571.021.519.041 1.024.067 1.524a6.898 6.898 0 0 0-.583-.023c-.207 0-.4 0-.584.023l.067-1.524c.02-.518.028-1.037.028-1.57v-2.074c0-.521-.008-1.042-.028-1.555zM62.632 33.345a1942.007 1942.007 0 0 0-3.09-3.37c0 .226-.017.519-.025.908-.008.388 0 .894 0 1.555v.63c0 .249 0 .518.013.777.013.26 0 .552.018.835.017.282.015.544.023.778.007.233.015.453.022.635.008.181.016.303.026.368a3.827 3.827 0 0 0-.856 0c.015-.08.033-.228.054-.446.02-.218.035-.48.053-.778.018-.298.033-.632.054-.987.02-.355.035-.708.045-1.063.01-.355.023-.702.031-1.037.008-.334.013-.64.013-.907v-1.996c0-.557-.013-.972-.028-1.247h.188l1.551 1.714 1.64 1.814c.542.595 1.057 1.155 1.546 1.682.49.527.914.977 1.274 1.348v-1.643c0-.849-.006-1.674-.018-2.476a56.73 56.73 0 0 0-.077-2.268c.132.037.267.057.403.06.129-.004.257-.024.382-.06-.018.177-.036.444-.054.799-.018.355-.04.733-.06 1.138-.021.404-.039.798-.054 1.184a24.71 24.71 0 0 0-.023.93v1.587c0 .298 0 .599.013.902.012.303 0 .583 0 .845v1.096h-.166a95.56 95.56 0 0 0-2.898-3.307zM68.07 29.721c-.019-.518-.042-1.036-.065-1.555.357.016.711.031 1.062.042.352.01.708.018 1.065.018s.708 0 1.057-.018.703-.026 1.06-.042c-.048.24-.048.487 0 .726a27.738 27.738 0 0 1-.696-.05l-.667-.046a21.936 21.936 0 0 0-1.762-.062c0 .26-.018.518-.029.739-.01.22-.017.5-.017.798v1.597h.94c.277 0 .53-.019.763-.029l.635-.036c.196-.013.38-.026.552-.044-.022.124-.034.25-.033.376.005.125.022.249.051.37a12.821 12.821 0 0 0-.718-.06 21.67 21.67 0 0 0-.82-.03h-1.342v2.892c0 .298 0 .519.017.677h.833c.3 0 .596 0 .884-.018.288-.019.563-.029.82-.05.226-.014.45-.044.672-.09a.843.843 0 0 0-.028.189v.186c-.002.106.01.212.036.314a24.37 24.37 0 0 0-1.062-.023h-2.16c-.356 0-.715 0-1.08.023.023-.518.046-1.037.064-1.542.018-.506.03-1.037.03-1.555v-2.074l-.063-1.623zM74.036 35.356c.111.154.243.29.392.405.165.127.348.227.543.298.22.078.454.117.688.114a1.72 1.72 0 0 0 .708-.14c.406-.171.723-.51.873-.93.08-.22.121-.451.12-.685a1.311 1.311 0 0 0-.28-.876 2.34 2.34 0 0 0-.696-.542 8.252 8.252 0 0 0-.896-.401 4.383 4.383 0 0 1-.9-.454 2.389 2.389 0 0 1-.694-.695 2.042 2.042 0 0 1-.278-1.138 2.33 2.33 0 0 1 .178-.925 1.97 1.97 0 0 1 .51-.718c.237-.21.513-.37.812-.472a3.155 3.155 0 0 1 1.07-.17c.334-.008.668.04.988.14.278.095.537.24.764.43-.072.14-.132.285-.178.435-.058.19-.105.385-.143.58h-.143c-.046-.126-.1-.25-.16-.37a1.416 1.416 0 0 0-.273-.368 1.527 1.527 0 0 0-.41-.285 1.327 1.327 0 0 0-.57-.114 1.68 1.68 0 0 0-.614.109c-.18.069-.346.174-.486.308-.14.133-.25.296-.321.477a1.58 1.58 0 0 0-.112.606c-.019.323.08.641.277.895.196.226.432.412.696.55.29.154.59.288.899.398.311.115.611.259.896.43.274.166.511.389.695.654.2.317.298.69.28 1.065.002.36-.065.718-.196 1.052a2.5 2.5 0 0 1-.57.866 2.514 2.514 0 0 1-.917.568 3.546 3.546 0 0 1-1.23.2 3.036 3.036 0 0 1-1.194-.2 3.237 3.237 0 0 1-.764-.454c.064-.162.115-.33.15-.503.025-.147.053-.34.076-.572h.143c.074.153.164.298.267.432zM79.98 35.356a1.978 1.978 0 0 0 .932.702c.222.08.456.118.69.115.244.004.485-.044.709-.14a1.624 1.624 0 0 0 .88-.936c.08-.219.12-.45.118-.684a1.311 1.311 0 0 0-.278-.884 2.374 2.374 0 0 0-.695-.542 8.3 8.3 0 0 0-.899-.401 4.363 4.363 0 0 1-.896-.454 2.389 2.389 0 0 1-.696-.695 2.042 2.042 0 0 1-.28-1.138 2.33 2.33 0 0 1 .179-.925c.115-.274.29-.52.509-.718.239-.21.515-.37.815-.472a3.135 3.135 0 0 1 1.07-.17c.333-.007.666.04.985.14.278.096.537.241.764.43a2.51 2.51 0 0 0-.178.435c-.059.19-.106.384-.143.58h-.12c-.046-.126-.1-.25-.16-.37a1.488 1.488 0 0 0-.685-.653 1.32 1.32 0 0 0-.57-.114 1.667 1.667 0 0 0-.612.109c-.18.069-.345.174-.486.308a1.37 1.37 0 0 0-.324.477 1.635 1.635 0 0 0-.112.607c-.017.322.082.64.28.894.196.226.432.412.696.55.289.154.588.288.896.398.313.115.614.259.9.43.273.167.51.39.695.654.198.317.295.69.277 1.065.003.36-.064.718-.196 1.053a2.466 2.466 0 0 1-1.485 1.433 3.566 3.566 0 0 1-1.23.2 3.036 3.036 0 0 1-1.194-.2 3.237 3.237 0 0 1-.764-.454c.064-.162.113-.33.147-.503.028-.147.054-.34.077-.572h.145c.064.157.144.306.24.445zM89.205 29.721a238.28 238.28 0 0 0-.066-1.555c.206.016.415.031.629.042.214.01.425.018.631.018.207 0 .415 0 .63-.029a4.71 4.71 0 0 1 .628-.03c.323-.002.645.024.963.077.28.045.55.14.797.28.225.128.414.312.548.536.142.259.212.552.2.848a1.805 1.805 0 0 1-.552 1.402c-.412.362-.91.608-1.444.716v.023a2.895 2.895 0 0 1 1.671.518c.407.314.611.82.611 1.512a2.2 2.2 0 0 1-.272 1.137c-.178.301-.422.556-.713.744-.298.191-.627.326-.97.4a4.858 4.858 0 0 1-1.053.114h-.575c-.194 0-.387-.013-.576-.013h-.578c-.193 0-.384 0-.575.023l.066-1.542c.018-.519.028-1.037.028-1.555v-2.074c0-.543-.01-1.073-.028-1.592zm2.47 2.074c.259-.05.506-.146.731-.285.21-.132.385-.314.51-.531.14-.256.21-.547.198-.84.013-.277-.05-.551-.18-.793a1.285 1.285 0 0 0-.451-.46c-.191-.112-.401-.185-.62-.217a4.39 4.39 0 0 0-.687-.054c-.206 0-.382 0-.525.018-.142.018-.27.026-.38.041-.014.386-.032.778-.047 1.149-.016.37-.023.762-.023 1.15v.908h.641c.28.003.559-.023.833-.078v-.008zm-1.444 2.989c.015.404.033.81.049 1.22a10.021 10.021 0 0 0 1.164.062c.25.002.497-.044.73-.134.23-.085.439-.218.614-.392.18-.183.321-.401.415-.642.108-.275.16-.568.156-.863a1.72 1.72 0 0 0-.186-.853 1.284 1.284 0 0 0-.527-.519 2.56 2.56 0 0 0-.828-.259 7.472 7.472 0 0 0-1.075-.072h-.535v1.236c0 .411.008.819.023 1.223v-.007zM102.619 36.484a2.293 2.293 0 0 0-.316-.023h-.63c-.105 0-.21.008-.315.023a19.818 19.818 0 0 0-.542-1.493c-.118-.285-.23-.578-.35-.87-.119-.294-.229-.576-.333-.84-.255 0-.51-.016-.764-.019h-1.51c-.237 0-.479 0-.726.018-.251.628-.48 1.226-.688 1.797-.207.57-.361 1.039-.463 1.407a4.172 4.172 0 0 0-.881 0c.641-1.41 1.268-2.813 1.88-4.21a518.41 518.41 0 0 0 1.84-4.258h.227c.189.47.394.976.616 1.519l.678 1.65.69 1.66c.23.546.446 1.056.65 1.53l.544 1.264c.156.37.288.653.393.845zm-5.267-3.761H99.3l.667-.018-1.319-3.05-1.296 3.068zM107.763 33.345a1942.007 1942.007 0 0 0-3.09-3.37c0 .226-.014.519-.022.908-.008.388-.013.894-.013 1.555v1.407c0 .26 0 .552.018.835.018.282.015.544.023.778.008.233.015.453.026.635.01.181.015.303.022.368a3.827 3.827 0 0 0-.856 0c.016-.08.034-.228.054-.446.02-.218.038-.48.054-.778.015-.298.033-.632.053-.987.02-.355.036-.708.049-1.063.012-.355.02-.702.028-1.037.007-.334.012-.64.012-.907v-1.996c0-.557-.012-.972-.028-1.247h.191l1.551 1.714c.55.61 1.097 1.214 1.64 1.814l1.544 1.682c.489.529.913.978 1.273 1.348v-1.643c0-.849-.006-1.674-.018-2.476a56.731 56.731 0 0 0-.076-2.268c.131.037.266.057.402.06.13-.004.258-.024.382-.06-.018.177-.035.444-.053.799-.018.355-.04.733-.061 1.138-.02.404-.036.798-.054 1.184-.018.386-.023.697-.023.93v1.587c0 .298 0 .599.013.902.013.303 0 .583.013.845s0 .49 0 .684v.412h-.166a88.299 88.299 0 0 0-2.888-3.307zM112.48 34.96c.017-.519.026-1.042.028-1.57v-2.074c0-.534 0-1.055-.028-1.556-.028-.5-.043-1.036-.066-1.555.101.016.2.031.298.042a2.135 2.135 0 0 0 .57 0c.094 0 .194-.026.295-.042-.022.531-.045 1.055-.063 1.555-.018.5-.03 1.037-.03 1.556v.663c0 .065.022.099.07.099.049 0 .087-.037.166-.11.278-.243.57-.518.874-.824.303-.305.613-.624.922-.953.308-.33.613-.67.914-1.011.3-.342.59-.677.868-.998.087.015.17.03.255.041.078.013.158.019.237.018.096 0 .192-.005.288-.018.094 0 .188-.026.285-.041-.28.24-.591.518-.94.858-.349.34-.7.671-1.052 1.016-.351.345-.69.69-1.018 1.024-.329.334-.589.627-.803.876.642.734 1.29 1.482 1.944 2.244.653.762 1.317 1.526 1.991 2.292a2.776 2.776 0 0 0-.356-.024h-.686c-.109 0-.217.008-.326.024-.285-.329-.6-.707-.944-1.136a70.584 70.584 0 0 0-1.02-1.241c-.335-.4-.623-.757-.89-1.076a13.189 13.189 0 0 0-.589-.671c-.063-.065-.11-.099-.142-.099-.033 0-.059.026-.059.073v1.055c0 .532.01 1.056.03 1.57.018.52.041 1.024.064 1.525a6.837 6.837 0 0 0-.58-.024c-.204 0-.403 0-.584.024.038-.505.063-1.015.077-1.532zM119.75 29.74c-.02-.519-.04-1.037-.063-1.556.102.016.201.031.296.042a2.107 2.107 0 0 0 .57 0c.097 0 .194-.026.298-.042-.023.532-.046 1.055-.066 1.556-.02.5-.028 1.036-.028 1.555v2.073c0 .532 0 1.055.028 1.571s.043 1.024.066 1.524a6.898 6.898 0 0 0-.583-.023c-.206 0-.4 0-.58.023l.063-1.524c.02-.515.03-1.038.03-1.57v-2.074c0-.521-.01-1.042-.03-1.555zM126.864 33.345a1941.968 1941.968 0 0 0-3.09-3.37c0 .226-.015.519-.022.908-.008.388 0 .894 0 1.555v1.407c0 .26 0 .552.018.835.018.282.015.544.023.778.007.233.015.453.025.635.01.181.015.303.023.368a3.842 3.842 0 0 0-.856 0c.016-.08.033-.228.054-.446.02-.218.038-.48.053-.778.016-.298.033-.632.054-.987.02-.355.035-.708.048-1.063.013-.355.02-.702.028-1.037.008-.334 0-.64 0-.907v-1.996c0-.557-.015-.972-.03-1.247h.19l1.552 1.714c.55.61 1.096 1.214 1.64 1.814l1.543 1.682c.489.529.913.978 1.273 1.348v-1.643c0-.849-.006-1.674-.017-2.476a56.73 56.73 0 0 0-.077-2.268c.132.037.268.057.405.06.129-.004.256-.024.38-.06a30.18 30.18 0 0 0-.054.799c-.02.355-.04.733-.058 1.138-.018.404-.039.798-.054 1.184-.015.386-.025.697-.025.93v4.43h-.166a72.826 72.826 0 0 0-2.86-3.307zM138.712 29.213a3.183 3.183 0 0 0-.596-.38 3.565 3.565 0 0 0-.724-.26 3.344 3.344 0 0 0-.85-.103 4.01 4.01 0 0 0-1.373.23c-.42.142-.802.38-1.118.695-.33.343-.581.755-.739 1.208a5.079 5.079 0 0 0-.254 1.736 4.974 4.974 0 0 0 .24 1.597c.14.449.378.86.694 1.205.314.333.696.59 1.118.755.476.182.982.27 1.49.259.168 0 .342 0 .525-.024.183-.023.357-.041.527-.072.161-.03.32-.071.476-.122.131-.041.257-.098.375-.168 0-.244 0-.485.018-.726.017-.241 0-.49 0-.739s0-.565-.018-.847c-.018-.283-.026-.553-.041-.812.188.04.379.061.57.062.087 0 .174 0 .255-.013.087-.006.172-.023.255-.049-.018.187-.028.48-.036.879-.007.4-.013.925-.013 1.578v.98a6.349 6.349 0 0 1-.623.2c-.263.07-.53.126-.798.168-.28.044-.562.086-.843.122a6.513 6.513 0 0 1-2.674-.205 3.733 3.733 0 0 1-1.444-.806 3.631 3.631 0 0 1-.914-1.353 5.082 5.082 0 0 1-.32-1.876c-.011-.628.102-1.25.333-1.833.21-.519.53-.983.937-1.36a4.072 4.072 0 0 1 1.47-.848c.616-.2 1.26-.298 1.907-.29.36-.003.718.02 1.075.067.505.067 1 .203 1.47.404.18.08.343.158.486.23-.073.14-.131.285-.174.436a2.798 2.798 0 0 0-.099.495h-.143a3.16 3.16 0 0 0-.427-.42z"/>
            </g>
        </g>
        <text fill="#FFF" font-family="OpenSans-SemiBold, Open Sans SemiBold" font-size="14" font-weight="500">
            <tspan x="158" y="19">RAKislamic</tspan>
        </text>
        <path stroke="#FFF" stroke-linecap="round" stroke-linejoin="round" stroke-width="2" d="M149 6v16"/>
    </g>
</svg>
