<?xml version="1.0" encoding="UTF-8"?>
<svg width="137px" height="27px" viewBox="0 0 137 27" version="1.1" xmlns="http://www.w3.org/2000/svg" xmlns:xlink="http://www.w3.org/1999/xlink">
    <!-- Generator: Sketch 56.3 (81716) - https://sketch.com -->
    <title>Logo/ White</title>
    <desc>Created with Sketch.</desc>
    <g id="Page-1" stroke="none" stroke-width="1" fill="none" fill-rule="evenodd">
        <g id="9.1.-COMPANY--REGISTERED-IN-UAE?" transform="translate(-40.000000, -30.000000)" fill="#FFFFFF">
            <g id="Logo/-White" transform="translate(40.000000, 30.000000)">
                <g id="Logo/-Rakbank/-White">
                    <path d="M42,10 L42,13 L46.4057143,13 C46.8284116,13 47.1884116,12.8890443 47.4857143,12.6666667 C47.8285714,12.3890443 48,11.9945221 48,11.4833333 C48,10.4945221 47.4112687,10 46.2342857,10 L42,10 Z M39,19 L39,8 L47.7737321,8 C49.2500296,8 50.3206053,8.35962077 50.9856957,9.07843137 C51.4476889,9.58177117 51.6788036,10.2184874 51.6788036,10.9887955 C51.6788036,12.3240681 51.0250621,13.2072829 49.7178153,13.6386555 L49.7178153,13.6694678 C50.8222012,13.8235294 51.3745124,14.8044602 51.3745124,16.6120448 C51.3745124,17.8035984 51.5829294,18.5994398 52,19 L48.4161248,19 C48.2019151,18.6405947 48.0949285,17.9369748 48.0949285,16.8893557 C48.0949285,15.6055807 47.5143634,14.9635854 46.3537061,14.9635854 L42.2795839,14.9635854 L42.2795839,19 L39,19 Z" id="Mask"></path>
                    <path d="M61,15 L59,11 L57,15 L61,15 Z M62.6055684,19 L61.6635731,16.7352941 L56.3364269,16.7352941 L55.3944316,19 L52,19 L57.099768,8 L60.900232,8 L66,19 L62.6055684,19 Z" id="Mask"></path>
                    <polygon id="Mask" points="70.1059381 12.7296919 75.4213667 8 79.5998622 8 74.3485855 12.4215686 80 19 75.8054946 19 71.914955 14.2394958 70.1059381 15.7338936 70.1059381 19 67 19 67 8 70.1059381 8"></polygon>
                    <path d="M84,14 L84,17 L88.6503184,17 C89.5500682,17 90,16.5058824 90,15.5176471 C90,14.5059646 89.4414797,14 88.3251213,14 L84,14 Z M84,10 L84,12 L88.7230321,12 C89.5741809,12 90,11.6667878 90,11 C90,10.3333939 89.4167465,10 88.2507289,10 L84,10 Z M81,19 L81,8 L90.0610359,8 C91.0415212,8 91.8302597,8.20555915 92.4277244,8.6162465 C93.1150335,9.1092437 93.4589244,9.82826977 93.4589244,10.7731092 C93.4589244,11.2456367 93.3347974,11.6770093 93.0870162,12.0672269 C92.79384,12.5192846 92.3825658,12.8221289 91.8529572,12.9761905 L91.8529572,13.0070028 C92.5178052,13.1097824 93.0532064,13.4333118 93.4589244,13.977591 C93.8194838,14.4705882 94,15.0355527 94,15.6722689 C94,16.5865115 93.7236105,17.3260073 93.1715408,17.8907563 C92.438955,18.6302521 91.2499363,19 89.6046032,19 L81,19 Z" id="Mask"></path>
                    <path d="M103,15 L100.999875,11 L99,15 L103,15 Z M104.605541,19 L103.663651,16.7352941 L98.3363485,16.7352941 L97.3943455,19 L94,19 L99.0998094,8 L102.900304,8 L108,19 L104.605541,19 Z" id="Mask"></path>
                    <polygon id="Mask" points="118.144223 8 121 8 121 19 117.784237 19 111.855777 11.3277311 111.855777 19 109 19 109 8 112.429057 8 118.144223 15.6722689"></polygon>
                    <polygon id="Mask" points="127.105911 12.7296919 132.421294 8 136.599754 8 131.348634 12.4215686 137 19 132.805419 19 128.915025 14.2394958 127.105911 15.7338936 127.105911 19 124 19 124 8 127.105911 8"></polygon>
                    <path d="M0.72437602,14.8015464 C1.42810173,15.9005478 3.44698696,18.0623198 4.64678161,19.0043211 C5.68506544,19.8255529 7.70395067,20.9366312 8.85759937,21.3351702 C10.3342697,21.8424016 11.4417725,22.0114788 13.183782,21.9994018 C14.8450361,21.9873249 15.837174,21.8303247 17.16387,21.3955549 C17.8919377,21.1524461 18.9581399,20.064797 20,18.620516 C19.7020125,18.9979203 19.497586,19.137892 19.0558539,19.3424753 C16.3678524,20.5622461 12.5608117,20.8400157 9.60747103,20.042817 C6.55030197,19.209629 4.06995726,17.7000117 1.2781274,14.9585466 C0.617432786,14.3074789 0.250572498,14.0195646 0,14 C0.181353576,14.0429939 0.401585113,14.2983004 0.72437602,14.8015464" id="Mask"></path>
                    <path d="M21.8487279,3.50410407 C21.3108978,1.64193898 19.719817,0.604924888 16.6945226,0.158897321 C15.2266946,-0.0529657736 12.0109186,-0.0529657736 9.79236939,0.158897321 C8.23094118,0.315263457 5.88628661,0.642936049 5.27035661,0.781580482 C5.22459331,0.791881696 5.14088401,0.812801333 5.10474745,0.8225507 C5.08065642,0.829050277 5.0457406,0.839675329 5,0.854425854 C5.12479932,0.881370489 5.23575309,0.905956326 5.33286131,0.928183367 C8.72791394,1.56388416 10.8232104,2.55629549 12.6159775,4.34040576 C13.4115179,5.13210469 13.6692282,5.48892675 14.1062151,6.3586805 C14.9129603,7.99783181 15.1034418,8.85643488 15.1034418,10.9193124 C15.1034418,12.9375871 14.9017555,14.0972588 14.1174199,16.494657 L13.624409,18 L14.711274,16.8849311 C15.3051281,16.2716432 16.1791021,15.3125724 16.6497034,14.7663001 C20.7170437,9.93805173 22.5658347,5.9459935 21.8487279,3.50410407 Z" id="Mask"></path>
                    <path d="M23.8703756,3 C23.2127287,3 22.9167876,3.3722133 22.544121,4.63548269 C21.5138075,8.19970705 19.880651,11.4819516 17.8967494,13.985932 C16.9431614,15.1815263 15.0907893,16.9636384 14.1043189,17.6403899 C13.77853,17.8614358 13.4043017,18.1161204 12.981634,18.4044436 C13.6070542,18.2438437 14.1676157,18.0906718 14.6633188,17.9449281 C17.4035142,17.1328263 19.9135333,15.2717598 21.8974348,12.5534748 C22.3468269,11.9443985 22.7085327,11.4932308 22.7085327,11.560906 C22.7085327,11.6370405 22.6115298,11.9555649 22.4694781,12.3734589 C22.4280463,12.5014777 22.3832167,12.6379559 22.3358661,12.7790586 C22.1452581,13.3335436 21.9454431,13.8591539 21.7331327,14.3646873 C21.6694506,14.5230471 21.6099335,14.6668568 21.5576506,14.7867546 C21.4242579,15.0855404 21.2793564,15.3859052 21.1262342,15.6849166 C20.7009559,16.5310815 20.2241619,17.3340471 19.6723961,18.1365615 C19.5337422,18.3329322 19.4212846,18.4867804 19.3198974,18.6128817 C18.3300291,19.9617602 17.3170337,20.9775641 16.6252987,21.2046143 C15.3648088,21.6106651 14.4221816,21.7572946 12.843829,21.7685738 C11.1887509,21.779853 10.1365158,21.6219443 8.73353574,21.1482183 C7.63745754,20.776005 5.7193207,19.7383194 4.73285033,18.9713344 C3.59292901,18.0915575 1.67479217,16.0725824 1.00618447,15.046176 C0.699501789,14.5761721 0.490260462,14.33773 0.31795697,14.2975761 C0.202649544,14.2886655 0.11288074,14.33773 0.0306748754,14.4370997 C-0.309109365,14.8544297 2.24475283,18.1592327 4.18481123,19.8284402 C6.43177153,21.7572946 8.71161417,22.9302177 11.5175743,23.5732444 L12.6574957,23.832553 L11.6819861,24.0920871 C9.72000611,24.5996507 7.34151643,24.5206964 5.33569333,23.8665033 L4.34922296,23.5394068 L5.050713,24.2273246 C6.34408527,25.4794276 8.13069273,26.4945548 9.70904533,26.8667681 C10.728398,27.1035183 13.0192015,27.0133976 13.9947111,26.6863011 C19.4641413,24.8929097 23.5634737,18.1479535 24.7362774,9.00052961 C24.9335714,7.45528044 25.0651008,4.54524917 24.9664538,3.99256881 C24.856846,3.39477168 24.4293755,3 23.8703756,3 Z" id="Mask"></path>
                </g>
            </g>
        </g>
    </g>
</svg>