<?xml version="1.0" encoding="UTF-8"?>
<svg width="380px" height="263px" viewBox="0 0 380 263" version="1.1" xmlns="http://www.w3.org/2000/svg" xmlns:xlink="http://www.w3.org/1999/xlink">
    <!-- Generator: Sketch 62 (91390) - https://sketch.com -->
    <title>1</title>
    <desc>Created with Sketch.</desc>
    <defs>
        <rect id="path-1" x="0" y="0" width="380" height="263" rx="8"></rect>
        <rect id="path-3" x="0" y="0" width="380" height="232"></rect>
        <rect id="path-5" x="0" y="0" width="380" height="254.848485"></rect>
        <linearGradient x1="55.3391262%" y1="51.0676987%" x2="7.71105965%" y2="38.0045101%" id="linearGradient-7">
            <stop stop-color="#FFFFFF" offset="0%"></stop>
            <stop stop-color="#FFFFFF" stop-opacity="0.00392156863" offset="0.29673032%"></stop>
            <stop stop-color="#FFFFFF" stop-opacity="0.0196078431" offset="1.16550926%"></stop>
            <stop stop-color="#FFFFFF" stop-opacity="0.0431372549" offset="2.57421875%"></stop>
            <stop stop-color="#FFFFFF" stop-opacity="0.0745098039" offset="4.49074074%"></stop>
            <stop stop-color="#FFFFFF" stop-opacity="0.11372549" offset="6.88295718%"></stop>
            <stop stop-color="#FFFFFF" stop-opacity="0.156862745" offset="9.71875%"></stop>
            <stop stop-color="#FFFFFF" stop-opacity="0.203921569" offset="12.9660012%"></stop>
            <stop stop-color="#FFFFFF" stop-opacity="0.258823529" offset="16.5925926%"></stop>
            <stop stop-color="#FFFFFF" stop-opacity="0.317647059" offset="20.5664062%"></stop>
            <stop stop-color="#FFFFFF" stop-opacity="0.376470588" offset="24.8553241%"></stop>
            <stop stop-color="#FFFFFF" stop-opacity="0.439215686" offset="29.427228%"></stop>
            <stop stop-color="#FFFFFF" stop-opacity="0.501960784" offset="34.25%"></stop>
            <stop stop-color="#FFFFFF" stop-opacity="0.560784314" offset="39.291522%"></stop>
            <stop stop-color="#FFFFFF" stop-opacity="0.623529412" offset="44.5196759%"></stop>
            <stop stop-color="#FFFFFF" stop-opacity="0.682352941" offset="49.9023438%"></stop>
            <stop stop-color="#FFFFFF" stop-opacity="0.741176471" offset="55.4074074%"></stop>
            <stop stop-color="#FFFFFF" stop-opacity="0.796078431" offset="61.0027488%"></stop>
            <stop stop-color="#FFFFFF" stop-opacity="0.843137255" offset="66.65625%"></stop>
            <stop stop-color="#FFFFFF" stop-opacity="0.88627451" offset="72.3357928%"></stop>
            <stop stop-color="#FFFFFF" stop-opacity="0.925490196" offset="78.0092593%"></stop>
            <stop stop-color="#FFFFFF" stop-opacity="0.956862745" offset="83.6445312%"></stop>
            <stop stop-color="#FFFFFF" stop-opacity="0.980392157" offset="89.2094907%"></stop>
            <stop stop-color="#FFFFFF" stop-opacity="0.996078431" offset="94.6720197%"></stop>
            <stop stop-color="#FFFFFF" offset="100%"></stop>
        </linearGradient>
        <linearGradient x1="50%" y1="0%" x2="50%" y2="100%" id="linearGradient-8">
            <stop stop-color="#FFFFFF" offset="0%"></stop>
            <stop stop-color="#FFFFFF" stop-opacity="0" offset="100%"></stop>
        </linearGradient>
    </defs>
    <g id="Symbols" stroke="none" stroke-width="1" fill="none" fill-rule="evenodd">
        <g id="1">
            <mask id="mask-2" fill="white">
                <use xlink:href="#path-1"></use>
            </mask>
            <use id="Mask" fill="#FFFFFF" xlink:href="#path-1"></use>
            <g id="Branding/Patterns/Waves" mask="url(#mask-2)">
                <g transform="translate(0.000000, 31.000000)">
                    <mask id="mask-4" fill="white">
                        <use xlink:href="#path-3"></use>
                    </mask>
                    <use id="mask" stroke="none" fill="#FFFFFF" fill-rule="evenodd" xlink:href="#path-3"></use>
                    <g id="pattern" opacity="0.15" stroke="none" stroke-width="1" fill="none" fill-rule="evenodd" mask="url(#mask-4)">
                        <g transform="translate(30.214067, -954.363636)" stroke="#000000">
                            <path d="M0.922558449,1437.49867 C58.6387928,1316.33434 123.640213,1255.75217 195.92682,1255.75217 C304.35673,1255.75217 349.251317,1401.39712 431.450295,1401.39712 C513.649274,1401.39712 486.315515,1196.32897 499.982394,1087.55592 C513.649274,978.782868 639.131497,889.306531 779.781932,889.306531 C873.548889,889.306531 932.427384,1020.59394 956.417417,1283.16875 L1358.46368,1370.32462" id="Path-4_80" transform="translate(679.693121, 1163.402602) rotate(28440.000000) translate(-679.693121, -1163.402602) "></path>
                            <path d="M0.922558449,1424.85058 C58.4806661,1303.99681 123.304,1243.56992 195.392562,1243.56992 C303.525403,1243.56992 348.296991,1388.84156 430.270767,1388.84156 C512.244543,1388.84156 484.985672,1184.29903 498.615107,1075.80478 C512.244543,967.310538 637.38298,878.063544 777.648071,878.063544 C871.158131,878.063544 929.875316,1009.01444 953.799623,1270.91623 L1354.74439,1357.8487" id="Path-4_79" transform="translate(677.833476, 1151.457061) rotate(28080.000000) translate(-677.833476, -1151.457061) "></path>
                            <path d="M0.922558449,1412.20249 C58.3225394,1291.65928 122.967788,1231.38768 194.858303,1231.38768 C302.694077,1231.38768 347.342666,1376.286 429.091239,1376.286 C510.839812,1376.286 483.655828,1172.26909 497.24782,1064.05365 C510.839812,955.838209 635.634462,866.820557 775.514209,866.820557 C868.767374,866.820557 927.323248,997.434941 951.181829,1258.66371 L1351.0251,1345.37278" id="Path-4_78" transform="translate(675.973830, 1139.511521) rotate(27720.000000) translate(-675.973830, -1139.511521) "></path>
                            <path d="M0.922558449,1399.55439 C58.1644128,1279.32175 122.631575,1219.20543 194.324045,1219.20543 C301.86275,1219.20543 346.388341,1363.73044 427.911711,1363.73044 C509.435082,1363.73044 482.325984,1160.23916 495.880533,1052.30252 C509.435082,944.36588 633.885944,855.57757 773.380348,855.57757 C866.376617,855.57757 924.77118,985.855443 948.564035,1246.41119 L1347.30581,1332.89687" id="Path-4_77" transform="translate(674.114185, 1127.565982) rotate(27360.000000) translate(-674.114185, -1127.565982) "></path>
                            <path d="M0.922558449,1386.9063 C58.0062861,1266.98422 122.295362,1207.02318 193.789787,1207.02318 C301.031424,1207.02318 345.434015,1351.17489 426.732183,1351.17489 C508.030351,1351.17489 480.99614,1148.20922 494.513246,1040.55139 C508.030351,932.893551 632.137427,844.334583 771.246487,844.334583 C863.98586,844.334583 922.219112,974.275946 945.946241,1234.15867 L1343.58652,1320.42096" id="Path-4_76" transform="translate(672.254540, 1115.620444) rotate(27000.000000) translate(-672.254540, -1115.620444) "></path>
                            <path d="M0.922558449,1374.25822 C57.8481594,1254.6467 121.959149,1194.84094 193.255529,1194.84094 C300.200097,1194.84094 344.47969,1338.61933 425.552655,1338.61933 C506.62562,1338.61933 479.666297,1136.17929 493.145958,1028.80026 C506.62562,921.421222 630.388909,833.091596 769.112625,833.091596 C861.595103,833.091596 919.667044,962.696449 943.328447,1221.90615 L1339.86723,1307.94505" id="Path-4_75" transform="translate(670.394894, 1103.674906) rotate(26640.000000) translate(-670.394894, -1103.674906) "></path>
                            <path d="M0.922558449,1361.61013 C57.6900328,1242.30917 121.622937,1182.6587 192.72127,1182.6587 C299.368771,1182.6587 343.525364,1326.06378 424.373127,1326.06378 C505.220889,1326.06378 478.336453,1124.14936 491.778671,1017.04913 C505.220889,909.948893 628.640391,821.848609 766.978764,821.848609 C859.204346,821.848609 917.114976,951.116952 940.710652,1209.65364 L1336.14794,1295.46914" id="Path-4_74" transform="translate(668.535249, 1091.729369) rotate(26280.000000) translate(-668.535249, -1091.729369) "></path>
                            <path d="M0.922558449,1348.96204 C57.5319061,1229.97165 121.286724,1170.47645 192.187012,1170.47645 C298.537444,1170.47645 342.571039,1313.50823 423.193599,1313.50823 C503.816159,1313.50823 477.006609,1112.11943 490.411384,1005.298 C503.816159,898.476565 626.891874,810.605622 764.844903,810.605622 C856.813589,810.605622 914.562908,939.537456 938.092858,1197.40112 L1332.42865,1282.99323" id="Path-4_73" transform="translate(666.675603, 1079.783832) rotate(25920.000000) translate(-666.675603, -1079.783832) "></path>
                            <path d="M0.922558449,1336.31396 C57.3737794,1217.63413 120.950511,1158.29421 191.652754,1158.29421 C297.706118,1158.29421 341.616714,1300.95268 422.014071,1300.95268 C502.411428,1300.95268 475.676765,1100.0895 489.044097,993.546867 C502.411428,887.004237 625.143356,799.362635 762.711042,799.362635 C854.422832,799.362635 912.01084,927.95796 935.475064,1185.14861 L1328.70936,1270.51732" id="Path-4_72" transform="translate(664.815958, 1067.838297) rotate(25560.000000) translate(-664.815958, -1067.838297) "></path>
                            <path d="M0.922558449,1323.66588 C57.2156528,1205.29661 120.614298,1146.11197 191.118496,1146.11197 C296.874791,1146.11197 340.662388,1288.39713 420.834543,1288.39713 C501.006697,1288.39713 474.346922,1088.05957 487.676809,981.795738 C501.006697,875.531909 623.394838,788.119648 760.57718,788.119648 C852.032075,788.119648 909.458772,916.378464 932.85727,1172.8961 L1324.99007,1258.04142" id="Path-4_71" transform="translate(662.956313, 1055.892762) rotate(25200.000000) translate(-662.956313, -1055.892762) "></path>
                            <path d="M0.922558449,1311.0178 C57.0575261,1192.95909 120.278086,1133.92973 190.584237,1133.92973 C296.043465,1133.92973 339.708063,1275.84158 419.655015,1275.84158 C499.601966,1275.84158 473.017078,1076.02964 486.309522,970.04461 C499.601966,864.059582 621.646321,776.876661 758.443319,776.876661 C849.641318,776.876661 906.906703,904.798969 930.239476,1160.64359 L1321.27078,1245.56551" id="Path-4_70" transform="translate(661.096667, 1043.947228) rotate(24840.000000) translate(-661.096667, -1043.947228) "></path>
                            <path d="M0.922558449,1298.36972 C56.8993994,1180.62157 119.941873,1121.7475 190.049979,1121.7475 C295.212138,1121.7475 338.753738,1263.28603 418.475487,1263.28603 C498.197236,1263.28603 471.687234,1063.99971 484.942235,958.293482 C498.197236,852.587254 619.897803,765.633674 756.309458,765.633674 C847.250561,765.633674 904.354635,893.219474 927.621682,1148.39108 L1317.55149,1233.08961" id="Path-4_69" transform="translate(659.237022, 1032.001695) rotate(24480.000000) translate(-659.237022, -1032.001695) "></path>
                            <path d="M0.922558449,1285.72164 C56.7412727,1168.28405 119.60566,1109.56526 189.515721,1109.56526 C294.380812,1109.56526 337.799412,1250.73049 417.295959,1250.73049 C496.792505,1250.73049 470.357391,1051.96978 483.574948,946.542355 C496.792505,841.114927 618.149285,754.390687 754.175596,754.390687 C844.859804,754.390687 901.802567,881.63998 925.003888,1136.13857 L1313.83219,1220.61371" id="Path-4_68" transform="translate(657.377377, 1020.056163) rotate(24120.000000) translate(-657.377377, -1020.056163) "></path>
                            <path d="M0.922558449,1273.07356 C56.5831461,1155.94654 119.269447,1097.38302 188.981463,1097.38302 C293.549485,1097.38302 336.845087,1238.17495 416.116431,1238.17495 C495.387774,1238.17495 469.027547,1039.93986 482.207661,934.791229 C495.387774,829.642601 616.400768,743.1477 752.041735,743.1477 C842.469047,743.1477 899.250499,870.060486 922.386094,1123.88606 L1310.1129,1208.13781" id="Path-4_67" transform="translate(655.517731, 1008.110631) rotate(23760.000000) translate(-655.517731, -1008.110631) "></path>
                            <path d="M0.922558449,1260.42549 C56.4250194,1143.60902 118.933235,1085.20079 188.447204,1085.20079 C292.718159,1085.20079 335.890762,1225.6194 414.936903,1225.6194 C493.983044,1225.6194 467.697703,1027.90993 480.840373,923.040103 C493.983044,818.170274 614.65225,731.904713 749.907874,731.904713 C840.07829,731.904713 896.698431,858.480992 919.768299,1111.63355 L1306.39361,1195.66191" id="Path-4_66" transform="translate(653.658086, 996.165100) rotate(23400.000000) translate(-653.658086, -996.165100) "></path>
                            <path d="M0.922558449,1247.77742 C56.2668927,1131.27151 118.597022,1073.01856 187.912946,1073.01856 C291.886832,1073.01856 334.936436,1213.06386 413.757374,1213.06386 C492.578313,1213.06386 466.367859,1015.88001 479.473086,911.288978 C492.578313,806.697948 612.903733,720.661726 747.774013,720.661726 C837.687533,720.661726 894.146363,846.901499 917.150505,1099.38105 L1302.67432,1183.18601" id="Path-4_65" transform="translate(651.798440, 984.219570) rotate(23040.000000) translate(-651.798440, -984.219570) "></path>
                            <path d="M0.922558449,1235.12934 C56.1087661,1118.934 118.260809,1060.83632 187.378688,1060.83632 C291.055506,1060.83632 333.982111,1200.50833 412.577846,1200.50833 C491.173582,1200.50833 465.038016,1003.85008 478.105799,899.537853 C491.173582,795.225622 611.155215,709.418738 745.640151,709.418738 C835.296775,709.418738 891.594295,835.322006 914.532711,1087.12854 L1298.95503,1170.71012" id="Path-4_64" transform="translate(649.938795, 972.274041) rotate(22680.000000) translate(-649.938795, -972.274041) "></path>
                            <path d="M0.922558449,1222.48127 C55.9506394,1106.59649 117.924596,1048.65409 186.84443,1048.65409 C290.224179,1048.65409 333.027785,1187.95279 411.398318,1187.95279 C489.768851,1187.95279 463.708172,991.820162 476.738512,887.786729 C489.768851,783.753296 609.406697,698.175751 743.50629,698.175751 C832.906018,698.175751 889.042227,823.742514 911.914917,1074.87604 L1295.23574,1158.23422" id="Path-4_63" transform="translate(648.079150, 960.328513) rotate(22320.000000) translate(-648.079150, -960.328513) "></path>
                            <path d="M0.922558449,1209.83321 C55.7925127,1094.25898 117.588384,1036.47186 186.310171,1036.47186 C289.392853,1036.47186 332.07346,1175.39725 410.21879,1175.39725 C488.364121,1175.39725 462.378328,979.79024 475.371224,876.035605 C488.364121,772.280971 607.65818,686.932764 741.372429,686.932764 C830.515261,686.932764 886.490159,812.163022 909.297123,1062.62354 L1291.51645,1145.75833" id="Path-4_62" transform="translate(646.219504, 948.382986) rotate(21960.000000) translate(-646.219504, -948.382986) "></path>
                            <path d="M0.922558449,1197.18514 C55.6343861,1081.92147 117.252171,1024.28963 185.775913,1024.28963 C288.561526,1024.28963 331.119135,1162.84172 409.039262,1162.84172 C486.95939,1162.84172 461.048485,967.760319 474.003937,864.284483 C486.95939,760.808646 605.909662,675.689777 739.238567,675.689777 C828.124504,675.689777 883.938091,800.58353 906.679329,1050.37103 L1287.79716,1133.28244" id="Path-4_61" transform="translate(644.359859, 936.437459) rotate(21600.000000) translate(-644.359859, -936.437459) "></path>
                            <path d="M0.922558449,1184.53708 C55.4762594,1069.58396 116.915958,1012.10741 185.241655,1012.10741 C287.7302,1012.10741 330.164809,1150.28619 407.859734,1150.28619 C485.554659,1150.28619 459.718641,955.7304 472.63665,852.53336 C485.554659,749.336321 604.161144,664.44679 737.104706,664.44679 C825.733747,664.44679 881.386023,789.004039 904.061535,1038.11854 L1284.07787,1120.80655" id="Path-4_60" transform="translate(642.500214, 924.491933) rotate(21240.000000) translate(-642.500214, -924.491933) "></path>
                            <path d="M0.922558449,1171.88901 C55.3181327,1057.24646 116.579745,999.925178 184.707397,999.925178 C286.898873,999.925178 329.210484,1137.73066 406.680206,1137.73066 C484.149928,1137.73066 458.388797,943.700481 471.269363,840.782239 C484.149928,737.863996 602.412627,653.203803 734.970845,653.203803 C823.34299,653.203803 878.833955,777.424548 901.44374,1025.86604 L1280.35858,1108.33066" id="Path-4_59" transform="translate(640.640568, 912.546408) rotate(20880.000000) translate(-640.640568, -912.546408) "></path>
                            <path d="M0.922558449,1159.24095 C55.1600061,1044.90895 116.243533,987.742953 184.173138,987.742953 C286.067547,987.742953 328.256159,1125.17513 405.500678,1125.17513 C482.745198,1125.17513 457.058953,931.670563 469.902076,829.031118 C482.745198,726.391672 600.664109,641.960816 732.836983,641.960816 C820.952233,641.960816 876.281887,765.845057 898.825946,1013.61354 L1276.63929,1095.85477" id="Path-4_58" transform="translate(638.780923, 900.600884) rotate(20520.000000) translate(-638.780923, -900.600884) "></path>
                            <path d="M0.922558449,1146.59289 C55.0018794,1032.57145 115.90732,975.560728 183.63888,975.560728 C285.23622,975.560728 327.301833,1112.6196 404.32115,1112.6196 C481.340467,1112.6196 455.72911,919.640647 468.534788,817.279997 C481.340467,714.919348 598.915591,630.717829 730.703122,630.717829 C818.561476,630.717829 873.729819,754.265567 896.208152,1001.36104 L1272.92,1083.37889" id="Path-4_57" transform="translate(636.921277, 888.655361) rotate(20160.000000) translate(-636.921277, -888.655361) "></path>
                            <path d="M0.922558449,1133.94484 C54.8437527,1020.23395 115.571107,963.378505 183.104622,963.378505 C284.404894,963.378505 326.347508,1100.06408 403.141622,1100.06408 C479.935736,1100.06408 454.399266,907.610731 467.167501,805.528878 C479.935736,703.447024 597.167074,619.474842 728.569261,619.474842 C816.170719,619.474842 871.177751,742.686078 893.590358,989.108549 L1269.20071,1070.903" id="Path-4_56" transform="translate(635.061632, 876.709839) rotate(19800.000000) translate(-635.061632, -876.709839) "></path>
                            <path d="M0.922558449,1121.29678 C54.685626,1007.89645 115.234894,951.196283 182.570364,951.196283 C283.573567,951.196283 325.393182,1087.50855 401.962094,1087.50855 C478.531006,1087.50855 453.069422,895.580816 465.800214,793.777759 C478.531006,691.974701 595.418556,608.231855 726.4354,608.231855 C813.779962,608.231855 868.625683,731.106589 890.972564,976.856056 L1265.48141,1058.42712" id="Path-4_55" transform="translate(633.201987, 864.764318) rotate(19440.000000) translate(-633.201987, -864.764318) "></path>
                            <path d="M0.922558449,1108.64873 C54.5274994,995.55895 114.898682,939.014062 182.036105,939.014062 C282.742241,939.014062 324.438857,1074.95303 400.782566,1074.95303 C477.126275,1074.95303 451.739579,883.550902 464.432927,782.02664 C477.126275,680.502378 593.670038,596.988868 724.301538,596.988868 C811.389205,596.988868 866.073615,719.5271 888.35477,964.603564 L1261.76212,1045.95124" id="Path-4_54" transform="translate(631.342341, 852.818797) rotate(19080.000000) translate(-631.342341, -852.818797) "></path>
                            <path d="M0.922558449,1096.00067 C54.3693727,983.221453 114.562469,926.831843 181.501847,926.831843 C281.910914,926.831843 323.484532,1062.39751 399.603038,1062.39751 C475.721544,1062.39751 450.409735,871.52099 463.065639,770.275522 C475.721544,669.030055 591.921521,585.745881 722.167677,585.745881 C808.998448,585.745881 863.521547,707.947612 885.736976,952.351073 L1258.04283,1033.47536" id="Path-4_53" transform="translate(629.482696, 840.873278) rotate(18720.000000) translate(-629.482696, -840.873278) "></path>
                            <path d="M0.922558449,1083.35262 C54.211246,970.883958 114.226256,914.649624 180.967589,914.649624 C281.079588,914.649624 322.530206,1049.84199 398.42351,1049.84199 C474.316813,1049.84199 449.079891,859.491078 461.698352,758.524405 C474.316813,657.557733 590.173003,574.502894 720.033816,574.502894 C806.607691,574.502894 860.969479,696.368124 883.119181,940.098583 L1254.32354,1020.99949" id="Path-4_52" transform="translate(627.623051, 828.927759) rotate(18360.000000) translate(-627.623051, -828.927759) "></path>
                            <path d="M0.922558449,1070.70458 C54.0531194,958.546463 113.890043,902.467407 180.433331,902.467407 C280.248261,902.467407 321.575881,1037.28647 397.243982,1037.28647 C472.912083,1037.28647 447.750047,847.461167 460.331065,746.773289 C472.912083,646.08541 588.424486,563.259907 717.899954,563.259907 C804.216934,563.259907 858.417411,684.788636 880.501387,927.846095 L1250.60425,1008.52361" id="Path-4_51" transform="translate(625.763405, 816.982242) rotate(18000.000000) translate(-625.763405, -816.982242) "></path>
                            <path d="M0.922558449,1058.05653 C53.8949927,946.208971 113.553831,890.285191 179.899072,890.285191 C279.416935,890.285191 320.621556,1024.73096 396.064454,1024.73096 C471.507352,1024.73096 446.420204,835.431258 458.963778,735.022173 C471.507352,634.613088 586.675968,552.01692 715.766093,552.01692 C801.826176,552.01692 855.865343,673.209149 877.883593,915.593609 L1246.88496,996.047736" id="Path-4_50" transform="translate(623.903760, 805.036725) rotate(17640.000000) translate(-623.903760, -805.036725) "></path>
                            <path d="M0.922558449,1045.40849 C53.736866,933.871479 113.217618,878.102977 179.364814,878.102977 C278.585608,878.102977 319.66723,1012.17544 394.884926,1012.17544 C470.102621,1012.17544 445.09036,823.401349 457.596491,723.271058 C470.102621,623.140767 584.92745,540.773933 713.632232,540.773933 C799.435419,540.773933 853.313275,661.629663 875.265799,903.341123 L1243.16567,983.571863" id="Path-4_49" transform="translate(622.044114, 793.091209) rotate(17280.000000) translate(-622.044114, -793.091209) "></path>
                            <path d="M0.922558449,1032.76044 C53.5787394,921.53399 112.881405,865.920763 178.830556,865.920763 C277.754282,865.920763 318.712905,999.619932 393.705398,999.619932 C468.69789,999.619932 443.760516,811.371442 456.229203,711.519944 C468.69789,611.668446 583.178933,529.530946 711.49837,529.530946 C797.044662,529.530946 850.761207,650.050177 872.648005,891.088639 L1239.44638,971.095992" id="Path-4_48" transform="translate(620.184469, 781.145694) rotate(16920.000000) translate(-620.184469, -781.145694) "></path>
                            <path d="M0.922558449,1020.1124 C53.4206127,909.196501 112.545192,853.738551 178.296298,853.738551 C276.922955,853.738551 317.75858,987.064422 392.52587,987.064422 C467.29316,987.064422 442.430673,799.341535 454.861916,699.76883 C467.29316,600.196125 581.430415,518.287959 709.364509,518.287959 C794.653905,518.287959 848.209139,638.470691 870.030211,878.836157 L1235.72709,958.620123" id="Path-4_47" transform="translate(618.324824, 769.200180) rotate(16560.000000) translate(-618.324824, -769.200180) "></path>
                            <path d="M0.922558449,1007.46436 C53.262486,896.859015 112.20898,841.55634 177.762039,841.55634 C276.091629,841.55634 316.804254,974.508914 391.346342,974.508914 C465.888429,974.508914 441.100829,787.31163 453.494629,688.017717 C465.888429,588.723804 579.681897,507.044971 707.230648,507.044971 C792.263148,507.044971 845.657071,626.891206 867.412417,866.583675 L1232.0078,946.144256" id="Path-4_46" transform="translate(616.465178, 757.254667) rotate(16200.000000) translate(-616.465178, -757.254667) "></path>
                            <path d="M0.922558449,994.816326 C53.1043593,884.521529 111.872767,829.374131 177.227781,829.374131 C275.260302,829.374131 315.849929,961.953408 390.166814,961.953408 C464.483698,961.953408 439.770985,775.281726 452.127342,676.266605 C464.483698,577.251484 577.93338,495.801984 705.096787,495.801984 C789.872391,495.801984 843.105003,615.311721 864.794623,854.331195 L1228.28851,933.66839" id="Path-4_45" transform="translate(614.605533, 745.309155) rotate(15840.000000) translate(-614.605533, -745.309155) "></path>
                            <path d="M0.922558449,982.168291 C52.9462327,872.184046 111.536554,817.191923 176.693523,817.191923 C274.428976,817.191923 314.895603,949.397903 388.987286,949.397903 C463.078968,949.397903 438.441141,763.251823 450.760054,664.515493 C463.078968,565.779164 576.184862,484.558997 702.962925,484.558997 C787.481634,484.558997 840.552935,603.732237 862.176828,842.078717 L1224.56922,921.192527" id="Path-4_44" transform="translate(612.745888, 733.363644) rotate(15480.000000) translate(-612.745888, -733.363644) "></path>
                            <path d="M0.922558449,969.520259 C52.788106,859.846563 111.200341,805.009716 176.159265,805.009716 C273.597649,805.009716 313.941278,936.842401 387.807757,936.842401 C461.674237,936.842401 437.111298,751.221921 449.392767,652.764382 C461.674237,554.306844 574.436344,473.31601 700.829064,473.31601 C785.090877,473.31601 838.000867,592.152754 859.559034,829.82624 L1220.84993,908.716664" id="Path-4_43" transform="translate(610.886242, 721.418134) rotate(15120.000000) translate(-610.886242, -721.418134) "></path>
                            <path d="M0.922558449,956.872228 C52.6299793,847.509083 110.864129,792.82751 175.625006,792.82751 C272.766323,792.82751 312.986953,924.2869 386.628229,924.2869 C460.269506,924.2869 435.781454,739.19202 448.02548,641.013272 C460.269506,542.834524 572.687827,462.073023 698.695203,462.073023 C782.70012,462.073023 835.448799,580.57327 856.94124,817.573764 L1217.13064,896.240804" id="Path-4_42" transform="translate(609.026597, 709.472626) rotate(14760.000000) translate(-609.026597, -709.472626) "></path>
                            <path d="M0.922558449,944.224199 C52.4718527,835.171604 110.527916,780.645306 175.090748,780.645306 C271.934996,780.645306 312.032627,911.731401 385.448701,911.731401 C458.864775,911.731401 434.45161,727.16212 446.658193,629.262163 C458.864775,531.362205 570.939309,450.830036 696.561341,450.830036 C780.309363,450.830036 832.896731,568.993788 854.323446,805.32129 L1213.41134,883.764945" id="Path-4_41" transform="translate(607.166951, 697.527118) rotate(14400.000000) translate(-607.166951, -697.527118) "></path>
                            <path d="M0.922558449,931.576172 C52.313726,822.834126 110.191703,768.463103 174.55649,768.463103 C271.10367,768.463103 311.078302,899.175904 384.269173,899.175904 C457.460045,899.175904 433.121767,715.132222 445.290906,617.511054 C457.460045,519.889887 569.190792,439.587049 694.42748,439.587049 C777.918606,439.587049 830.344663,557.414305 851.705652,793.068818 L1209.69205,871.289089" id="Path-4_40" transform="translate(605.307306, 685.581611) rotate(14040.000000) translate(-605.307306, -685.581611) "></path>
                            <path d="M0.922558449,918.928147 C52.1555993,810.49665 109.85549,756.280902 174.022232,756.280902 C270.272343,756.280902 310.123977,886.620409 383.089645,886.620409 C456.055314,886.620409 431.791923,703.102324 443.923618,605.759946 C456.055314,508.417568 567.442274,428.344062 692.293619,428.344062 C775.527849,428.344062 827.792595,545.834824 849.087858,780.816346 L1205.97276,858.813234" id="Path-4_39" transform="translate(603.447661, 673.636105) rotate(13680.000000) translate(-603.447661, -673.636105) "></path>
                            <path d="M0.922558449,906.280125 C51.9974727,798.159176 109.519278,744.098702 173.487973,744.098702 C269.441017,744.098702 309.169651,874.064916 381.910117,874.064916 C454.650583,874.064916 430.462079,691.072428 442.556331,594.008839 C454.650583,496.94525 565.693756,417.101075 690.159757,417.101075 C773.137092,417.101075 825.240527,534.255342 846.470064,768.563877 L1202.25347,846.33738" id="Path-4_38" transform="translate(601.588015, 661.690600) rotate(13320.000000) translate(-601.588015, -661.690600) "></path>
                            <path d="M0.922558449,893.632104 C51.839346,785.821704 109.183065,731.916503 172.953715,731.916503 C268.60969,731.916503 308.215326,861.509425 380.730589,861.509425 C453.245852,861.509425 429.132235,679.042533 441.189044,582.257733 C453.245852,485.472933 563.945239,405.858088 688.025896,405.858088 C770.746335,405.858088 822.688459,522.675862 843.852269,756.311409 L1198.53418,833.861529" id="Path-4_37" transform="translate(599.728370, 649.745096) rotate(12960.000000) translate(-599.728370, -649.745096) "></path>
                            <path d="M0.922558449,880.984086 C51.6812193,773.484233 108.846852,719.734306 172.419457,719.734306 C267.778364,719.734306 307.261001,848.953936 379.551061,848.953936 C451.841122,848.953936 427.802392,667.012639 439.821757,570.506627 C451.841122,474.000615 562.196721,394.615101 685.892035,394.615101 C768.355578,394.615101 820.136391,511.096381 841.234475,744.058942 L1194.81489,821.38568" id="Path-4_36" transform="translate(597.868725, 637.799593) rotate(12600.000000) translate(-597.868725, -637.799593) "></path>
                            <path d="M0.922558449,868.33607 C51.5230927,761.146763 108.510639,707.55211 171.885199,707.55211 C266.947037,707.55211 306.306675,836.398449 378.371533,836.398449 C450.436391,836.398449 426.472548,654.982746 438.454469,558.755522 C450.436391,462.528298 560.448203,383.372114 683.758174,383.372114 C765.96482,383.372114 817.584323,499.516902 838.616681,731.806477 L1191.0956,808.909832" id="Path-4_35" transform="translate(596.009079, 625.854092) rotate(12240.000000) translate(-596.009079, -625.854092) "></path>
                            <path d="M0.922558449,855.688056 C51.364966,748.809296 108.174427,695.369916 171.35094,695.369916 C266.115711,695.369916 305.35235,823.842963 377.192005,823.842963 C449.03166,823.842963 425.142704,642.952855 437.087182,547.004418 C449.03166,451.055982 558.699686,372.129127 681.624312,372.129127 C763.574063,372.129127 815.032255,487.937422 835.998887,719.554013 L1187.37631,796.433986" id="Path-4_34" transform="translate(594.149434, 613.908591) rotate(11880.000000) translate(-594.149434, -613.908591) "></path>
                            <path d="M0.922558449,843.040044 C51.2068393,736.47183 107.838214,683.187723 170.816682,683.187723 C265.284384,683.187723 304.398024,811.28748 376.012477,811.28748 C447.62693,811.28748 423.812861,630.922965 435.719895,535.253315 C447.62693,439.583665 556.951168,360.88614 679.490451,360.88614 C761.183306,360.88614 812.480187,476.357944 833.381093,707.301552 L1183.65702,783.958143" id="Path-4_33" transform="translate(592.289788, 601.963092) rotate(11520.000000) translate(-592.289788, -601.963092) "></path>
                            <path d="M0.922558449,830.392034 C51.0487126,724.134366 107.502001,671.005532 170.282424,671.005532 C264.453058,671.005532 303.443699,798.731999 374.832949,798.731999 C446.222199,798.731999 422.483017,618.893076 434.352608,523.502213 C446.222199,428.111349 555.20265,349.643153 677.35659,349.643153 C758.792549,349.643153 809.928119,464.778466 830.763299,695.049091 L1179.93773,771.482301" id="Path-4_32" transform="translate(590.430143, 590.017593) rotate(11160.000000) translate(-590.430143, -590.017593) "></path>
                            <path d="M0.922558449,817.744026 C50.890586,711.796903 107.165788,658.823342 169.748166,658.823342 C263.621731,658.823342 302.489374,786.17652 373.653421,786.17652 C444.817468,786.17652 421.153173,606.863188 432.985321,511.751111 C444.817468,416.639034 553.454133,338.400166 675.222728,338.400166 C756.401792,338.400166 807.376051,453.198988 828.145505,682.796632 L1176.21844,759.006461" id="Path-4_31" transform="translate(588.570498, 578.072096) rotate(10800.000000) translate(-588.570498, -578.072096) "></path>
                            <path d="M0.922558449,805.096021 C50.7324593,699.459443 106.829576,646.641154 169.213907,646.641154 C262.790405,646.641154 301.535048,773.621044 372.473893,773.621044 C443.412737,773.621044 419.823329,594.833301 431.618033,500.00001 C443.412737,405.166719 551.705615,327.157179 673.088867,327.157179 C754.011035,327.157179 804.823983,441.619511 825.527711,670.544175 L1172.49915,746.530623" id="Path-4_30" transform="translate(586.710852, 566.126600) rotate(10440.000000) translate(-586.710852, -566.126600) "></path>
                            <path d="M0.922558449,792.448018 C50.5743326,687.121984 106.493363,634.458967 168.679649,634.458967 C261.959078,634.458967 300.580723,761.065569 371.294365,761.065569 C442.008007,761.065569 418.493486,582.803416 430.250746,488.24891 C442.008007,393.694404 549.957097,315.914192 670.955006,315.914192 C751.620278,315.914192 802.271915,430.040034 822.909916,658.29172 L1168.77986,734.054787" id="Path-4_29" transform="translate(584.851207, 554.181105) rotate(10080.000000) translate(-584.851207, -554.181105) "></path>
                            <path d="M0.922558449,779.800018 C50.416206,674.784527 106.15715,622.276781 168.145391,622.276781 C261.127752,622.276781 299.626398,748.510096 370.114837,748.510096 C440.603276,748.510096 417.163642,570.773532 428.883459,476.497811 C440.603276,382.222089 548.20858,304.671204 668.821145,304.671204 C749.229521,304.671204 799.719847,418.460558 820.292122,646.039266 L1165.06056,721.578953" id="Path-4_28" transform="translate(582.991561, 542.235611) rotate(9720.000000) translate(-582.991561, -542.235611) "></path>
                            <path d="M0.922558449,767.152019 C50.2580793,662.447072 105.820937,610.094598 167.611133,610.094598 C260.296425,610.094598 298.672072,735.954626 368.935309,735.954626 C439.198545,735.954626 415.833798,558.743649 427.516172,464.746712 C439.198545,370.749775 546.460062,293.428217 666.687283,293.428217 C746.838764,293.428217 797.167779,406.881083 817.674328,633.786814 L1161.34127,709.103121" id="Path-4_27" transform="translate(581.131916, 530.290118) rotate(9360.000000) translate(-581.131916, -530.290118) "></path>
                            <path d="M0.922558449,754.504023 C50.0999526,650.109618 105.484725,597.912415 167.076874,597.912415 C259.465099,597.912415 297.717747,723.399158 367.755781,723.399158 C437.793814,723.399158 414.503954,546.713768 426.148884,452.995615 C437.793814,359.277462 544.711545,282.18523 664.553422,282.18523 C744.448007,282.18523 794.615711,395.301608 815.056534,621.534363 L1157.62198,696.627291" id="Path-4_26" transform="translate(579.272271, 518.344627) rotate(9000.000000) translate(-579.272271, -518.344627) "></path>
                            <path d="M0.922558449,741.85603 C49.941826,637.772166 105.148512,585.730235 166.542616,585.730235 C258.633772,585.730235 296.763422,710.843692 366.576253,710.843692 C436.389084,710.843692 413.174111,534.683888 424.781597,441.244518 C436.389084,347.805148 542.963027,270.942243 662.419561,270.942243 C742.05725,270.942243 792.063643,383.722134 812.43874,609.281914 L1153.90269,684.151464" id="Path-4_25" transform="translate(577.412625, 506.399136) rotate(8640.000000) translate(-577.412625, -506.399136) "></path>
                            <path d="M0.922558449,729.208038 C49.7836993,625.434717 104.812299,573.548056 166.008358,573.548056 C257.802446,573.548056 295.809096,698.288228 365.396725,698.288228 C434.984353,698.288228 411.844267,522.654009 423.41431,429.493422 C434.984353,336.332836 541.214509,259.699256 660.285699,259.699256 C739.666493,259.699256 789.511575,372.14266 809.820946,597.029467 L1150.1834,671.675638" id="Path-4_24" transform="translate(575.552980, 494.453647) rotate(8280.000000) translate(-575.552980, -494.453647) "></path>
                            <path d="M0.922558449,716.560049 C49.6255726,613.097269 104.476086,561.365878 165.4741,561.365878 C256.971119,561.365878 294.854771,685.732766 364.217197,685.732766 C433.579622,685.732766 410.514423,510.624132 422.047023,417.742328 C433.579622,324.860523 539.465992,248.456269 658.151838,248.456269 C737.275736,248.456269 786.959507,360.563187 807.203152,584.777022 L1146.46411,659.199814" id="Path-4_23" transform="translate(573.693335, 482.508159) rotate(7920.000000) translate(-573.693335, -482.508159) "></path>
                            <path d="M0.922558449,703.912063 C49.467446,600.759823 104.139874,549.183703 164.939841,549.183703 C256.139793,549.183703 293.900445,673.177307 363.037669,673.177307 C432.174892,673.177307 409.18458,498.594256 420.679736,405.991233 C432.174892,313.388211 537.717474,237.213282 656.017977,237.213282 C734.884979,237.213282 784.407439,348.983714 804.585357,572.524578 L1142.74482,646.723993" id="Path-4_22" transform="translate(571.833689, 470.562673) rotate(7560.000000) translate(-571.833689, -470.562673) "></path>
                            <path d="M0.922558449,691.264079 C49.3093193,588.422379 103.803661,537.001528 164.405583,537.001528 C255.308466,537.001528 292.94612,660.62185 361.85814,660.62185 C430.770161,660.62185 407.854736,486.564381 419.312448,394.24014 C430.770161,301.915899 535.968956,225.970295 653.884115,225.970295 C732.494221,225.970295 781.855371,337.404242 801.967563,560.272136 L1139.02553,634.248174" id="Path-4_21" transform="translate(569.974044, 458.617187) rotate(7200.000000) translate(-569.974044, -458.617187) "></path>
                            <path d="M0.922558449,678.616098 C49.1511926,576.084936 103.467448,524.819356 163.871325,524.819356 C254.47714,524.819356 291.991795,648.066395 360.678612,648.066395 C429.36543,648.066395 406.524892,474.534508 417.945161,382.489048 C429.36543,290.443588 534.220439,214.727308 651.750254,214.727308 C730.103464,214.727308 779.303303,325.824771 799.349769,548.019696 L1135.30624,621.772357" id="Path-4_20" transform="translate(568.114398, 446.671703) rotate(6840.000000) translate(-568.114398, -446.671703) "></path>
                            <path d="M0.922558449,665.968119 C48.9930659,563.747496 103.131235,512.637185 163.337067,512.637185 C253.645813,512.637185 291.037469,635.510943 359.499084,635.510943 C427.960699,635.510943 405.195048,462.504636 416.577874,370.737957 C427.960699,278.971277 532.471921,203.484321 649.616393,203.484321 C727.712707,203.484321 776.751235,314.2453 796.731975,535.767258 L1131.58695,609.296542" id="Path-4_19" transform="translate(566.254753, 434.726220) rotate(6480.000000) translate(-566.254753, -434.726220) "></path>
                            <path d="M0.922558449,653.320142 C48.8349393,551.410058 102.795023,500.455016 162.802808,500.455016 C252.814487,500.455016 290.083144,622.955493 358.319556,622.955493 C426.555969,622.955493 403.865205,450.474766 415.210587,358.986866 C426.555969,267.498966 530.723403,192.241334 647.482532,192.241334 C725.32195,192.241334 774.199167,302.66583 794.114181,523.514821 L1127.86766,596.820729" id="Path-4_18" transform="translate(564.395108, 422.780738) rotate(6120.000000) translate(-564.395108, -422.780738) "></path>
                            <path d="M0.922558449,640.672168 C48.6768126,539.072622 102.45881,488.272848 162.26855,488.272848 C251.98316,488.272848 289.128819,610.400046 357.140028,610.400046 C425.151238,610.400046 402.535361,438.444897 413.843299,347.235777 C425.151238,256.026656 528.974886,180.998347 645.34867,180.998347 C722.931193,180.998347 771.647099,291.08636 791.496387,511.262387 L1124.14837,584.344919" id="Path-4_17" transform="translate(562.535462, 410.835258) rotate(5760.000000) translate(-562.535462, -410.835258) "></path>
                            <path d="M0.922558449,628.024197 C48.5186859,526.735187 102.122597,476.090683 161.734292,476.090683 C251.151834,476.090683 288.174493,597.8446 355.9605,597.8446 C423.746507,597.8446 401.205517,426.415029 412.476012,335.484688 C423.746507,244.554347 527.226368,169.75536 643.214809,169.75536 C720.540436,169.75536 769.095031,279.506891 788.878593,499.009954 L1120.42908,571.86911" id="Path-4_16" transform="translate(560.675817, 398.889778) rotate(5400.000000) translate(-560.675817, -398.889778) "></path>
                            <path d="M0.922558449,615.376228 C48.3605593,514.397755 101.786384,463.908519 161.200034,463.908519 C250.320507,463.908519 287.220168,585.289158 354.780972,585.289158 C422.341776,585.289158 399.875674,414.385163 411.108725,323.7336 C422.341776,233.082038 525.477851,158.512373 641.080948,158.512373 C718.149679,158.512373 766.542963,267.927423 786.260799,486.757523 L1116.70978,559.393305" id="Path-4_15" transform="translate(558.816172, 386.944300) rotate(5040.000000) translate(-558.816172, -386.944300) "></path>
                            <path d="M0.922558449,602.728262 C48.2024326,502.060325 101.450172,451.726356 160.665775,451.726356 C249.489181,451.726356 286.265843,572.733717 353.601444,572.733717 C420.937046,572.733717 398.54583,402.355299 409.741438,311.982514 C420.937046,221.609729 523.729333,147.269386 638.947086,147.269386 C715.758922,147.269386 763.990895,256.347955 783.643004,474.505094 L1112.99049,546.917501" id="Path-4_14" transform="translate(556.956526, 374.998824) rotate(4680.000000) translate(-556.956526, -374.998824) "></path>
                            <path d="M0.922558449,590.080298 C48.0443059,489.722897 101.113959,439.544196 160.131517,439.544196 C248.657854,439.544196 285.311517,560.17828 352.421916,560.17828 C419.532315,560.17828 397.215986,390.325436 408.374151,300.231428 C419.532315,210.13742 521.980815,136.026399 636.813225,136.026399 C713.368165,136.026399 761.438827,244.768488 781.02521,462.252667 L1109.2712,534.4417" id="Path-4_13" transform="translate(555.096881, 363.053349) rotate(4320.000000) translate(-555.096881, -363.053349) "></path>
                            <path d="M0.922558449,577.432338 C47.8861793,477.385471 100.777746,427.362037 159.597259,427.362037 C247.826528,427.362037 284.357192,547.622844 351.242388,547.622844 C418.127584,547.622844 395.886142,378.295574 407.006863,288.480343 C418.127584,198.665112 520.232298,124.783412 634.679364,124.783412 C710.977408,124.783412 758.886759,233.189022 778.407416,450.000241 L1105.55191,521.965901" id="Path-4_12" transform="translate(553.237235, 351.107875) rotate(3960.000000) translate(-553.237235, -351.107875) "></path>
                            <path d="M0.922558449,564.78438 C47.7280526,465.048047 100.441533,415.17988 159.063001,415.17988 C246.995201,415.17988 283.402866,535.067411 350.06286,535.067411 C416.722854,535.067411 394.556299,366.265714 405.639576,276.729259 C416.722854,187.192805 518.48378,113.540425 632.545502,113.540425 C708.586651,113.540425 756.334691,221.609556 775.789622,437.747818 L1101.83262,509.490104" id="Path-4_11" transform="translate(551.377590, 339.162402) rotate(3600.000000) translate(-551.377590, -339.162402) "></path>
                            <path d="M0.922558449,552.136424 C47.5699259,452.710625 100.105321,402.997725 158.528742,402.997725 C246.163875,402.997725 282.448541,522.511981 348.883332,522.511981 C415.318123,522.511981 393.226455,354.235855 404.272289,264.978177 C415.318123,175.720498 516.735262,102.297437 630.411641,102.297437 C706.195894,102.297437 753.782623,210.030091 773.171828,425.495397 L1098.11333,497.01431" id="Path-4_10" transform="translate(549.517945, 327.216931) rotate(3240.000000) translate(-549.517945, -327.216931) "></path>
                            <path d="M0.922558449,539.488472 C47.4117993,440.373205 99.7691078,390.815572 157.994484,390.815572 C245.332548,390.815572 281.494216,509.956554 347.703804,509.956554 C413.913392,509.956554 391.896611,342.205998 402.905002,253.227095 C413.913392,164.248191 514.986745,91.0544504 628.27778,91.0544504 C703.805137,91.0544504 751.230555,198.450626 770.554034,413.242978 L1094.39404,484.538518" id="Path-4_9" transform="translate(547.658299, 315.271461) rotate(2880.000000) translate(-547.658299, -315.271461) "></path>
                            <path d="M0.922558449,526.840522 C47.2536726,428.035788 99.432895,378.633421 157.460226,378.633421 C244.501222,378.633421 280.53989,497.401129 346.524276,497.401129 C412.508661,497.401129 390.566768,330.176143 401.537714,241.476014 C412.508661,152.775885 513.238227,79.8114634 626.143919,79.8114634 C701.41438,79.8114634 748.678487,186.871162 767.93624,400.99056 L1090.67475,472.062729" id="Path-4_8" transform="translate(545.798654, 303.325993) rotate(2520.000000) translate(-545.798654, -303.325993) "></path>
                            <path d="M0.922558449,514.192575 C47.0955459,415.698373 99.0966823,366.451272 156.925968,366.451272 C243.669895,366.451272 279.585565,484.845706 345.344748,484.845706 C411.103931,484.845706 389.236924,318.146289 400.170427,229.724934 C411.103931,141.303579 511.489709,68.5684763 624.010057,68.5684763 C699.023623,68.5684763 746.126419,175.291699 765.318445,388.738145 L1086.95546,459.586942" id="Path-4_7" transform="translate(543.939009, 291.380526) rotate(2160.000000) translate(-543.939009, -291.380526) "></path>
                            <path d="M0.922558449,501.544631 C46.9374192,403.36096 98.7604695,354.269124 156.391709,354.269124 C242.838569,354.269124 278.63124,472.290286 344.16522,472.290286 C409.6992,472.290286 387.90708,306.116437 398.80314,217.973855 C409.6992,129.831274 509.741192,57.3254893 621.876196,57.3254893 C696.632865,57.3254893 743.574351,163.712237 762.700651,376.485732 L1083.23617,447.111158" id="Path-4_6" transform="translate(542.079363, 279.435060) rotate(1800.000000) translate(-542.079363, -279.435060) "></path>
                            <path d="M0.922558449,488.89669 C46.7792926,391.023549 98.4242568,342.086978 155.857451,342.086978 C242.007242,342.086978 277.676914,459.734869 342.985692,459.734869 C408.294469,459.734869 386.577236,294.086586 397.435853,206.222778 C408.294469,118.35897 507.992674,46.0825022 619.742335,46.0825022 C694.242108,46.0825022 741.022283,152.132775 760.082857,364.233321 L1079.51688,434.635376" id="Path-4_5" transform="translate(540.219718, 267.489596) rotate(1440.000000) translate(-540.219718, -267.489596) "></path>
                            <path d="M0.922558449,476.248751 C46.6211659,378.68614 98.088044,329.904835 155.323193,329.904835 C241.175916,329.904835 276.722589,447.179455 341.806164,447.179455 C406.889738,447.179455 385.247393,282.056737 396.068566,194.471701 C406.889738,106.886665 506.244156,34.8395152 617.608473,34.8395152 C691.851351,34.8395152 738.470215,140.553314 757.465063,351.980911 L1075.79759,422.159597" id="Path-4_4" transform="translate(538.360072, 255.544133) rotate(1080.000000) translate(-538.360072, -255.544133) "></path>
                            <path d="M0.922558449,463.600816 C46.4630392,366.348734 97.7518313,317.722693 154.788935,317.722693 C240.344589,317.722693 275.768264,434.624043 340.626636,434.624043 C405.485008,434.624043 383.917549,270.02689 394.701278,182.720626 C405.485008,95.4143615 504.495639,23.5965281 615.474612,23.5965281 C689.460594,23.5965281 735.918147,128.973854 754.847269,339.728504 L1072.0783,409.683821" id="Path-4_3" transform="translate(536.500427, 243.598672) rotate(720.000000) translate(-536.500427, -243.598672) "></path>
                            <path d="M0.984304487,450.90197 C46.3666586,353.97167 97.4773646,305.50652 154.316422,305.50652 C239.575009,305.50652 274.875684,422.021074 339.508854,422.021074 C404.142023,422.021074 382.649451,257.968529 393.395737,170.951139 C404.142023,83.9337481 502.808867,12.3535411 613.402497,12.3535411 C687.131583,12.3535411 733.427825,117.382201 752.291221,327.43952 L1068.42075,397.163372" id="Path-4_2" transform="translate(534.702528, 231.627756) rotate(360.000000) translate(-534.702528, -231.627756) "></path>
                            <path d="M2.78220383,439.080367 C48.0116816,342.277955 98.9502145,293.87675 155.597802,293.87675 C240.569184,293.87675 275.750945,410.237576 340.166389,410.237576 C404.581833,410.237576 383.161662,246.40148 393.871748,159.498899 C404.581833,72.5963188 502.916305,1.110554 613.137386,1.110554 C686.618106,1.110554 732.758393,106.00064 751.558245,315.780811 L1066.62285,385.412671" id="Path-4_1"></path>
                        </g>
                    </g>
                    <g id="Branding/一-Atoms/Gradient" stroke="none" fill="none" mask="url(#mask-4)">
                        <mask id="mask-6" fill="white">
                            <use xlink:href="#path-5"></use>
                        </mask>
                        <g id="Rectangle"></g>
                        <polygon id="Gradient" fill="url(#linearGradient-7)" fill-rule="evenodd" mask="url(#mask-6)" points="126.952647 -82.6060606 849.480122 149.393939 375.867685 555.393939 -5.2293578 294.363045"></polygon>
                        <polygon id="Rectangle" fill="#FFFFFF" fill-rule="evenodd" mask="url(#mask-6)" points="-55.8423257 -7.03030303 101.055642 -4.36579591 18.9869063 253.090909 -55.8423257 253.090909"></polygon>
                        <rect id="top-→-bottom-Gradient" fill="url(#linearGradient-8)" fill-rule="evenodd" mask="url(#mask-6)" x="-26.7278287" y="-22.8484848" width="406.727829" height="275.939394"></rect>
                    </g>
                </g>
            </g>
        </g>
    </g>
</svg>